M48
; DRILL file KiCad 10.0.1 date 2026-06-17T19:46:01
; FORMAT={-:-/ absolute / metric / decimal}
; #@! TF.CreationDate,2026-06-17T19:46:01+05:30
; #@! TF.GenerationSoftware,Kicad,Pcbnew,10.0.1
; #@! TF.FileFunction,Plated,1,2,PTH
FMAT,2
METRIC
; #@! TA.AperFunction,Plated,PTH,ComponentDrill
T1C0.200
; #@! TA.AperFunction,Plated,PTH,ViaDrill
T2C0.300
; #@! TA.AperFunction,Plated,PTH,ComponentDrill
T3C0.800
; #@! TA.AperFunction,Plated,PTH,ComponentDrill
T4C0.900
; #@! TA.AperFunction,Plated,PTH,ComponentDrill
T5C1.000
; #@! TA.AperFunction,Plated,PTH,ComponentDrill
T6C1.100
%
G90
G05
T1
X132.855Y-69.627
X132.855Y-71.153
X133.618Y-68.865
X133.618Y-70.39
X133.618Y-71.915
X134.38Y-69.627
X134.38Y-71.153
X135.142Y-68.865
X135.142Y-70.39
X135.142Y-71.915
X135.905Y-69.627
X135.905Y-71.153
T2
X86.2Y-62.71
X86.57Y-97.18
X88.92Y-101.01
X90.31Y-61.49
X104.11Y-66.32
X105.34Y-90.64
X106.6Y-103.61
X106.69Y-63.74
X107.323Y-65.877
X108.8Y-75.77
X109.01Y-66.68
X109.09Y-97.42
X110.59Y-89.65
X111.08Y-76.17
X111.92Y-92.88
X114.85Y-87.09
X116.48Y-83.45
X116.7Y-68.17
X117.23Y-90.98
X117.37Y-64.97
X118.86Y-75.32
X119.1Y-87.05
X119.24Y-82.04
X119.35Y-83.6
X119.99Y-103.14
X119.99Y-123.48
X120.35Y-65.87
X120.82Y-76.99
X121.47Y-65.14
X121.593Y-77.197
X122.218Y-80.59
X122.539Y-76.375
X122.55Y-79.36
X122.62Y-86.46
X122.95Y-72.15
X123.04Y-74.64
X123.26Y-81.17
X123.326Y-79.164
X123.5Y-77.26
X123.97Y-79.88
X124.01Y-97.4
X124.02Y-73.855
X124.735Y-83.24
X125.079Y-78.915
X128.01Y-107.29
X129.33Y-104.27
X134.87Y-84.7
X136.06Y-84.945
X136.85Y-86.42
X138.33Y-94.18
X138.82Y-83.54
X139.06Y-109.46
X140.19Y-68.88
X140.815Y-74.71
X141.82Y-63.73
X142.05Y-68.05
X142.11Y-65.245
X142.41Y-83.54
X142.95Y-82.13
X144.6Y-100.42
X145.62Y-84.53
X145.76Y-71.75
X145.761Y-74.301
X146.04Y-65.66
X146.39Y-78.34
X146.5Y-69.49
X146.92Y-99.51
X147.063Y-73.883
X147.09Y-64.79
X147.17Y-80.86
X147.36Y-67.505
X148.29Y-74.99
X148.58Y-69.89
X149.81Y-97.99
X149.82Y-73.84
X150.91Y-65.74
X151.25Y-69.24
X151.6Y-67.485
X151.83Y-64.98
X151.98Y-73.84
X152.22Y-70.3
X152.24Y-72.78
X153.437Y-94.133
X154.875Y-66.746
X157.46Y-61.925
X161.875Y-63.47
T3
X73.84Y-67.36
X73.84Y-77.52
X77.8Y-96.11
X77.875Y-87.1
X77.93Y-50.9
X77.93Y-61.06
X80.3Y-96.11
X80.375Y-87.1
X102.02Y-51.45
X102.02Y-61.61
X105.35Y-68.54
X105.35Y-78.7
X125.58Y-90.51
X130.58Y-90.51
X140.85Y-90.63
X142.61Y-107.47
X142.61Y-112.47
X145.85Y-90.63
X181.12Y-22.25
X181.12Y-27.25
X187.47Y-22.4
X187.47Y-27.4
T4
X83.23Y-56.17
X85.77Y-56.17
X94.61Y-55.96
X97.15Y-55.96
T5
X74.86Y-104.98
X77.4Y-104.98
X79.94Y-104.98
X82.48Y-104.98
X85.02Y-104.98
X87.56Y-104.98
X97.78Y-30.87
X97.78Y-33.41
X117.7Y-106.72
X117.7Y-109.26
X135.16Y-100.01
X135.16Y-102.55
X135.16Y-105.09
X135.16Y-107.63
X135.16Y-110.17
X135.16Y-112.71
X135.16Y-115.25
X150.44Y-109.94
X150.44Y-112.48
X150.44Y-115.02
X158.21Y-66.44
X158.21Y-68.98
X158.21Y-71.52
X158.21Y-74.06
X158.21Y-76.6
X158.21Y-79.14
X158.21Y-81.68
X158.21Y-84.22
X166.78Y-107.26
X166.78Y-109.8
X166.78Y-112.34
X166.78Y-114.88
X166.78Y-117.42
X166.78Y-119.96
X175.03Y-21.81
X175.03Y-24.35
X175.03Y-26.89
X175.03Y-29.43
X175.03Y-31.97
X175.03Y-34.51
X175.03Y-37.05
X175.03Y-39.59
T6
X78.83Y-68.81
X78.83Y-73.31
X85.33Y-68.81
X85.33Y-73.31
X93.41Y-68.56
X93.41Y-73.06
X99.91Y-68.56
X99.91Y-73.06
M30
