%TF.GenerationSoftware,KiCad,Pcbnew,10.0.1*%
%TF.CreationDate,2026-06-17T19:45:48+05:30*%
%TF.ProjectId,Cycling device PCB,4379636c-696e-4672-9064-657669636520,rev?*%
%TF.SameCoordinates,Original*%
%TF.FileFunction,Copper,L1,Top*%
%TF.FilePolarity,Positive*%
%FSLAX46Y46*%
G04 Gerber Fmt 4.6, Leading zero omitted, Abs format (unit mm)*
G04 Created by KiCad (PCBNEW 10.0.1) date 2026-06-17 19:45:48*
%MOMM*%
%LPD*%
G01*
G04 APERTURE LIST*
G04 Aperture macros list*
%AMRoundRect*
0 Rectangle with rounded corners*
0 $1 Rounding radius*
0 $2 $3 $4 $5 $6 $7 $8 $9 X,Y pos of 4 corners*
0 Add a 4 corners polygon primitive as box body*
4,1,4,$2,$3,$4,$5,$6,$7,$8,$9,$2,$3,0*
0 Add four circle primitives for the rounded corners*
1,1,$1+$1,$2,$3*
1,1,$1+$1,$4,$5*
1,1,$1+$1,$6,$7*
1,1,$1+$1,$8,$9*
0 Add four rect primitives between the rounded corners*
20,1,$1+$1,$2,$3,$4,$5,0*
20,1,$1+$1,$4,$5,$6,$7,0*
20,1,$1+$1,$6,$7,$8,$9,0*
20,1,$1+$1,$8,$9,$2,$3,0*%
G04 Aperture macros list end*
%TA.AperFunction,ComponentPad*%
%ADD10C,1.600000*%
%TD*%
%TA.AperFunction,ComponentPad*%
%ADD11R,1.700000X1.700000*%
%TD*%
%TA.AperFunction,ComponentPad*%
%ADD12C,1.700000*%
%TD*%
%TA.AperFunction,SMDPad,CuDef*%
%ADD13R,1.500000X0.900000*%
%TD*%
%TA.AperFunction,SMDPad,CuDef*%
%ADD14R,0.900000X1.500000*%
%TD*%
%TA.AperFunction,SMDPad,CuDef*%
%ADD15R,1.050000X1.050000*%
%TD*%
%TA.AperFunction,HeatsinkPad*%
%ADD16C,0.600000*%
%TD*%
%TA.AperFunction,HeatsinkPad*%
%ADD17R,4.200000X4.200000*%
%TD*%
%TA.AperFunction,ComponentPad*%
%ADD18RoundRect,0.250000X-0.550000X-0.550000X0.550000X-0.550000X0.550000X0.550000X-0.550000X0.550000X0*%
%TD*%
%TA.AperFunction,ComponentPad*%
%ADD19R,1.800000X1.800000*%
%TD*%
%TA.AperFunction,ComponentPad*%
%ADD20C,1.800000*%
%TD*%
%TA.AperFunction,SMDPad,CuDef*%
%ADD21R,2.800000X2.200000*%
%TD*%
%TA.AperFunction,SMDPad,CuDef*%
%ADD22R,2.800000X2.800000*%
%TD*%
%TA.AperFunction,ComponentPad*%
%ADD23C,2.000000*%
%TD*%
%TA.AperFunction,SMDPad,CuDef*%
%ADD24RoundRect,0.375000X-0.625000X-0.375000X0.625000X-0.375000X0.625000X0.375000X-0.625000X0.375000X0*%
%TD*%
%TA.AperFunction,SMDPad,CuDef*%
%ADD25RoundRect,0.500000X-0.500000X-1.400000X0.500000X-1.400000X0.500000X1.400000X-0.500000X1.400000X0*%
%TD*%
%TA.AperFunction,ViaPad*%
%ADD26C,0.600000*%
%TD*%
%TA.AperFunction,Conductor*%
%ADD27C,0.500000*%
%TD*%
%TA.AperFunction,Conductor*%
%ADD28C,0.250000*%
%TD*%
%TA.AperFunction,Conductor*%
%ADD29C,0.200000*%
%TD*%
G04 APERTURE END LIST*
D10*
%TO.P,C4,1*%
%TO.N,+3V3*%
X140850000Y-90630000D03*
%TO.P,C4,2*%
%TO.N,GND*%
X145850000Y-90630000D03*
%TD*%
D11*
%TO.P,J9,1,Pin_1_1*%
%TO.N,+3V3*%
X135160000Y-100010000D03*
D12*
%TO.P,J9,2,Pin_2_2*%
%TO.N,GND*%
X135160000Y-102550000D03*
%TO.P,J9,3,Pin_3_3*%
%TO.N,+3V3*%
X135160000Y-105090000D03*
%TO.P,J9,4,Pin_4_4*%
%TO.N,GND*%
X135160000Y-107630000D03*
%TO.P,J9,5,Pin_5_5*%
%TO.N,/I2S_DIN*%
X135160000Y-110170000D03*
%TO.P,J9,6,Pin_6_6*%
%TO.N,/I2S_BCLK*%
X135160000Y-112710000D03*
%TO.P,J9,7,Pin_7_7*%
%TO.N,/I2S_LRC*%
X135160000Y-115250000D03*
%TD*%
D10*
%TO.P,C7,1*%
%TO.N,GND*%
X142610000Y-112470000D03*
%TO.P,C7,2*%
%TO.N,+3V3*%
X142610000Y-107470000D03*
%TD*%
D11*
%TO.P,J6,1,Pin_1_1*%
%TO.N,+3V3*%
X158210000Y-66440000D03*
D12*
%TO.P,J6,2,Pin_2_2*%
%TO.N,GND*%
X158210000Y-68980000D03*
%TO.P,J6,3,Pin_3_3*%
%TO.N,/UART_TX*%
X158210000Y-71520000D03*
%TO.P,J6,4,Pin_4_4*%
%TO.N,/UART_RX*%
X158210000Y-74060000D03*
%TO.P,J6,5,Pin_5_5*%
%TO.N,/EN*%
X158210000Y-76600000D03*
%TO.P,J6,6,Pin_6_6*%
%TO.N,/BOOT*%
X158210000Y-79140000D03*
%TO.P,J6,7*%
%TO.N,N/C*%
X158210000Y-81680000D03*
%TO.P,J6,8*%
X158210000Y-84220000D03*
%TD*%
D11*
%TO.P,J7,1,Pin_1_1*%
%TO.N,+3V3*%
X175030000Y-21810000D03*
D12*
%TO.P,J7,2,Pin_2_2*%
%TO.N,GND*%
X175030000Y-24350000D03*
%TO.P,J7,3,Pin_3_3*%
%TO.N,/SPI_MOSI*%
X175030000Y-26890000D03*
%TO.P,J7,4,Pin_4_4*%
%TO.N,/SPI_CLK*%
X175030000Y-29430000D03*
%TO.P,J7,5,Pin_5_5*%
%TO.N,/LCD_CS*%
X175030000Y-31970000D03*
%TO.P,J7,6,Pin_6_6*%
%TO.N,/LCD_DC*%
X175030000Y-34510000D03*
%TO.P,J7,7,Pin_7_7*%
%TO.N,/LCD_RST*%
X175030000Y-37050000D03*
%TO.P,J7,8,Pin_8_8*%
%TO.N,/LCD_BL*%
X175030000Y-39590000D03*
%TD*%
D10*
%TO.P,C8,1*%
%TO.N,GND*%
X181120000Y-27250000D03*
%TO.P,C8,2*%
%TO.N,+3V3*%
X181120000Y-22250000D03*
%TD*%
D13*
%TO.P,U1,1,GND_1*%
%TO.N,GND*%
X126310000Y-63050000D03*
%TO.P,U1,2,VDD_2*%
%TO.N,+3V3*%
X126310000Y-64320000D03*
%TO.P,U1,3,EN_3*%
%TO.N,/EN*%
X126310000Y-65590000D03*
%TO.P,U1,4,SENSOR_VP_4*%
%TO.N,unconnected-(U1-SENSOR_VP-Pad4)*%
X126310000Y-66860000D03*
%TO.P,U1,5,SENSOR_VN_5*%
%TO.N,unconnected-(U1-SENSOR_VN-Pad5)*%
X126310000Y-68130000D03*
%TO.P,U1,6,IO34_6*%
%TO.N,unconnected-(U1-IO34-Pad6)*%
X126310000Y-69400000D03*
%TO.P,U1,7,IO35_7*%
%TO.N,unconnected-(U1-IO35-Pad7)*%
X126310000Y-70670000D03*
%TO.P,U1,8,IO32_8*%
%TO.N,/MIC_SD*%
X126310000Y-71940000D03*
%TO.P,U1,9,IO33_9*%
%TO.N,/GREEN LED*%
X126310000Y-73210000D03*
%TO.P,U1,10,IO25_10*%
%TO.N,/I2S_DIN*%
X126310000Y-74480000D03*
%TO.P,U1,11,IO26_11*%
%TO.N,/I2S_BCLK*%
X126310000Y-75750000D03*
%TO.P,U1,12,IO27_12*%
%TO.N,/LCD_BL*%
X126310000Y-77020000D03*
%TO.P,U1,13,IO14_13*%
%TO.N,/MIC_SCK*%
X126310000Y-78290000D03*
%TO.P,U1,14,IO12_14*%
%TO.N,unconnected-(U1-IO12-Pad14)*%
X126310000Y-79560000D03*
D14*
%TO.P,U1,15,GND_15*%
%TO.N,GND*%
X129350000Y-80810000D03*
%TO.P,U1,16,IO13_16*%
%TO.N,unconnected-(U1-IO13-Pad16)*%
X130620000Y-80810000D03*
%TO.P,U1,17,SHD/SD2_17*%
%TO.N,unconnected-(U1-SHD{slash}SD2-Pad17)*%
X131890000Y-80810000D03*
%TO.P,U1,18,SWP/SD3_18*%
%TO.N,unconnected-(U1-SWP{slash}SD3-Pad18)*%
X133160000Y-80810000D03*
%TO.P,U1,19,SCS/CMD_19*%
%TO.N,unconnected-(U1-SCS{slash}CMD-Pad19)*%
X134430000Y-80810000D03*
%TO.P,U1,20,SCK/CLK_20*%
%TO.N,unconnected-(U1-SCK{slash}CLK-Pad20)*%
X135700000Y-80810000D03*
%TO.P,U1,21,SDO/SD0_21*%
%TO.N,unconnected-(U1-SDO{slash}SD0-Pad21)*%
X136970000Y-80810000D03*
%TO.P,U1,22,SDI/SD1_22*%
%TO.N,unconnected-(U1-SDI{slash}SD1-Pad22)*%
X138240000Y-80810000D03*
%TO.P,U1,23,IO15_23*%
%TO.N,/MIC_WS*%
X139510000Y-80810000D03*
%TO.P,U1,24,IO2_24*%
%TO.N,/STATUS_LED*%
X140780000Y-80810000D03*
D13*
%TO.P,U1,25,IO0_25*%
%TO.N,/BOOT*%
X143810000Y-79560000D03*
%TO.P,U1,26,IO4_26*%
%TO.N,unconnected-(U1-IO4-Pad26)*%
X143810000Y-78290000D03*
%TO.P,U1,27,IO16_27*%
%TO.N,/LCD_CS*%
X143810000Y-77020000D03*
%TO.P,U1,28,IO17_28*%
%TO.N,/LCD_DC*%
X143810000Y-75750000D03*
%TO.P,U1,29,IO5_29*%
%TO.N,/SPI_CS*%
X143810000Y-74480000D03*
%TO.P,U1,30,IO18_30*%
%TO.N,/SPI_CLK*%
X143810000Y-73210000D03*
%TO.P,U1,31,IO19_31*%
%TO.N,/SPI_MISO*%
X143810000Y-71940000D03*
%TO.P,U1,32,NC_32*%
%TO.N,unconnected-(U1-NC-Pad32)*%
X143810000Y-70670000D03*
%TO.P,U1,33,IO21_33*%
%TO.N,/LCD_RST*%
X143810000Y-69400000D03*
%TO.P,U1,34,RXD0/IO3_34*%
%TO.N,/UART_RX*%
X143810000Y-68130000D03*
%TO.P,U1,35,TXD0/IO1_35*%
%TO.N,/UART_TX*%
X143810000Y-66860000D03*
%TO.P,U1,36,IO22_36*%
%TO.N,/I2S_LRC*%
X143810000Y-65590000D03*
%TO.P,U1,37,IO23_37*%
%TO.N,/SPI_MOSI*%
X143810000Y-64320000D03*
%TO.P,U1,38,GND_38*%
%TO.N,GND*%
X143810000Y-63050000D03*
D15*
%TO.P,U1,39,GND_39*%
X132855000Y-68865000D03*
D16*
X132855000Y-69627500D03*
D15*
X132855000Y-70390000D03*
D16*
X132855000Y-71152500D03*
D15*
X132855000Y-71915000D03*
D16*
X133617500Y-68865000D03*
X133617500Y-70390000D03*
X133617500Y-71915000D03*
D15*
X134380000Y-68865000D03*
D16*
X134380000Y-69627500D03*
D15*
X134380000Y-70390000D03*
D17*
X134380000Y-70390000D03*
D16*
X134380000Y-71152500D03*
D15*
X134380000Y-71915000D03*
D16*
X135142500Y-68865000D03*
X135142500Y-70390000D03*
X135142500Y-71915000D03*
D15*
X135905000Y-68865000D03*
D16*
X135905000Y-69627500D03*
D15*
X135905000Y-70390000D03*
D16*
X135905000Y-71152500D03*
D15*
X135905000Y-71915000D03*
%TD*%
D10*
%TO.P,C9,1*%
%TO.N,GND*%
X187470000Y-27400000D03*
%TO.P,C9,2*%
%TO.N,+3V3*%
X187470000Y-22400000D03*
%TD*%
%TO.P,C3,1*%
%TO.N,+3V3*%
X125580000Y-90510000D03*
%TO.P,C3,2*%
%TO.N,GND*%
X130580000Y-90510000D03*
%TD*%
D11*
%TO.P,J4,1,Pin_1_1*%
%TO.N,/MIC_WS*%
X150440000Y-109940000D03*
D12*
%TO.P,J4,2,Pin_2_2*%
%TO.N,/MIC_SCK*%
X150440000Y-112480000D03*
%TO.P,J4,3,Pin_3_3*%
%TO.N,GND*%
X150440000Y-115020000D03*
%TD*%
D10*
%TO.P,R1,1*%
%TO.N,+3V3*%
X73840000Y-67360000D03*
%TO.P,R1,2*%
%TO.N,/EN*%
X73840000Y-77520000D03*
%TD*%
D11*
%TO.P,J1,1,Pin_1_1*%
%TO.N,/VBAT*%
X97780000Y-30870000D03*
D12*
%TO.P,J1,2,Pin_2_2*%
%TO.N,GND*%
X97780000Y-33410000D03*
%TD*%
D10*
%TO.P,R5,1*%
%TO.N,/STATUS_LED*%
X102020000Y-61610000D03*
%TO.P,R5,2*%
%TO.N,Net-(D2-A)*%
X102020000Y-51450000D03*
%TD*%
%TO.P,R2,1*%
%TO.N,/BOOT*%
X105350000Y-68540000D03*
%TO.P,R2,2*%
%TO.N,+3V3*%
X105350000Y-78700000D03*
%TD*%
D18*
%TO.P,C2,1*%
%TO.N,/VBAT*%
X77800000Y-96110000D03*
D10*
%TO.P,C2,2*%
%TO.N,GND*%
X80300000Y-96110000D03*
%TD*%
D18*
%TO.P,C1,1*%
%TO.N,Net-(U2-VO)*%
X77874888Y-87100000D03*
D10*
%TO.P,C1,2*%
%TO.N,GND*%
X80374888Y-87100000D03*
%TD*%
D19*
%TO.P,D1,1,K_1*%
%TO.N,GND*%
X83230000Y-56170000D03*
D20*
%TO.P,D1,2,A_2*%
%TO.N,Net-(D1-A)*%
X85770000Y-56170000D03*
%TD*%
D11*
%TO.P,J5,1,Pin_1_1*%
%TO.N,/MIC_SD*%
X166780000Y-107260000D03*
D12*
%TO.P,J5,2,Pin_2_2*%
%TO.N,+3V3*%
X166780000Y-109800000D03*
%TO.P,J5,3,Pin_3_3*%
%TO.N,GND*%
X166780000Y-112340000D03*
%TO.P,J5,4*%
%TO.N,N/C*%
X166780000Y-114880000D03*
%TO.P,J5,5*%
X166780000Y-117420000D03*
%TO.P,J5,6*%
X166780000Y-119960000D03*
%TD*%
D10*
%TO.P,R4,1*%
%TO.N,/GREEN LED*%
X77930000Y-61060000D03*
%TO.P,R4,2*%
%TO.N,Net-(D1-A)*%
X77930000Y-50900000D03*
%TD*%
D21*
%TO.P,J2,R*%
%TO.N,Net-(J8-Pin_1)*%
X179190000Y-121260000D03*
%TO.P,J2,S*%
%TO.N,GND*%
X186590000Y-123260000D03*
D22*
%TO.P,J2,T*%
%TO.N,Net-(J8-Pin_2)*%
X186590000Y-113860000D03*
%TD*%
D23*
%TO.P,SW2,1,1_1*%
%TO.N,/BOOT*%
X93410000Y-68560000D03*
X99910000Y-68560000D03*
%TO.P,SW2,2,2_2*%
%TO.N,GND*%
X93410000Y-73060000D03*
X99910000Y-73060000D03*
%TD*%
D11*
%TO.P,J8,1,Pin_1_1*%
%TO.N,Net-(J8-Pin_1)*%
X117700000Y-109260000D03*
D12*
%TO.P,J8,2,Pin_2_2*%
%TO.N,Net-(J8-Pin_2)*%
X117700000Y-106720000D03*
%TD*%
D19*
%TO.P,D2,1,K_1*%
%TO.N,GND*%
X94610000Y-55960000D03*
D20*
%TO.P,D2,2,A_2*%
%TO.N,Net-(D2-A)*%
X97150000Y-55960000D03*
%TD*%
D23*
%TO.P,SW1,1,1_1*%
%TO.N,GND*%
X78830000Y-68810000D03*
X85330000Y-68810000D03*
%TO.P,SW1,2,2_2*%
%TO.N,/EN*%
X78830000Y-73310000D03*
X85330000Y-73310000D03*
%TD*%
D24*
%TO.P,U2,1,GND_1*%
%TO.N,GND*%
X86700000Y-89250000D03*
%TO.P,U2,2,VO_2*%
%TO.N,Net-(U2-VO)*%
X86700000Y-91550000D03*
D25*
X93000000Y-91550000D03*
D24*
%TO.P,U2,3,VI_3*%
%TO.N,/VBAT*%
X86700000Y-93850000D03*
%TD*%
D11*
%TO.P,J3,1,Pin_1_1*%
%TO.N,/SPI_CS*%
X87560000Y-104980000D03*
D12*
%TO.P,J3,2,Pin_2_2*%
%TO.N,/SPI_CLK*%
X85020000Y-104980000D03*
%TO.P,J3,3,Pin_3_3*%
%TO.N,/SPI_MOSI*%
X82480000Y-104980000D03*
%TO.P,J3,4,Pin_4_4*%
%TO.N,/SPI_MISO*%
X79940000Y-104980000D03*
%TO.P,J3,5,Pin_5_5*%
%TO.N,+3V3*%
X77400000Y-104980000D03*
%TO.P,J3,6,Pin_6_6*%
%TO.N,GND*%
X74860000Y-104980000D03*
%TD*%
D26*
%TO.N,+3V3*%
X117230000Y-90980000D03*
X117370000Y-64970000D03*
X119990000Y-123480000D03*
X119990000Y-103140000D03*
X106600000Y-103610000D03*
X86200000Y-62710000D03*
X124010000Y-97400000D03*
X111920000Y-92880000D03*
X157460000Y-61925000D03*
%TO.N,/I2S_DIN*%
X129330000Y-104270000D03*
X121592832Y-77196717D03*
X122538883Y-76374999D03*
X123040000Y-74640000D03*
%TO.N,/I2S_BCLK*%
X128010000Y-107290000D03*
X120820000Y-76990000D03*
%TO.N,/I2S_LRC*%
X146040000Y-65660000D03*
X139060000Y-109460000D03*
%TO.N,/EN*%
X122620000Y-86460000D03*
X153436942Y-94133058D03*
X122217832Y-80590000D03*
X152220000Y-70300000D03*
X121470000Y-65140000D03*
X116700000Y-68170000D03*
X104110000Y-66320000D03*
X120350000Y-65870000D03*
%TO.N,/BOOT*%
X145620000Y-84530000D03*
X146390000Y-78340000D03*
%TO.N,/SPI_MOSI*%
X110590000Y-89650000D03*
X124020000Y-73855000D03*
X119240000Y-82040000D03*
X118860000Y-75320000D03*
X142950000Y-82130000D03*
X105340000Y-90640000D03*
X116480000Y-83450000D03*
X114850000Y-87090000D03*
%TO.N,/SPI_CLK*%
X141820000Y-63730000D03*
X140190000Y-68880000D03*
X88920000Y-101010000D03*
X134870000Y-84700000D03*
X109090000Y-97420000D03*
X151830000Y-64980000D03*
X150910000Y-65740000D03*
X119350000Y-83600000D03*
X147360000Y-67505000D03*
X119100000Y-87050000D03*
X151600000Y-67485000D03*
X148580000Y-69890000D03*
%TO.N,/LCD_CS*%
X151250000Y-69240000D03*
%TO.N,/LCD_DC*%
X147063058Y-73883058D03*
X147170000Y-80860000D03*
%TO.N,/LCD_RST*%
X146500000Y-69490000D03*
X151980000Y-73840000D03*
X149820000Y-73840000D03*
X161875000Y-63470000D03*
%TO.N,/LCD_BL*%
X123325504Y-79163539D03*
X136060000Y-84945000D03*
X123970000Y-79880000D03*
X123500000Y-77260000D03*
X142410000Y-83540000D03*
X125078883Y-78914999D03*
%TO.N,/MIC_SD*%
X149810000Y-97990000D03*
X122950000Y-72150000D03*
%TO.N,/MIC_SCK*%
X122550000Y-79360000D03*
X144600000Y-100420000D03*
%TO.N,/MIC_WS*%
X138330000Y-94180000D03*
X146920000Y-99510000D03*
X136850000Y-86420000D03*
X138820000Y-83540000D03*
%TO.N,/STATUS_LED*%
X109010000Y-66680000D03*
X106690000Y-63740000D03*
%TO.N,/SPI_CS*%
X140815000Y-74710000D03*
X111080000Y-76170000D03*
X152240000Y-72780000D03*
X123260000Y-81170000D03*
X154875000Y-66745661D03*
X142110000Y-65245000D03*
X147090000Y-64790000D03*
X148290000Y-74990000D03*
X124735000Y-83240000D03*
X145761116Y-74301116D03*
X142050000Y-68050000D03*
X108800000Y-75770000D03*
%TO.N,/SPI_MISO*%
X145760000Y-71750000D03*
X107323058Y-65876942D03*
%TO.N,/VBAT*%
X90310000Y-61490000D03*
X86570000Y-97180000D03*
%TD*%
%TO.N,+3V3*%
D27*
X90150661Y-62710000D02*
X86200000Y-62710000D01*
X116490000Y-61750000D02*
X110956446Y-61750000D01*
X187320000Y-22250000D02*
X187470000Y-22400000D01*
X120790000Y-117800000D02*
X158990000Y-117800000D01*
X111920000Y-92880000D02*
X111920000Y-95070000D01*
X181120000Y-22250000D02*
X187320000Y-22250000D01*
X138100000Y-105090000D02*
X135160000Y-105090000D01*
X135160000Y-100010000D02*
X136460000Y-100010000D01*
X126310000Y-64320000D02*
X119060000Y-64320000D01*
X119060000Y-64320000D02*
X116490000Y-61750000D01*
X126310000Y-64320000D02*
X134400000Y-64320000D01*
X142610000Y-107470000D02*
X139260000Y-104120000D01*
X119990000Y-123480000D02*
X109832233Y-123480000D01*
X139260000Y-104120000D02*
X139260000Y-103930000D01*
X158990000Y-117800000D02*
X158990000Y-117590000D01*
X118020000Y-64320000D02*
X117370000Y-64970000D01*
X110956446Y-61750000D02*
X106516446Y-57310000D01*
X93620000Y-121200000D02*
X77400000Y-104980000D01*
X107552233Y-121200000D02*
X93620000Y-121200000D01*
X175030000Y-21810000D02*
X180680000Y-21810000D01*
X106516446Y-57310000D02*
X95550661Y-57310000D01*
X109832233Y-123480000D02*
X107552233Y-121200000D01*
X134400000Y-64320000D02*
X136795000Y-61925000D01*
X119060000Y-64320000D02*
X118020000Y-64320000D01*
X106600000Y-103610000D02*
X120790000Y-117800000D01*
X95550661Y-57310000D02*
X90150661Y-62710000D01*
X136460000Y-100010000D02*
X139260000Y-102810000D01*
X111920000Y-95070000D02*
X119990000Y-103140000D01*
X180680000Y-21810000D02*
X181120000Y-22250000D01*
X139260000Y-103930000D02*
X138100000Y-105090000D01*
X123650000Y-97400000D02*
X124010000Y-97400000D01*
X136795000Y-61925000D02*
X157460000Y-61925000D01*
X139260000Y-102810000D02*
X139260000Y-103930000D01*
X158990000Y-117590000D02*
X166780000Y-109800000D01*
X117230000Y-90980000D02*
X123650000Y-97400000D01*
%TO.N,/I2S_DIN*%
D28*
X129330000Y-104340000D02*
X129330000Y-104270000D01*
X121717165Y-77196717D02*
X122538883Y-76374999D01*
X121592832Y-77196717D02*
X121717165Y-77196717D01*
X135160000Y-110170000D02*
X129330000Y-104340000D01*
X123040000Y-74640000D02*
X123200000Y-74480000D01*
X123200000Y-74480000D02*
X126310000Y-74480000D01*
%TO.N,/I2S_BCLK*%
X122060000Y-75750000D02*
X126310000Y-75750000D01*
X135160000Y-112710000D02*
X129740000Y-107290000D01*
X120820000Y-76990000D02*
X122060000Y-75750000D01*
X129740000Y-107290000D02*
X128010000Y-107290000D01*
%TO.N,/I2S_LRC*%
X146040000Y-65660000D02*
X143880000Y-65660000D01*
X135160000Y-115250000D02*
X139060000Y-111350000D01*
X143880000Y-65660000D02*
X143810000Y-65590000D01*
X139060000Y-111350000D02*
X139060000Y-109460000D01*
%TO.N,/UART_TX*%
X158210000Y-71520000D02*
X153550000Y-66860000D01*
X153550000Y-66860000D02*
X143810000Y-66860000D01*
%TO.N,/UART_RX*%
X152280000Y-68130000D02*
X143810000Y-68130000D01*
X158210000Y-74060000D02*
X152280000Y-68130000D01*
%TO.N,/EN*%
X121470000Y-65140000D02*
X121530000Y-65080000D01*
X121747832Y-80120000D02*
X116450000Y-80120000D01*
X122217832Y-80590000D02*
X121747832Y-80120000D01*
X120350000Y-65870000D02*
X120630000Y-65590000D01*
X153436942Y-94133058D02*
X152120000Y-95450000D01*
X121530000Y-65080000D02*
X125120000Y-65080000D01*
X122640000Y-86480000D02*
X122620000Y-86460000D01*
X78050000Y-73310000D02*
X73840000Y-77520000D01*
X120630000Y-65590000D02*
X126310000Y-65590000D01*
X122640000Y-95450000D02*
X122640000Y-86480000D01*
X85330000Y-73310000D02*
X78830000Y-73310000D01*
X125120000Y-65080000D02*
X125630000Y-65590000D01*
X78830000Y-73310000D02*
X78050000Y-73310000D01*
X116450000Y-80120000D02*
X116700000Y-79870000D01*
X152220000Y-70610000D02*
X152220000Y-70300000D01*
X158210000Y-76600000D02*
X152220000Y-70610000D01*
X85330000Y-73310000D02*
X92320000Y-66320000D01*
X116700000Y-79870000D02*
X116700000Y-68170000D01*
X152120000Y-95450000D02*
X122640000Y-95450000D01*
X92320000Y-66320000D02*
X104110000Y-66320000D01*
X125630000Y-65590000D02*
X126310000Y-65590000D01*
%TO.N,/BOOT*%
X99910000Y-68560000D02*
X105330000Y-68560000D01*
X145620000Y-86300000D02*
X145620000Y-84530000D01*
X152190000Y-79560000D02*
X143810000Y-79560000D01*
X184865000Y-115585000D02*
X188315000Y-115585000D01*
X109451116Y-75537232D02*
X109451116Y-88245000D01*
X109451116Y-88245000D02*
X108465000Y-89231116D01*
X145760000Y-77710000D02*
X145270000Y-77710000D01*
X105330000Y-68560000D02*
X105350000Y-68540000D01*
X145270000Y-77710000D02*
X145000000Y-77980000D01*
X146390000Y-78340000D02*
X145760000Y-77710000D01*
X108465000Y-89231116D02*
X108465000Y-99146701D01*
X105350000Y-66966116D02*
X107064174Y-65251942D01*
X158210000Y-79140000D02*
X157230000Y-80120000D01*
X93410000Y-68560000D02*
X99910000Y-68560000D01*
X183726396Y-96590000D02*
X184865000Y-97728604D01*
X107948058Y-74034174D02*
X109451116Y-75537232D01*
X144280000Y-79560000D02*
X143810000Y-79560000D01*
X107064174Y-65251942D02*
X107581942Y-65251942D01*
X118186701Y-107895000D02*
X129491701Y-96590000D01*
X117213299Y-107895000D02*
X118186701Y-107895000D01*
X129491701Y-96590000D02*
X183726396Y-96590000D01*
X145000000Y-77980000D02*
X145000000Y-78840000D01*
X188315000Y-97628604D02*
X182586396Y-91900000D01*
X182586396Y-91900000D02*
X151220000Y-91900000D01*
X152750000Y-80120000D02*
X152190000Y-79560000D01*
X108465000Y-99146701D02*
X117213299Y-107895000D01*
X157230000Y-80120000D02*
X152750000Y-80120000D01*
X105350000Y-68540000D02*
X105350000Y-66966116D01*
X184865000Y-97728604D02*
X184865000Y-115585000D01*
X107581942Y-65251942D02*
X107948058Y-65618058D01*
X188315000Y-115585000D02*
X188315000Y-97628604D01*
X145000000Y-78840000D02*
X144280000Y-79560000D01*
X151220000Y-91900000D02*
X145620000Y-86300000D01*
X107948058Y-65618058D02*
X107948058Y-74034174D01*
%TO.N,/SPI_MOSI*%
X143230000Y-64320000D02*
X143810000Y-64320000D01*
X142735000Y-80335000D02*
X142735000Y-75250000D01*
X159910000Y-41823604D02*
X159910000Y-79101701D01*
X145210000Y-80010000D02*
X144885000Y-80335000D01*
X175030000Y-26890000D02*
X175910000Y-27770000D01*
X118860000Y-75320000D02*
X120325000Y-73855000D01*
X113150000Y-87090000D02*
X114850000Y-87090000D01*
X89616942Y-106363058D02*
X105340000Y-90640000D01*
X168398604Y-33335000D02*
X159910000Y-41823604D01*
X152003604Y-80010000D02*
X145210000Y-80010000D01*
X110590000Y-89650000D02*
X113150000Y-87090000D01*
X177960000Y-27770000D02*
X177960000Y-30891701D01*
X142735000Y-75250000D02*
X142735000Y-64815000D01*
X120325000Y-73855000D02*
X124020000Y-73855000D01*
X83863058Y-106363058D02*
X89616942Y-106363058D01*
X152563604Y-80570000D02*
X152003604Y-80010000D01*
X175516701Y-33335000D02*
X168398604Y-33335000D01*
X157671396Y-80315000D02*
X157416396Y-80570000D01*
X159910000Y-79101701D02*
X158696701Y-80315000D01*
X142950000Y-82130000D02*
X142735000Y-81915000D01*
X116480000Y-83450000D02*
X117830000Y-83450000D01*
X117830000Y-83450000D02*
X119240000Y-82040000D01*
X157416396Y-80570000D02*
X152563604Y-80570000D01*
X82480000Y-104980000D02*
X83863058Y-106363058D01*
X175910000Y-27770000D02*
X177960000Y-27770000D01*
X142735000Y-81915000D02*
X142735000Y-80335000D01*
X177960000Y-30891701D02*
X175516701Y-33335000D01*
X142735000Y-64815000D02*
X143230000Y-64320000D01*
X158696701Y-80315000D02*
X157671396Y-80315000D01*
X144885000Y-80335000D02*
X142735000Y-80335000D01*
%TO.N,/SPI_CLK*%
X119350000Y-83600000D02*
X120450000Y-84700000D01*
X140190000Y-68880000D02*
X140190000Y-65360000D01*
X170360000Y-29430000D02*
X159185000Y-40605000D01*
X151830000Y-65170000D02*
X152400000Y-65740000D01*
X151600000Y-67485000D02*
X147380000Y-67485000D01*
X116866116Y-87050000D02*
X119100000Y-87050000D01*
X120450000Y-84700000D02*
X134870000Y-84700000D01*
X146070000Y-73210000D02*
X143810000Y-73210000D01*
X151830000Y-64980000D02*
X151830000Y-65170000D01*
X154996778Y-65740000D02*
X152400000Y-65740000D01*
X140190000Y-65360000D02*
X141820000Y-63730000D01*
X109090000Y-94826116D02*
X116866116Y-87050000D01*
X109090000Y-97420000D02*
X109090000Y-94826116D01*
X146270000Y-73190000D02*
X146090000Y-73190000D01*
X159185000Y-40605000D02*
X159185000Y-61551778D01*
D29*
X85020000Y-104980000D02*
X88920000Y-101080000D01*
D28*
X175030000Y-29430000D02*
X170360000Y-29430000D01*
X146270000Y-72200000D02*
X146270000Y-73190000D01*
X146090000Y-73190000D02*
X146070000Y-73210000D01*
X148580000Y-69890000D02*
X146270000Y-72200000D01*
X159185000Y-61551778D02*
X154996778Y-65740000D01*
D29*
X88920000Y-101080000D02*
X88920000Y-101010000D01*
X85020000Y-104980000D02*
X85020000Y-104090000D01*
D28*
X147380000Y-67485000D02*
X147360000Y-67505000D01*
X152400000Y-65740000D02*
X150910000Y-65740000D01*
%TO.N,/LCD_CS*%
X151250000Y-70580000D02*
X151250000Y-69240000D01*
X143810000Y-77020000D02*
X144810000Y-77020000D01*
X144810000Y-77020000D02*
X151250000Y-70580000D01*
%TO.N,/LCD_DC*%
X161250000Y-41120000D02*
X161250000Y-90610000D01*
X147063058Y-73883058D02*
X145196116Y-75750000D01*
X161250000Y-90610000D02*
X156920000Y-90610000D01*
X167970000Y-34400000D02*
X161250000Y-41120000D01*
X145196116Y-75750000D02*
X143810000Y-75750000D01*
X168080000Y-34510000D02*
X167970000Y-34400000D01*
X156920000Y-90610000D02*
X147170000Y-80860000D01*
X175030000Y-34510000D02*
X168080000Y-34510000D01*
%TO.N,/LCD_RST*%
X146410000Y-69400000D02*
X143810000Y-69400000D01*
X166100000Y-37050000D02*
X161875000Y-41275000D01*
X151980000Y-73840000D02*
X149820000Y-73840000D01*
X175030000Y-37050000D02*
X166100000Y-37050000D01*
X146500000Y-69490000D02*
X146410000Y-69400000D01*
X161875000Y-41275000D02*
X161875000Y-63470000D01*
%TO.N,/LCD_BL*%
X123325504Y-79163539D02*
X124830343Y-79163539D01*
X136060000Y-84945000D02*
X135155000Y-84040000D01*
X162890000Y-91450000D02*
X154800000Y-91450000D01*
X162890000Y-41150000D02*
X162890000Y-91450000D01*
X135155000Y-84040000D02*
X124110000Y-84040000D01*
X124110000Y-80020000D02*
X123970000Y-79880000D01*
X175030000Y-39590000D02*
X164450000Y-39590000D01*
X146830000Y-83480000D02*
X142470000Y-83480000D01*
X154800000Y-91450000D02*
X146830000Y-83480000D01*
X164450000Y-39590000D02*
X162890000Y-41150000D01*
X123500000Y-77260000D02*
X123740000Y-77020000D01*
X124110000Y-84040000D02*
X124110000Y-80020000D01*
X123740000Y-77020000D02*
X126310000Y-77020000D01*
X124830343Y-79163539D02*
X125078883Y-78914999D01*
X142470000Y-83480000D02*
X142410000Y-83540000D01*
%TO.N,/MIC_SD*%
X123160000Y-71940000D02*
X126310000Y-71940000D01*
X166780000Y-107260000D02*
X159080000Y-107260000D01*
X122950000Y-72150000D02*
X123160000Y-71940000D01*
X159080000Y-107260000D02*
X149810000Y-97990000D01*
%TO.N,/GREEN LED*%
X118560000Y-72910000D02*
X118860000Y-73210000D01*
X114810000Y-64740000D02*
X118560000Y-68490000D01*
X85870000Y-64740000D02*
X114810000Y-64740000D01*
X77930000Y-61060000D02*
X82190000Y-61060000D01*
X118560000Y-68490000D02*
X118560000Y-72910000D01*
X118860000Y-73210000D02*
X126310000Y-73210000D01*
X82190000Y-61060000D02*
X85870000Y-64740000D01*
%TO.N,/MIC_SCK*%
X122550000Y-79360000D02*
X122550000Y-78480000D01*
X122360000Y-78290000D02*
X126310000Y-78290000D01*
X144600000Y-106640000D02*
X144600000Y-100420000D01*
X150440000Y-112480000D02*
X144600000Y-106640000D01*
X122550000Y-78480000D02*
X122360000Y-78290000D01*
%TO.N,/MIC_WS*%
X150440000Y-109940000D02*
X150440000Y-103030000D01*
X138820000Y-83540000D02*
X139510000Y-82850000D01*
X150440000Y-103030000D02*
X146920000Y-99510000D01*
X138330000Y-94180000D02*
X136850000Y-92700000D01*
X136850000Y-92700000D02*
X136850000Y-86420000D01*
X139510000Y-82850000D02*
X139510000Y-80810000D01*
%TO.N,/STATUS_LED*%
X110010000Y-81550000D02*
X114030000Y-85570000D01*
X102020000Y-61610000D02*
X104560000Y-61610000D01*
X110010000Y-67680000D02*
X110010000Y-81550000D01*
X109010000Y-66680000D02*
X110010000Y-67680000D01*
X104560000Y-61610000D02*
X106690000Y-63740000D01*
X140780000Y-83890000D02*
X140780000Y-80810000D01*
X114030000Y-85570000D02*
X139100000Y-85570000D01*
X139100000Y-85570000D02*
X140780000Y-83890000D01*
%TO.N,/SPI_CS*%
X152240000Y-72780000D02*
X149820000Y-72780000D01*
X116080000Y-81170000D02*
X121913948Y-81170000D01*
X148665000Y-66365000D02*
X154494339Y-66365000D01*
X108880000Y-75850000D02*
X108800000Y-75770000D01*
X142050000Y-68050000D02*
X142050000Y-65305000D01*
X123215000Y-81215000D02*
X123260000Y-81170000D01*
X147090000Y-64790000D02*
X148665000Y-66365000D01*
X154494339Y-66365000D02*
X154875000Y-66745661D01*
X148290000Y-74310000D02*
X148290000Y-74990000D01*
X87560000Y-104980000D02*
X108800000Y-83740000D01*
X124735000Y-83240000D02*
X133265000Y-74710000D01*
X149820000Y-72780000D02*
X148290000Y-74310000D01*
X143988884Y-74301116D02*
X143810000Y-74480000D01*
D29*
X108800000Y-83740000D02*
X108800000Y-75770000D01*
D28*
X133265000Y-74710000D02*
X140815000Y-74710000D01*
X121913948Y-81170000D02*
X121958948Y-81215000D01*
X145761116Y-74301116D02*
X143988884Y-74301116D01*
X111080000Y-76170000D02*
X116080000Y-81170000D01*
X121958948Y-81215000D02*
X123215000Y-81215000D01*
X142050000Y-65305000D02*
X142110000Y-65245000D01*
%TO.N,/SPI_MISO*%
X93848998Y-93775000D02*
X107323058Y-80300940D01*
X145760000Y-71750000D02*
X144000000Y-71750000D01*
X79940000Y-104980000D02*
X91145000Y-93775000D01*
X144000000Y-71750000D02*
X143810000Y-71940000D01*
X107323058Y-80300940D02*
X107323058Y-65876942D01*
X91145000Y-93775000D02*
X93848998Y-93775000D01*
%TO.N,/VBAT*%
X81000000Y-92580000D02*
X75940000Y-92580000D01*
X73630000Y-96310000D02*
X73830000Y-96110000D01*
X90310000Y-61490000D02*
X90310000Y-38340000D01*
X90310000Y-38340000D02*
X97780000Y-30870000D01*
X86570000Y-97180000D02*
X86700000Y-97050000D01*
X73830000Y-96110000D02*
X77800000Y-96110000D01*
X75940000Y-92580000D02*
X75880000Y-92520000D01*
X86700000Y-97050000D02*
X86700000Y-93850000D01*
X82270000Y-93850000D02*
X81000000Y-92580000D01*
X73360000Y-95040000D02*
X73360000Y-96310000D01*
X86700000Y-93850000D02*
X82270000Y-93850000D01*
X75880000Y-92520000D02*
X73360000Y-95040000D01*
X73360000Y-96310000D02*
X73630000Y-96310000D01*
%TO.N,Net-(D2-A)*%
X97510000Y-55960000D02*
X97150000Y-55960000D01*
X102020000Y-51450000D02*
X97510000Y-55960000D01*
%TO.N,Net-(U2-VO)*%
X75320000Y-87100000D02*
X77874888Y-87100000D01*
X93000000Y-91550000D02*
X86700000Y-91550000D01*
X86700000Y-91550000D02*
X76540000Y-91550000D01*
X76540000Y-91550000D02*
X74630000Y-89640000D01*
X74630000Y-87790000D02*
X75320000Y-87100000D01*
X74630000Y-89640000D02*
X74630000Y-87790000D01*
%TO.N,Net-(D1-A)*%
X80500000Y-50900000D02*
X85770000Y-56170000D01*
X77930000Y-50900000D02*
X80500000Y-50900000D01*
%TO.N,Net-(J8-Pin_1)*%
X117700000Y-109260000D02*
X119670000Y-109260000D01*
X178370000Y-97160000D02*
X179130000Y-97920000D01*
X179190000Y-115570000D02*
X179190000Y-121260000D01*
X119670000Y-109260000D02*
X131770000Y-97160000D01*
X131770000Y-97160000D02*
X178370000Y-97160000D01*
X179130000Y-115510000D02*
X179190000Y-115570000D01*
X179130000Y-97920000D02*
X179130000Y-115510000D01*
%TO.N,Net-(J8-Pin_2)*%
X186590000Y-107990000D02*
X186590000Y-113860000D01*
X186190000Y-96140000D02*
X186530000Y-96480000D01*
X186530000Y-96480000D02*
X186530000Y-107930000D01*
X128280000Y-96140000D02*
X186190000Y-96140000D01*
X117700000Y-106720000D02*
X128280000Y-96140000D01*
X186530000Y-107930000D02*
X186590000Y-107990000D01*
%TD*%
%TA.AperFunction,Conductor*%
%TO.N,GND*%
G36*
X141557398Y-83712061D02*
G01*
X141568660Y-83712464D01*
X141588608Y-83726314D01*
X141610703Y-83736405D01*
X141618285Y-83746920D01*
X141626052Y-83752313D01*
X141644061Y-83782666D01*
X141700602Y-83919172D01*
X141700609Y-83919185D01*
X141788210Y-84050288D01*
X141788213Y-84050292D01*
X141899707Y-84161786D01*
X141899711Y-84161789D01*
X142030814Y-84249390D01*
X142030827Y-84249397D01*
X142125794Y-84288733D01*
X142176503Y-84309737D01*
X142296822Y-84333670D01*
X142331153Y-84340499D01*
X142331156Y-84340500D01*
X142331158Y-84340500D01*
X142488844Y-84340500D01*
X142488845Y-84340499D01*
X142643497Y-84309737D01*
X142789179Y-84249394D01*
X142920289Y-84161789D01*
X142928937Y-84153141D01*
X142940260Y-84141819D01*
X143001583Y-84108334D01*
X143027941Y-84105500D01*
X144743800Y-84105500D01*
X144810839Y-84125185D01*
X144856594Y-84177989D01*
X144866538Y-84247147D01*
X144858361Y-84276952D01*
X144850264Y-84296498D01*
X144850261Y-84296510D01*
X144819500Y-84451153D01*
X144819500Y-84608846D01*
X144850261Y-84763489D01*
X144850264Y-84763501D01*
X144910602Y-84909172D01*
X144910609Y-84909184D01*
X144973602Y-85003459D01*
X144994480Y-85070136D01*
X144994500Y-85072350D01*
X144994500Y-86361610D01*
X145018535Y-86482444D01*
X145018539Y-86482458D01*
X145029451Y-86508803D01*
X145029455Y-86508812D01*
X145031412Y-86513535D01*
X145065688Y-86596286D01*
X145099915Y-86647509D01*
X145103842Y-86653386D01*
X145103843Y-86653388D01*
X145134141Y-86698733D01*
X145225586Y-86790178D01*
X145225608Y-86790198D01*
X150734139Y-92298729D01*
X150734142Y-92298733D01*
X150821267Y-92385858D01*
X150898190Y-92437256D01*
X150903990Y-92441132D01*
X150903993Y-92441134D01*
X150923709Y-92454309D01*
X150923719Y-92454314D01*
X150950307Y-92465327D01*
X150950313Y-92465329D01*
X150950318Y-92465331D01*
X151037548Y-92501463D01*
X151097971Y-92513481D01*
X151158393Y-92525500D01*
X151158394Y-92525500D01*
X182275944Y-92525500D01*
X182342983Y-92545185D01*
X182363625Y-92561819D01*
X185104624Y-95302819D01*
X185138109Y-95364142D01*
X185133125Y-95433834D01*
X185091253Y-95489767D01*
X185025789Y-95514184D01*
X185016943Y-95514500D01*
X153239452Y-95514500D01*
X153172413Y-95494815D01*
X153126658Y-95442011D01*
X153116714Y-95372853D01*
X153145739Y-95309297D01*
X153151771Y-95302819D01*
X153405702Y-95048887D01*
X153495739Y-94958849D01*
X153557060Y-94925366D01*
X153559070Y-94924947D01*
X153670439Y-94902795D01*
X153816121Y-94842452D01*
X153947231Y-94754847D01*
X154058731Y-94643347D01*
X154146336Y-94512237D01*
X154206679Y-94366555D01*
X154237442Y-94211900D01*
X154237442Y-94054216D01*
X154237442Y-94054213D01*
X154237441Y-94054211D01*
X154216015Y-93946498D01*
X154206679Y-93899561D01*
X154206677Y-93899556D01*
X154146339Y-93753885D01*
X154146332Y-93753872D01*
X154058731Y-93622769D01*
X154058728Y-93622765D01*
X153947234Y-93511271D01*
X153947230Y-93511268D01*
X153816127Y-93423667D01*
X153816114Y-93423660D01*
X153670443Y-93363322D01*
X153670431Y-93363319D01*
X153515787Y-93332558D01*
X153515784Y-93332558D01*
X153358100Y-93332558D01*
X153358097Y-93332558D01*
X153203452Y-93363319D01*
X153203440Y-93363322D01*
X153057769Y-93423660D01*
X153057756Y-93423667D01*
X152926653Y-93511268D01*
X152926649Y-93511271D01*
X152815155Y-93622765D01*
X152815152Y-93622769D01*
X152727551Y-93753872D01*
X152727544Y-93753885D01*
X152667206Y-93899556D01*
X152667203Y-93899566D01*
X152645083Y-94010772D01*
X152612698Y-94072683D01*
X152611147Y-94074261D01*
X151897229Y-94788181D01*
X151835906Y-94821666D01*
X151809548Y-94824500D01*
X139094100Y-94824500D01*
X139027061Y-94804815D01*
X138981306Y-94752011D01*
X138971362Y-94682853D01*
X138990998Y-94631609D01*
X139039390Y-94559185D01*
X139039390Y-94559184D01*
X139039394Y-94559179D01*
X139099737Y-94413497D01*
X139130500Y-94258842D01*
X139130500Y-94101158D01*
X139130500Y-94101155D01*
X139130499Y-94101153D01*
X139124836Y-94072683D01*
X139099737Y-93946503D01*
X139093137Y-93930568D01*
X139039397Y-93800827D01*
X139039390Y-93800814D01*
X138951789Y-93669711D01*
X138951786Y-93669707D01*
X138840292Y-93558213D01*
X138840288Y-93558210D01*
X138709185Y-93470609D01*
X138709172Y-93470602D01*
X138563501Y-93410264D01*
X138563489Y-93410261D01*
X138452285Y-93388141D01*
X138390374Y-93355756D01*
X138388795Y-93354205D01*
X137511819Y-92477229D01*
X137478334Y-92415906D01*
X137475500Y-92389548D01*
X137475500Y-90527648D01*
X139549500Y-90527648D01*
X139549500Y-90732352D01*
X139552614Y-90752011D01*
X139581522Y-90934534D01*
X139644781Y-91129223D01*
X139687722Y-91213497D01*
X139737464Y-91311122D01*
X139737715Y-91311613D01*
X139858028Y-91477213D01*
X140002786Y-91621971D01*
X140131132Y-91715218D01*
X140168390Y-91742287D01*
X140239417Y-91778477D01*
X140350776Y-91835218D01*
X140350778Y-91835218D01*
X140350781Y-91835220D01*
X140455137Y-91869127D01*
X140545465Y-91898477D01*
X140611753Y-91908976D01*
X140747648Y-91930500D01*
X140747649Y-91930500D01*
X140952351Y-91930500D01*
X140952352Y-91930500D01*
X141154534Y-91898477D01*
X141349219Y-91835220D01*
X141531610Y-91742287D01*
X141624590Y-91674732D01*
X141697213Y-91621971D01*
X141697215Y-91621968D01*
X141697219Y-91621966D01*
X141841966Y-91477219D01*
X141841968Y-91477215D01*
X141841971Y-91477213D01*
X141929150Y-91357219D01*
X141962287Y-91311610D01*
X142055220Y-91129219D01*
X142118477Y-90934534D01*
X142150500Y-90732352D01*
X142150500Y-90527648D01*
X142135504Y-90432967D01*
X142118477Y-90325465D01*
X142071050Y-90179500D01*
X142055220Y-90130781D01*
X142055218Y-90130778D01*
X142055218Y-90130776D01*
X142003451Y-90029179D01*
X141962287Y-89948390D01*
X141953489Y-89936281D01*
X141841971Y-89782786D01*
X141697213Y-89638028D01*
X141531613Y-89517715D01*
X141531612Y-89517714D01*
X141531610Y-89517713D01*
X141446857Y-89474529D01*
X141349223Y-89424781D01*
X141154534Y-89361522D01*
X140979995Y-89333878D01*
X140952352Y-89329500D01*
X140747648Y-89329500D01*
X140723329Y-89333351D01*
X140545465Y-89361522D01*
X140350776Y-89424781D01*
X140168386Y-89517715D01*
X140002786Y-89638028D01*
X139858028Y-89782786D01*
X139737715Y-89948386D01*
X139644781Y-90130776D01*
X139581522Y-90325465D01*
X139558676Y-90469711D01*
X139549500Y-90527648D01*
X137475500Y-90527648D01*
X137475500Y-86962350D01*
X137495185Y-86895311D01*
X137496398Y-86893459D01*
X137496809Y-86892843D01*
X137559394Y-86799179D01*
X137619737Y-86653497D01*
X137650500Y-86498842D01*
X137650500Y-86341158D01*
X137650500Y-86341157D01*
X137649903Y-86335095D01*
X137651792Y-86334908D01*
X137657227Y-86274111D01*
X137700085Y-86218929D01*
X137765972Y-86195678D01*
X137772621Y-86195500D01*
X139161607Y-86195500D01*
X139222029Y-86183481D01*
X139282452Y-86171463D01*
X139329746Y-86151873D01*
X139335815Y-86149359D01*
X139335819Y-86149358D01*
X139396281Y-86124314D01*
X139396280Y-86124314D01*
X139396286Y-86124312D01*
X139447509Y-86090084D01*
X139498733Y-86055858D01*
X139585858Y-85968733D01*
X139585859Y-85968731D01*
X139592925Y-85961665D01*
X139592928Y-85961661D01*
X141178729Y-84375860D01*
X141178733Y-84375858D01*
X141265858Y-84288733D01*
X141328673Y-84194724D01*
X141334312Y-84186285D01*
X141377730Y-84081463D01*
X141381463Y-84072452D01*
X141400710Y-83975689D01*
X141405500Y-83951607D01*
X141405500Y-83830118D01*
X141408674Y-83819306D01*
X141407470Y-83808101D01*
X141418342Y-83786380D01*
X141425185Y-83763079D01*
X141433701Y-83755699D01*
X141438746Y-83745622D01*
X141459633Y-83733228D01*
X141477989Y-83717324D01*
X141489143Y-83715720D01*
X141498835Y-83709970D01*
X141523105Y-83710836D01*
X141547147Y-83707380D01*
X141557398Y-83712061D01*
G37*
%TD.AperFunction*%
%TA.AperFunction,Conductor*%
G36*
X135994418Y-86215185D02*
G01*
X136040173Y-86267989D01*
X136049817Y-86335067D01*
X136050097Y-86335095D01*
X136049985Y-86336230D01*
X136050117Y-86337147D01*
X136049594Y-86340197D01*
X136049500Y-86341157D01*
X136049500Y-86498846D01*
X136080261Y-86653489D01*
X136080264Y-86653501D01*
X136140602Y-86799172D01*
X136140609Y-86799184D01*
X136203602Y-86893459D01*
X136224480Y-86960136D01*
X136224500Y-86962350D01*
X136224500Y-92761611D01*
X136248535Y-92882444D01*
X136248540Y-92882461D01*
X136295685Y-92996280D01*
X136295687Y-92996283D01*
X136295688Y-92996286D01*
X136329915Y-93047509D01*
X136364142Y-93098733D01*
X136451267Y-93185858D01*
X136451270Y-93185860D01*
X136458554Y-93193144D01*
X137504205Y-94238795D01*
X137537690Y-94300118D01*
X137538141Y-94302285D01*
X137560261Y-94413489D01*
X137560264Y-94413501D01*
X137620602Y-94559172D01*
X137620609Y-94559185D01*
X137669002Y-94631609D01*
X137689880Y-94698286D01*
X137671396Y-94765666D01*
X137619417Y-94812357D01*
X137565900Y-94824500D01*
X123389500Y-94824500D01*
X123322461Y-94804815D01*
X123276706Y-94752011D01*
X123265500Y-94700500D01*
X123265500Y-90407648D01*
X124279500Y-90407648D01*
X124279500Y-90612351D01*
X124311522Y-90814534D01*
X124374781Y-91009223D01*
X124433336Y-91124142D01*
X124446766Y-91150500D01*
X124467715Y-91191613D01*
X124588028Y-91357213D01*
X124732786Y-91501971D01*
X124887749Y-91614556D01*
X124898390Y-91622287D01*
X125014607Y-91681503D01*
X125080776Y-91715218D01*
X125080778Y-91715218D01*
X125080781Y-91715220D01*
X125164085Y-91742287D01*
X125275465Y-91778477D01*
X125376557Y-91794488D01*
X125477648Y-91810500D01*
X125477649Y-91810500D01*
X125682351Y-91810500D01*
X125682352Y-91810500D01*
X125884534Y-91778477D01*
X126079219Y-91715220D01*
X126261610Y-91622287D01*
X126354590Y-91554732D01*
X126427213Y-91501971D01*
X126427215Y-91501968D01*
X126427219Y-91501966D01*
X126571966Y-91357219D01*
X126571968Y-91357215D01*
X126571971Y-91357213D01*
X126641299Y-91261789D01*
X126692287Y-91191610D01*
X126785220Y-91009219D01*
X126848477Y-90814534D01*
X126880500Y-90612352D01*
X126880500Y-90407648D01*
X126871109Y-90348359D01*
X126848477Y-90205465D01*
X126791198Y-90029179D01*
X126785220Y-90010781D01*
X126785218Y-90010778D01*
X126785218Y-90010776D01*
X126742806Y-89927539D01*
X126692287Y-89828390D01*
X126659154Y-89782786D01*
X126571971Y-89662786D01*
X126427213Y-89518028D01*
X126261613Y-89397715D01*
X126261612Y-89397714D01*
X126261610Y-89397713D01*
X126190583Y-89361523D01*
X126079223Y-89304781D01*
X125884534Y-89241522D01*
X125709995Y-89213878D01*
X125682352Y-89209500D01*
X125477648Y-89209500D01*
X125453329Y-89213351D01*
X125275465Y-89241522D01*
X125080776Y-89304781D01*
X124898386Y-89397715D01*
X124732786Y-89518028D01*
X124588028Y-89662786D01*
X124467715Y-89828386D01*
X124374781Y-90010776D01*
X124311522Y-90205465D01*
X124279500Y-90407648D01*
X123265500Y-90407648D01*
X123265500Y-86972418D01*
X123285185Y-86905379D01*
X123286398Y-86903527D01*
X123293125Y-86893459D01*
X123329394Y-86839179D01*
X123389737Y-86693497D01*
X123420500Y-86538842D01*
X123420500Y-86381158D01*
X123420500Y-86381155D01*
X123420499Y-86381153D01*
X123413048Y-86343691D01*
X123419275Y-86274100D01*
X123462138Y-86218922D01*
X123528028Y-86195678D01*
X123534665Y-86195500D01*
X135927379Y-86195500D01*
X135994418Y-86215185D01*
G37*
%TD.AperFunction*%
%TA.AperFunction,Conductor*%
G36*
X156944364Y-62695185D02*
G01*
X156990119Y-62747989D01*
X157000063Y-62817147D01*
X156971038Y-62880703D01*
X156965006Y-62887181D01*
X154774007Y-65078181D01*
X154712684Y-65111666D01*
X154686326Y-65114500D01*
X152754500Y-65114500D01*
X152687461Y-65094815D01*
X152641706Y-65042011D01*
X152630500Y-64990500D01*
X152630500Y-64901155D01*
X152630499Y-64901153D01*
X152625126Y-64874142D01*
X152599737Y-64746503D01*
X152567101Y-64667712D01*
X152539397Y-64600827D01*
X152539390Y-64600814D01*
X152451789Y-64469711D01*
X152451786Y-64469707D01*
X152340292Y-64358213D01*
X152340288Y-64358210D01*
X152209185Y-64270609D01*
X152209172Y-64270602D01*
X152063501Y-64210264D01*
X152063489Y-64210261D01*
X151908845Y-64179500D01*
X151908842Y-64179500D01*
X151751158Y-64179500D01*
X151751155Y-64179500D01*
X151596510Y-64210261D01*
X151596498Y-64210264D01*
X151450827Y-64270602D01*
X151450814Y-64270609D01*
X151319711Y-64358210D01*
X151319707Y-64358213D01*
X151208213Y-64469707D01*
X151208210Y-64469711D01*
X151120609Y-64600814D01*
X151120602Y-64600827D01*
X151060264Y-64746498D01*
X151060261Y-64746510D01*
X151041726Y-64839691D01*
X151009341Y-64901602D01*
X150948625Y-64936177D01*
X150920109Y-64939500D01*
X150831155Y-64939500D01*
X150676510Y-64970261D01*
X150676498Y-64970264D01*
X150530827Y-65030602D01*
X150530814Y-65030609D01*
X150399711Y-65118210D01*
X150399707Y-65118213D01*
X150288213Y-65229707D01*
X150288210Y-65229711D01*
X150200609Y-65360814D01*
X150200602Y-65360827D01*
X150140264Y-65506498D01*
X150140261Y-65506508D01*
X150113769Y-65639692D01*
X150081384Y-65701603D01*
X150020668Y-65736177D01*
X149992152Y-65739500D01*
X148975453Y-65739500D01*
X148908414Y-65719815D01*
X148887772Y-65703181D01*
X147915793Y-64731203D01*
X147882308Y-64669880D01*
X147881887Y-64667864D01*
X147859737Y-64556503D01*
X147816358Y-64451775D01*
X147799397Y-64410827D01*
X147799390Y-64410814D01*
X147711789Y-64279711D01*
X147711786Y-64279707D01*
X147600292Y-64168213D01*
X147600288Y-64168210D01*
X147469185Y-64080609D01*
X147469172Y-64080602D01*
X147323501Y-64020264D01*
X147323489Y-64020261D01*
X147168845Y-63989500D01*
X147168842Y-63989500D01*
X147011158Y-63989500D01*
X147011155Y-63989500D01*
X146856510Y-64020261D01*
X146856498Y-64020264D01*
X146710827Y-64080602D01*
X146710814Y-64080609D01*
X146579711Y-64168210D01*
X146579707Y-64168213D01*
X146468213Y-64279707D01*
X146468210Y-64279711D01*
X146380609Y-64410814D01*
X146380602Y-64410827D01*
X146320264Y-64556498D01*
X146320261Y-64556510D01*
X146289500Y-64711153D01*
X146289500Y-64742351D01*
X146269815Y-64809390D01*
X146217011Y-64855145D01*
X146147853Y-64865089D01*
X146141310Y-64863969D01*
X146118842Y-64859500D01*
X145961158Y-64859500D01*
X145961155Y-64859500D01*
X145806510Y-64890261D01*
X145806498Y-64890264D01*
X145660827Y-64950602D01*
X145660815Y-64950609D01*
X145566541Y-65013602D01*
X145499864Y-65034480D01*
X145497650Y-65034500D01*
X145173704Y-65034500D01*
X145106665Y-65014815D01*
X145060910Y-64962011D01*
X145050966Y-64892853D01*
X145053027Y-64881986D01*
X145054091Y-64877481D01*
X145054450Y-64874142D01*
X145060500Y-64817873D01*
X145060499Y-63822128D01*
X145054091Y-63762517D01*
X145016285Y-63661155D01*
X145003797Y-63627671D01*
X145003793Y-63627664D01*
X144917547Y-63512455D01*
X144917544Y-63512452D01*
X144802335Y-63426206D01*
X144802328Y-63426202D01*
X144667482Y-63375908D01*
X144667483Y-63375908D01*
X144607883Y-63369501D01*
X144607881Y-63369500D01*
X144607873Y-63369500D01*
X144607864Y-63369500D01*
X143012129Y-63369500D01*
X143012123Y-63369501D01*
X142952516Y-63375908D01*
X142817671Y-63426202D01*
X142817668Y-63426204D01*
X142749245Y-63477426D01*
X142683781Y-63501843D01*
X142615508Y-63486991D01*
X142566102Y-63437586D01*
X142560373Y-63425611D01*
X142529397Y-63350827D01*
X142529390Y-63350814D01*
X142441789Y-63219711D01*
X142441786Y-63219707D01*
X142330292Y-63108213D01*
X142330288Y-63108210D01*
X142199185Y-63020609D01*
X142199172Y-63020602D01*
X142053501Y-62960264D01*
X142053489Y-62960261D01*
X141898845Y-62929500D01*
X141898842Y-62929500D01*
X141741158Y-62929500D01*
X141741155Y-62929500D01*
X141586510Y-62960261D01*
X141586498Y-62960264D01*
X141440827Y-63020602D01*
X141440814Y-63020609D01*
X141309711Y-63108210D01*
X141309707Y-63108213D01*
X141198213Y-63219707D01*
X141198210Y-63219711D01*
X141110609Y-63350814D01*
X141110602Y-63350827D01*
X141050264Y-63496498D01*
X141050261Y-63496508D01*
X141028141Y-63607714D01*
X140995756Y-63669625D01*
X140994205Y-63671203D01*
X140390356Y-64275053D01*
X139791270Y-64874139D01*
X139791267Y-64874142D01*
X139765999Y-64899410D01*
X139704140Y-64961268D01*
X139688228Y-64985084D01*
X139686581Y-64987549D01*
X139635688Y-65063714D01*
X139635686Y-65063717D01*
X139607320Y-65132201D01*
X139588538Y-65177543D01*
X139588535Y-65177555D01*
X139578927Y-65225855D01*
X139578928Y-65225856D01*
X139565433Y-65293706D01*
X139565431Y-65293715D01*
X139564500Y-65298394D01*
X139564500Y-68337650D01*
X139544815Y-68404689D01*
X139543626Y-68406503D01*
X139528471Y-68429185D01*
X139480609Y-68500815D01*
X139480602Y-68500828D01*
X139420264Y-68646498D01*
X139420261Y-68646510D01*
X139389500Y-68801153D01*
X139389500Y-68958846D01*
X139420261Y-69113489D01*
X139420264Y-69113501D01*
X139480602Y-69259172D01*
X139480609Y-69259185D01*
X139568210Y-69390288D01*
X139568213Y-69390292D01*
X139679707Y-69501786D01*
X139679711Y-69501789D01*
X139810814Y-69589390D01*
X139810827Y-69589397D01*
X139956498Y-69649735D01*
X139956503Y-69649737D01*
X140111153Y-69680499D01*
X140111156Y-69680500D01*
X140111158Y-69680500D01*
X140268844Y-69680500D01*
X140268845Y-69680499D01*
X140423497Y-69649737D01*
X140569179Y-69589394D01*
X140700289Y-69501789D01*
X140811789Y-69390289D01*
X140899394Y-69259179D01*
X140900503Y-69256503D01*
X140922909Y-69202409D01*
X140959737Y-69113497D01*
X140990500Y-68958842D01*
X140990500Y-68801158D01*
X140990500Y-68801155D01*
X140990499Y-68801153D01*
X140982193Y-68759397D01*
X140959737Y-68646503D01*
X140958018Y-68642352D01*
X140899397Y-68500828D01*
X140899396Y-68500827D01*
X140899394Y-68500821D01*
X140836397Y-68406539D01*
X140815520Y-68339863D01*
X140815500Y-68337650D01*
X140815500Y-65670451D01*
X140835185Y-65603412D01*
X140851815Y-65582774D01*
X141112487Y-65322102D01*
X141173807Y-65288619D01*
X141243498Y-65293603D01*
X141299432Y-65335474D01*
X141321782Y-65385593D01*
X141340261Y-65478491D01*
X141340264Y-65478501D01*
X141400603Y-65624174D01*
X141400605Y-65624177D01*
X141403601Y-65628661D01*
X141424480Y-65695338D01*
X141424500Y-65697553D01*
X141424500Y-67507650D01*
X141404815Y-67574689D01*
X141403602Y-67576541D01*
X141340609Y-67670815D01*
X141340602Y-67670828D01*
X141280264Y-67816498D01*
X141280261Y-67816510D01*
X141249500Y-67971153D01*
X141249500Y-68128846D01*
X141280261Y-68283489D01*
X141280264Y-68283501D01*
X141340602Y-68429172D01*
X141340609Y-68429185D01*
X141428210Y-68560288D01*
X141428213Y-68560292D01*
X141539707Y-68671786D01*
X141539711Y-68671789D01*
X141670814Y-68759390D01*
X141670827Y-68759397D01*
X141816498Y-68819735D01*
X141816503Y-68819737D01*
X141941165Y-68844534D01*
X141971153Y-68850499D01*
X141971156Y-68850500D01*
X141971158Y-68850500D01*
X141985500Y-68850500D01*
X142052539Y-68870185D01*
X142098294Y-68922989D01*
X142109500Y-68974500D01*
X142109500Y-81976611D01*
X142133535Y-82097443D01*
X142133538Y-82097455D01*
X142140061Y-82113202D01*
X142149500Y-82160654D01*
X142149500Y-82208846D01*
X142180261Y-82363489D01*
X142180264Y-82363501D01*
X142240602Y-82509172D01*
X142240609Y-82509185D01*
X142283967Y-82574074D01*
X142304845Y-82640751D01*
X142286361Y-82708132D01*
X142234382Y-82754822D01*
X142205059Y-82764582D01*
X142176506Y-82770262D01*
X142176498Y-82770264D01*
X142030827Y-82830602D01*
X142030814Y-82830609D01*
X141899711Y-82918210D01*
X141899707Y-82918213D01*
X141788213Y-83029707D01*
X141788210Y-83029711D01*
X141700609Y-83160814D01*
X141700602Y-83160827D01*
X141644061Y-83297333D01*
X141600220Y-83351737D01*
X141533926Y-83373802D01*
X141466227Y-83356523D01*
X141418616Y-83305386D01*
X141405500Y-83249881D01*
X141405500Y-82113861D01*
X141425185Y-82046822D01*
X141465418Y-82009362D01*
X141465231Y-82009112D01*
X141467565Y-82007364D01*
X141470076Y-82005027D01*
X141472323Y-82003798D01*
X141472331Y-82003796D01*
X141587546Y-81917546D01*
X141673796Y-81802331D01*
X141724091Y-81667483D01*
X141730500Y-81607873D01*
X141730499Y-80012128D01*
X141724091Y-79952517D01*
X141713779Y-79924870D01*
X141673797Y-79817671D01*
X141673793Y-79817664D01*
X141587547Y-79702455D01*
X141587544Y-79702452D01*
X141472335Y-79616206D01*
X141472328Y-79616202D01*
X141337482Y-79565908D01*
X141337483Y-79565908D01*
X141277883Y-79559501D01*
X141277881Y-79559500D01*
X141277873Y-79559500D01*
X141277864Y-79559500D01*
X140282129Y-79559500D01*
X140282123Y-79559501D01*
X140222518Y-79565908D01*
X140188331Y-79578659D01*
X140118639Y-79583642D01*
X140101669Y-79578659D01*
X140067480Y-79565908D01*
X140067482Y-79565908D01*
X140007883Y-79559501D01*
X140007881Y-79559500D01*
X140007873Y-79559500D01*
X140007864Y-79559500D01*
X139012129Y-79559500D01*
X139012123Y-79559501D01*
X138952518Y-79565908D01*
X138918331Y-79578659D01*
X138848639Y-79583642D01*
X138831669Y-79578659D01*
X138797480Y-79565908D01*
X138797482Y-79565908D01*
X138737883Y-79559501D01*
X138737881Y-79559500D01*
X138737873Y-79559500D01*
X138737864Y-79559500D01*
X137742129Y-79559500D01*
X137742123Y-79559501D01*
X137682518Y-79565908D01*
X137648331Y-79578659D01*
X137578639Y-79583642D01*
X137561669Y-79578659D01*
X137527480Y-79565908D01*
X137527482Y-79565908D01*
X137467883Y-79559501D01*
X137467881Y-79559500D01*
X137467873Y-79559500D01*
X137467864Y-79559500D01*
X136472129Y-79559500D01*
X136472123Y-79559501D01*
X136412518Y-79565908D01*
X136378331Y-79578659D01*
X136308639Y-79583642D01*
X136291669Y-79578659D01*
X136257480Y-79565908D01*
X136257482Y-79565908D01*
X136197883Y-79559501D01*
X136197881Y-79559500D01*
X136197873Y-79559500D01*
X136197864Y-79559500D01*
X135202129Y-79559500D01*
X135202123Y-79559501D01*
X135142518Y-79565908D01*
X135108331Y-79578659D01*
X135038639Y-79583642D01*
X135021669Y-79578659D01*
X134987480Y-79565908D01*
X134987482Y-79565908D01*
X134927883Y-79559501D01*
X134927881Y-79559500D01*
X134927873Y-79559500D01*
X134927864Y-79559500D01*
X133932129Y-79559500D01*
X133932123Y-79559501D01*
X133872518Y-79565908D01*
X133838331Y-79578659D01*
X133768639Y-79583642D01*
X133751669Y-79578659D01*
X133717480Y-79565908D01*
X133717482Y-79565908D01*
X133657883Y-79559501D01*
X133657881Y-79559500D01*
X133657873Y-79559500D01*
X133657864Y-79559500D01*
X132662129Y-79559500D01*
X132662123Y-79559501D01*
X132602518Y-79565908D01*
X132568331Y-79578659D01*
X132498639Y-79583642D01*
X132481669Y-79578659D01*
X132447480Y-79565908D01*
X132447482Y-79565908D01*
X132387883Y-79559501D01*
X132387881Y-79559500D01*
X132387873Y-79559500D01*
X132387864Y-79559500D01*
X131392129Y-79559500D01*
X131392123Y-79559501D01*
X131332518Y-79565908D01*
X131298331Y-79578659D01*
X131228639Y-79583642D01*
X131211669Y-79578659D01*
X131177480Y-79565908D01*
X131177482Y-79565908D01*
X131117883Y-79559501D01*
X131117881Y-79559500D01*
X131117873Y-79559500D01*
X131117864Y-79559500D01*
X130122129Y-79559500D01*
X130122123Y-79559501D01*
X130062516Y-79565908D01*
X129927671Y-79616202D01*
X129927664Y-79616206D01*
X129812455Y-79702452D01*
X129812452Y-79702455D01*
X129726206Y-79817664D01*
X129726202Y-79817671D01*
X129675908Y-79952517D01*
X129670750Y-80000500D01*
X129669501Y-80012123D01*
X129669500Y-80012135D01*
X129669500Y-81607870D01*
X129669501Y-81607876D01*
X129675908Y-81667483D01*
X129726202Y-81802328D01*
X129726206Y-81802335D01*
X129812452Y-81917544D01*
X129812455Y-81917547D01*
X129927664Y-82003793D01*
X129927671Y-82003797D01*
X130062517Y-82054091D01*
X130062516Y-82054091D01*
X130069444Y-82054835D01*
X130122127Y-82060500D01*
X131117872Y-82060499D01*
X131177483Y-82054091D01*
X131211667Y-82041340D01*
X131281358Y-82036357D01*
X131298327Y-82041338D01*
X131332517Y-82054091D01*
X131392127Y-82060500D01*
X132387872Y-82060499D01*
X132447483Y-82054091D01*
X132481667Y-82041340D01*
X132551358Y-82036357D01*
X132568327Y-82041338D01*
X132602517Y-82054091D01*
X132662127Y-82060500D01*
X133657872Y-82060499D01*
X133717483Y-82054091D01*
X133751667Y-82041340D01*
X133821358Y-82036357D01*
X133838327Y-82041338D01*
X133872517Y-82054091D01*
X133932127Y-82060500D01*
X134927872Y-82060499D01*
X134987483Y-82054091D01*
X135021667Y-82041340D01*
X135091358Y-82036357D01*
X135108327Y-82041338D01*
X135142517Y-82054091D01*
X135202127Y-82060500D01*
X136197872Y-82060499D01*
X136257483Y-82054091D01*
X136291667Y-82041340D01*
X136361358Y-82036357D01*
X136378327Y-82041338D01*
X136412517Y-82054091D01*
X136472127Y-82060500D01*
X137467872Y-82060499D01*
X137527483Y-82054091D01*
X137561667Y-82041340D01*
X137631358Y-82036357D01*
X137648327Y-82041338D01*
X137682517Y-82054091D01*
X137742127Y-82060500D01*
X138737872Y-82060499D01*
X138737875Y-82060498D01*
X138737885Y-82060498D01*
X138747243Y-82059492D01*
X138816003Y-82071896D01*
X138867141Y-82119506D01*
X138884500Y-82182781D01*
X138884500Y-82539547D01*
X138875855Y-82568986D01*
X138869332Y-82598974D01*
X138865577Y-82603989D01*
X138864815Y-82606586D01*
X138848185Y-82627223D01*
X138797579Y-82677830D01*
X138761203Y-82714206D01*
X138699879Y-82747690D01*
X138697714Y-82748141D01*
X138586508Y-82770261D01*
X138586498Y-82770264D01*
X138440827Y-82830602D01*
X138440814Y-82830609D01*
X138309711Y-82918210D01*
X138309707Y-82918213D01*
X138198213Y-83029707D01*
X138198210Y-83029711D01*
X138110609Y-83160814D01*
X138110602Y-83160827D01*
X138050264Y-83306498D01*
X138050261Y-83306510D01*
X138019500Y-83461153D01*
X138019500Y-83618846D01*
X138050261Y-83773489D01*
X138050264Y-83773501D01*
X138110602Y-83919172D01*
X138110609Y-83919185D01*
X138198210Y-84050288D01*
X138198213Y-84050292D01*
X138309707Y-84161786D01*
X138309711Y-84161789D01*
X138440814Y-84249390D01*
X138440827Y-84249397D01*
X138535794Y-84288733D01*
X138586503Y-84309737D01*
X138706822Y-84333670D01*
X138741153Y-84340499D01*
X138741156Y-84340500D01*
X138741158Y-84340500D01*
X138898844Y-84340500D01*
X138898845Y-84340499D01*
X139053497Y-84309737D01*
X139198259Y-84249774D01*
X139267728Y-84242306D01*
X139330207Y-84273581D01*
X139365859Y-84333670D01*
X139363365Y-84403495D01*
X139333392Y-84452017D01*
X138877229Y-84908181D01*
X138815906Y-84941666D01*
X138789548Y-84944500D01*
X136977848Y-84944500D01*
X136910809Y-84924815D01*
X136865054Y-84872011D01*
X136856231Y-84844692D01*
X136829738Y-84711508D01*
X136829737Y-84711507D01*
X136829737Y-84711503D01*
X136829735Y-84711498D01*
X136769397Y-84565827D01*
X136769390Y-84565814D01*
X136681789Y-84434711D01*
X136681786Y-84434707D01*
X136570292Y-84323213D01*
X136570288Y-84323210D01*
X136439185Y-84235609D01*
X136439172Y-84235602D01*
X136293501Y-84175264D01*
X136293489Y-84175261D01*
X136182285Y-84153141D01*
X136120374Y-84120756D01*
X136118795Y-84119205D01*
X135648513Y-83648923D01*
X135640860Y-83641270D01*
X135640858Y-83641267D01*
X135553733Y-83554142D01*
X135490075Y-83511607D01*
X135483843Y-83507443D01*
X135483840Y-83507440D01*
X135451290Y-83485690D01*
X135451286Y-83485688D01*
X135437264Y-83479880D01*
X135368658Y-83451463D01*
X135337452Y-83438537D01*
X135256580Y-83422451D01*
X135252688Y-83421676D01*
X135252685Y-83421676D01*
X135232648Y-83417690D01*
X135216607Y-83414500D01*
X135216606Y-83414500D01*
X125744451Y-83414500D01*
X125677412Y-83394815D01*
X125631657Y-83342011D01*
X125621713Y-83272853D01*
X125650738Y-83209297D01*
X125656770Y-83202819D01*
X127532362Y-81327228D01*
X133487772Y-75371819D01*
X133549095Y-75338334D01*
X133575453Y-75335500D01*
X140272650Y-75335500D01*
X140339689Y-75355185D01*
X140341541Y-75356398D01*
X140435821Y-75419394D01*
X140435823Y-75419395D01*
X140435827Y-75419397D01*
X140581498Y-75479735D01*
X140581503Y-75479737D01*
X140736153Y-75510499D01*
X140736156Y-75510500D01*
X140736158Y-75510500D01*
X140893844Y-75510500D01*
X140893845Y-75510499D01*
X141048497Y-75479737D01*
X141194179Y-75419394D01*
X141325289Y-75331789D01*
X141436789Y-75220289D01*
X141524394Y-75089179D01*
X141524617Y-75088642D01*
X141545808Y-75037481D01*
X141584737Y-74943497D01*
X141615500Y-74788842D01*
X141615500Y-74631158D01*
X141615500Y-74631155D01*
X141615499Y-74631153D01*
X141611455Y-74610821D01*
X141584737Y-74476503D01*
X141580188Y-74465520D01*
X141524397Y-74330827D01*
X141524390Y-74330814D01*
X141436789Y-74199711D01*
X141436786Y-74199707D01*
X141325292Y-74088213D01*
X141325288Y-74088210D01*
X141194185Y-74000609D01*
X141194172Y-74000602D01*
X141048501Y-73940264D01*
X141048489Y-73940261D01*
X140893845Y-73909500D01*
X140893842Y-73909500D01*
X140736158Y-73909500D01*
X140736155Y-73909500D01*
X140581510Y-73940261D01*
X140581498Y-73940264D01*
X140435827Y-74000602D01*
X140435815Y-74000609D01*
X140341541Y-74063602D01*
X140274864Y-74084480D01*
X140272650Y-74084500D01*
X133332741Y-74084500D01*
X133332721Y-74084499D01*
X133326607Y-74084499D01*
X133203394Y-74084499D01*
X133203392Y-74084499D01*
X133113903Y-74102300D01*
X133113901Y-74102300D01*
X133106383Y-74103796D01*
X133082548Y-74108537D01*
X133036652Y-74127548D01*
X133032493Y-74129270D01*
X133032483Y-74129274D01*
X132968714Y-74155688D01*
X132968712Y-74155689D01*
X132866267Y-74224141D01*
X132866263Y-74224144D01*
X127772180Y-79318228D01*
X127710857Y-79351713D01*
X127641165Y-79346729D01*
X127585232Y-79304857D01*
X127560815Y-79239393D01*
X127560499Y-79230547D01*
X127560499Y-79062129D01*
X127560498Y-79062123D01*
X127554091Y-79002518D01*
X127554091Y-79002517D01*
X127541340Y-78968332D01*
X127536357Y-78898642D01*
X127541338Y-78881672D01*
X127554091Y-78847483D01*
X127560500Y-78787873D01*
X127560499Y-77792128D01*
X127554091Y-77732517D01*
X127541340Y-77698332D01*
X127536357Y-77628642D01*
X127541338Y-77611672D01*
X127554091Y-77577483D01*
X127560500Y-77517873D01*
X127560499Y-76522128D01*
X127554091Y-76462517D01*
X127541340Y-76428332D01*
X127536357Y-76358642D01*
X127541338Y-76341672D01*
X127554091Y-76307483D01*
X127560500Y-76247873D01*
X127560499Y-75252128D01*
X127554091Y-75192517D01*
X127541340Y-75158332D01*
X127536357Y-75088642D01*
X127541338Y-75071672D01*
X127554091Y-75037483D01*
X127560500Y-74977873D01*
X127560499Y-73982128D01*
X127554091Y-73922517D01*
X127541340Y-73888332D01*
X127536357Y-73818642D01*
X127541338Y-73801672D01*
X127554091Y-73767483D01*
X127560500Y-73707873D01*
X127560499Y-72712128D01*
X127554091Y-72652517D01*
X127541340Y-72618332D01*
X127536357Y-72548642D01*
X127541338Y-72531672D01*
X127554091Y-72497483D01*
X127560500Y-72437873D01*
X127560499Y-71442128D01*
X127554091Y-71382517D01*
X127541340Y-71348332D01*
X127536357Y-71278642D01*
X127541338Y-71261672D01*
X127554091Y-71227483D01*
X127560500Y-71167873D01*
X127560499Y-70172128D01*
X127554091Y-70112517D01*
X127541340Y-70078332D01*
X127536357Y-70008642D01*
X127541340Y-69991669D01*
X127554091Y-69957483D01*
X127560500Y-69897873D01*
X127560499Y-68902128D01*
X127554091Y-68842517D01*
X127541340Y-68808332D01*
X127536357Y-68738642D01*
X127541340Y-68721669D01*
X127554091Y-68687483D01*
X127560500Y-68627873D01*
X127560499Y-67632128D01*
X127554091Y-67572517D01*
X127541340Y-67538332D01*
X127536357Y-67468642D01*
X127541340Y-67451669D01*
X127554091Y-67417483D01*
X127560500Y-67357873D01*
X127560499Y-66362128D01*
X127554091Y-66302517D01*
X127541340Y-66268332D01*
X127536357Y-66198642D01*
X127541338Y-66181672D01*
X127554091Y-66147483D01*
X127560500Y-66087873D01*
X127560499Y-65194499D01*
X127580183Y-65127461D01*
X127632987Y-65081706D01*
X127684499Y-65070500D01*
X134473920Y-65070500D01*
X134582797Y-65048842D01*
X134618913Y-65041658D01*
X134749544Y-64987549D01*
X134755493Y-64985085D01*
X134755493Y-64985084D01*
X134755495Y-64985084D01*
X134814737Y-64945500D01*
X134814737Y-64945499D01*
X134814739Y-64945499D01*
X134846576Y-64924226D01*
X134878416Y-64902952D01*
X137069548Y-62711818D01*
X137130871Y-62678334D01*
X137157229Y-62675500D01*
X156877325Y-62675500D01*
X156944364Y-62695185D01*
G37*
%TD.AperFunction*%
%TA.AperFunction,Conductor*%
G36*
X159203834Y-62520047D02*
G01*
X159259767Y-62561919D01*
X159284184Y-62627383D01*
X159284500Y-62636229D01*
X159284500Y-64970443D01*
X159264815Y-65037482D01*
X159212011Y-65083237D01*
X159147247Y-65093733D01*
X159132316Y-65092128D01*
X159107873Y-65089500D01*
X159107867Y-65089500D01*
X157312129Y-65089500D01*
X157312123Y-65089501D01*
X157252516Y-65095908D01*
X157117671Y-65146202D01*
X157117664Y-65146206D01*
X157002455Y-65232452D01*
X157002452Y-65232455D01*
X156916206Y-65347664D01*
X156916202Y-65347671D01*
X156865908Y-65482517D01*
X156859501Y-65542116D01*
X156859500Y-65542135D01*
X156859500Y-67337870D01*
X156859501Y-67337876D01*
X156865908Y-67397483D01*
X156916202Y-67532328D01*
X156916206Y-67532335D01*
X157002452Y-67647544D01*
X157002455Y-67647547D01*
X157117664Y-67733793D01*
X157117671Y-67733797D01*
X157252517Y-67784091D01*
X157252516Y-67784091D01*
X157259444Y-67784835D01*
X157312127Y-67790500D01*
X159107872Y-67790499D01*
X159147246Y-67786266D01*
X159216005Y-67798672D01*
X159267142Y-67846283D01*
X159284500Y-67909556D01*
X159284500Y-70387995D01*
X159264815Y-70455034D01*
X159212011Y-70500789D01*
X159142853Y-70510733D01*
X159087615Y-70488314D01*
X158917815Y-70364948D01*
X158728414Y-70268444D01*
X158728413Y-70268443D01*
X158728412Y-70268443D01*
X158526243Y-70202754D01*
X158526241Y-70202753D01*
X158526240Y-70202753D01*
X158364957Y-70177208D01*
X158316287Y-70169500D01*
X158103713Y-70169500D01*
X158075006Y-70174046D01*
X157893757Y-70202753D01*
X157878158Y-70207822D01*
X157808317Y-70209816D01*
X157752161Y-70177571D01*
X155226080Y-67651490D01*
X155192595Y-67590167D01*
X155197579Y-67520475D01*
X155239451Y-67464542D01*
X155250546Y-67457482D01*
X155254177Y-67455055D01*
X155254179Y-67455055D01*
X155385289Y-67367450D01*
X155496789Y-67255950D01*
X155584394Y-67124840D01*
X155644737Y-66979158D01*
X155675500Y-66824503D01*
X155675500Y-66666819D01*
X155675500Y-66666816D01*
X155675499Y-66666814D01*
X155661136Y-66594606D01*
X155644737Y-66512164D01*
X155644735Y-66512159D01*
X155584397Y-66366488D01*
X155584390Y-66366475D01*
X155508948Y-66253569D01*
X155488070Y-66186892D01*
X155506554Y-66119512D01*
X155524365Y-66097001D01*
X159072821Y-62548546D01*
X159134142Y-62515063D01*
X159203834Y-62520047D01*
G37*
%TD.AperFunction*%
%TA.AperFunction,Conductor*%
G36*
X135926310Y-61519685D02*
G01*
X135972065Y-61572489D01*
X135982009Y-61641647D01*
X135952984Y-61705203D01*
X135946953Y-61711679D01*
X135031249Y-62627383D01*
X134125451Y-63533181D01*
X134064128Y-63566666D01*
X134037770Y-63569500D01*
X127522320Y-63569500D01*
X127455281Y-63549815D01*
X127423052Y-63519809D01*
X127417548Y-63512457D01*
X127417546Y-63512454D01*
X127409606Y-63506510D01*
X127302335Y-63426206D01*
X127302328Y-63426202D01*
X127167482Y-63375908D01*
X127167483Y-63375908D01*
X127107883Y-63369501D01*
X127107881Y-63369500D01*
X127107873Y-63369500D01*
X127107864Y-63369500D01*
X125512129Y-63369500D01*
X125512123Y-63369501D01*
X125452516Y-63375908D01*
X125317671Y-63426202D01*
X125317664Y-63426206D01*
X125202457Y-63512451D01*
X125202451Y-63512457D01*
X125196948Y-63519809D01*
X125141015Y-63561681D01*
X125097680Y-63569500D01*
X119422230Y-63569500D01*
X119355191Y-63549815D01*
X119334549Y-63533181D01*
X117513049Y-61711681D01*
X117479564Y-61650358D01*
X117484548Y-61580666D01*
X117526420Y-61524733D01*
X117591884Y-61500316D01*
X117600730Y-61500000D01*
X135859271Y-61500000D01*
X135926310Y-61519685D01*
G37*
%TD.AperFunction*%
%TA.AperFunction,Conductor*%
G36*
X189742539Y-19780185D02*
G01*
X189788294Y-19832989D01*
X189799500Y-19884500D01*
X189799500Y-124905500D01*
X189779815Y-124972539D01*
X189727011Y-125018294D01*
X189675500Y-125029500D01*
X70944500Y-125029500D01*
X70877461Y-125009815D01*
X70831706Y-124957011D01*
X70820500Y-124905500D01*
X70820500Y-77417648D01*
X72539500Y-77417648D01*
X72539500Y-77622351D01*
X72571522Y-77824534D01*
X72634781Y-78019223D01*
X72691599Y-78130733D01*
X72727288Y-78200776D01*
X72727715Y-78201613D01*
X72848028Y-78367213D01*
X72992786Y-78511971D01*
X73135758Y-78615844D01*
X73158390Y-78632287D01*
X73269171Y-78688733D01*
X73340776Y-78725218D01*
X73340778Y-78725218D01*
X73340781Y-78725220D01*
X73445137Y-78759127D01*
X73535465Y-78788477D01*
X73623068Y-78802352D01*
X73737648Y-78820500D01*
X73737649Y-78820500D01*
X73942351Y-78820500D01*
X73942352Y-78820500D01*
X74144534Y-78788477D01*
X74339219Y-78725220D01*
X74521610Y-78632287D01*
X74614590Y-78564732D01*
X74687213Y-78511971D01*
X74687215Y-78511968D01*
X74687219Y-78511966D01*
X74831966Y-78367219D01*
X74831968Y-78367215D01*
X74831971Y-78367213D01*
X74909027Y-78261153D01*
X74952287Y-78201610D01*
X75045220Y-78019219D01*
X75108477Y-77824534D01*
X75140500Y-77622352D01*
X75140500Y-77417648D01*
X75108477Y-77215466D01*
X75108477Y-77215465D01*
X75107715Y-77210654D01*
X75109777Y-77210327D01*
X75112784Y-77149304D01*
X75142215Y-77102373D01*
X77741453Y-74503135D01*
X77802774Y-74469652D01*
X77872466Y-74474636D01*
X77902011Y-74490496D01*
X78043567Y-74593343D01*
X78117783Y-74631158D01*
X78254003Y-74700566D01*
X78254005Y-74700566D01*
X78254008Y-74700568D01*
X78310262Y-74718846D01*
X78478631Y-74773553D01*
X78711903Y-74810500D01*
X78711908Y-74810500D01*
X78948097Y-74810500D01*
X79181368Y-74773553D01*
X79405992Y-74700568D01*
X79616433Y-74593343D01*
X79807510Y-74454517D01*
X79974517Y-74287510D01*
X80113343Y-74096433D01*
X80160845Y-74003205D01*
X80208820Y-73952409D01*
X80271330Y-73935500D01*
X83888670Y-73935500D01*
X83955709Y-73955185D01*
X83999155Y-74003205D01*
X84034971Y-74073497D01*
X84046657Y-74096433D01*
X84185483Y-74287510D01*
X84352490Y-74454517D01*
X84543567Y-74593343D01*
X84617783Y-74631158D01*
X84754003Y-74700566D01*
X84754005Y-74700566D01*
X84754008Y-74700568D01*
X84810262Y-74718846D01*
X84978631Y-74773553D01*
X85211903Y-74810500D01*
X85211908Y-74810500D01*
X85448097Y-74810500D01*
X85681368Y-74773553D01*
X85905992Y-74700568D01*
X86116433Y-74593343D01*
X86307510Y-74454517D01*
X86474517Y-74287510D01*
X86613343Y-74096433D01*
X86720568Y-73885992D01*
X86793553Y-73661368D01*
X86794420Y-73655893D01*
X86830500Y-73428097D01*
X86830500Y-73191902D01*
X86793553Y-72958631D01*
X86761219Y-72859119D01*
X86759224Y-72789278D01*
X86791467Y-72733121D01*
X92010577Y-67514011D01*
X92071899Y-67480528D01*
X92141591Y-67485512D01*
X92197524Y-67527384D01*
X92221941Y-67592848D01*
X92207089Y-67661121D01*
X92198575Y-67674579D01*
X92126659Y-67773563D01*
X92019433Y-67984003D01*
X91946446Y-68208631D01*
X91909500Y-68441902D01*
X91909500Y-68678097D01*
X91946446Y-68911368D01*
X92019433Y-69135996D01*
X92082202Y-69259185D01*
X92126657Y-69346433D01*
X92265483Y-69537510D01*
X92432490Y-69704517D01*
X92623567Y-69843343D01*
X92674273Y-69869179D01*
X92834003Y-69950566D01*
X92834005Y-69950566D01*
X92834008Y-69950568D01*
X92890256Y-69968844D01*
X93058631Y-70023553D01*
X93291903Y-70060500D01*
X93291908Y-70060500D01*
X93528097Y-70060500D01*
X93761368Y-70023553D01*
X93807259Y-70008642D01*
X93985992Y-69950568D01*
X94196433Y-69843343D01*
X94387510Y-69704517D01*
X94554517Y-69537510D01*
X94693343Y-69346433D01*
X94737801Y-69259179D01*
X94740845Y-69253205D01*
X94788820Y-69202409D01*
X94851330Y-69185500D01*
X98468670Y-69185500D01*
X98535709Y-69205185D01*
X98579155Y-69253205D01*
X98586801Y-69268211D01*
X98626657Y-69346433D01*
X98765483Y-69537510D01*
X98932490Y-69704517D01*
X99123567Y-69843343D01*
X99174273Y-69869179D01*
X99334003Y-69950566D01*
X99334005Y-69950566D01*
X99334008Y-69950568D01*
X99390256Y-69968844D01*
X99558631Y-70023553D01*
X99791903Y-70060500D01*
X99791908Y-70060500D01*
X100028097Y-70060500D01*
X100261368Y-70023553D01*
X100307259Y-70008642D01*
X100485992Y-69950568D01*
X100696433Y-69843343D01*
X100887510Y-69704517D01*
X101054517Y-69537510D01*
X101193343Y-69346433D01*
X101237801Y-69259179D01*
X101240845Y-69253205D01*
X101288820Y-69202409D01*
X101351330Y-69185500D01*
X104148296Y-69185500D01*
X104215335Y-69205185D01*
X104248614Y-69236615D01*
X104358028Y-69387213D01*
X104502786Y-69531971D01*
X104622820Y-69619179D01*
X104668390Y-69652287D01*
X104770891Y-69704514D01*
X104850776Y-69745218D01*
X104850778Y-69745218D01*
X104850781Y-69745220D01*
X104955137Y-69779127D01*
X105045465Y-69808477D01*
X105146557Y-69824488D01*
X105247648Y-69840500D01*
X105247649Y-69840500D01*
X105452351Y-69840500D01*
X105452352Y-69840500D01*
X105654534Y-69808477D01*
X105849219Y-69745220D01*
X106031610Y-69652287D01*
X106146458Y-69568846D01*
X106197213Y-69531971D01*
X106197215Y-69531968D01*
X106197219Y-69531966D01*
X106341966Y-69387219D01*
X106341968Y-69387215D01*
X106341971Y-69387213D01*
X106462286Y-69221611D01*
X106463073Y-69220068D01*
X106463527Y-69219586D01*
X106464832Y-69217458D01*
X106465279Y-69217732D01*
X106511047Y-69169272D01*
X106578868Y-69152476D01*
X106645003Y-69175013D01*
X106688455Y-69229728D01*
X106697558Y-69276362D01*
X106697558Y-77963637D01*
X106677873Y-78030676D01*
X106625069Y-78076431D01*
X106555911Y-78086375D01*
X106492355Y-78057350D01*
X106465022Y-78022425D01*
X106464832Y-78022542D01*
X106463814Y-78020880D01*
X106463077Y-78019939D01*
X106462287Y-78018389D01*
X106341971Y-77852786D01*
X106197213Y-77708028D01*
X106031613Y-77587715D01*
X106031612Y-77587714D01*
X106031610Y-77587713D01*
X105953946Y-77548141D01*
X105849223Y-77494781D01*
X105654534Y-77431522D01*
X105479995Y-77403878D01*
X105452352Y-77399500D01*
X105247648Y-77399500D01*
X105223329Y-77403351D01*
X105045465Y-77431522D01*
X104850776Y-77494781D01*
X104668386Y-77587715D01*
X104502786Y-77708028D01*
X104358028Y-77852786D01*
X104237715Y-78018386D01*
X104144781Y-78200776D01*
X104081522Y-78395465D01*
X104049500Y-78597648D01*
X104049500Y-78802351D01*
X104081522Y-79004534D01*
X104144781Y-79199223D01*
X104186530Y-79281158D01*
X104236927Y-79380068D01*
X104237715Y-79381613D01*
X104358028Y-79547213D01*
X104502786Y-79691971D01*
X104643103Y-79793915D01*
X104668390Y-79812287D01*
X104739268Y-79848401D01*
X104850776Y-79905218D01*
X104850778Y-79905218D01*
X104850781Y-79905220D01*
X104945703Y-79936062D01*
X105045465Y-79968477D01*
X105129513Y-79981789D01*
X105247648Y-80000500D01*
X105247649Y-80000500D01*
X105452351Y-80000500D01*
X105452352Y-80000500D01*
X105654534Y-79968477D01*
X105849219Y-79905220D01*
X106031610Y-79812287D01*
X106127730Y-79742452D01*
X106197213Y-79691971D01*
X106197215Y-79691968D01*
X106197219Y-79691966D01*
X106341966Y-79547219D01*
X106341968Y-79547215D01*
X106341971Y-79547213D01*
X106432934Y-79422011D01*
X106462287Y-79381610D01*
X106463073Y-79380068D01*
X106463527Y-79379586D01*
X106464832Y-79377458D01*
X106465279Y-79377732D01*
X106511047Y-79329272D01*
X106578868Y-79312476D01*
X106645003Y-79335013D01*
X106688455Y-79389728D01*
X106697558Y-79436362D01*
X106697558Y-79990487D01*
X106677873Y-80057526D01*
X106661239Y-80078168D01*
X94712180Y-92027227D01*
X94650857Y-92060712D01*
X94581165Y-92055728D01*
X94525232Y-92013856D01*
X94500815Y-91948392D01*
X94500499Y-91939546D01*
X94500499Y-90091971D01*
X94500499Y-90091964D01*
X94489886Y-89972582D01*
X94433909Y-89776951D01*
X94339698Y-89596593D01*
X94275637Y-89518028D01*
X94211109Y-89438890D01*
X94053409Y-89310304D01*
X94053410Y-89310304D01*
X94053407Y-89310302D01*
X93873049Y-89216091D01*
X93873048Y-89216090D01*
X93873045Y-89216089D01*
X93755829Y-89182550D01*
X93677418Y-89160114D01*
X93677415Y-89160113D01*
X93677413Y-89160113D01*
X93610225Y-89154140D01*
X93558037Y-89149500D01*
X93558032Y-89149500D01*
X92441971Y-89149500D01*
X92441965Y-89149500D01*
X92441964Y-89149501D01*
X92430316Y-89150536D01*
X92322584Y-89160113D01*
X92126954Y-89216089D01*
X92036772Y-89263196D01*
X91946593Y-89310302D01*
X91946591Y-89310303D01*
X91946590Y-89310304D01*
X91788890Y-89438890D01*
X91660304Y-89596590D01*
X91566089Y-89776954D01*
X91510113Y-89972584D01*
X91499500Y-90091966D01*
X91499500Y-90800500D01*
X91479815Y-90867539D01*
X91427011Y-90913294D01*
X91375500Y-90924500D01*
X88254936Y-90924500D01*
X88187897Y-90904815D01*
X88143848Y-90855594D01*
X88067032Y-90700707D01*
X88067030Y-90700704D01*
X87947722Y-90552278D01*
X87947721Y-90552277D01*
X87799295Y-90432969D01*
X87799292Y-90432967D01*
X87628697Y-90348360D01*
X87443892Y-90302400D01*
X87422506Y-90300950D01*
X87401123Y-90299500D01*
X87401120Y-90299500D01*
X85998877Y-90299500D01*
X85998874Y-90299501D01*
X85956113Y-90302399D01*
X85956112Y-90302399D01*
X85771303Y-90348360D01*
X85600707Y-90432967D01*
X85600704Y-90432969D01*
X85452278Y-90552277D01*
X85452277Y-90552278D01*
X85332969Y-90700704D01*
X85332967Y-90700707D01*
X85256152Y-90855594D01*
X85208731Y-90906907D01*
X85145064Y-90924500D01*
X76850452Y-90924500D01*
X76783413Y-90904815D01*
X76762771Y-90888181D01*
X75291819Y-89417229D01*
X75258334Y-89355906D01*
X75255500Y-89329548D01*
X75255500Y-88100452D01*
X75275185Y-88033413D01*
X75291819Y-88012771D01*
X75542772Y-87761819D01*
X75604095Y-87728334D01*
X75630453Y-87725500D01*
X76469734Y-87725500D01*
X76536773Y-87745185D01*
X76582528Y-87797989D01*
X76587440Y-87810496D01*
X76640074Y-87969334D01*
X76732176Y-88118656D01*
X76856232Y-88242712D01*
X77005554Y-88334814D01*
X77172091Y-88389999D01*
X77274879Y-88400500D01*
X78474896Y-88400499D01*
X78577685Y-88389999D01*
X78744222Y-88334814D01*
X78893544Y-88242712D01*
X79017600Y-88118656D01*
X79109702Y-87969334D01*
X79164887Y-87802797D01*
X79175388Y-87700009D01*
X79175387Y-86499992D01*
X79174947Y-86495689D01*
X79164887Y-86397203D01*
X79164886Y-86397200D01*
X79159569Y-86381155D01*
X79109702Y-86230666D01*
X79017600Y-86081344D01*
X78893544Y-85957288D01*
X78744222Y-85865186D01*
X78577685Y-85810001D01*
X78577683Y-85810000D01*
X78474898Y-85799500D01*
X77274886Y-85799500D01*
X77274869Y-85799501D01*
X77172091Y-85810000D01*
X77172088Y-85810001D01*
X77005556Y-85865185D01*
X77005551Y-85865187D01*
X76856230Y-85957289D01*
X76732177Y-86081342D01*
X76640075Y-86230663D01*
X76640074Y-86230666D01*
X76587439Y-86389506D01*
X76547669Y-86446949D01*
X76483153Y-86473772D01*
X76469735Y-86474500D01*
X75381606Y-86474500D01*
X75258393Y-86474500D01*
X75238406Y-86478475D01*
X75218419Y-86482451D01*
X75218418Y-86482450D01*
X75137555Y-86498535D01*
X75137547Y-86498537D01*
X75023716Y-86545687D01*
X74927853Y-86609742D01*
X74927845Y-86609747D01*
X74921268Y-86614140D01*
X74233849Y-87301559D01*
X74233840Y-87301568D01*
X74231269Y-87304140D01*
X74231267Y-87304142D01*
X74144142Y-87391267D01*
X74118810Y-87429179D01*
X74114058Y-87436290D01*
X74114055Y-87436294D01*
X74075690Y-87493710D01*
X74075687Y-87493716D01*
X74058231Y-87535856D01*
X74058232Y-87535857D01*
X74037540Y-87585813D01*
X74037539Y-87585816D01*
X74033621Y-87595276D01*
X74028537Y-87607549D01*
X74005076Y-87725500D01*
X74004703Y-87727372D01*
X74004696Y-87727404D01*
X74004500Y-87728390D01*
X74004500Y-89701611D01*
X74028535Y-89822444D01*
X74028540Y-89822461D01*
X74075685Y-89936281D01*
X74075688Y-89936286D01*
X74099941Y-89972582D01*
X74144142Y-90038733D01*
X74231267Y-90125858D01*
X74231270Y-90125860D01*
X74238996Y-90133586D01*
X75805754Y-91700344D01*
X75839239Y-91761667D01*
X75834255Y-91831359D01*
X75792383Y-91887292D01*
X75742265Y-91909642D01*
X75697553Y-91918535D01*
X75697538Y-91918540D01*
X75583718Y-91965685D01*
X75583714Y-91965687D01*
X75529887Y-92001655D01*
X75493919Y-92025689D01*
X75481350Y-92034087D01*
X75481264Y-92034145D01*
X75481261Y-92034147D01*
X72874144Y-94641264D01*
X72874138Y-94641272D01*
X72805690Y-94743708D01*
X72805688Y-94743713D01*
X72781633Y-94801787D01*
X72781633Y-94801789D01*
X72758537Y-94857548D01*
X72758536Y-94857552D01*
X72758536Y-94857553D01*
X72758535Y-94857556D01*
X72734500Y-94978389D01*
X72734500Y-96371610D01*
X72758535Y-96492444D01*
X72758538Y-96492454D01*
X72805687Y-96606283D01*
X72805692Y-96606292D01*
X72874141Y-96708732D01*
X72874144Y-96708736D01*
X72961263Y-96795855D01*
X72961267Y-96795858D01*
X73063707Y-96864307D01*
X73063716Y-96864312D01*
X73084739Y-96873020D01*
X73177548Y-96911463D01*
X73298389Y-96935499D01*
X73298393Y-96935500D01*
X73298394Y-96935500D01*
X73691608Y-96935500D01*
X73691608Y-96935499D01*
X73796057Y-96914724D01*
X73812452Y-96911463D01*
X73864966Y-96889711D01*
X73926286Y-96864312D01*
X73977509Y-96830084D01*
X74028733Y-96795858D01*
X74058076Y-96766514D01*
X74063982Y-96761888D01*
X74089754Y-96751625D01*
X74114096Y-96738334D01*
X74126477Y-96737002D01*
X74128895Y-96736040D01*
X74131220Y-96736492D01*
X74140454Y-96735500D01*
X76394846Y-96735500D01*
X76461885Y-96755185D01*
X76507640Y-96807989D01*
X76512552Y-96820496D01*
X76535031Y-96888332D01*
X76565186Y-96979334D01*
X76657288Y-97128656D01*
X76781344Y-97252712D01*
X76930666Y-97344814D01*
X77097203Y-97399999D01*
X77199991Y-97410500D01*
X78400008Y-97410499D01*
X78502797Y-97399999D01*
X78669334Y-97344814D01*
X78818656Y-97252712D01*
X78942712Y-97128656D01*
X79034814Y-96979334D01*
X79089999Y-96812797D01*
X79100500Y-96710009D01*
X79100499Y-95509992D01*
X79089999Y-95407203D01*
X79034814Y-95240666D01*
X78942712Y-95091344D01*
X78818656Y-94967288D01*
X78669334Y-94875186D01*
X78502797Y-94820001D01*
X78502795Y-94820000D01*
X78400010Y-94809500D01*
X77199998Y-94809500D01*
X77199981Y-94809501D01*
X77097203Y-94820000D01*
X77097200Y-94820001D01*
X76930668Y-94875185D01*
X76930663Y-94875187D01*
X76781342Y-94967289D01*
X76657289Y-95091342D01*
X76565187Y-95240663D01*
X76565186Y-95240666D01*
X76512551Y-95399506D01*
X76472781Y-95456949D01*
X76408265Y-95483772D01*
X76394847Y-95484500D01*
X74109500Y-95484500D01*
X74100814Y-95481949D01*
X74091853Y-95483238D01*
X74067812Y-95472259D01*
X74042461Y-95464815D01*
X74036533Y-95457974D01*
X74028297Y-95454213D01*
X74014007Y-95431978D01*
X73996706Y-95412011D01*
X73994418Y-95401496D01*
X73990523Y-95395435D01*
X73985500Y-95360500D01*
X73985500Y-95350452D01*
X74005185Y-95283413D01*
X74021819Y-95262771D01*
X76042771Y-93241819D01*
X76104094Y-93208334D01*
X76130452Y-93205500D01*
X80689548Y-93205500D01*
X80756587Y-93225185D01*
X80777229Y-93241819D01*
X81781016Y-94245606D01*
X81781045Y-94245637D01*
X81871263Y-94335855D01*
X81871267Y-94335858D01*
X81973707Y-94404307D01*
X81973713Y-94404310D01*
X81973714Y-94404311D01*
X82087548Y-94451463D01*
X82147971Y-94463481D01*
X82208393Y-94475500D01*
X82208394Y-94475500D01*
X85145064Y-94475500D01*
X85212103Y-94495185D01*
X85256151Y-94544405D01*
X85262840Y-94557893D01*
X85332967Y-94699292D01*
X85332969Y-94699295D01*
X85452277Y-94847721D01*
X85452278Y-94847722D01*
X85600704Y-94967030D01*
X85600707Y-94967032D01*
X85771302Y-95051639D01*
X85771303Y-95051639D01*
X85771307Y-95051641D01*
X85956111Y-95097600D01*
X85958882Y-95097787D01*
X85960049Y-95098218D01*
X85961495Y-95098445D01*
X85961449Y-95098734D01*
X86024434Y-95121955D01*
X86066517Y-95177729D01*
X86074500Y-95221503D01*
X86074500Y-96492059D01*
X86054815Y-96559098D01*
X86038181Y-96579740D01*
X85948213Y-96669707D01*
X85948210Y-96669711D01*
X85860609Y-96800814D01*
X85860602Y-96800827D01*
X85800264Y-96946498D01*
X85800261Y-96946510D01*
X85769500Y-97101153D01*
X85769500Y-97258846D01*
X85800261Y-97413489D01*
X85800264Y-97413501D01*
X85860602Y-97559172D01*
X85860609Y-97559185D01*
X85948210Y-97690288D01*
X85948213Y-97690292D01*
X86058984Y-97801063D01*
X86092469Y-97862386D01*
X86087485Y-97932078D01*
X86058984Y-97976425D01*
X80397837Y-103637571D01*
X80336514Y-103671056D01*
X80271838Y-103667821D01*
X80264219Y-103665345D01*
X80256241Y-103662753D01*
X80079806Y-103634809D01*
X80046287Y-103629500D01*
X79833713Y-103629500D01*
X79800194Y-103634809D01*
X79623760Y-103662753D01*
X79421585Y-103728444D01*
X79232179Y-103824951D01*
X79060213Y-103949890D01*
X78909890Y-104100213D01*
X78784949Y-104272182D01*
X78780484Y-104280946D01*
X78732509Y-104331742D01*
X78664688Y-104348536D01*
X78598553Y-104325998D01*
X78559516Y-104280946D01*
X78555050Y-104272182D01*
X78430109Y-104100213D01*
X78279786Y-103949890D01*
X78107820Y-103824951D01*
X77918414Y-103728444D01*
X77918413Y-103728443D01*
X77918412Y-103728443D01*
X77716243Y-103662754D01*
X77716241Y-103662753D01*
X77716240Y-103662753D01*
X77539806Y-103634809D01*
X77506287Y-103629500D01*
X77293713Y-103629500D01*
X77260194Y-103634809D01*
X77083760Y-103662753D01*
X76881585Y-103728444D01*
X76692179Y-103824951D01*
X76520213Y-103949890D01*
X76369890Y-104100213D01*
X76244951Y-104272179D01*
X76148444Y-104461585D01*
X76082753Y-104663760D01*
X76049500Y-104873713D01*
X76049500Y-105086287D01*
X76082754Y-105296243D01*
X76138705Y-105468443D01*
X76148444Y-105498414D01*
X76244951Y-105687820D01*
X76369890Y-105859786D01*
X76520213Y-106010109D01*
X76692179Y-106135048D01*
X76692181Y-106135049D01*
X76692184Y-106135051D01*
X76881588Y-106231557D01*
X77083757Y-106297246D01*
X77293713Y-106330500D01*
X77293714Y-106330500D01*
X77506286Y-106330500D01*
X77506287Y-106330500D01*
X77601728Y-106315383D01*
X77671021Y-106324337D01*
X77708807Y-106350175D01*
X93141586Y-121782954D01*
X93171058Y-121802645D01*
X93215270Y-121832186D01*
X93264505Y-121865084D01*
X93264506Y-121865084D01*
X93264507Y-121865085D01*
X93264509Y-121865086D01*
X93354350Y-121902299D01*
X93401087Y-121921658D01*
X93401091Y-121921658D01*
X93401092Y-121921659D01*
X93546079Y-121950500D01*
X93546082Y-121950500D01*
X93546083Y-121950500D01*
X93693917Y-121950500D01*
X107190003Y-121950500D01*
X107257042Y-121970185D01*
X107277684Y-121986819D01*
X109353811Y-124062947D01*
X109353818Y-124062953D01*
X109411937Y-124101786D01*
X109411939Y-124101787D01*
X109411942Y-124101789D01*
X109476738Y-124145084D01*
X109613320Y-124201658D01*
X109613324Y-124201658D01*
X109613325Y-124201659D01*
X109758312Y-124230500D01*
X109758315Y-124230500D01*
X109758316Y-124230500D01*
X109906150Y-124230500D01*
X119685396Y-124230500D01*
X119732844Y-124239937D01*
X119756503Y-124249737D01*
X119756508Y-124249738D01*
X119756511Y-124249739D01*
X119911153Y-124280499D01*
X119911156Y-124280500D01*
X119911158Y-124280500D01*
X120068844Y-124280500D01*
X120068845Y-124280499D01*
X120223497Y-124249737D01*
X120369179Y-124189394D01*
X120500289Y-124101789D01*
X120611789Y-123990289D01*
X120699394Y-123859179D01*
X120759737Y-123713497D01*
X120790500Y-123558842D01*
X120790500Y-123401158D01*
X120790500Y-123401155D01*
X120790499Y-123401153D01*
X120759738Y-123246510D01*
X120759737Y-123246503D01*
X120759735Y-123246498D01*
X120699397Y-123100827D01*
X120699390Y-123100814D01*
X120611789Y-122969711D01*
X120611786Y-122969707D01*
X120500292Y-122858213D01*
X120500288Y-122858210D01*
X120369185Y-122770609D01*
X120369172Y-122770602D01*
X120223501Y-122710264D01*
X120223489Y-122710261D01*
X120068845Y-122679500D01*
X120068842Y-122679500D01*
X119911158Y-122679500D01*
X119911155Y-122679500D01*
X119756511Y-122710260D01*
X119756506Y-122710262D01*
X119756504Y-122710262D01*
X119756503Y-122710263D01*
X119732844Y-122720062D01*
X119685396Y-122729500D01*
X110194463Y-122729500D01*
X110127424Y-122709815D01*
X110106782Y-122693181D01*
X108030654Y-120617052D01*
X108030647Y-120617046D01*
X107956962Y-120567812D01*
X107956962Y-120567813D01*
X107907724Y-120534913D01*
X107771150Y-120478343D01*
X107771140Y-120478340D01*
X107626153Y-120449500D01*
X107626151Y-120449500D01*
X93982230Y-120449500D01*
X93915191Y-120429815D01*
X93894549Y-120413181D01*
X80016003Y-106534635D01*
X79982518Y-106473312D01*
X79987502Y-106403620D01*
X80029374Y-106347687D01*
X80084284Y-106324481D01*
X80256243Y-106297246D01*
X80458412Y-106231557D01*
X80647816Y-106135051D01*
X80725453Y-106078645D01*
X80819786Y-106010109D01*
X80819788Y-106010106D01*
X80819792Y-106010104D01*
X80970104Y-105859792D01*
X80970106Y-105859788D01*
X80970109Y-105859786D01*
X81095048Y-105687820D01*
X81095047Y-105687820D01*
X81095051Y-105687816D01*
X81099514Y-105679054D01*
X81147488Y-105628259D01*
X81215308Y-105611463D01*
X81281444Y-105633999D01*
X81320486Y-105679056D01*
X81324951Y-105687820D01*
X81449890Y-105859786D01*
X81600213Y-106010109D01*
X81772179Y-106135048D01*
X81772181Y-106135049D01*
X81772184Y-106135051D01*
X81961588Y-106231557D01*
X82163757Y-106297246D01*
X82373713Y-106330500D01*
X82373714Y-106330500D01*
X82586286Y-106330500D01*
X82586287Y-106330500D01*
X82796243Y-106297246D01*
X82811837Y-106292178D01*
X82881676Y-106290182D01*
X82937837Y-106322428D01*
X83377199Y-106761790D01*
X83377200Y-106761791D01*
X83437861Y-106822452D01*
X83464326Y-106848917D01*
X83566765Y-106917365D01*
X83566774Y-106917370D01*
X83586609Y-106925586D01*
X83680606Y-106964521D01*
X83741029Y-106976539D01*
X83801451Y-106988558D01*
X89678549Y-106988558D01*
X89738971Y-106976539D01*
X89799394Y-106964521D01*
X89832734Y-106950710D01*
X89913228Y-106917370D01*
X89976142Y-106875331D01*
X90015675Y-106848916D01*
X90102800Y-106761791D01*
X90102801Y-106761789D01*
X90109867Y-106754723D01*
X90109870Y-106754719D01*
X105398797Y-91465791D01*
X105460118Y-91432308D01*
X105462128Y-91431889D01*
X105573497Y-91409737D01*
X105719179Y-91349394D01*
X105850289Y-91261789D01*
X105961789Y-91150289D01*
X106049394Y-91019179D01*
X106109737Y-90873497D01*
X106140500Y-90718842D01*
X106140500Y-90561158D01*
X106140500Y-90561155D01*
X106140499Y-90561153D01*
X106122309Y-90469707D01*
X106109737Y-90406503D01*
X106090224Y-90359394D01*
X106049397Y-90260827D01*
X106049390Y-90260814D01*
X105961789Y-90129711D01*
X105961786Y-90129707D01*
X105850292Y-90018213D01*
X105850288Y-90018210D01*
X105719185Y-89930609D01*
X105719172Y-89930602D01*
X105573501Y-89870264D01*
X105573489Y-89870261D01*
X105418845Y-89839500D01*
X105418842Y-89839500D01*
X105261158Y-89839500D01*
X105261155Y-89839500D01*
X105106510Y-89870261D01*
X105106498Y-89870264D01*
X104960827Y-89930602D01*
X104960814Y-89930609D01*
X104829711Y-90018210D01*
X104829707Y-90018213D01*
X104718213Y-90129707D01*
X104718210Y-90129711D01*
X104630609Y-90260814D01*
X104630602Y-90260827D01*
X104570264Y-90406498D01*
X104570261Y-90406508D01*
X104548141Y-90517714D01*
X104515756Y-90579625D01*
X104514205Y-90581203D01*
X89394171Y-105701239D01*
X89332848Y-105734724D01*
X89306490Y-105737558D01*
X89034500Y-105737558D01*
X88967461Y-105717873D01*
X88921706Y-105665069D01*
X88910500Y-105613558D01*
X88910499Y-104565451D01*
X88930183Y-104498412D01*
X88946813Y-104477775D01*
X108613937Y-84810652D01*
X108675258Y-84777169D01*
X108744950Y-84782153D01*
X108800883Y-84824025D01*
X108825300Y-84889489D01*
X108825616Y-84898335D01*
X108825616Y-87934547D01*
X108805931Y-88001586D01*
X108789297Y-88022228D01*
X108066269Y-88745256D01*
X108066267Y-88745258D01*
X108022704Y-88788821D01*
X107979141Y-88832383D01*
X107967703Y-88849500D01*
X107967704Y-88849501D01*
X107910689Y-88934828D01*
X107910685Y-88934835D01*
X107863540Y-89048654D01*
X107863535Y-89048670D01*
X107842557Y-89154140D01*
X107842557Y-89154144D01*
X107839500Y-89169510D01*
X107839500Y-99208311D01*
X107863535Y-99329145D01*
X107863537Y-99329153D01*
X107877347Y-99362493D01*
X107910688Y-99442987D01*
X107944915Y-99494210D01*
X107948802Y-99500027D01*
X107948803Y-99500029D01*
X107979141Y-99545434D01*
X108070586Y-99636879D01*
X108070608Y-99636899D01*
X116413783Y-107980074D01*
X116447268Y-108041397D01*
X116442284Y-108111089D01*
X116425371Y-108142063D01*
X116406205Y-108167666D01*
X116406202Y-108167671D01*
X116355908Y-108302517D01*
X116349501Y-108362116D01*
X116349501Y-108362123D01*
X116349500Y-108362135D01*
X116349500Y-110157870D01*
X116349501Y-110157876D01*
X116355908Y-110217483D01*
X116406202Y-110352328D01*
X116406206Y-110352335D01*
X116492452Y-110467544D01*
X116492455Y-110467547D01*
X116607664Y-110553793D01*
X116607671Y-110553797D01*
X116742517Y-110604091D01*
X116742516Y-110604091D01*
X116749444Y-110604835D01*
X116802127Y-110610500D01*
X118597872Y-110610499D01*
X118657483Y-110604091D01*
X118792331Y-110553796D01*
X118907546Y-110467546D01*
X118993796Y-110352331D01*
X119044091Y-110217483D01*
X119050500Y-110157873D01*
X119050500Y-110009500D01*
X119070185Y-109942461D01*
X119122989Y-109896706D01*
X119174500Y-109885500D01*
X119731607Y-109885500D01*
X119792029Y-109873481D01*
X119852452Y-109861463D01*
X119906250Y-109839179D01*
X119966286Y-109814312D01*
X120017509Y-109780084D01*
X120068733Y-109745858D01*
X120155858Y-109658733D01*
X120155859Y-109658731D01*
X120162925Y-109651665D01*
X120162927Y-109651661D01*
X122603435Y-107211153D01*
X127209500Y-107211153D01*
X127209500Y-107368846D01*
X127240261Y-107523489D01*
X127240264Y-107523501D01*
X127300602Y-107669172D01*
X127300609Y-107669185D01*
X127388210Y-107800288D01*
X127388213Y-107800292D01*
X127499707Y-107911786D01*
X127499711Y-107911789D01*
X127630814Y-107999390D01*
X127630827Y-107999397D01*
X127767604Y-108056051D01*
X127776503Y-108059737D01*
X127861294Y-108076603D01*
X127931153Y-108090499D01*
X127931156Y-108090500D01*
X127931158Y-108090500D01*
X128088844Y-108090500D01*
X128088845Y-108090499D01*
X128243497Y-108059737D01*
X128364781Y-108009500D01*
X128389172Y-107999397D01*
X128389172Y-107999396D01*
X128389179Y-107999394D01*
X128483459Y-107936398D01*
X128550136Y-107915520D01*
X128552350Y-107915500D01*
X129429548Y-107915500D01*
X129496587Y-107935185D01*
X129517229Y-107951819D01*
X133817571Y-112252162D01*
X133851056Y-112313485D01*
X133847821Y-112378160D01*
X133842754Y-112393753D01*
X133812260Y-112586286D01*
X133809500Y-112603713D01*
X133809500Y-112816287D01*
X133842754Y-113026243D01*
X133895252Y-113187816D01*
X133908444Y-113228414D01*
X134004951Y-113417820D01*
X134129890Y-113589786D01*
X134280213Y-113740109D01*
X134452182Y-113865050D01*
X134460946Y-113869516D01*
X134511742Y-113917491D01*
X134528536Y-113985312D01*
X134505998Y-114051447D01*
X134460946Y-114090484D01*
X134452182Y-114094949D01*
X134280213Y-114219890D01*
X134129890Y-114370213D01*
X134004951Y-114542179D01*
X133908444Y-114731585D01*
X133842753Y-114933760D01*
X133809500Y-115143713D01*
X133809500Y-115356286D01*
X133833591Y-115508394D01*
X133842754Y-115566243D01*
X133908128Y-115767444D01*
X133908444Y-115768414D01*
X134004951Y-115957820D01*
X134129890Y-116129786D01*
X134280213Y-116280109D01*
X134452179Y-116405048D01*
X134452181Y-116405049D01*
X134452184Y-116405051D01*
X134641588Y-116501557D01*
X134843757Y-116567246D01*
X135053713Y-116600500D01*
X135053714Y-116600500D01*
X135266286Y-116600500D01*
X135266287Y-116600500D01*
X135476243Y-116567246D01*
X135678412Y-116501557D01*
X135867816Y-116405051D01*
X135889789Y-116389086D01*
X136039786Y-116280109D01*
X136039788Y-116280106D01*
X136039792Y-116280104D01*
X136190104Y-116129792D01*
X136190106Y-116129788D01*
X136190109Y-116129786D01*
X136315048Y-115957820D01*
X136315047Y-115957820D01*
X136315051Y-115957816D01*
X136411557Y-115768412D01*
X136477246Y-115566243D01*
X136510500Y-115356287D01*
X136510500Y-115143713D01*
X136477246Y-114933757D01*
X136472179Y-114918162D01*
X136470182Y-114848321D01*
X136502426Y-114792162D01*
X139458729Y-111835860D01*
X139458733Y-111835858D01*
X139545858Y-111748733D01*
X139614311Y-111646286D01*
X139614312Y-111646285D01*
X139614313Y-111646282D01*
X139614315Y-111646279D01*
X139633397Y-111600208D01*
X139661463Y-111532451D01*
X139685500Y-111411607D01*
X139685500Y-111288393D01*
X139685500Y-110002350D01*
X139705185Y-109935311D01*
X139706398Y-109933459D01*
X139724554Y-109906286D01*
X139769394Y-109839179D01*
X139829737Y-109693497D01*
X139860500Y-109538842D01*
X139860500Y-109381158D01*
X139860500Y-109381155D01*
X139860499Y-109381153D01*
X139840694Y-109281588D01*
X139829737Y-109226503D01*
X139829735Y-109226498D01*
X139769397Y-109080827D01*
X139769390Y-109080814D01*
X139681789Y-108949711D01*
X139681786Y-108949707D01*
X139570292Y-108838213D01*
X139570288Y-108838210D01*
X139439185Y-108750609D01*
X139439172Y-108750602D01*
X139293501Y-108690264D01*
X139293489Y-108690261D01*
X139138845Y-108659500D01*
X139138842Y-108659500D01*
X138981158Y-108659500D01*
X138981155Y-108659500D01*
X138826510Y-108690261D01*
X138826498Y-108690264D01*
X138680827Y-108750602D01*
X138680814Y-108750609D01*
X138549711Y-108838210D01*
X138549707Y-108838213D01*
X138438213Y-108949707D01*
X138438210Y-108949711D01*
X138350609Y-109080814D01*
X138350602Y-109080827D01*
X138290264Y-109226498D01*
X138290261Y-109226510D01*
X138259500Y-109381153D01*
X138259500Y-109538846D01*
X138290261Y-109693489D01*
X138290264Y-109693501D01*
X138350602Y-109839172D01*
X138350609Y-109839184D01*
X138413602Y-109933459D01*
X138434480Y-110000136D01*
X138434500Y-110002350D01*
X138434500Y-111039547D01*
X138414815Y-111106586D01*
X138398181Y-111127228D01*
X136722181Y-112803228D01*
X136660858Y-112836713D01*
X136591166Y-112831729D01*
X136535233Y-112789857D01*
X136510816Y-112724393D01*
X136510500Y-112715547D01*
X136510500Y-112603713D01*
X136477246Y-112393760D01*
X136477246Y-112393757D01*
X136411557Y-112191588D01*
X136315051Y-112002184D01*
X136315049Y-112002181D01*
X136315048Y-112002179D01*
X136190109Y-111830213D01*
X136039786Y-111679890D01*
X135867820Y-111554951D01*
X135867115Y-111554591D01*
X135859054Y-111550485D01*
X135808259Y-111502512D01*
X135791463Y-111434692D01*
X135813999Y-111368556D01*
X135859054Y-111329515D01*
X135867816Y-111325051D01*
X135889789Y-111309086D01*
X136039786Y-111200109D01*
X136039788Y-111200106D01*
X136039792Y-111200104D01*
X136190104Y-111049792D01*
X136190106Y-111049788D01*
X136190109Y-111049786D01*
X136315048Y-110877820D01*
X136315047Y-110877820D01*
X136315051Y-110877816D01*
X136411557Y-110688412D01*
X136477246Y-110486243D01*
X136510500Y-110276287D01*
X136510500Y-110063713D01*
X136477246Y-109853757D01*
X136411557Y-109651588D01*
X136315051Y-109462184D01*
X136315049Y-109462181D01*
X136315048Y-109462179D01*
X136190109Y-109290213D01*
X136039786Y-109139890D01*
X135867820Y-109014951D01*
X135678414Y-108918444D01*
X135678413Y-108918443D01*
X135678412Y-108918443D01*
X135476243Y-108852754D01*
X135476241Y-108852753D01*
X135476240Y-108852753D01*
X135314957Y-108827208D01*
X135266287Y-108819500D01*
X135053713Y-108819500D01*
X135025006Y-108824046D01*
X134843757Y-108852753D01*
X134828158Y-108857822D01*
X134758317Y-108859816D01*
X134702161Y-108827571D01*
X130166819Y-104292229D01*
X130133334Y-104230906D01*
X130130500Y-104204548D01*
X130130500Y-104191155D01*
X130130499Y-104191153D01*
X130099738Y-104036510D01*
X130099737Y-104036503D01*
X130099735Y-104036498D01*
X130039397Y-103890827D01*
X130039390Y-103890814D01*
X129951789Y-103759711D01*
X129951786Y-103759707D01*
X129840292Y-103648213D01*
X129840288Y-103648210D01*
X129709185Y-103560609D01*
X129709172Y-103560602D01*
X129563501Y-103500264D01*
X129563489Y-103500261D01*
X129408845Y-103469500D01*
X129408842Y-103469500D01*
X129251158Y-103469500D01*
X129251155Y-103469500D01*
X129096510Y-103500261D01*
X129096498Y-103500264D01*
X128950827Y-103560602D01*
X128950814Y-103560609D01*
X128819711Y-103648210D01*
X128819707Y-103648213D01*
X128708213Y-103759707D01*
X128708210Y-103759711D01*
X128620609Y-103890814D01*
X128620602Y-103890827D01*
X128560264Y-104036498D01*
X128560261Y-104036510D01*
X128529500Y-104191153D01*
X128529500Y-104348846D01*
X128560261Y-104503489D01*
X128560264Y-104503501D01*
X128620602Y-104649172D01*
X128620609Y-104649185D01*
X128708210Y-104780288D01*
X128708213Y-104780292D01*
X128819707Y-104891786D01*
X128819711Y-104891789D01*
X128950814Y-104979390D01*
X128950827Y-104979397D01*
X129038230Y-105015599D01*
X129096503Y-105039737D01*
X129120334Y-105044477D01*
X129182243Y-105076861D01*
X129183823Y-105078413D01*
X133817571Y-109712161D01*
X133851056Y-109773484D01*
X133847822Y-109838158D01*
X133842753Y-109853757D01*
X133809500Y-110063713D01*
X133809500Y-110175547D01*
X133789815Y-110242586D01*
X133737011Y-110288341D01*
X133667853Y-110298285D01*
X133604297Y-110269260D01*
X133597819Y-110263228D01*
X130235822Y-106901232D01*
X130225859Y-106891269D01*
X130225858Y-106891267D01*
X130138733Y-106804142D01*
X130087509Y-106769915D01*
X130036286Y-106735688D01*
X130036283Y-106735686D01*
X130036280Y-106735685D01*
X129961634Y-106704766D01*
X129961628Y-106704764D01*
X129954003Y-106701606D01*
X129922452Y-106688537D01*
X129839247Y-106671987D01*
X129835396Y-106671221D01*
X129835381Y-106671217D01*
X129801611Y-106664500D01*
X129801607Y-106664500D01*
X129801606Y-106664500D01*
X128552350Y-106664500D01*
X128485311Y-106644815D01*
X128483459Y-106643602D01*
X128389184Y-106580609D01*
X128389172Y-106580602D01*
X128243501Y-106520264D01*
X128243489Y-106520261D01*
X128088845Y-106489500D01*
X128088842Y-106489500D01*
X127931158Y-106489500D01*
X127931155Y-106489500D01*
X127776510Y-106520261D01*
X127776498Y-106520264D01*
X127630827Y-106580602D01*
X127630814Y-106580609D01*
X127499711Y-106668210D01*
X127499707Y-106668213D01*
X127388213Y-106779707D01*
X127388210Y-106779711D01*
X127300609Y-106910814D01*
X127300602Y-106910827D01*
X127240264Y-107056498D01*
X127240261Y-107056510D01*
X127209500Y-107211153D01*
X122603435Y-107211153D01*
X130702455Y-99112135D01*
X133809500Y-99112135D01*
X133809500Y-100907870D01*
X133809501Y-100907876D01*
X133815908Y-100967483D01*
X133866202Y-101102328D01*
X133866206Y-101102335D01*
X133952452Y-101217544D01*
X133952455Y-101217547D01*
X134067664Y-101303793D01*
X134067671Y-101303797D01*
X134202517Y-101354091D01*
X134202516Y-101354091D01*
X134209444Y-101354835D01*
X134262127Y-101360500D01*
X136057872Y-101360499D01*
X136117483Y-101354091D01*
X136252331Y-101303796D01*
X136367546Y-101217546D01*
X136383950Y-101195632D01*
X136439881Y-101153764D01*
X136509572Y-101148779D01*
X136570893Y-101182261D01*
X136570896Y-101182264D01*
X138473181Y-103084549D01*
X138506666Y-103145872D01*
X138509500Y-103172230D01*
X138509500Y-103567770D01*
X138489815Y-103634809D01*
X138473181Y-103655451D01*
X137825451Y-104303181D01*
X137764128Y-104336666D01*
X137737770Y-104339500D01*
X136347221Y-104339500D01*
X136280182Y-104319815D01*
X136246903Y-104288385D01*
X136190107Y-104210211D01*
X136039786Y-104059890D01*
X135867820Y-103934951D01*
X135678414Y-103838444D01*
X135678413Y-103838443D01*
X135678412Y-103838443D01*
X135476243Y-103772754D01*
X135476241Y-103772753D01*
X135476240Y-103772753D01*
X135314957Y-103747208D01*
X135266287Y-103739500D01*
X135053713Y-103739500D01*
X135005042Y-103747208D01*
X134843760Y-103772753D01*
X134641585Y-103838444D01*
X134452179Y-103934951D01*
X134280213Y-104059890D01*
X134129890Y-104210213D01*
X134004951Y-104382179D01*
X133908444Y-104571585D01*
X133842753Y-104773760D01*
X133809500Y-104983713D01*
X133809500Y-105196286D01*
X133838212Y-105377571D01*
X133842754Y-105406243D01*
X133872702Y-105498414D01*
X133908444Y-105608414D01*
X134004951Y-105797820D01*
X134129890Y-105969786D01*
X134280213Y-106120109D01*
X134452179Y-106245048D01*
X134452181Y-106245049D01*
X134452184Y-106245051D01*
X134641588Y-106341557D01*
X134843757Y-106407246D01*
X135053713Y-106440500D01*
X135053714Y-106440500D01*
X135266286Y-106440500D01*
X135266287Y-106440500D01*
X135476243Y-106407246D01*
X135678412Y-106341557D01*
X135867816Y-106245051D01*
X135927729Y-106201522D01*
X136039786Y-106120109D01*
X136039788Y-106120106D01*
X136039792Y-106120104D01*
X136190104Y-105969792D01*
X136229253Y-105915908D01*
X136246903Y-105891615D01*
X136302233Y-105848949D01*
X136347221Y-105840500D01*
X138173920Y-105840500D01*
X138271462Y-105821096D01*
X138318913Y-105811658D01*
X138455495Y-105755084D01*
X138508750Y-105719500D01*
X138578416Y-105672952D01*
X139077319Y-105174047D01*
X139138642Y-105140563D01*
X139208333Y-105145547D01*
X139252681Y-105174048D01*
X141283526Y-107204893D01*
X141317011Y-107266216D01*
X141318318Y-107311971D01*
X141309500Y-107367647D01*
X141309500Y-107572351D01*
X141341522Y-107774534D01*
X141404781Y-107969223D01*
X141449023Y-108056051D01*
X141477760Y-108112451D01*
X141497715Y-108151613D01*
X141618028Y-108317213D01*
X141762786Y-108461971D01*
X141900482Y-108562011D01*
X141928390Y-108582287D01*
X142025302Y-108631666D01*
X142110776Y-108675218D01*
X142110778Y-108675218D01*
X142110781Y-108675220D01*
X142157079Y-108690263D01*
X142305465Y-108738477D01*
X142382019Y-108750602D01*
X142507648Y-108770500D01*
X142507649Y-108770500D01*
X142712351Y-108770500D01*
X142712352Y-108770500D01*
X142914534Y-108738477D01*
X143109219Y-108675220D01*
X143291610Y-108582287D01*
X143390417Y-108510500D01*
X143457213Y-108461971D01*
X143457215Y-108461968D01*
X143457219Y-108461966D01*
X143601966Y-108317219D01*
X143601968Y-108317215D01*
X143601971Y-108317213D01*
X143674428Y-108217483D01*
X143722287Y-108151610D01*
X143815220Y-107969219D01*
X143878477Y-107774534D01*
X143910500Y-107572352D01*
X143910500Y-107367648D01*
X143910500Y-107367647D01*
X143878477Y-107165465D01*
X143852279Y-107084837D01*
X143851965Y-107073855D01*
X143847427Y-107063850D01*
X143850985Y-107039544D01*
X143850284Y-107014995D01*
X143855956Y-107005588D01*
X143857548Y-106994717D01*
X143873680Y-106976194D01*
X143886364Y-106955162D01*
X143896222Y-106950314D01*
X143903438Y-106942031D01*
X143927022Y-106935171D01*
X143949065Y-106924334D01*
X143959978Y-106925586D01*
X143970528Y-106922518D01*
X143994076Y-106929498D01*
X144018479Y-106932298D01*
X144028740Y-106939773D01*
X144037517Y-106942375D01*
X144052312Y-106956946D01*
X144064131Y-106965556D01*
X144069090Y-106971308D01*
X144114142Y-107038733D01*
X144201267Y-107125858D01*
X144201270Y-107125860D01*
X144208855Y-107133445D01*
X149097571Y-112022161D01*
X149131056Y-112083484D01*
X149127822Y-112148158D01*
X149122753Y-112163757D01*
X149089500Y-112373713D01*
X149089500Y-112586286D01*
X149121742Y-112789857D01*
X149122754Y-112796243D01*
X149129266Y-112816286D01*
X149188444Y-112998414D01*
X149284951Y-113187820D01*
X149409890Y-113359786D01*
X149560213Y-113510109D01*
X149732179Y-113635048D01*
X149732181Y-113635049D01*
X149732184Y-113635051D01*
X149921588Y-113731557D01*
X150123757Y-113797246D01*
X150333713Y-113830500D01*
X150333714Y-113830500D01*
X150546286Y-113830500D01*
X150546287Y-113830500D01*
X150756243Y-113797246D01*
X150958412Y-113731557D01*
X151147816Y-113635051D01*
X151210110Y-113589792D01*
X151319786Y-113510109D01*
X151319788Y-113510106D01*
X151319792Y-113510104D01*
X151470104Y-113359792D01*
X151470106Y-113359788D01*
X151470109Y-113359786D01*
X151595048Y-113187820D01*
X151595047Y-113187820D01*
X151595051Y-113187816D01*
X151691557Y-112998412D01*
X151757246Y-112796243D01*
X151790500Y-112586287D01*
X151790500Y-112373713D01*
X151757246Y-112163757D01*
X151691557Y-111961588D01*
X151595051Y-111772184D01*
X151595049Y-111772181D01*
X151595048Y-111772179D01*
X151470109Y-111600213D01*
X151356569Y-111486673D01*
X151323084Y-111425350D01*
X151328068Y-111355658D01*
X151369940Y-111299725D01*
X151400915Y-111282810D01*
X151532331Y-111233796D01*
X151647546Y-111147546D01*
X151733796Y-111032331D01*
X151784091Y-110897483D01*
X151790500Y-110837873D01*
X151790499Y-109042128D01*
X151784091Y-108982517D01*
X151771855Y-108949711D01*
X151733797Y-108847671D01*
X151733793Y-108847664D01*
X151647547Y-108732455D01*
X151647544Y-108732452D01*
X151532335Y-108646206D01*
X151532328Y-108646202D01*
X151397482Y-108595908D01*
X151397483Y-108595908D01*
X151337883Y-108589501D01*
X151337881Y-108589500D01*
X151337873Y-108589500D01*
X151337865Y-108589500D01*
X151189500Y-108589500D01*
X151122461Y-108569815D01*
X151076706Y-108517011D01*
X151065500Y-108465500D01*
X151065500Y-102968393D01*
X151065499Y-102968389D01*
X151052017Y-102900609D01*
X151041463Y-102847548D01*
X151015350Y-102784505D01*
X151004831Y-102759110D01*
X150994313Y-102733717D01*
X150993527Y-102732541D01*
X150946115Y-102661584D01*
X150925858Y-102631267D01*
X150838733Y-102544142D01*
X150838729Y-102544139D01*
X147745793Y-99451203D01*
X147712308Y-99389880D01*
X147711887Y-99387864D01*
X147689737Y-99276503D01*
X147638613Y-99153077D01*
X147629397Y-99130827D01*
X147629390Y-99130814D01*
X147541789Y-98999711D01*
X147541786Y-98999707D01*
X147430292Y-98888213D01*
X147430288Y-98888210D01*
X147299185Y-98800609D01*
X147299172Y-98800602D01*
X147153501Y-98740264D01*
X147153489Y-98740261D01*
X146998845Y-98709500D01*
X146998842Y-98709500D01*
X146841158Y-98709500D01*
X146841155Y-98709500D01*
X146686510Y-98740261D01*
X146686498Y-98740264D01*
X146540827Y-98800602D01*
X146540814Y-98800609D01*
X146409711Y-98888210D01*
X146409707Y-98888213D01*
X146298213Y-98999707D01*
X146298210Y-98999711D01*
X146210609Y-99130814D01*
X146210602Y-99130827D01*
X146150264Y-99276498D01*
X146150261Y-99276510D01*
X146119500Y-99431153D01*
X146119500Y-99588846D01*
X146150261Y-99743489D01*
X146150264Y-99743501D01*
X146210602Y-99889172D01*
X146210609Y-99889185D01*
X146298210Y-100020288D01*
X146298213Y-100020292D01*
X146409707Y-100131786D01*
X146409711Y-100131789D01*
X146540814Y-100219390D01*
X146540827Y-100219397D01*
X146628230Y-100255599D01*
X146686503Y-100279737D01*
X146797716Y-100301858D01*
X146859623Y-100334241D01*
X146861203Y-100335793D01*
X149778181Y-103252771D01*
X149811666Y-103314094D01*
X149814500Y-103340452D01*
X149814500Y-108465500D01*
X149794815Y-108532539D01*
X149742011Y-108578294D01*
X149690501Y-108589500D01*
X149542130Y-108589500D01*
X149542123Y-108589501D01*
X149482516Y-108595908D01*
X149347671Y-108646202D01*
X149347664Y-108646206D01*
X149232455Y-108732452D01*
X149232452Y-108732455D01*
X149146206Y-108847664D01*
X149146202Y-108847671D01*
X149095908Y-108982517D01*
X149089501Y-109042116D01*
X149089501Y-109042123D01*
X149089500Y-109042135D01*
X149089500Y-109945548D01*
X149069815Y-110012587D01*
X149017011Y-110058342D01*
X148947853Y-110068286D01*
X148884297Y-110039261D01*
X148877819Y-110033229D01*
X145261819Y-106417229D01*
X145228334Y-106355906D01*
X145225500Y-106329548D01*
X145225500Y-100962350D01*
X145245185Y-100895311D01*
X145246398Y-100893459D01*
X145246809Y-100892843D01*
X145309394Y-100799179D01*
X145369737Y-100653497D01*
X145400500Y-100498842D01*
X145400500Y-100341158D01*
X145400500Y-100341155D01*
X145400499Y-100341153D01*
X145392433Y-100300602D01*
X145369737Y-100186503D01*
X145347073Y-100131786D01*
X145309397Y-100040827D01*
X145309390Y-100040814D01*
X145221789Y-99909711D01*
X145221786Y-99909707D01*
X145110292Y-99798213D01*
X145110288Y-99798210D01*
X144979185Y-99710609D01*
X144979172Y-99710602D01*
X144833501Y-99650264D01*
X144833489Y-99650261D01*
X144678845Y-99619500D01*
X144678842Y-99619500D01*
X144521158Y-99619500D01*
X144521155Y-99619500D01*
X144366510Y-99650261D01*
X144366498Y-99650264D01*
X144220827Y-99710602D01*
X144220814Y-99710609D01*
X144089711Y-99798210D01*
X144089707Y-99798213D01*
X143978213Y-99909707D01*
X143978210Y-99909711D01*
X143890609Y-100040814D01*
X143890602Y-100040827D01*
X143830264Y-100186498D01*
X143830261Y-100186510D01*
X143799500Y-100341153D01*
X143799500Y-100498846D01*
X143830261Y-100653489D01*
X143830264Y-100653501D01*
X143890602Y-100799172D01*
X143890609Y-100799184D01*
X143953602Y-100893459D01*
X143974480Y-100960136D01*
X143974500Y-100962350D01*
X143974500Y-106701606D01*
X143986471Y-106761790D01*
X143989433Y-106776681D01*
X143983204Y-106846272D01*
X143940341Y-106901449D01*
X143874451Y-106924693D01*
X143806454Y-106908625D01*
X143757939Y-106858345D01*
X143757330Y-106857166D01*
X143753127Y-106848917D01*
X143722287Y-106788390D01*
X143722285Y-106788387D01*
X143722284Y-106788385D01*
X143601971Y-106622786D01*
X143457213Y-106478028D01*
X143291613Y-106357715D01*
X143291612Y-106357714D01*
X143291610Y-106357713D01*
X143226106Y-106324337D01*
X143109223Y-106264781D01*
X142914534Y-106201522D01*
X142739995Y-106173878D01*
X142712352Y-106169500D01*
X142507648Y-106169500D01*
X142451971Y-106178318D01*
X142382678Y-106169363D01*
X142344893Y-106143526D01*
X140046819Y-103845451D01*
X140013334Y-103784128D01*
X140010500Y-103757770D01*
X140010500Y-102736079D01*
X139981659Y-102591092D01*
X139981658Y-102591091D01*
X139981658Y-102591087D01*
X139951472Y-102518211D01*
X139925085Y-102454507D01*
X139902567Y-102420806D01*
X139891672Y-102404500D01*
X139891671Y-102404498D01*
X139891670Y-102404496D01*
X139842953Y-102331585D01*
X139842947Y-102331578D01*
X136938415Y-99427047D01*
X136938413Y-99427045D01*
X136879544Y-99387712D01*
X136856355Y-99372218D01*
X136815495Y-99344916D01*
X136815494Y-99344915D01*
X136815492Y-99344914D01*
X136815490Y-99344913D01*
X136678917Y-99288343D01*
X136678908Y-99288340D01*
X136610306Y-99274694D01*
X136548395Y-99242308D01*
X136513822Y-99181592D01*
X136510499Y-99153077D01*
X136510499Y-99112129D01*
X136510498Y-99112123D01*
X136510497Y-99112116D01*
X136504091Y-99052517D01*
X136453796Y-98917669D01*
X136453795Y-98917668D01*
X136453793Y-98917664D01*
X136367547Y-98802455D01*
X136367544Y-98802452D01*
X136252335Y-98716206D01*
X136252328Y-98716202D01*
X136117482Y-98665908D01*
X136117483Y-98665908D01*
X136057883Y-98659501D01*
X136057881Y-98659500D01*
X136057873Y-98659500D01*
X136057864Y-98659500D01*
X134262129Y-98659500D01*
X134262123Y-98659501D01*
X134202516Y-98665908D01*
X134067671Y-98716202D01*
X134067664Y-98716206D01*
X133952455Y-98802452D01*
X133952452Y-98802455D01*
X133866206Y-98917664D01*
X133866202Y-98917671D01*
X133815908Y-99052517D01*
X133809501Y-99112116D01*
X133809501Y-99112123D01*
X133809500Y-99112135D01*
X130702455Y-99112135D01*
X131992771Y-97821819D01*
X132054094Y-97788334D01*
X132080452Y-97785500D01*
X148885500Y-97785500D01*
X148952539Y-97805185D01*
X148998294Y-97857989D01*
X149009500Y-97909500D01*
X149009500Y-98068846D01*
X149040261Y-98223489D01*
X149040264Y-98223501D01*
X149100602Y-98369172D01*
X149100609Y-98369185D01*
X149188210Y-98500288D01*
X149188213Y-98500292D01*
X149299707Y-98611786D01*
X149299711Y-98611789D01*
X149430814Y-98699390D01*
X149430827Y-98699397D01*
X149518230Y-98735599D01*
X149576503Y-98759737D01*
X149687716Y-98781858D01*
X149749623Y-98814241D01*
X149751203Y-98815793D01*
X158681263Y-107745855D01*
X158681267Y-107745858D01*
X158783710Y-107814309D01*
X158783711Y-107814309D01*
X158783715Y-107814312D01*
X158829784Y-107833394D01*
X158897548Y-107861463D01*
X159018389Y-107885499D01*
X159018393Y-107885500D01*
X159018394Y-107885500D01*
X159141607Y-107885500D01*
X165305501Y-107885500D01*
X165372540Y-107905185D01*
X165418295Y-107957989D01*
X165429501Y-108009500D01*
X165429501Y-108157876D01*
X165435908Y-108217483D01*
X165486202Y-108352328D01*
X165486206Y-108352335D01*
X165572452Y-108467544D01*
X165572455Y-108467547D01*
X165687664Y-108553793D01*
X165687671Y-108553797D01*
X165819082Y-108602810D01*
X165875016Y-108644681D01*
X165899433Y-108710145D01*
X165884582Y-108778418D01*
X165863431Y-108806673D01*
X165749889Y-108920215D01*
X165624951Y-109092179D01*
X165528444Y-109281585D01*
X165462753Y-109483760D01*
X165429500Y-109693713D01*
X165429500Y-109906292D01*
X165444616Y-110001728D01*
X165435662Y-110071021D01*
X165409824Y-110108807D01*
X158505451Y-117013181D01*
X158444128Y-117046666D01*
X158417770Y-117049500D01*
X121152229Y-117049500D01*
X121085190Y-117029815D01*
X121064548Y-117013181D01*
X114209250Y-110157883D01*
X107346071Y-103294703D01*
X107319191Y-103254475D01*
X107309394Y-103230821D01*
X107235926Y-103120868D01*
X107221789Y-103099710D01*
X107110292Y-102988213D01*
X107110288Y-102988210D01*
X106979185Y-102900609D01*
X106979172Y-102900602D01*
X106833501Y-102840264D01*
X106833489Y-102840261D01*
X106678845Y-102809500D01*
X106678842Y-102809500D01*
X106521158Y-102809500D01*
X106521155Y-102809500D01*
X106366510Y-102840261D01*
X106366498Y-102840264D01*
X106220827Y-102900602D01*
X106220814Y-102900609D01*
X106089711Y-102988210D01*
X106089707Y-102988213D01*
X105978213Y-103099707D01*
X105978210Y-103099711D01*
X105890609Y-103230814D01*
X105890602Y-103230827D01*
X105830264Y-103376498D01*
X105830261Y-103376510D01*
X105799500Y-103531153D01*
X105799500Y-103688846D01*
X105830261Y-103843489D01*
X105830264Y-103843501D01*
X105890602Y-103989172D01*
X105890609Y-103989185D01*
X105978210Y-104120288D01*
X105978213Y-104120292D01*
X106089710Y-104231789D01*
X106220815Y-104319390D01*
X106220821Y-104319394D01*
X106244475Y-104329191D01*
X106284703Y-104356071D01*
X120207048Y-118278415D01*
X120207049Y-118278416D01*
X120311581Y-118382948D01*
X120311585Y-118382952D01*
X120434498Y-118465080D01*
X120434511Y-118465087D01*
X120571082Y-118521656D01*
X120571087Y-118521658D01*
X120571091Y-118521658D01*
X120571092Y-118521659D01*
X120716079Y-118550500D01*
X120716082Y-118550500D01*
X159063920Y-118550500D01*
X159161462Y-118531096D01*
X159208913Y-118521658D01*
X159345495Y-118465084D01*
X159468416Y-118382951D01*
X159572951Y-118278416D01*
X159655084Y-118155495D01*
X159711658Y-118018913D01*
X159726470Y-117944447D01*
X159758853Y-117882541D01*
X159760349Y-117881017D01*
X162867653Y-114773713D01*
X165429500Y-114773713D01*
X165429500Y-114986287D01*
X165462754Y-115196243D01*
X165524915Y-115387555D01*
X165528444Y-115398414D01*
X165624951Y-115587820D01*
X165749890Y-115759786D01*
X165900213Y-115910109D01*
X166072182Y-116035050D01*
X166080946Y-116039516D01*
X166131742Y-116087491D01*
X166148536Y-116155312D01*
X166125998Y-116221447D01*
X166080946Y-116260484D01*
X166072182Y-116264949D01*
X165900213Y-116389890D01*
X165749890Y-116540213D01*
X165624951Y-116712179D01*
X165528444Y-116901585D01*
X165462753Y-117103760D01*
X165429500Y-117313713D01*
X165429500Y-117526287D01*
X165462754Y-117736243D01*
X165518418Y-117907559D01*
X165528444Y-117938414D01*
X165624951Y-118127820D01*
X165749890Y-118299786D01*
X165900213Y-118450109D01*
X166072182Y-118575050D01*
X166080946Y-118579516D01*
X166131742Y-118627491D01*
X166148536Y-118695312D01*
X166125998Y-118761447D01*
X166080946Y-118800484D01*
X166072182Y-118804949D01*
X165900213Y-118929890D01*
X165749890Y-119080213D01*
X165624951Y-119252179D01*
X165528444Y-119441585D01*
X165462753Y-119643760D01*
X165429500Y-119853713D01*
X165429500Y-120066287D01*
X165462754Y-120276243D01*
X165528420Y-120478342D01*
X165528444Y-120478414D01*
X165624951Y-120667820D01*
X165749890Y-120839786D01*
X165900213Y-120990109D01*
X166072179Y-121115048D01*
X166072181Y-121115049D01*
X166072184Y-121115051D01*
X166261588Y-121211557D01*
X166463757Y-121277246D01*
X166673713Y-121310500D01*
X166673714Y-121310500D01*
X166886286Y-121310500D01*
X166886287Y-121310500D01*
X167096243Y-121277246D01*
X167298412Y-121211557D01*
X167487816Y-121115051D01*
X167509789Y-121099086D01*
X167659786Y-120990109D01*
X167659788Y-120990106D01*
X167659792Y-120990104D01*
X167810104Y-120839792D01*
X167810106Y-120839788D01*
X167810109Y-120839786D01*
X167935048Y-120667820D01*
X167935047Y-120667820D01*
X167935051Y-120667816D01*
X168031557Y-120478412D01*
X168097246Y-120276243D01*
X168130500Y-120066287D01*
X168130500Y-119853713D01*
X168097246Y-119643757D01*
X168031557Y-119441588D01*
X167935051Y-119252184D01*
X167935049Y-119252181D01*
X167935048Y-119252179D01*
X167810109Y-119080213D01*
X167659786Y-118929890D01*
X167487820Y-118804951D01*
X167487115Y-118804591D01*
X167479054Y-118800485D01*
X167428259Y-118752512D01*
X167411463Y-118684692D01*
X167433999Y-118618556D01*
X167479054Y-118579515D01*
X167487816Y-118575051D01*
X167521608Y-118550500D01*
X167659786Y-118450109D01*
X167659788Y-118450106D01*
X167659792Y-118450104D01*
X167810104Y-118299792D01*
X167810106Y-118299788D01*
X167810109Y-118299786D01*
X167935048Y-118127820D01*
X167935047Y-118127820D01*
X167935051Y-118127816D01*
X168031557Y-117938412D01*
X168097246Y-117736243D01*
X168130500Y-117526287D01*
X168130500Y-117313713D01*
X168097246Y-117103757D01*
X168031557Y-116901588D01*
X167935051Y-116712184D01*
X167935049Y-116712181D01*
X167935048Y-116712179D01*
X167810109Y-116540213D01*
X167659786Y-116389890D01*
X167487820Y-116264951D01*
X167487115Y-116264591D01*
X167479054Y-116260485D01*
X167428259Y-116212512D01*
X167411463Y-116144692D01*
X167433999Y-116078556D01*
X167479054Y-116039515D01*
X167487816Y-116035051D01*
X167509789Y-116019086D01*
X167659786Y-115910109D01*
X167659788Y-115910106D01*
X167659792Y-115910104D01*
X167810104Y-115759792D01*
X167810106Y-115759788D01*
X167810109Y-115759786D01*
X167935048Y-115587820D01*
X167935047Y-115587820D01*
X167935051Y-115587816D01*
X168031557Y-115398412D01*
X168097246Y-115196243D01*
X168130500Y-114986287D01*
X168130500Y-114773713D01*
X168097246Y-114563757D01*
X168031557Y-114361588D01*
X167935051Y-114172184D01*
X167935049Y-114172181D01*
X167935048Y-114172179D01*
X167810109Y-114000213D01*
X167659786Y-113849890D01*
X167487820Y-113724951D01*
X167298414Y-113628444D01*
X167298413Y-113628443D01*
X167298412Y-113628443D01*
X167096243Y-113562754D01*
X167096241Y-113562753D01*
X167096240Y-113562753D01*
X166934957Y-113537208D01*
X166886287Y-113529500D01*
X166673713Y-113529500D01*
X166625042Y-113537208D01*
X166463760Y-113562753D01*
X166261585Y-113628444D01*
X166072179Y-113724951D01*
X165900213Y-113849890D01*
X165749890Y-114000213D01*
X165624951Y-114172179D01*
X165528444Y-114361585D01*
X165462753Y-114563760D01*
X165444159Y-114681160D01*
X165429500Y-114773713D01*
X162867653Y-114773713D01*
X166471193Y-111170172D01*
X166532514Y-111136689D01*
X166578265Y-111135382D01*
X166673713Y-111150500D01*
X166673715Y-111150500D01*
X166886286Y-111150500D01*
X166886287Y-111150500D01*
X167096243Y-111117246D01*
X167298412Y-111051557D01*
X167487816Y-110955051D01*
X167567052Y-110897483D01*
X167659786Y-110830109D01*
X167659788Y-110830106D01*
X167659792Y-110830104D01*
X167810104Y-110679792D01*
X167810106Y-110679788D01*
X167810109Y-110679786D01*
X167935048Y-110507820D01*
X167935047Y-110507820D01*
X167935051Y-110507816D01*
X168031557Y-110318412D01*
X168097246Y-110116243D01*
X168130500Y-109906287D01*
X168130500Y-109693713D01*
X168097246Y-109483757D01*
X168031557Y-109281588D01*
X167935051Y-109092184D01*
X167935049Y-109092181D01*
X167935048Y-109092179D01*
X167810109Y-108920213D01*
X167696569Y-108806673D01*
X167663084Y-108745350D01*
X167668068Y-108675658D01*
X167709940Y-108619725D01*
X167740915Y-108602810D01*
X167872331Y-108553796D01*
X167987546Y-108467546D01*
X168073796Y-108352331D01*
X168124091Y-108217483D01*
X168130500Y-108157873D01*
X168130499Y-106362128D01*
X168124091Y-106302517D01*
X168120235Y-106292179D01*
X168073797Y-106167671D01*
X168073793Y-106167664D01*
X167987547Y-106052455D01*
X167987544Y-106052452D01*
X167872335Y-105966206D01*
X167872328Y-105966202D01*
X167737482Y-105915908D01*
X167737483Y-105915908D01*
X167677883Y-105909501D01*
X167677881Y-105909500D01*
X167677873Y-105909500D01*
X167677864Y-105909500D01*
X165882129Y-105909500D01*
X165882123Y-105909501D01*
X165822516Y-105915908D01*
X165687671Y-105966202D01*
X165687664Y-105966206D01*
X165572455Y-106052452D01*
X165572452Y-106052455D01*
X165486206Y-106167664D01*
X165486202Y-106167671D01*
X165435908Y-106302517D01*
X165429974Y-106357715D01*
X165429501Y-106362123D01*
X165429500Y-106362135D01*
X165429500Y-106510500D01*
X165409815Y-106577539D01*
X165357011Y-106623294D01*
X165305500Y-106634500D01*
X159390453Y-106634500D01*
X159323414Y-106614815D01*
X159302772Y-106598181D01*
X150701771Y-97997181D01*
X150668286Y-97935858D01*
X150673270Y-97866166D01*
X150715142Y-97810233D01*
X150780606Y-97785816D01*
X150789452Y-97785500D01*
X178059548Y-97785500D01*
X178126587Y-97805185D01*
X178147229Y-97821819D01*
X178468181Y-98142771D01*
X178501666Y-98204094D01*
X178504500Y-98230452D01*
X178504500Y-115571611D01*
X178528535Y-115692444D01*
X178528539Y-115692457D01*
X178555061Y-115756486D01*
X178564500Y-115803939D01*
X178564500Y-119535500D01*
X178544815Y-119602539D01*
X178492011Y-119648294D01*
X178440500Y-119659500D01*
X177742129Y-119659500D01*
X177742123Y-119659501D01*
X177682516Y-119665908D01*
X177547671Y-119716202D01*
X177547664Y-119716206D01*
X177432455Y-119802452D01*
X177432452Y-119802455D01*
X177346206Y-119917664D01*
X177346202Y-119917671D01*
X177295908Y-120052517D01*
X177289501Y-120112116D01*
X177289501Y-120112123D01*
X177289500Y-120112135D01*
X177289500Y-122407870D01*
X177289501Y-122407876D01*
X177295908Y-122467483D01*
X177346202Y-122602328D01*
X177346206Y-122602335D01*
X177432452Y-122717544D01*
X177432455Y-122717547D01*
X177547664Y-122803793D01*
X177547671Y-122803797D01*
X177682517Y-122854091D01*
X177682516Y-122854091D01*
X177689444Y-122854835D01*
X177742127Y-122860500D01*
X180637872Y-122860499D01*
X180697483Y-122854091D01*
X180832331Y-122803796D01*
X180947546Y-122717546D01*
X181033796Y-122602331D01*
X181084091Y-122467483D01*
X181090500Y-122407873D01*
X181090500Y-122073389D01*
X181789500Y-122073389D01*
X181789500Y-122246611D01*
X181816598Y-122417701D01*
X181870127Y-122582445D01*
X181948768Y-122736788D01*
X182050586Y-122876928D01*
X182173072Y-122999414D01*
X182313212Y-123101232D01*
X182467555Y-123179873D01*
X182632299Y-123233402D01*
X182803389Y-123260500D01*
X182803390Y-123260500D01*
X182976610Y-123260500D01*
X182976611Y-123260500D01*
X183147701Y-123233402D01*
X183312445Y-123179873D01*
X183466788Y-123101232D01*
X183606928Y-122999414D01*
X183729414Y-122876928D01*
X183831232Y-122736788D01*
X183909873Y-122582445D01*
X183963402Y-122417701D01*
X183990500Y-122246611D01*
X183990500Y-122073389D01*
X183963402Y-121902299D01*
X183909873Y-121737555D01*
X183831232Y-121583212D01*
X183729414Y-121443072D01*
X183606928Y-121320586D01*
X183466788Y-121218768D01*
X183312445Y-121140127D01*
X183147701Y-121086598D01*
X183147699Y-121086597D01*
X183147698Y-121086597D01*
X183016271Y-121065781D01*
X182976611Y-121059500D01*
X182803389Y-121059500D01*
X182763728Y-121065781D01*
X182632302Y-121086597D01*
X182467552Y-121140128D01*
X182313211Y-121218768D01*
X182233256Y-121276859D01*
X182173072Y-121320586D01*
X182173070Y-121320588D01*
X182173069Y-121320588D01*
X182050588Y-121443069D01*
X182050588Y-121443070D01*
X182050586Y-121443072D01*
X182006859Y-121503256D01*
X181948768Y-121583211D01*
X181870128Y-121737552D01*
X181816597Y-121902302D01*
X181805846Y-121970185D01*
X181789500Y-122073389D01*
X181090500Y-122073389D01*
X181090499Y-121218768D01*
X181090499Y-120112129D01*
X181090498Y-120112123D01*
X181090497Y-120112116D01*
X181084091Y-120052517D01*
X181033796Y-119917669D01*
X181033795Y-119917668D01*
X181033793Y-119917664D01*
X180947547Y-119802455D01*
X180947544Y-119802452D01*
X180832335Y-119716206D01*
X180832328Y-119716202D01*
X180697482Y-119665908D01*
X180697483Y-119665908D01*
X180637883Y-119659501D01*
X180637881Y-119659500D01*
X180637873Y-119659500D01*
X180637865Y-119659500D01*
X179939500Y-119659500D01*
X179872461Y-119639815D01*
X179826706Y-119587011D01*
X179815500Y-119535500D01*
X179815500Y-115508393D01*
X179815499Y-115508389D01*
X179803565Y-115448393D01*
X179791463Y-115387548D01*
X179788344Y-115380019D01*
X179764939Y-115323512D01*
X179763312Y-115315335D01*
X179760523Y-115310995D01*
X179755500Y-115276060D01*
X179755500Y-115073389D01*
X181789500Y-115073389D01*
X181789500Y-115246611D01*
X181816598Y-115417701D01*
X181870127Y-115582445D01*
X181948768Y-115736788D01*
X182050586Y-115876928D01*
X182173072Y-115999414D01*
X182313212Y-116101232D01*
X182467555Y-116179873D01*
X182632299Y-116233402D01*
X182803389Y-116260500D01*
X182803390Y-116260500D01*
X182976610Y-116260500D01*
X182976611Y-116260500D01*
X183147701Y-116233402D01*
X183312445Y-116179873D01*
X183466788Y-116101232D01*
X183606928Y-115999414D01*
X183729414Y-115876928D01*
X183831232Y-115736788D01*
X183909873Y-115582445D01*
X183963402Y-115417701D01*
X183990500Y-115246611D01*
X183990500Y-115073389D01*
X183963402Y-114902299D01*
X183909873Y-114737555D01*
X183831232Y-114583212D01*
X183729414Y-114443072D01*
X183606928Y-114320586D01*
X183466788Y-114218768D01*
X183312445Y-114140127D01*
X183147701Y-114086598D01*
X183147699Y-114086597D01*
X183147698Y-114086597D01*
X183016271Y-114065781D01*
X182976611Y-114059500D01*
X182803389Y-114059500D01*
X182763728Y-114065781D01*
X182632302Y-114086597D01*
X182467552Y-114140128D01*
X182313211Y-114218768D01*
X182233256Y-114276859D01*
X182173072Y-114320586D01*
X182173070Y-114320588D01*
X182173069Y-114320588D01*
X182050588Y-114443069D01*
X182050588Y-114443070D01*
X182050586Y-114443072D01*
X182006859Y-114503256D01*
X181948768Y-114583211D01*
X181870128Y-114737552D01*
X181816597Y-114902302D01*
X181789500Y-115073389D01*
X179755500Y-115073389D01*
X179755500Y-97858393D01*
X179755499Y-97858389D01*
X179744241Y-97801789D01*
X179731463Y-97737548D01*
X179684311Y-97623714D01*
X179684310Y-97623713D01*
X179684307Y-97623707D01*
X179615858Y-97521267D01*
X179615855Y-97521263D01*
X179525637Y-97431045D01*
X179525606Y-97431016D01*
X179521771Y-97427181D01*
X179488286Y-97365858D01*
X179493270Y-97296166D01*
X179535142Y-97240233D01*
X179600606Y-97215816D01*
X179609452Y-97215500D01*
X183415944Y-97215500D01*
X183482983Y-97235185D01*
X183503625Y-97251819D01*
X184203181Y-97951375D01*
X184236666Y-98012698D01*
X184239500Y-98039056D01*
X184239500Y-115646610D01*
X184262012Y-115759786D01*
X184263537Y-115767452D01*
X184268434Y-115779275D01*
X184310687Y-115881283D01*
X184310692Y-115881292D01*
X184379141Y-115983732D01*
X184379144Y-115983736D01*
X184466263Y-116070855D01*
X184466267Y-116070858D01*
X184568707Y-116139307D01*
X184568713Y-116139310D01*
X184568714Y-116139311D01*
X184682548Y-116186463D01*
X184803389Y-116210499D01*
X184803393Y-116210500D01*
X184803394Y-116210500D01*
X188376607Y-116210500D01*
X188376608Y-116210499D01*
X188497452Y-116186463D01*
X188611286Y-116139311D01*
X188713733Y-116070858D01*
X188800858Y-115983733D01*
X188869311Y-115881286D01*
X188916463Y-115767452D01*
X188940500Y-115646606D01*
X188940500Y-97566998D01*
X188916463Y-97446152D01*
X188872973Y-97341158D01*
X188869312Y-97332320D01*
X188869307Y-97332311D01*
X188800859Y-97229872D01*
X188757485Y-97186498D01*
X188713733Y-97142746D01*
X188713732Y-97142745D01*
X183072255Y-91501269D01*
X183072254Y-91501267D01*
X182985129Y-91414142D01*
X182915398Y-91367549D01*
X182909291Y-91363468D01*
X182909285Y-91363463D01*
X182882686Y-91345690D01*
X182882682Y-91345688D01*
X182799231Y-91311122D01*
X182799230Y-91311121D01*
X182791725Y-91308013D01*
X182768848Y-91298537D01*
X182708425Y-91286518D01*
X182704449Y-91285727D01*
X182704441Y-91285725D01*
X182648006Y-91274500D01*
X182648003Y-91274500D01*
X182648002Y-91274500D01*
X163639500Y-91274500D01*
X163572461Y-91254815D01*
X163526706Y-91202011D01*
X163515500Y-91150500D01*
X163515500Y-41460452D01*
X163535185Y-41393413D01*
X163551819Y-41372771D01*
X164672771Y-40251819D01*
X164734094Y-40218334D01*
X164760452Y-40215500D01*
X173757019Y-40215500D01*
X173824058Y-40235185D01*
X173867503Y-40283203D01*
X173874950Y-40297819D01*
X173999890Y-40469786D01*
X174150213Y-40620109D01*
X174322179Y-40745048D01*
X174322181Y-40745049D01*
X174322184Y-40745051D01*
X174511588Y-40841557D01*
X174713757Y-40907246D01*
X174923713Y-40940500D01*
X174923714Y-40940500D01*
X175136286Y-40940500D01*
X175136287Y-40940500D01*
X175346243Y-40907246D01*
X175548412Y-40841557D01*
X175737816Y-40745051D01*
X175759789Y-40729086D01*
X175909786Y-40620109D01*
X175909788Y-40620106D01*
X175909792Y-40620104D01*
X176060104Y-40469792D01*
X176060106Y-40469788D01*
X176060109Y-40469786D01*
X176185048Y-40297820D01*
X176185049Y-40297819D01*
X176185051Y-40297816D01*
X176281557Y-40108412D01*
X176347246Y-39906243D01*
X176380500Y-39696287D01*
X176380500Y-39483713D01*
X176347246Y-39273757D01*
X176281557Y-39071588D01*
X176185051Y-38882184D01*
X176185049Y-38882181D01*
X176185048Y-38882179D01*
X176060109Y-38710213D01*
X175909786Y-38559890D01*
X175737820Y-38434951D01*
X175737115Y-38434591D01*
X175729054Y-38430485D01*
X175678259Y-38382512D01*
X175661463Y-38314692D01*
X175683999Y-38248556D01*
X175729054Y-38209515D01*
X175737816Y-38205051D01*
X175803203Y-38157545D01*
X175909786Y-38080109D01*
X175909788Y-38080106D01*
X175909792Y-38080104D01*
X176060104Y-37929792D01*
X176060106Y-37929788D01*
X176060109Y-37929786D01*
X176185048Y-37757820D01*
X176185049Y-37757819D01*
X176185051Y-37757816D01*
X176281557Y-37568412D01*
X176347246Y-37366243D01*
X176380500Y-37156287D01*
X176380500Y-36943713D01*
X176347246Y-36733757D01*
X176281557Y-36531588D01*
X176185051Y-36342184D01*
X176185049Y-36342181D01*
X176185048Y-36342179D01*
X176060109Y-36170213D01*
X175909786Y-36019890D01*
X175737820Y-35894951D01*
X175737115Y-35894591D01*
X175729054Y-35890485D01*
X175678259Y-35842512D01*
X175661463Y-35774692D01*
X175683999Y-35708556D01*
X175729054Y-35669515D01*
X175737816Y-35665051D01*
X175759789Y-35649086D01*
X175909786Y-35540109D01*
X175909788Y-35540106D01*
X175909792Y-35540104D01*
X176060104Y-35389792D01*
X176060106Y-35389788D01*
X176060109Y-35389786D01*
X176185048Y-35217820D01*
X176185049Y-35217819D01*
X176185051Y-35217816D01*
X176281557Y-35028412D01*
X176347246Y-34826243D01*
X176380500Y-34616287D01*
X176380500Y-34403713D01*
X176347246Y-34193757D01*
X176281557Y-33991588D01*
X176185051Y-33802184D01*
X176141699Y-33742514D01*
X176118221Y-33676710D01*
X176134047Y-33608656D01*
X176154334Y-33581955D01*
X178445858Y-31290434D01*
X178514312Y-31187986D01*
X178541932Y-31121304D01*
X178561463Y-31074153D01*
X178565780Y-31052451D01*
X178585501Y-30953307D01*
X178585501Y-30830094D01*
X178585501Y-30824984D01*
X178585500Y-30824958D01*
X178585500Y-27708393D01*
X178585499Y-27708389D01*
X178561464Y-27587555D01*
X178561463Y-27587548D01*
X178514311Y-27473714D01*
X178514310Y-27473713D01*
X178514307Y-27473707D01*
X178445858Y-27371267D01*
X178445855Y-27371263D01*
X178358736Y-27284144D01*
X178358732Y-27284141D01*
X178256292Y-27215692D01*
X178256283Y-27215687D01*
X178142454Y-27168538D01*
X178142455Y-27168538D01*
X178142452Y-27168537D01*
X178142448Y-27168536D01*
X178142444Y-27168535D01*
X178021610Y-27144500D01*
X178021606Y-27144500D01*
X176502210Y-27144500D01*
X176435171Y-27124815D01*
X176389416Y-27072011D01*
X176379472Y-27002853D01*
X176379719Y-27001214D01*
X176380500Y-26996287D01*
X176380500Y-26783713D01*
X176347246Y-26573757D01*
X176281557Y-26371588D01*
X176185051Y-26182184D01*
X176185049Y-26182181D01*
X176185048Y-26182179D01*
X176060109Y-26010213D01*
X175909786Y-25859890D01*
X175737820Y-25734951D01*
X175548414Y-25638444D01*
X175548413Y-25638443D01*
X175548412Y-25638443D01*
X175346243Y-25572754D01*
X175346241Y-25572753D01*
X175346240Y-25572753D01*
X175184957Y-25547208D01*
X175136287Y-25539500D01*
X174923713Y-25539500D01*
X174875042Y-25547208D01*
X174713760Y-25572753D01*
X174511585Y-25638444D01*
X174322179Y-25734951D01*
X174150213Y-25859890D01*
X173999890Y-26010213D01*
X173874951Y-26182179D01*
X173778444Y-26371585D01*
X173712753Y-26573760D01*
X173679500Y-26783713D01*
X173679500Y-26996286D01*
X173706781Y-27168535D01*
X173712754Y-27206243D01*
X173715823Y-27215689D01*
X173778444Y-27408414D01*
X173874951Y-27597820D01*
X173999890Y-27769786D01*
X174150213Y-27920109D01*
X174322182Y-28045050D01*
X174330946Y-28049516D01*
X174381742Y-28097491D01*
X174398536Y-28165312D01*
X174375998Y-28231447D01*
X174330946Y-28270484D01*
X174322182Y-28274949D01*
X174150213Y-28399890D01*
X173999890Y-28550213D01*
X173874950Y-28722180D01*
X173867503Y-28736797D01*
X173819527Y-28787592D01*
X173757019Y-28804500D01*
X170427741Y-28804500D01*
X170427721Y-28804499D01*
X170421607Y-28804499D01*
X170298394Y-28804499D01*
X170197597Y-28824548D01*
X170197592Y-28824548D01*
X170177549Y-28828536D01*
X170177547Y-28828536D01*
X170130397Y-28848067D01*
X170063719Y-28875685D01*
X170063717Y-28875686D01*
X169961266Y-28944141D01*
X169961263Y-28944144D01*
X158786269Y-40119140D01*
X158699144Y-40206264D01*
X158699138Y-40206272D01*
X158630690Y-40308708D01*
X158630688Y-40308713D01*
X158630688Y-40308714D01*
X158606488Y-40367139D01*
X158583537Y-40422548D01*
X158574652Y-40467217D01*
X158572451Y-40474045D01*
X158556667Y-40497242D01*
X158543664Y-40522102D01*
X158537280Y-40525737D01*
X158533147Y-40531812D01*
X158507323Y-40542795D01*
X158482948Y-40556676D01*
X158471572Y-40558002D01*
X158468852Y-40559159D01*
X158465928Y-40558659D01*
X158454432Y-40560000D01*
X111060000Y-40560000D01*
X111060000Y-60492823D01*
X111040315Y-60559862D01*
X110987511Y-60605617D01*
X110918353Y-60615561D01*
X110854797Y-60586536D01*
X110848319Y-60580504D01*
X106994866Y-56727051D01*
X106965764Y-56707606D01*
X106888315Y-56655857D01*
X106888314Y-56655855D01*
X106871945Y-56644919D01*
X106871941Y-56644916D01*
X106871939Y-56644915D01*
X106871936Y-56644913D01*
X106735363Y-56588343D01*
X106735353Y-56588340D01*
X106590366Y-56559500D01*
X106590364Y-56559500D01*
X98598456Y-56559500D01*
X98531417Y-56539815D01*
X98485662Y-56487011D01*
X98475718Y-56417853D01*
X98480525Y-56397183D01*
X98516014Y-56287954D01*
X98516013Y-56287954D01*
X98516015Y-56287951D01*
X98550500Y-56070222D01*
X98550500Y-55855451D01*
X98570185Y-55788412D01*
X98586819Y-55767770D01*
X99795089Y-54559500D01*
X101602373Y-52752215D01*
X101663694Y-52718732D01*
X101710410Y-52719249D01*
X101710654Y-52717715D01*
X101814101Y-52734099D01*
X101917648Y-52750500D01*
X101917649Y-52750500D01*
X102122351Y-52750500D01*
X102122352Y-52750500D01*
X102324534Y-52718477D01*
X102519219Y-52655220D01*
X102701610Y-52562287D01*
X102794590Y-52494732D01*
X102867213Y-52441971D01*
X102867215Y-52441968D01*
X102867219Y-52441966D01*
X103011966Y-52297219D01*
X103011968Y-52297215D01*
X103011971Y-52297213D01*
X103082236Y-52200500D01*
X103132287Y-52131610D01*
X103225220Y-51949219D01*
X103288477Y-51754534D01*
X103320500Y-51552352D01*
X103320500Y-51347648D01*
X103288477Y-51145466D01*
X103225220Y-50950781D01*
X103225218Y-50950778D01*
X103225218Y-50950776D01*
X103191503Y-50884607D01*
X103132287Y-50768390D01*
X103124556Y-50757749D01*
X103011971Y-50602786D01*
X102867213Y-50458028D01*
X102701613Y-50337715D01*
X102701612Y-50337714D01*
X102701610Y-50337713D01*
X102624723Y-50298537D01*
X102519223Y-50244781D01*
X102324534Y-50181522D01*
X102149995Y-50153878D01*
X102122352Y-50149500D01*
X101917648Y-50149500D01*
X101893329Y-50153351D01*
X101715465Y-50181522D01*
X101520776Y-50244781D01*
X101338386Y-50337715D01*
X101172786Y-50458028D01*
X101028028Y-50602786D01*
X100907715Y-50768386D01*
X100814781Y-50950776D01*
X100751522Y-51145465D01*
X100742167Y-51204534D01*
X100719500Y-51347648D01*
X100719500Y-51552352D01*
X100723510Y-51577669D01*
X100752285Y-51759346D01*
X100750252Y-51759667D01*
X100747165Y-51820834D01*
X100717781Y-51867627D01*
X97907450Y-54677958D01*
X97846127Y-54711443D01*
X97776435Y-54706459D01*
X97763474Y-54700762D01*
X97687606Y-54662104D01*
X97687603Y-54662103D01*
X97477952Y-54593985D01*
X97369086Y-54576742D01*
X97260222Y-54559500D01*
X97039778Y-54559500D01*
X96967201Y-54570995D01*
X96822047Y-54593985D01*
X96612396Y-54662103D01*
X96612393Y-54662104D01*
X96415974Y-54762187D01*
X96237641Y-54891752D01*
X96237636Y-54891756D01*
X96081756Y-55047636D01*
X96081752Y-55047641D01*
X95952187Y-55225974D01*
X95852104Y-55422393D01*
X95852103Y-55422396D01*
X95783985Y-55632047D01*
X95749500Y-55849778D01*
X95749500Y-56070221D01*
X95783985Y-56287954D01*
X95819475Y-56397183D01*
X95821470Y-56467024D01*
X95785389Y-56526857D01*
X95722688Y-56557684D01*
X95701544Y-56559500D01*
X95476741Y-56559500D01*
X95331753Y-56588340D01*
X95331743Y-56588343D01*
X95195172Y-56644912D01*
X95195159Y-56644919D01*
X95072245Y-56727048D01*
X95072241Y-56727051D01*
X91147181Y-60652112D01*
X91085858Y-60685597D01*
X91016166Y-60680613D01*
X90960233Y-60638741D01*
X90935816Y-60573277D01*
X90935500Y-60564431D01*
X90935500Y-38650451D01*
X90955185Y-38583412D01*
X90971814Y-38562775D01*
X97277771Y-32256817D01*
X97339094Y-32223333D01*
X97365452Y-32220499D01*
X98677871Y-32220499D01*
X98677872Y-32220499D01*
X98737483Y-32214091D01*
X98872331Y-32163796D01*
X98987546Y-32077546D01*
X99073796Y-31962331D01*
X99124091Y-31827483D01*
X99130500Y-31767873D01*
X99130499Y-29972128D01*
X99124091Y-29912517D01*
X99073796Y-29777669D01*
X99073795Y-29777668D01*
X99073793Y-29777664D01*
X98987547Y-29662455D01*
X98987544Y-29662452D01*
X98872335Y-29576206D01*
X98872328Y-29576202D01*
X98737482Y-29525908D01*
X98737483Y-29525908D01*
X98677883Y-29519501D01*
X98677881Y-29519500D01*
X98677873Y-29519500D01*
X98677864Y-29519500D01*
X96882129Y-29519500D01*
X96882123Y-29519501D01*
X96822516Y-29525908D01*
X96687671Y-29576202D01*
X96687664Y-29576206D01*
X96572455Y-29662452D01*
X96572452Y-29662455D01*
X96486206Y-29777664D01*
X96486202Y-29777671D01*
X96435908Y-29912517D01*
X96429501Y-29972116D01*
X96429501Y-29972123D01*
X96429500Y-29972135D01*
X96429500Y-31284547D01*
X96409815Y-31351586D01*
X96393181Y-31372228D01*
X89824144Y-37941264D01*
X89824138Y-37941272D01*
X89755692Y-38043705D01*
X89755684Y-38043719D01*
X89722347Y-38124207D01*
X89716823Y-38137543D01*
X89708537Y-38157545D01*
X89708535Y-38157553D01*
X89684500Y-38278389D01*
X89684500Y-60947650D01*
X89664815Y-61014689D01*
X89663602Y-61016541D01*
X89600609Y-61110815D01*
X89600602Y-61110828D01*
X89540264Y-61256498D01*
X89540261Y-61256510D01*
X89509500Y-61411153D01*
X89509500Y-61568846D01*
X89540261Y-61723489D01*
X89540264Y-61723501D01*
X89567000Y-61788048D01*
X89574469Y-61857518D01*
X89543193Y-61919997D01*
X89483104Y-61955648D01*
X89452439Y-61959500D01*
X86504604Y-61959500D01*
X86457155Y-61950062D01*
X86433497Y-61940263D01*
X86433493Y-61940262D01*
X86433488Y-61940260D01*
X86278845Y-61909500D01*
X86278842Y-61909500D01*
X86121158Y-61909500D01*
X86121155Y-61909500D01*
X85966510Y-61940261D01*
X85966498Y-61940264D01*
X85820827Y-62000602D01*
X85820814Y-62000609D01*
X85689711Y-62088210D01*
X85689707Y-62088213D01*
X85578213Y-62199707D01*
X85578210Y-62199711D01*
X85490609Y-62330814D01*
X85490602Y-62330827D01*
X85430264Y-62476498D01*
X85430261Y-62476510D01*
X85399500Y-62631153D01*
X85399500Y-62788846D01*
X85430261Y-62943489D01*
X85430264Y-62943501D01*
X85490602Y-63089172D01*
X85490609Y-63089185D01*
X85570108Y-63208163D01*
X85590986Y-63274841D01*
X85573621Y-63338136D01*
X85624099Y-63319309D01*
X85692372Y-63334161D01*
X85701836Y-63339891D01*
X85820814Y-63419390D01*
X85820827Y-63419397D01*
X85966498Y-63479735D01*
X85966503Y-63479737D01*
X86077637Y-63501843D01*
X86121153Y-63510499D01*
X86121156Y-63510500D01*
X86121158Y-63510500D01*
X86278844Y-63510500D01*
X86278845Y-63510499D01*
X86397029Y-63486991D01*
X86433488Y-63479739D01*
X86433489Y-63479738D01*
X86433497Y-63479737D01*
X86457155Y-63469937D01*
X86504604Y-63460500D01*
X90224581Y-63460500D01*
X90322123Y-63441096D01*
X90369574Y-63431658D01*
X90506156Y-63375084D01*
X90580617Y-63325331D01*
X90629077Y-63292952D01*
X95825209Y-58096818D01*
X95886532Y-58063334D01*
X95912890Y-58060500D01*
X106154216Y-58060500D01*
X106221255Y-58080185D01*
X106241897Y-58096819D01*
X110478026Y-62332948D01*
X110478030Y-62332951D01*
X110600944Y-62415080D01*
X110600957Y-62415087D01*
X110702674Y-62457219D01*
X110737533Y-62471658D01*
X110737537Y-62471658D01*
X110737538Y-62471659D01*
X110882525Y-62500500D01*
X110882528Y-62500500D01*
X111030363Y-62500500D01*
X116127770Y-62500500D01*
X116194809Y-62520185D01*
X116215451Y-62536819D01*
X117390950Y-63712318D01*
X117424435Y-63773641D01*
X117419451Y-63843333D01*
X117390950Y-63887680D01*
X117054703Y-64223927D01*
X117014480Y-64250805D01*
X116990819Y-64260606D01*
X116990818Y-64260607D01*
X116859715Y-64348207D01*
X116859707Y-64348213D01*
X116748213Y-64459707D01*
X116748210Y-64459711D01*
X116660609Y-64590814D01*
X116660602Y-64590827D01*
X116600264Y-64736498D01*
X116600261Y-64736510D01*
X116569500Y-64891153D01*
X116569500Y-65048846D01*
X116600261Y-65203489D01*
X116600264Y-65203501D01*
X116660602Y-65349172D01*
X116660608Y-65349183D01*
X116679698Y-65377753D01*
X116700575Y-65444430D01*
X116682090Y-65511810D01*
X116630111Y-65558500D01*
X116561141Y-65569676D01*
X116497078Y-65541790D01*
X116488914Y-65534324D01*
X115303150Y-64348560D01*
X115295860Y-64341270D01*
X115295858Y-64341267D01*
X115208733Y-64254142D01*
X115157509Y-64219915D01*
X115106286Y-64185688D01*
X115106283Y-64185686D01*
X115106280Y-64185685D01*
X115033658Y-64155605D01*
X115033657Y-64155604D01*
X115025792Y-64152347D01*
X114992452Y-64138537D01*
X114895130Y-64119179D01*
X114891532Y-64118463D01*
X114891531Y-64118463D01*
X114884160Y-64116997D01*
X114871607Y-64114500D01*
X114871606Y-64114500D01*
X107582784Y-64114500D01*
X107515745Y-64094815D01*
X107469990Y-64042011D01*
X107460046Y-63972853D01*
X107461167Y-63966308D01*
X107490500Y-63818844D01*
X107490500Y-63661155D01*
X107490499Y-63661153D01*
X107483839Y-63627671D01*
X107459737Y-63506503D01*
X107448650Y-63479737D01*
X107399397Y-63360827D01*
X107399390Y-63360814D01*
X107311789Y-63229711D01*
X107311786Y-63229707D01*
X107200292Y-63118213D01*
X107200288Y-63118210D01*
X107069185Y-63030609D01*
X107069172Y-63030602D01*
X106923501Y-62970264D01*
X106923489Y-62970261D01*
X106812285Y-62948141D01*
X106750374Y-62915756D01*
X106748795Y-62914205D01*
X105053374Y-61218784D01*
X105045860Y-61211270D01*
X105045858Y-61211267D01*
X104958733Y-61124142D01*
X104900027Y-61084916D01*
X104893626Y-61080639D01*
X104893624Y-61080637D01*
X104856290Y-61055690D01*
X104856286Y-61055688D01*
X104775792Y-61022347D01*
X104742452Y-61008537D01*
X104682029Y-60996518D01*
X104677306Y-60995578D01*
X104677304Y-60995578D01*
X104621610Y-60984500D01*
X104621607Y-60984500D01*
X104621606Y-60984500D01*
X103236115Y-60984500D01*
X103169076Y-60964815D01*
X103136393Y-60931428D01*
X103135151Y-60932331D01*
X103011971Y-60762786D01*
X102867213Y-60618028D01*
X102701613Y-60497715D01*
X102701612Y-60497714D01*
X102701610Y-60497713D01*
X102624723Y-60458537D01*
X102519223Y-60404781D01*
X102324534Y-60341522D01*
X102149995Y-60313878D01*
X102122352Y-60309500D01*
X101917648Y-60309500D01*
X101893329Y-60313351D01*
X101715465Y-60341522D01*
X101520776Y-60404781D01*
X101338386Y-60497715D01*
X101172786Y-60618028D01*
X101028028Y-60762786D01*
X100907715Y-60928386D01*
X100814781Y-61110776D01*
X100751522Y-61305465D01*
X100720711Y-61500000D01*
X100719500Y-61507648D01*
X100719500Y-61712352D01*
X100721264Y-61723489D01*
X100751522Y-61914534D01*
X100814781Y-62109223D01*
X100860886Y-62199707D01*
X100885406Y-62247831D01*
X100907715Y-62291613D01*
X101028028Y-62457213D01*
X101172786Y-62601971D01*
X101277893Y-62678334D01*
X101338390Y-62722287D01*
X101454607Y-62781503D01*
X101520776Y-62815218D01*
X101520778Y-62815218D01*
X101520781Y-62815220D01*
X101625137Y-62849127D01*
X101715465Y-62878477D01*
X101770420Y-62887181D01*
X101917648Y-62910500D01*
X101917649Y-62910500D01*
X102122351Y-62910500D01*
X102122352Y-62910500D01*
X102324534Y-62878477D01*
X102519219Y-62815220D01*
X102701610Y-62722287D01*
X102820060Y-62636229D01*
X102867213Y-62601971D01*
X102867215Y-62601968D01*
X102867219Y-62601966D01*
X103011966Y-62457219D01*
X103011968Y-62457215D01*
X103011971Y-62457213D01*
X103135151Y-62287669D01*
X103136823Y-62288884D01*
X103182208Y-62247831D01*
X103236115Y-62235500D01*
X104249548Y-62235500D01*
X104316587Y-62255185D01*
X104337229Y-62271819D01*
X105864205Y-63798795D01*
X105873267Y-63815392D01*
X105886399Y-63829001D01*
X105896805Y-63858497D01*
X105897690Y-63860118D01*
X105898141Y-63862284D01*
X105918833Y-63966308D01*
X105912606Y-64035900D01*
X105869743Y-64091077D01*
X105803853Y-64114322D01*
X105797216Y-64114500D01*
X86180452Y-64114500D01*
X86113413Y-64094815D01*
X86092771Y-64078181D01*
X85545264Y-63530674D01*
X85511779Y-63469351D01*
X85516763Y-63399659D01*
X85533608Y-63377157D01*
X85520523Y-63388911D01*
X85451553Y-63400087D01*
X85387489Y-63372201D01*
X85379325Y-63364735D01*
X82683150Y-60668560D01*
X82675860Y-60661270D01*
X82675858Y-60661267D01*
X82588733Y-60574142D01*
X82537509Y-60539915D01*
X82486286Y-60505688D01*
X82486283Y-60505686D01*
X82486280Y-60505685D01*
X82412603Y-60475168D01*
X82412601Y-60475167D01*
X82405792Y-60472347D01*
X82372452Y-60458537D01*
X82312029Y-60446518D01*
X82307306Y-60445578D01*
X82307304Y-60445578D01*
X82251610Y-60434500D01*
X82251607Y-60434500D01*
X82251606Y-60434500D01*
X79146115Y-60434500D01*
X79079076Y-60414815D01*
X79046393Y-60381428D01*
X79045151Y-60382331D01*
X78921971Y-60212786D01*
X78777213Y-60068028D01*
X78611613Y-59947715D01*
X78611612Y-59947714D01*
X78611610Y-59947713D01*
X78554653Y-59918691D01*
X78429223Y-59854781D01*
X78234534Y-59791522D01*
X78059995Y-59763878D01*
X78032352Y-59759500D01*
X77827648Y-59759500D01*
X77803329Y-59763351D01*
X77625465Y-59791522D01*
X77430776Y-59854781D01*
X77248386Y-59947715D01*
X77082786Y-60068028D01*
X76938028Y-60212786D01*
X76817715Y-60378386D01*
X76724781Y-60560776D01*
X76661522Y-60755465D01*
X76629500Y-60957648D01*
X76629500Y-61162351D01*
X76661522Y-61364534D01*
X76724781Y-61559223D01*
X76788691Y-61684653D01*
X76802805Y-61712352D01*
X76817715Y-61741613D01*
X76938028Y-61907213D01*
X77082786Y-62051971D01*
X77237749Y-62164556D01*
X77248390Y-62172287D01*
X77364607Y-62231503D01*
X77430776Y-62265218D01*
X77430778Y-62265218D01*
X77430781Y-62265220D01*
X77535137Y-62299127D01*
X77625465Y-62328477D01*
X77726557Y-62344488D01*
X77827648Y-62360500D01*
X77827649Y-62360500D01*
X78032351Y-62360500D01*
X78032352Y-62360500D01*
X78234534Y-62328477D01*
X78429219Y-62265220D01*
X78611610Y-62172287D01*
X78727333Y-62088210D01*
X78777213Y-62051971D01*
X78777215Y-62051968D01*
X78777219Y-62051966D01*
X78921966Y-61907219D01*
X78921968Y-61907215D01*
X78921971Y-61907213D01*
X79045151Y-61737669D01*
X79046823Y-61738884D01*
X79092208Y-61697831D01*
X79146115Y-61685500D01*
X81879548Y-61685500D01*
X81946587Y-61705185D01*
X81967229Y-61721819D01*
X85384139Y-65138729D01*
X85384142Y-65138733D01*
X85471267Y-65225858D01*
X85545530Y-65275479D01*
X85551402Y-65279402D01*
X85551406Y-65279406D01*
X85560217Y-65285293D01*
X85572808Y-65293706D01*
X85573714Y-65294311D01*
X85573716Y-65294313D01*
X85593969Y-65302701D01*
X85620156Y-65313548D01*
X85620157Y-65313549D01*
X85620158Y-65313549D01*
X85687548Y-65341463D01*
X85739884Y-65351873D01*
X85808391Y-65365499D01*
X85808392Y-65365500D01*
X85808393Y-65365500D01*
X85808394Y-65365500D01*
X103699169Y-65365500D01*
X103766208Y-65385185D01*
X103811963Y-65437989D01*
X103821907Y-65507147D01*
X103792882Y-65570703D01*
X103764195Y-65595082D01*
X103755764Y-65600274D01*
X103730821Y-65610606D01*
X103634636Y-65674874D01*
X103632676Y-65676082D01*
X103601104Y-65684698D01*
X103569864Y-65694480D01*
X103567650Y-65694500D01*
X92258389Y-65694500D01*
X92203456Y-65705426D01*
X92203445Y-65705429D01*
X92197971Y-65706518D01*
X92137548Y-65718537D01*
X92091043Y-65737800D01*
X92084953Y-65740322D01*
X92084941Y-65740326D01*
X92023722Y-65765684D01*
X92023712Y-65765689D01*
X92013592Y-65772452D01*
X91921268Y-65834140D01*
X91877705Y-65877703D01*
X91834142Y-65921267D01*
X91834139Y-65921270D01*
X85906879Y-71848529D01*
X85845556Y-71882014D01*
X85780881Y-71878779D01*
X85681371Y-71846447D01*
X85448097Y-71809500D01*
X85448092Y-71809500D01*
X85211908Y-71809500D01*
X85211903Y-71809500D01*
X84978631Y-71846446D01*
X84754003Y-71919433D01*
X84543566Y-72026657D01*
X84467379Y-72082011D01*
X84352490Y-72165483D01*
X84352488Y-72165485D01*
X84352487Y-72165485D01*
X84185485Y-72332487D01*
X84185485Y-72332488D01*
X84185483Y-72332490D01*
X84126954Y-72413048D01*
X84046657Y-72523566D01*
X83999155Y-72616795D01*
X83951180Y-72667591D01*
X83888670Y-72684500D01*
X80271330Y-72684500D01*
X80204291Y-72664815D01*
X80160845Y-72616795D01*
X80125029Y-72546503D01*
X80113343Y-72523567D01*
X79974517Y-72332490D01*
X79807510Y-72165483D01*
X79616433Y-72026657D01*
X79584254Y-72010261D01*
X79405996Y-71919433D01*
X79181368Y-71846446D01*
X78948097Y-71809500D01*
X78948092Y-71809500D01*
X78711908Y-71809500D01*
X78711903Y-71809500D01*
X78478631Y-71846446D01*
X78254003Y-71919433D01*
X78043566Y-72026657D01*
X77967379Y-72082011D01*
X77852490Y-72165483D01*
X77852488Y-72165485D01*
X77852487Y-72165485D01*
X77685485Y-72332487D01*
X77685485Y-72332488D01*
X77685483Y-72332490D01*
X77626954Y-72413048D01*
X77546657Y-72523566D01*
X77439433Y-72734005D01*
X77366446Y-72958634D01*
X77344458Y-73097460D01*
X77314528Y-73160594D01*
X77309666Y-73165742D01*
X74257627Y-76217781D01*
X74196304Y-76251266D01*
X74149584Y-76250776D01*
X74149346Y-76252285D01*
X74024859Y-76232568D01*
X73942352Y-76219500D01*
X73737648Y-76219500D01*
X73717924Y-76222624D01*
X73535465Y-76251522D01*
X73340776Y-76314781D01*
X73158386Y-76407715D01*
X72992786Y-76528028D01*
X72848028Y-76672786D01*
X72727715Y-76838386D01*
X72634781Y-77020776D01*
X72571522Y-77215465D01*
X72539500Y-77417648D01*
X70820500Y-77417648D01*
X70820500Y-67257648D01*
X72539500Y-67257648D01*
X72539500Y-67462351D01*
X72571522Y-67664534D01*
X72634781Y-67859223D01*
X72727715Y-68041613D01*
X72848028Y-68207213D01*
X72992786Y-68351971D01*
X73138436Y-68457790D01*
X73158390Y-68472287D01*
X73274607Y-68531503D01*
X73340776Y-68565218D01*
X73340778Y-68565218D01*
X73340781Y-68565220D01*
X73445137Y-68599127D01*
X73535465Y-68628477D01*
X73623068Y-68642352D01*
X73737648Y-68660500D01*
X73737649Y-68660500D01*
X73942351Y-68660500D01*
X73942352Y-68660500D01*
X74144534Y-68628477D01*
X74339219Y-68565220D01*
X74521610Y-68472287D01*
X74655152Y-68375264D01*
X74687213Y-68351971D01*
X74687215Y-68351968D01*
X74687219Y-68351966D01*
X74831966Y-68207219D01*
X74831968Y-68207215D01*
X74831971Y-68207213D01*
X74916209Y-68091267D01*
X74952287Y-68041610D01*
X75045220Y-67859219D01*
X75108477Y-67664534D01*
X75140500Y-67462352D01*
X75140500Y-67257648D01*
X75109859Y-67064189D01*
X75108477Y-67055465D01*
X75045218Y-66860776D01*
X75011022Y-66793664D01*
X74952287Y-66678390D01*
X74910739Y-66621203D01*
X74831971Y-66512786D01*
X74687213Y-66368028D01*
X74521613Y-66247715D01*
X74521612Y-66247714D01*
X74521610Y-66247713D01*
X74447137Y-66209767D01*
X74339223Y-66154781D01*
X74144534Y-66091522D01*
X73969995Y-66063878D01*
X73942352Y-66059500D01*
X73737648Y-66059500D01*
X73713329Y-66063351D01*
X73535465Y-66091522D01*
X73340776Y-66154781D01*
X73158386Y-66247715D01*
X72992786Y-66368028D01*
X72848028Y-66512786D01*
X72727715Y-66678386D01*
X72634781Y-66860776D01*
X72571522Y-67055465D01*
X72539500Y-67257648D01*
X70820500Y-67257648D01*
X70820500Y-50797648D01*
X76629500Y-50797648D01*
X76629500Y-51002351D01*
X76661522Y-51204534D01*
X76724781Y-51399223D01*
X76788691Y-51524653D01*
X76802805Y-51552352D01*
X76817715Y-51581613D01*
X76938028Y-51747213D01*
X77082786Y-51891971D01*
X77237749Y-52004556D01*
X77248390Y-52012287D01*
X77364607Y-52071503D01*
X77430776Y-52105218D01*
X77430778Y-52105218D01*
X77430781Y-52105220D01*
X77535137Y-52139127D01*
X77625465Y-52168477D01*
X77726557Y-52184488D01*
X77827648Y-52200500D01*
X77827649Y-52200500D01*
X78032351Y-52200500D01*
X78032352Y-52200500D01*
X78234534Y-52168477D01*
X78429219Y-52105220D01*
X78611610Y-52012287D01*
X78704590Y-51944732D01*
X78777213Y-51891971D01*
X78777215Y-51891968D01*
X78777219Y-51891966D01*
X78921966Y-51747219D01*
X78921968Y-51747215D01*
X78921971Y-51747213D01*
X79045151Y-51577669D01*
X79046823Y-51578884D01*
X79092208Y-51537831D01*
X79146115Y-51525500D01*
X80189548Y-51525500D01*
X80256587Y-51545185D01*
X80277229Y-51561819D01*
X84387890Y-55672481D01*
X84421375Y-55733804D01*
X84418141Y-55798477D01*
X84403985Y-55842048D01*
X84369500Y-56059778D01*
X84369500Y-56280221D01*
X84403985Y-56497952D01*
X84472103Y-56707603D01*
X84472104Y-56707606D01*
X84572187Y-56904025D01*
X84701752Y-57082358D01*
X84701756Y-57082363D01*
X84857636Y-57238243D01*
X84857641Y-57238247D01*
X85013192Y-57351260D01*
X85035978Y-57367815D01*
X85164375Y-57433237D01*
X85232393Y-57467895D01*
X85232396Y-57467896D01*
X85337221Y-57501955D01*
X85442049Y-57536015D01*
X85659778Y-57570500D01*
X85659779Y-57570500D01*
X85880221Y-57570500D01*
X85880222Y-57570500D01*
X86097951Y-57536015D01*
X86307606Y-57467895D01*
X86504022Y-57367815D01*
X86682365Y-57238242D01*
X86838242Y-57082365D01*
X86967815Y-56904022D01*
X87067895Y-56707606D01*
X87136015Y-56497951D01*
X87170500Y-56280222D01*
X87170500Y-56059778D01*
X87136015Y-55842049D01*
X87067895Y-55632394D01*
X87067895Y-55632393D01*
X87033237Y-55564375D01*
X86967815Y-55435978D01*
X86951260Y-55413192D01*
X86838247Y-55257641D01*
X86838243Y-55257636D01*
X86682363Y-55101756D01*
X86682358Y-55101752D01*
X86504025Y-54972187D01*
X86504024Y-54972186D01*
X86504022Y-54972185D01*
X86441096Y-54940122D01*
X86307606Y-54872104D01*
X86307603Y-54872103D01*
X86097952Y-54803985D01*
X85989086Y-54786742D01*
X85880222Y-54769500D01*
X85659778Y-54769500D01*
X85550913Y-54786742D01*
X85442048Y-54803985D01*
X85398477Y-54818141D01*
X85328636Y-54820134D01*
X85272481Y-54787890D01*
X80995822Y-50511232D01*
X80985859Y-50501269D01*
X80985858Y-50501267D01*
X80898733Y-50414142D01*
X80847509Y-50379915D01*
X80796286Y-50345688D01*
X80796283Y-50345686D01*
X80796280Y-50345685D01*
X80722603Y-50315168D01*
X80722601Y-50315167D01*
X80715792Y-50312347D01*
X80682452Y-50298537D01*
X80622029Y-50286518D01*
X80617306Y-50285578D01*
X80617304Y-50285578D01*
X80561610Y-50274500D01*
X80561607Y-50274500D01*
X80561606Y-50274500D01*
X79146115Y-50274500D01*
X79079076Y-50254815D01*
X79046393Y-50221428D01*
X79045151Y-50222331D01*
X78921971Y-50052786D01*
X78777213Y-49908028D01*
X78611613Y-49787715D01*
X78611612Y-49787714D01*
X78611610Y-49787713D01*
X78554653Y-49758691D01*
X78429223Y-49694781D01*
X78234534Y-49631522D01*
X78059995Y-49603878D01*
X78032352Y-49599500D01*
X77827648Y-49599500D01*
X77803329Y-49603351D01*
X77625465Y-49631522D01*
X77430776Y-49694781D01*
X77248386Y-49787715D01*
X77082786Y-49908028D01*
X76938028Y-50052786D01*
X76817715Y-50218386D01*
X76724781Y-50400776D01*
X76661522Y-50595465D01*
X76629500Y-50797648D01*
X70820500Y-50797648D01*
X70820500Y-20912135D01*
X173679500Y-20912135D01*
X173679500Y-22707870D01*
X173679501Y-22707876D01*
X173685908Y-22767483D01*
X173736202Y-22902328D01*
X173736206Y-22902335D01*
X173822452Y-23017544D01*
X173822455Y-23017547D01*
X173937664Y-23103793D01*
X173937671Y-23103797D01*
X174072517Y-23154091D01*
X174072516Y-23154091D01*
X174079444Y-23154835D01*
X174132127Y-23160500D01*
X175927872Y-23160499D01*
X175987483Y-23154091D01*
X176122331Y-23103796D01*
X176237546Y-23017546D01*
X176323796Y-22902331D01*
X176374091Y-22767483D01*
X176380500Y-22707873D01*
X176380500Y-22684500D01*
X176400185Y-22617461D01*
X176452989Y-22571706D01*
X176504500Y-22560500D01*
X179763370Y-22560500D01*
X179830409Y-22580185D01*
X179876164Y-22632989D01*
X179881301Y-22646181D01*
X179914781Y-22749223D01*
X180007715Y-22931613D01*
X180128028Y-23097213D01*
X180272786Y-23241971D01*
X180427749Y-23354556D01*
X180438390Y-23362287D01*
X180554607Y-23421503D01*
X180620776Y-23455218D01*
X180620778Y-23455218D01*
X180620781Y-23455220D01*
X180725137Y-23489127D01*
X180815465Y-23518477D01*
X180916557Y-23534488D01*
X181017648Y-23550500D01*
X181017649Y-23550500D01*
X181222351Y-23550500D01*
X181222352Y-23550500D01*
X181424534Y-23518477D01*
X181619219Y-23455220D01*
X181801610Y-23362287D01*
X181894590Y-23294732D01*
X181967213Y-23241971D01*
X181967215Y-23241968D01*
X181967219Y-23241966D01*
X182111966Y-23097219D01*
X182123304Y-23081614D01*
X182145100Y-23051615D01*
X182200429Y-23008949D01*
X182245418Y-23000500D01*
X186240398Y-23000500D01*
X186307437Y-23020185D01*
X186350883Y-23068205D01*
X186357715Y-23081614D01*
X186478028Y-23247213D01*
X186622786Y-23391971D01*
X186709843Y-23455220D01*
X186788390Y-23512287D01*
X186904607Y-23571503D01*
X186970776Y-23605218D01*
X186970778Y-23605218D01*
X186970781Y-23605220D01*
X187075137Y-23639127D01*
X187165465Y-23668477D01*
X187266557Y-23684488D01*
X187367648Y-23700500D01*
X187367649Y-23700500D01*
X187572351Y-23700500D01*
X187572352Y-23700500D01*
X187774534Y-23668477D01*
X187969219Y-23605220D01*
X188151610Y-23512287D01*
X188244590Y-23444732D01*
X188317213Y-23391971D01*
X188317215Y-23391968D01*
X188317219Y-23391966D01*
X188461966Y-23247219D01*
X188461968Y-23247215D01*
X188461971Y-23247213D01*
X188514732Y-23174590D01*
X188582287Y-23081610D01*
X188675220Y-22899219D01*
X188738477Y-22704534D01*
X188770500Y-22502352D01*
X188770500Y-22297648D01*
X188738477Y-22095466D01*
X188675220Y-21900781D01*
X188675218Y-21900778D01*
X188675218Y-21900776D01*
X188641503Y-21834607D01*
X188582287Y-21718390D01*
X188574556Y-21707749D01*
X188461971Y-21552786D01*
X188317213Y-21408028D01*
X188151613Y-21287715D01*
X188151612Y-21287714D01*
X188151610Y-21287713D01*
X188093350Y-21258028D01*
X187969223Y-21194781D01*
X187774534Y-21131522D01*
X187599995Y-21103878D01*
X187572352Y-21099500D01*
X187367648Y-21099500D01*
X187343329Y-21103351D01*
X187165465Y-21131522D01*
X186970776Y-21194781D01*
X186788386Y-21287715D01*
X186622786Y-21408028D01*
X186622782Y-21408032D01*
X186567634Y-21463181D01*
X186506311Y-21496666D01*
X186479953Y-21499500D01*
X182245418Y-21499500D01*
X182178379Y-21479815D01*
X182145100Y-21448385D01*
X182111971Y-21402787D01*
X182111967Y-21402782D01*
X181967213Y-21258028D01*
X181801613Y-21137715D01*
X181801612Y-21137714D01*
X181801610Y-21137713D01*
X181726613Y-21099500D01*
X181619223Y-21044781D01*
X181424534Y-20981522D01*
X181249995Y-20953878D01*
X181222352Y-20949500D01*
X181017648Y-20949500D01*
X180950254Y-20960174D01*
X180815464Y-20981523D01*
X180815461Y-20981523D01*
X180620782Y-21044779D01*
X180618418Y-21045984D01*
X180617123Y-21046294D01*
X180616283Y-21046643D01*
X180616227Y-21046509D01*
X180562122Y-21059500D01*
X176504499Y-21059500D01*
X176437460Y-21039815D01*
X176391705Y-20987011D01*
X176380499Y-20935500D01*
X176380499Y-20912129D01*
X176380498Y-20912123D01*
X176380497Y-20912116D01*
X176374091Y-20852517D01*
X176323796Y-20717669D01*
X176323795Y-20717668D01*
X176323793Y-20717664D01*
X176237547Y-20602455D01*
X176237544Y-20602452D01*
X176122335Y-20516206D01*
X176122328Y-20516202D01*
X175987482Y-20465908D01*
X175987483Y-20465908D01*
X175927883Y-20459501D01*
X175927881Y-20459500D01*
X175927873Y-20459500D01*
X175927864Y-20459500D01*
X174132129Y-20459500D01*
X174132123Y-20459501D01*
X174072516Y-20465908D01*
X173937671Y-20516202D01*
X173937664Y-20516206D01*
X173822455Y-20602452D01*
X173822452Y-20602455D01*
X173736206Y-20717664D01*
X173736202Y-20717671D01*
X173685908Y-20852517D01*
X173679501Y-20912116D01*
X173679501Y-20912123D01*
X173679500Y-20912135D01*
X70820500Y-20912135D01*
X70820500Y-19884500D01*
X70840185Y-19817461D01*
X70892989Y-19771706D01*
X70944500Y-19760500D01*
X189675500Y-19760500D01*
X189742539Y-19780185D01*
G37*
%TD.AperFunction*%
%TD*%
M02*
