%TF.GenerationSoftware,KiCad,Pcbnew,10.0.1*%
%TF.CreationDate,2026-06-17T19:45:48+05:30*%
%TF.ProjectId,Cycling device PCB,4379636c-696e-4672-9064-657669636520,rev?*%
%TF.SameCoordinates,Original*%
%TF.FileFunction,Copper,L2,Bot*%
%TF.FilePolarity,Positive*%
%FSLAX46Y46*%
G04 Gerber Fmt 4.6, Leading zero omitted, Abs format (unit mm)*
G04 Created by KiCad (PCBNEW 10.0.1) date 2026-06-17 19:45:48*
%MOMM*%
%LPD*%
G01*
G04 APERTURE LIST*
G04 Aperture macros list*
%AMRoundRect*
0 Rectangle with rounded corners*
0 $1 Rounding radius*
0 $2 $3 $4 $5 $6 $7 $8 $9 X,Y pos of 4 corners*
0 Add a 4 corners polygon primitive as box body*
4,1,4,$2,$3,$4,$5,$6,$7,$8,$9,$2,$3,0*
0 Add four circle primitives for the rounded corners*
1,1,$1+$1,$2,$3*
1,1,$1+$1,$4,$5*
1,1,$1+$1,$6,$7*
1,1,$1+$1,$8,$9*
0 Add four rect primitives between the rounded corners*
20,1,$1+$1,$2,$3,$4,$5,0*
20,1,$1+$1,$4,$5,$6,$7,0*
20,1,$1+$1,$6,$7,$8,$9,0*
20,1,$1+$1,$8,$9,$2,$3,0*%
G04 Aperture macros list end*
%TA.AperFunction,ComponentPad*%
%ADD10C,1.600000*%
%TD*%
%TA.AperFunction,ComponentPad*%
%ADD11R,1.700000X1.700000*%
%TD*%
%TA.AperFunction,ComponentPad*%
%ADD12C,1.700000*%
%TD*%
%TA.AperFunction,HeatsinkPad*%
%ADD13C,0.600000*%
%TD*%
%TA.AperFunction,ComponentPad*%
%ADD14RoundRect,0.250000X-0.550000X-0.550000X0.550000X-0.550000X0.550000X0.550000X-0.550000X0.550000X0*%
%TD*%
%TA.AperFunction,ComponentPad*%
%ADD15R,1.800000X1.800000*%
%TD*%
%TA.AperFunction,ComponentPad*%
%ADD16C,1.800000*%
%TD*%
%TA.AperFunction,ComponentPad*%
%ADD17C,2.000000*%
%TD*%
%TA.AperFunction,ViaPad*%
%ADD18C,0.600000*%
%TD*%
%TA.AperFunction,Conductor*%
%ADD19C,0.500000*%
%TD*%
%TA.AperFunction,Conductor*%
%ADD20C,0.250000*%
%TD*%
%TA.AperFunction,Conductor*%
%ADD21C,0.200000*%
%TD*%
G04 APERTURE END LIST*
D10*
%TO.P,C4,1*%
%TO.N,+3V3*%
X140850000Y-90630000D03*
%TO.P,C4,2*%
%TO.N,GND*%
X145850000Y-90630000D03*
%TD*%
D11*
%TO.P,J9,1,Pin_1_1*%
%TO.N,+3V3*%
X135160000Y-100010000D03*
D12*
%TO.P,J9,2,Pin_2_2*%
%TO.N,GND*%
X135160000Y-102550000D03*
%TO.P,J9,3,Pin_3_3*%
%TO.N,+3V3*%
X135160000Y-105090000D03*
%TO.P,J9,4,Pin_4_4*%
%TO.N,GND*%
X135160000Y-107630000D03*
%TO.P,J9,5,Pin_5_5*%
%TO.N,/I2S_DIN*%
X135160000Y-110170000D03*
%TO.P,J9,6,Pin_6_6*%
%TO.N,/I2S_BCLK*%
X135160000Y-112710000D03*
%TO.P,J9,7,Pin_7_7*%
%TO.N,/I2S_LRC*%
X135160000Y-115250000D03*
%TD*%
D10*
%TO.P,C7,1*%
%TO.N,GND*%
X142610000Y-112470000D03*
%TO.P,C7,2*%
%TO.N,+3V3*%
X142610000Y-107470000D03*
%TD*%
D11*
%TO.P,J6,1,Pin_1_1*%
%TO.N,+3V3*%
X158210000Y-66440000D03*
D12*
%TO.P,J6,2,Pin_2_2*%
%TO.N,GND*%
X158210000Y-68980000D03*
%TO.P,J6,3,Pin_3_3*%
%TO.N,/UART_TX*%
X158210000Y-71520000D03*
%TO.P,J6,4,Pin_4_4*%
%TO.N,/UART_RX*%
X158210000Y-74060000D03*
%TO.P,J6,5,Pin_5_5*%
%TO.N,/EN*%
X158210000Y-76600000D03*
%TO.P,J6,6,Pin_6_6*%
%TO.N,/BOOT*%
X158210000Y-79140000D03*
%TO.P,J6,7*%
%TO.N,N/C*%
X158210000Y-81680000D03*
%TO.P,J6,8*%
X158210000Y-84220000D03*
%TD*%
D11*
%TO.P,J7,1,Pin_1_1*%
%TO.N,+3V3*%
X175030000Y-21810000D03*
D12*
%TO.P,J7,2,Pin_2_2*%
%TO.N,GND*%
X175030000Y-24350000D03*
%TO.P,J7,3,Pin_3_3*%
%TO.N,/SPI_MOSI*%
X175030000Y-26890000D03*
%TO.P,J7,4,Pin_4_4*%
%TO.N,/SPI_CLK*%
X175030000Y-29430000D03*
%TO.P,J7,5,Pin_5_5*%
%TO.N,/LCD_CS*%
X175030000Y-31970000D03*
%TO.P,J7,6,Pin_6_6*%
%TO.N,/LCD_DC*%
X175030000Y-34510000D03*
%TO.P,J7,7,Pin_7_7*%
%TO.N,/LCD_RST*%
X175030000Y-37050000D03*
%TO.P,J7,8,Pin_8_8*%
%TO.N,/LCD_BL*%
X175030000Y-39590000D03*
%TD*%
D10*
%TO.P,C8,1*%
%TO.N,GND*%
X181120000Y-27250000D03*
%TO.P,C8,2*%
%TO.N,+3V3*%
X181120000Y-22250000D03*
%TD*%
D13*
%TO.P,U1,39,GND_39*%
%TO.N,GND*%
X132855000Y-69627500D03*
X132855000Y-71152500D03*
X133617500Y-68865000D03*
X133617500Y-70390000D03*
X133617500Y-71915000D03*
X134380000Y-69627500D03*
X134380000Y-71152500D03*
X135142500Y-68865000D03*
X135142500Y-70390000D03*
X135142500Y-71915000D03*
X135905000Y-69627500D03*
X135905000Y-71152500D03*
%TD*%
D10*
%TO.P,C9,1*%
%TO.N,GND*%
X187470000Y-27400000D03*
%TO.P,C9,2*%
%TO.N,+3V3*%
X187470000Y-22400000D03*
%TD*%
%TO.P,C3,1*%
%TO.N,+3V3*%
X125580000Y-90510000D03*
%TO.P,C3,2*%
%TO.N,GND*%
X130580000Y-90510000D03*
%TD*%
D11*
%TO.P,J4,1,Pin_1_1*%
%TO.N,/MIC_WS*%
X150440000Y-109940000D03*
D12*
%TO.P,J4,2,Pin_2_2*%
%TO.N,/MIC_SCK*%
X150440000Y-112480000D03*
%TO.P,J4,3,Pin_3_3*%
%TO.N,GND*%
X150440000Y-115020000D03*
%TD*%
D10*
%TO.P,R1,1*%
%TO.N,+3V3*%
X73840000Y-67360000D03*
%TO.P,R1,2*%
%TO.N,/EN*%
X73840000Y-77520000D03*
%TD*%
D11*
%TO.P,J1,1,Pin_1_1*%
%TO.N,/VBAT*%
X97780000Y-30870000D03*
D12*
%TO.P,J1,2,Pin_2_2*%
%TO.N,GND*%
X97780000Y-33410000D03*
%TD*%
D10*
%TO.P,R5,1*%
%TO.N,/STATUS_LED*%
X102020000Y-61610000D03*
%TO.P,R5,2*%
%TO.N,Net-(D2-A)*%
X102020000Y-51450000D03*
%TD*%
%TO.P,R2,1*%
%TO.N,/BOOT*%
X105350000Y-68540000D03*
%TO.P,R2,2*%
%TO.N,+3V3*%
X105350000Y-78700000D03*
%TD*%
D14*
%TO.P,C2,1*%
%TO.N,/VBAT*%
X77800000Y-96110000D03*
D10*
%TO.P,C2,2*%
%TO.N,GND*%
X80300000Y-96110000D03*
%TD*%
D14*
%TO.P,C1,1*%
%TO.N,Net-(U2-VO)*%
X77874888Y-87100000D03*
D10*
%TO.P,C1,2*%
%TO.N,GND*%
X80374888Y-87100000D03*
%TD*%
D15*
%TO.P,D1,1,K_1*%
%TO.N,GND*%
X83230000Y-56170000D03*
D16*
%TO.P,D1,2,A_2*%
%TO.N,Net-(D1-A)*%
X85770000Y-56170000D03*
%TD*%
D11*
%TO.P,J5,1,Pin_1_1*%
%TO.N,/MIC_SD*%
X166780000Y-107260000D03*
D12*
%TO.P,J5,2,Pin_2_2*%
%TO.N,+3V3*%
X166780000Y-109800000D03*
%TO.P,J5,3,Pin_3_3*%
%TO.N,GND*%
X166780000Y-112340000D03*
%TO.P,J5,4*%
%TO.N,N/C*%
X166780000Y-114880000D03*
%TO.P,J5,5*%
X166780000Y-117420000D03*
%TO.P,J5,6*%
X166780000Y-119960000D03*
%TD*%
D10*
%TO.P,R4,1*%
%TO.N,/GREEN LED*%
X77930000Y-61060000D03*
%TO.P,R4,2*%
%TO.N,Net-(D1-A)*%
X77930000Y-50900000D03*
%TD*%
D17*
%TO.P,SW2,1,1_1*%
%TO.N,/BOOT*%
X93410000Y-68560000D03*
X99910000Y-68560000D03*
%TO.P,SW2,2,2_2*%
%TO.N,GND*%
X93410000Y-73060000D03*
X99910000Y-73060000D03*
%TD*%
D11*
%TO.P,J8,1,Pin_1_1*%
%TO.N,Net-(J8-Pin_1)*%
X117700000Y-109260000D03*
D12*
%TO.P,J8,2,Pin_2_2*%
%TO.N,Net-(J8-Pin_2)*%
X117700000Y-106720000D03*
%TD*%
D15*
%TO.P,D2,1,K_1*%
%TO.N,GND*%
X94610000Y-55960000D03*
D16*
%TO.P,D2,2,A_2*%
%TO.N,Net-(D2-A)*%
X97150000Y-55960000D03*
%TD*%
D17*
%TO.P,SW1,1,1_1*%
%TO.N,GND*%
X78830000Y-68810000D03*
X85330000Y-68810000D03*
%TO.P,SW1,2,2_2*%
%TO.N,/EN*%
X78830000Y-73310000D03*
X85330000Y-73310000D03*
%TD*%
D11*
%TO.P,J3,1,Pin_1_1*%
%TO.N,/SPI_CS*%
X87560000Y-104980000D03*
D12*
%TO.P,J3,2,Pin_2_2*%
%TO.N,/SPI_CLK*%
X85020000Y-104980000D03*
%TO.P,J3,3,Pin_3_3*%
%TO.N,/SPI_MOSI*%
X82480000Y-104980000D03*
%TO.P,J3,4,Pin_4_4*%
%TO.N,/SPI_MISO*%
X79940000Y-104980000D03*
%TO.P,J3,5,Pin_5_5*%
%TO.N,+3V3*%
X77400000Y-104980000D03*
%TO.P,J3,6,Pin_6_6*%
%TO.N,GND*%
X74860000Y-104980000D03*
%TD*%
D18*
%TO.N,+3V3*%
X117230000Y-90980000D03*
X117370000Y-64970000D03*
X119990000Y-123480000D03*
X119990000Y-103140000D03*
X106600000Y-103610000D03*
X86200000Y-62710000D03*
X124010000Y-97400000D03*
X111920000Y-92880000D03*
X157460000Y-61925000D03*
%TO.N,/I2S_DIN*%
X129330000Y-104270000D03*
X121592832Y-77196717D03*
X122538883Y-76374999D03*
X123040000Y-74640000D03*
%TO.N,/I2S_BCLK*%
X128010000Y-107290000D03*
X120820000Y-76990000D03*
%TO.N,/I2S_LRC*%
X146040000Y-65660000D03*
X139060000Y-109460000D03*
%TO.N,/EN*%
X122620000Y-86460000D03*
X153436942Y-94133058D03*
X122217832Y-80590000D03*
X152220000Y-70300000D03*
X121470000Y-65140000D03*
X116700000Y-68170000D03*
X104110000Y-66320000D03*
X120350000Y-65870000D03*
%TO.N,/BOOT*%
X145620000Y-84530000D03*
X146390000Y-78340000D03*
%TO.N,/SPI_MOSI*%
X110590000Y-89650000D03*
X124020000Y-73855000D03*
X119240000Y-82040000D03*
X118860000Y-75320000D03*
X142950000Y-82130000D03*
X105340000Y-90640000D03*
X116480000Y-83450000D03*
X114850000Y-87090000D03*
%TO.N,/SPI_CLK*%
X141820000Y-63730000D03*
X140190000Y-68880000D03*
X88920000Y-101010000D03*
X134870000Y-84700000D03*
X109090000Y-97420000D03*
X151830000Y-64980000D03*
X150910000Y-65740000D03*
X119350000Y-83600000D03*
X147360000Y-67505000D03*
X119100000Y-87050000D03*
X151600000Y-67485000D03*
X148580000Y-69890000D03*
%TO.N,/LCD_CS*%
X151250000Y-69240000D03*
%TO.N,/LCD_DC*%
X147063058Y-73883058D03*
X147170000Y-80860000D03*
%TO.N,/LCD_RST*%
X146500000Y-69490000D03*
X151980000Y-73840000D03*
X149820000Y-73840000D03*
X161875000Y-63470000D03*
%TO.N,/LCD_BL*%
X123325504Y-79163539D03*
X136060000Y-84945000D03*
X123970000Y-79880000D03*
X123500000Y-77260000D03*
X142410000Y-83540000D03*
X125078883Y-78914999D03*
%TO.N,/MIC_SD*%
X149810000Y-97990000D03*
X122950000Y-72150000D03*
%TO.N,/MIC_SCK*%
X122550000Y-79360000D03*
X144600000Y-100420000D03*
%TO.N,/MIC_WS*%
X138330000Y-94180000D03*
X146920000Y-99510000D03*
X136850000Y-86420000D03*
X138820000Y-83540000D03*
%TO.N,/STATUS_LED*%
X109010000Y-66680000D03*
X106690000Y-63740000D03*
%TO.N,/SPI_CS*%
X140815000Y-74710000D03*
X111080000Y-76170000D03*
X152240000Y-72780000D03*
X123260000Y-81170000D03*
X154875000Y-66745661D03*
X142110000Y-65245000D03*
X147090000Y-64790000D03*
X148290000Y-74990000D03*
X124735000Y-83240000D03*
X145761116Y-74301116D03*
X142050000Y-68050000D03*
X108800000Y-75770000D03*
%TO.N,/SPI_MISO*%
X145760000Y-71750000D03*
X107323058Y-65876942D03*
%TO.N,/VBAT*%
X90310000Y-61490000D03*
X86570000Y-97180000D03*
%TD*%
%TO.N,+3V3*%
D19*
X117230000Y-88580000D02*
X111530000Y-94280000D01*
X111970000Y-70370000D02*
X111970000Y-71930000D01*
X128320661Y-108040000D02*
X133860000Y-102500661D01*
X102780000Y-99790000D02*
X106600000Y-103610000D01*
X117230000Y-81850000D02*
X117230000Y-88580000D01*
X111970000Y-88130000D02*
X111970000Y-92830000D01*
X110840000Y-80740000D02*
X105110000Y-80740000D01*
X140991827Y-103475000D02*
X138310000Y-106156827D01*
X75210000Y-65990000D02*
X73840000Y-67360000D01*
X125828883Y-73968222D02*
X125828883Y-76740253D01*
X143884339Y-66755000D02*
X143884339Y-86277511D01*
X133860000Y-101310000D02*
X135160000Y-100010000D01*
X143884339Y-86277511D02*
X153936828Y-96330000D01*
X117750000Y-71400000D02*
X123260661Y-71400000D01*
X125580000Y-95490000D02*
X125580000Y-90510000D01*
X158988554Y-61925000D02*
X160285000Y-60628554D01*
X102780000Y-99780000D02*
X102780000Y-99790000D01*
X160285000Y-60628554D02*
X160285000Y-36555000D01*
X105110000Y-80470000D02*
X105350000Y-80230000D01*
X156075000Y-95818173D02*
X156075000Y-68575000D01*
X111970000Y-74380000D02*
X111970000Y-76590000D01*
X105110000Y-80740000D02*
X105110000Y-80470000D01*
X125828883Y-76740253D02*
X139718630Y-90630000D01*
X120080000Y-123390000D02*
X119990000Y-123480000D01*
X139718630Y-90630000D02*
X140850000Y-90630000D01*
X138310000Y-109770661D02*
X138749339Y-110210000D01*
X86200000Y-62710000D02*
X78080000Y-62710000D01*
X111530000Y-94280000D02*
X111530000Y-106800000D01*
X123260661Y-71400000D02*
X125828883Y-73968222D01*
X111970000Y-90590000D02*
X102780000Y-99780000D01*
X133860000Y-102500661D02*
X133860000Y-101310000D01*
X111970000Y-88130000D02*
X111970000Y-90590000D01*
X117230000Y-88580000D02*
X117230000Y-90980000D01*
X146791828Y-103475000D02*
X140991827Y-103475000D01*
X114345000Y-67995000D02*
X117750000Y-71400000D01*
X124010000Y-97060000D02*
X125580000Y-95490000D01*
X120080000Y-115350000D02*
X120080000Y-123390000D01*
X111970000Y-76590000D02*
X117230000Y-81850000D01*
X153936828Y-96330000D02*
X146791828Y-103475000D01*
X105350000Y-80230000D02*
X105350000Y-78700000D01*
X141683173Y-110210000D02*
X156075000Y-95818173D01*
X156075000Y-68575000D02*
X158210000Y-66440000D01*
X111970000Y-74380000D02*
X119595000Y-66755000D01*
X111530000Y-106800000D02*
X120080000Y-115350000D01*
X119595000Y-66755000D02*
X143884339Y-66755000D01*
X160285000Y-36555000D02*
X175030000Y-21810000D01*
X114345000Y-67995000D02*
X111970000Y-70370000D01*
X111970000Y-92830000D02*
X111920000Y-92880000D01*
X111970000Y-76590000D02*
X111970000Y-79610000D01*
X111970000Y-71930000D02*
X111970000Y-74380000D01*
X111970000Y-79610000D02*
X110840000Y-80740000D01*
X138310000Y-106156827D02*
X138310000Y-109770661D01*
X157460000Y-61925000D02*
X158988554Y-61925000D01*
X124010000Y-97400000D02*
X124010000Y-97060000D01*
X117370000Y-64970000D02*
X114345000Y-67995000D01*
X138749339Y-110210000D02*
X141683173Y-110210000D01*
X119990000Y-103140000D02*
X124890000Y-108040000D01*
X78080000Y-62710000D02*
X75210000Y-65580000D01*
X111970000Y-71930000D02*
X111970000Y-88130000D01*
X124890000Y-108040000D02*
X128320661Y-108040000D01*
X75210000Y-65580000D02*
X75210000Y-65990000D01*
%TO.N,/I2S_DIN*%
D20*
X121310000Y-94710000D02*
X121592832Y-94427168D01*
X122538883Y-75141117D02*
X123040000Y-74640000D01*
X121310000Y-96250000D02*
X121310000Y-94710000D01*
X129330000Y-104270000D02*
X121310000Y-96250000D01*
X121592832Y-94427168D02*
X121592832Y-77196717D01*
X122538883Y-76374999D02*
X122538883Y-75141117D01*
%TO.N,/I2S_BCLK*%
X120820000Y-100100000D02*
X120820000Y-76990000D01*
X128010000Y-107290000D02*
X120820000Y-100100000D01*
%TO.N,/I2S_LRC*%
X147030000Y-104050000D02*
X154750000Y-96330000D01*
X139060000Y-106220000D02*
X141230000Y-104050000D01*
X141230000Y-104050000D02*
X147030000Y-104050000D01*
X149020000Y-65660000D02*
X146040000Y-65660000D01*
X150570000Y-67210000D02*
X149020000Y-65660000D01*
X154750000Y-96330000D02*
X150570000Y-92150000D01*
X150570000Y-92150000D02*
X150570000Y-67210000D01*
X139060000Y-109460000D02*
X139060000Y-106220000D01*
%TO.N,/EN*%
X151170000Y-91866116D02*
X153436942Y-94133058D01*
X152220000Y-70300000D02*
X152020000Y-70500000D01*
X114151116Y-67305000D02*
X117111116Y-64345000D01*
X105615000Y-63294720D02*
X105615000Y-65052768D01*
X122620000Y-86460000D02*
X122620000Y-80992168D01*
X117111116Y-64345000D02*
X120675000Y-64345000D01*
X120675000Y-64345000D02*
X121470000Y-65140000D01*
X151170000Y-70500000D02*
X151170000Y-91866116D01*
X119000000Y-65870000D02*
X120350000Y-65870000D01*
X105615000Y-65052768D02*
X107867232Y-67305000D01*
X152020000Y-70500000D02*
X151170000Y-70500000D01*
X106869720Y-62040000D02*
X107020000Y-62040000D01*
X104110000Y-66320000D02*
X104110000Y-64799720D01*
X107867232Y-67305000D02*
X114151116Y-67305000D01*
X116700000Y-68170000D02*
X119000000Y-65870000D01*
X106869720Y-62040000D02*
X105615000Y-63294720D01*
X104110000Y-64799720D02*
X106869720Y-62040000D01*
X122620000Y-80992168D02*
X122217832Y-80590000D01*
%TO.N,/BOOT*%
X145620000Y-84530000D02*
X145620000Y-79110000D01*
X145620000Y-79110000D02*
X146390000Y-78340000D01*
%TO.N,/SPI_MOSI*%
X124020000Y-73855000D02*
X124020000Y-75750000D01*
X124020000Y-75750000D02*
X140025000Y-91755000D01*
X143035000Y-90035991D02*
X143035000Y-82215000D01*
X109600000Y-90640000D02*
X110590000Y-89650000D01*
X140025000Y-91755000D02*
X141315991Y-91755000D01*
X119240000Y-75700000D02*
X118860000Y-75320000D01*
X105340000Y-90640000D02*
X109600000Y-90640000D01*
X114850000Y-85080000D02*
X116480000Y-83450000D01*
X141315991Y-91755000D02*
X143035000Y-90035991D01*
X114850000Y-87090000D02*
X114850000Y-85080000D01*
X119240000Y-82040000D02*
X119240000Y-75700000D01*
X143035000Y-82215000D02*
X142950000Y-82130000D01*
%TO.N,/SPI_CLK*%
D21*
X88920000Y-101010000D02*
X100930000Y-101010000D01*
D20*
X149100000Y-64630000D02*
X151480000Y-64630000D01*
X151480000Y-64630000D02*
X151830000Y-64980000D01*
D21*
X104530000Y-104610000D02*
X107110000Y-104610000D01*
D20*
X140190000Y-79380000D02*
X140190000Y-68880000D01*
X150910000Y-65740000D02*
X150910000Y-66795000D01*
X109090000Y-102630000D02*
X109090000Y-97420000D01*
D21*
X100930000Y-101010000D02*
X104530000Y-104610000D01*
D20*
X119100000Y-83850000D02*
X119350000Y-83600000D01*
X147360000Y-67505000D02*
X147360000Y-68670000D01*
X141820000Y-63730000D02*
X148200000Y-63730000D01*
X150910000Y-66795000D02*
X151600000Y-67485000D01*
X119100000Y-87050000D02*
X119100000Y-83850000D01*
X134870000Y-84700000D02*
X140190000Y-79380000D01*
X147360000Y-68670000D02*
X148580000Y-69890000D01*
X148200000Y-63730000D02*
X149100000Y-64630000D01*
D21*
X107110000Y-104610000D02*
X109090000Y-102630000D01*
%TO.N,/LCD_CS*%
D20*
X172580000Y-31970000D02*
X175030000Y-31970000D01*
X151496778Y-69240000D02*
X154550000Y-66186778D01*
X154550000Y-66186778D02*
X154550000Y-62550000D01*
X160860000Y-39540000D02*
X168310000Y-32090000D01*
X172460000Y-32090000D02*
X172580000Y-31970000D01*
X160860000Y-60890000D02*
X160860000Y-39540000D01*
X168310000Y-32090000D02*
X172460000Y-32090000D01*
X154550000Y-62550000D02*
X159200000Y-62550000D01*
X159200000Y-62550000D02*
X160860000Y-60890000D01*
X151250000Y-69240000D02*
X151496778Y-69240000D01*
%TO.N,/LCD_DC*%
X147170000Y-80860000D02*
X147170000Y-73990000D01*
X147170000Y-73990000D02*
X147063058Y-73883058D01*
%TO.N,/LCD_RST*%
X155670000Y-63470000D02*
X155500000Y-63640000D01*
X152180000Y-73640000D02*
X151980000Y-73840000D01*
X161875000Y-63470000D02*
X155670000Y-63470000D01*
X149820000Y-73840000D02*
X149820000Y-72810000D01*
X149820000Y-72810000D02*
X146500000Y-69490000D01*
X153510000Y-73640000D02*
X152180000Y-73640000D01*
X155500000Y-71650000D02*
X153510000Y-73640000D01*
X155500000Y-63640000D02*
X155500000Y-71650000D01*
%TO.N,/LCD_BL*%
X136395000Y-84945000D02*
X136060000Y-84945000D01*
X142410000Y-83540000D02*
X141785000Y-82915000D01*
X125078883Y-78914999D02*
X125078883Y-78838883D01*
X123970000Y-79880000D02*
X123970000Y-79808035D01*
X141785000Y-82915000D02*
X138425000Y-82915000D01*
X138425000Y-82915000D02*
X136395000Y-84945000D01*
X123970000Y-79808035D02*
X123325504Y-79163539D01*
X125078883Y-78838883D02*
X123500000Y-77260000D01*
%TO.N,/MIC_SD*%
X119300000Y-74020000D02*
X119300000Y-73210000D01*
X149810000Y-97990000D02*
X143270000Y-97990000D01*
X120420000Y-72090000D02*
X122890000Y-72090000D01*
X143270000Y-97990000D02*
X119300000Y-74020000D01*
X119300000Y-73210000D02*
X120420000Y-72090000D01*
X122890000Y-72090000D02*
X122950000Y-72150000D01*
%TO.N,/MIC_SCK*%
X144600000Y-100420000D02*
X143610000Y-100420000D01*
X143610000Y-100420000D02*
X122550000Y-79360000D01*
%TO.N,/MIC_WS*%
X146920000Y-99510000D02*
X143660000Y-99510000D01*
X143660000Y-99510000D02*
X138330000Y-94180000D01*
X136850000Y-85510000D02*
X138820000Y-83540000D01*
X136850000Y-86420000D02*
X136850000Y-85510000D01*
%TO.N,/STATUS_LED*%
X106690000Y-63740000D02*
X106690000Y-64360000D01*
X106690000Y-64360000D02*
X109010000Y-66680000D01*
%TO.N,/SPI_CS*%
X147321942Y-73258058D02*
X146804174Y-73258058D01*
X140815000Y-74710000D02*
X142050000Y-73475000D01*
X147900000Y-74990000D02*
X147720000Y-74810000D01*
X154875000Y-66745661D02*
X154875000Y-70145000D01*
X154875000Y-70145000D02*
X152240000Y-72780000D01*
X146804174Y-73258058D02*
X145761116Y-74301116D01*
X147688058Y-73624174D02*
X147321942Y-73258058D01*
X108800000Y-75770000D02*
X110680000Y-75770000D01*
X147688058Y-74741942D02*
X147688058Y-73624174D01*
X110680000Y-75770000D02*
X111080000Y-76170000D01*
X124735000Y-82511116D02*
X124735000Y-83240000D01*
X123260000Y-81170000D02*
X123393884Y-81170000D01*
X123393884Y-81170000D02*
X124735000Y-82511116D01*
X148290000Y-74990000D02*
X147900000Y-74990000D01*
X142050000Y-73475000D02*
X142050000Y-68050000D01*
X147720000Y-74810000D02*
X147620000Y-74810000D01*
X142565000Y-64790000D02*
X147090000Y-64790000D01*
X147620000Y-74810000D02*
X147688058Y-74741942D01*
X142110000Y-65245000D02*
X142565000Y-64790000D01*
%TO.N,/SPI_MISO*%
X106431116Y-63115000D02*
X109305000Y-63115000D01*
X139290000Y-63130000D02*
X140820000Y-64660000D01*
X106065000Y-64618884D02*
X106065000Y-63481116D01*
X140820000Y-65870000D02*
X144840000Y-65870000D01*
X140820000Y-64660000D02*
X140820000Y-65870000D01*
X109320000Y-63130000D02*
X139290000Y-63130000D01*
X106065000Y-63481116D02*
X106431116Y-63115000D01*
X109305000Y-63115000D02*
X109320000Y-63130000D01*
X145760000Y-66790000D02*
X145760000Y-71750000D01*
X144840000Y-65870000D02*
X145760000Y-66790000D01*
X107323058Y-65876942D02*
X106065000Y-64618884D01*
%TO.N,/VBAT*%
X86820000Y-99310000D02*
X86570000Y-99060000D01*
X86570000Y-99060000D02*
X86570000Y-97180000D01*
X90310000Y-61490000D02*
X90310000Y-80070000D01*
X97130000Y-99310000D02*
X86820000Y-99310000D01*
X97130000Y-86890000D02*
X97130000Y-99310000D01*
X90310000Y-80070000D02*
X97130000Y-86890000D01*
%TD*%
%TA.AperFunction,Conductor*%
%TO.N,GND*%
G36*
X126057139Y-78677978D02*
G01*
X126083463Y-78698053D01*
X139536016Y-92150606D01*
X139536045Y-92150637D01*
X139626261Y-92240853D01*
X139626264Y-92240855D01*
X139626267Y-92240858D01*
X139652238Y-92258211D01*
X139728714Y-92309312D01*
X139728719Y-92309314D01*
X139802390Y-92339829D01*
X139802394Y-92339830D01*
X139809207Y-92342652D01*
X139842548Y-92356463D01*
X139902971Y-92368481D01*
X139963393Y-92380500D01*
X141377598Y-92380500D01*
X141438020Y-92368481D01*
X141498443Y-92356463D01*
X141531783Y-92342652D01*
X141612277Y-92309312D01*
X141688753Y-92258211D01*
X141714724Y-92240858D01*
X141801849Y-92153733D01*
X141801851Y-92153729D01*
X143433729Y-90521851D01*
X143433733Y-90521849D01*
X143520858Y-90434724D01*
X143589311Y-90332277D01*
X143589312Y-90332276D01*
X143589313Y-90332273D01*
X143589315Y-90332270D01*
X143589315Y-90332268D01*
X143611325Y-90279132D01*
X143636463Y-90218442D01*
X143639445Y-90203453D01*
X143660500Y-90097597D01*
X143660500Y-87414401D01*
X143680185Y-87347362D01*
X143732989Y-87301607D01*
X143802147Y-87291663D01*
X143865703Y-87320688D01*
X143872181Y-87326720D01*
X152787779Y-96242318D01*
X152821264Y-96303641D01*
X152816280Y-96373333D01*
X152787779Y-96417680D01*
X150736124Y-98469334D01*
X150674801Y-98502819D01*
X150605109Y-98497835D01*
X150549176Y-98455963D01*
X150524759Y-98390499D01*
X150533881Y-98334202D01*
X150579737Y-98223497D01*
X150610500Y-98068842D01*
X150610500Y-97911158D01*
X150610500Y-97911155D01*
X150610499Y-97911153D01*
X150588224Y-97799172D01*
X150579737Y-97756503D01*
X150579735Y-97756498D01*
X150519397Y-97610827D01*
X150519390Y-97610814D01*
X150431789Y-97479711D01*
X150431786Y-97479707D01*
X150320292Y-97368213D01*
X150320288Y-97368210D01*
X150189185Y-97280609D01*
X150189172Y-97280602D01*
X150043501Y-97220264D01*
X150043489Y-97220261D01*
X149888845Y-97189500D01*
X149888842Y-97189500D01*
X149731158Y-97189500D01*
X149731155Y-97189500D01*
X149576510Y-97220261D01*
X149576498Y-97220264D01*
X149430827Y-97280602D01*
X149430815Y-97280609D01*
X149336541Y-97343602D01*
X149269864Y-97364480D01*
X149267650Y-97364500D01*
X143580452Y-97364500D01*
X143513413Y-97344815D01*
X143492771Y-97328181D01*
X125728252Y-79563662D01*
X125694767Y-79502339D01*
X125699751Y-79432647D01*
X125712829Y-79407093D01*
X125788277Y-79294178D01*
X125848620Y-79148496D01*
X125879383Y-78993841D01*
X125879383Y-78836157D01*
X125874165Y-78809925D01*
X125880391Y-78740336D01*
X125923253Y-78685158D01*
X125989142Y-78661912D01*
X126057139Y-78677978D01*
G37*
%TD.AperFunction*%
%TA.AperFunction,Conductor*%
G36*
X141290544Y-67525185D02*
G01*
X141336299Y-67577989D01*
X141346243Y-67647147D01*
X141338066Y-67676952D01*
X141280264Y-67816498D01*
X141280261Y-67816510D01*
X141249500Y-67971153D01*
X141249500Y-68128846D01*
X141280261Y-68283489D01*
X141280264Y-68283501D01*
X141340602Y-68429172D01*
X141340609Y-68429184D01*
X141403602Y-68523459D01*
X141424480Y-68590136D01*
X141424500Y-68592350D01*
X141424500Y-73164548D01*
X141404815Y-73231587D01*
X141388181Y-73252229D01*
X141027181Y-73613229D01*
X140965858Y-73646714D01*
X140896166Y-73641730D01*
X140840233Y-73599858D01*
X140815816Y-73534394D01*
X140815500Y-73525548D01*
X140815500Y-69422350D01*
X140835185Y-69355311D01*
X140836398Y-69353459D01*
X140841093Y-69346433D01*
X140899394Y-69259179D01*
X140959737Y-69113497D01*
X140990500Y-68958842D01*
X140990500Y-68801158D01*
X140990500Y-68801155D01*
X140990499Y-68801153D01*
X140968585Y-68690985D01*
X140959737Y-68646503D01*
X140955555Y-68636406D01*
X140899397Y-68500827D01*
X140899390Y-68500814D01*
X140811789Y-68369711D01*
X140811786Y-68369707D01*
X140700292Y-68258213D01*
X140700288Y-68258210D01*
X140569185Y-68170609D01*
X140569172Y-68170602D01*
X140423501Y-68110264D01*
X140423489Y-68110261D01*
X140268845Y-68079500D01*
X140268842Y-68079500D01*
X140111158Y-68079500D01*
X140111155Y-68079500D01*
X139956510Y-68110261D01*
X139956498Y-68110264D01*
X139810827Y-68170602D01*
X139810814Y-68170609D01*
X139679711Y-68258210D01*
X139679707Y-68258213D01*
X139568213Y-68369707D01*
X139568210Y-68369711D01*
X139480609Y-68500814D01*
X139480602Y-68500827D01*
X139420264Y-68646498D01*
X139420261Y-68646510D01*
X139389500Y-68801153D01*
X139389500Y-68958846D01*
X139420261Y-69113489D01*
X139420264Y-69113501D01*
X139480602Y-69259172D01*
X139480609Y-69259184D01*
X139543602Y-69353459D01*
X139564480Y-69420136D01*
X139564500Y-69422350D01*
X139564500Y-79069547D01*
X139544815Y-79136586D01*
X139528181Y-79157228D01*
X134811203Y-83874205D01*
X134749880Y-83907690D01*
X134747714Y-83908141D01*
X134636508Y-83930261D01*
X134636498Y-83930264D01*
X134490827Y-83990602D01*
X134490814Y-83990609D01*
X134365494Y-84074346D01*
X134298816Y-84095224D01*
X134231436Y-84076739D01*
X134208922Y-84058925D01*
X130424045Y-80274048D01*
X126615702Y-76465704D01*
X126582217Y-76404381D01*
X126579383Y-76378023D01*
X126579383Y-73894301D01*
X126550542Y-73749314D01*
X126550541Y-73749313D01*
X126550541Y-73749309D01*
X126546558Y-73739692D01*
X126493970Y-73612733D01*
X126493963Y-73612720D01*
X126411835Y-73489807D01*
X126363295Y-73441267D01*
X126307299Y-73385271D01*
X125673847Y-72751819D01*
X123739082Y-70817052D01*
X123739081Y-70817051D01*
X123739077Y-70817048D01*
X123633437Y-70746463D01*
X123633436Y-70746461D01*
X123616774Y-70735329D01*
X123616156Y-70734916D01*
X123616154Y-70734915D01*
X123616151Y-70734913D01*
X123479578Y-70678343D01*
X123479568Y-70678340D01*
X123334581Y-70649500D01*
X123334579Y-70649500D01*
X118112229Y-70649500D01*
X118045190Y-70629815D01*
X118024548Y-70613181D01*
X117499048Y-70087681D01*
X117465563Y-70026358D01*
X117470547Y-69956666D01*
X117499048Y-69912319D01*
X119869548Y-67541819D01*
X119930871Y-67508334D01*
X119957229Y-67505500D01*
X141223505Y-67505500D01*
X141290544Y-67525185D01*
G37*
%TD.AperFunction*%
%TA.AperFunction,Conductor*%
G36*
X189742539Y-19780185D02*
G01*
X189788294Y-19832989D01*
X189799500Y-19884500D01*
X189799500Y-124905500D01*
X189779815Y-124972539D01*
X189727011Y-125018294D01*
X189675500Y-125029500D01*
X70944500Y-125029500D01*
X70877461Y-125009815D01*
X70831706Y-124957011D01*
X70820500Y-124905500D01*
X70820500Y-104873713D01*
X76049500Y-104873713D01*
X76049500Y-105086287D01*
X76058109Y-105140639D01*
X76069173Y-105210500D01*
X76082754Y-105296243D01*
X76138705Y-105468443D01*
X76148444Y-105498414D01*
X76244951Y-105687820D01*
X76369890Y-105859786D01*
X76520213Y-106010109D01*
X76692179Y-106135048D01*
X76692181Y-106135049D01*
X76692184Y-106135051D01*
X76881588Y-106231557D01*
X77083757Y-106297246D01*
X77293713Y-106330500D01*
X77293714Y-106330500D01*
X77506286Y-106330500D01*
X77506287Y-106330500D01*
X77716243Y-106297246D01*
X77918412Y-106231557D01*
X78107816Y-106135051D01*
X78194138Y-106072335D01*
X78279786Y-106010109D01*
X78279788Y-106010106D01*
X78279792Y-106010104D01*
X78430104Y-105859792D01*
X78430106Y-105859788D01*
X78430109Y-105859786D01*
X78555048Y-105687820D01*
X78555047Y-105687820D01*
X78555051Y-105687816D01*
X78559514Y-105679054D01*
X78607488Y-105628259D01*
X78675308Y-105611463D01*
X78741444Y-105633999D01*
X78780486Y-105679056D01*
X78784951Y-105687820D01*
X78909890Y-105859786D01*
X79060213Y-106010109D01*
X79232179Y-106135048D01*
X79232181Y-106135049D01*
X79232184Y-106135051D01*
X79421588Y-106231557D01*
X79623757Y-106297246D01*
X79833713Y-106330500D01*
X79833714Y-106330500D01*
X80046286Y-106330500D01*
X80046287Y-106330500D01*
X80256243Y-106297246D01*
X80458412Y-106231557D01*
X80647816Y-106135051D01*
X80734138Y-106072335D01*
X80819786Y-106010109D01*
X80819788Y-106010106D01*
X80819792Y-106010104D01*
X80970104Y-105859792D01*
X80970106Y-105859788D01*
X80970109Y-105859786D01*
X81095048Y-105687820D01*
X81095047Y-105687820D01*
X81095051Y-105687816D01*
X81099514Y-105679054D01*
X81147488Y-105628259D01*
X81215308Y-105611463D01*
X81281444Y-105633999D01*
X81320486Y-105679056D01*
X81324951Y-105687820D01*
X81449890Y-105859786D01*
X81600213Y-106010109D01*
X81772179Y-106135048D01*
X81772181Y-106135049D01*
X81772184Y-106135051D01*
X81961588Y-106231557D01*
X82163757Y-106297246D01*
X82373713Y-106330500D01*
X82373714Y-106330500D01*
X82586286Y-106330500D01*
X82586287Y-106330500D01*
X82796243Y-106297246D01*
X82998412Y-106231557D01*
X83187816Y-106135051D01*
X83274138Y-106072335D01*
X83359786Y-106010109D01*
X83359788Y-106010106D01*
X83359792Y-106010104D01*
X83510104Y-105859792D01*
X83510106Y-105859788D01*
X83510109Y-105859786D01*
X83635048Y-105687820D01*
X83635047Y-105687820D01*
X83635051Y-105687816D01*
X83639514Y-105679054D01*
X83687488Y-105628259D01*
X83755308Y-105611463D01*
X83821444Y-105633999D01*
X83860486Y-105679056D01*
X83864951Y-105687820D01*
X83989890Y-105859786D01*
X84140213Y-106010109D01*
X84312179Y-106135048D01*
X84312181Y-106135049D01*
X84312184Y-106135051D01*
X84501588Y-106231557D01*
X84703757Y-106297246D01*
X84913713Y-106330500D01*
X84913714Y-106330500D01*
X85126286Y-106330500D01*
X85126287Y-106330500D01*
X85336243Y-106297246D01*
X85538412Y-106231557D01*
X85727816Y-106135051D01*
X85814147Y-106072328D01*
X85899784Y-106010110D01*
X85899784Y-106010109D01*
X85899792Y-106010104D01*
X86013329Y-105896566D01*
X86074648Y-105863084D01*
X86144340Y-105868068D01*
X86200274Y-105909939D01*
X86217189Y-105940917D01*
X86266202Y-106072328D01*
X86266206Y-106072335D01*
X86352452Y-106187544D01*
X86352455Y-106187547D01*
X86467664Y-106273793D01*
X86467671Y-106273797D01*
X86602517Y-106324091D01*
X86602516Y-106324091D01*
X86609444Y-106324835D01*
X86662127Y-106330500D01*
X88457872Y-106330499D01*
X88517483Y-106324091D01*
X88652331Y-106273796D01*
X88767546Y-106187546D01*
X88853796Y-106072331D01*
X88904091Y-105937483D01*
X88910500Y-105877873D01*
X88910499Y-104082128D01*
X88904091Y-104022517D01*
X88902810Y-104019083D01*
X88853797Y-103887671D01*
X88853793Y-103887664D01*
X88767547Y-103772455D01*
X88767544Y-103772452D01*
X88652335Y-103686206D01*
X88652328Y-103686202D01*
X88517482Y-103635908D01*
X88517483Y-103635908D01*
X88457883Y-103629501D01*
X88457881Y-103629500D01*
X88457873Y-103629500D01*
X88457864Y-103629500D01*
X86662129Y-103629500D01*
X86662123Y-103629501D01*
X86602516Y-103635908D01*
X86467671Y-103686202D01*
X86467664Y-103686206D01*
X86352455Y-103772452D01*
X86352452Y-103772455D01*
X86266206Y-103887664D01*
X86266203Y-103887669D01*
X86217189Y-104019083D01*
X86175317Y-104075016D01*
X86109853Y-104099433D01*
X86041580Y-104084581D01*
X86013326Y-104063430D01*
X85899786Y-103949890D01*
X85727820Y-103824951D01*
X85538414Y-103728444D01*
X85538413Y-103728443D01*
X85538412Y-103728443D01*
X85336243Y-103662754D01*
X85336241Y-103662753D01*
X85336240Y-103662753D01*
X85174957Y-103637208D01*
X85126287Y-103629500D01*
X84913713Y-103629500D01*
X84865042Y-103637208D01*
X84703760Y-103662753D01*
X84501585Y-103728444D01*
X84312179Y-103824951D01*
X84140213Y-103949890D01*
X83989890Y-104100213D01*
X83864949Y-104272182D01*
X83860484Y-104280946D01*
X83812509Y-104331742D01*
X83744688Y-104348536D01*
X83678553Y-104325998D01*
X83639516Y-104280946D01*
X83635050Y-104272182D01*
X83510109Y-104100213D01*
X83359786Y-103949890D01*
X83187820Y-103824951D01*
X82998414Y-103728444D01*
X82998413Y-103728443D01*
X82998412Y-103728443D01*
X82796243Y-103662754D01*
X82796241Y-103662753D01*
X82796240Y-103662753D01*
X82634957Y-103637208D01*
X82586287Y-103629500D01*
X82373713Y-103629500D01*
X82325042Y-103637208D01*
X82163760Y-103662753D01*
X81961585Y-103728444D01*
X81772179Y-103824951D01*
X81600213Y-103949890D01*
X81449890Y-104100213D01*
X81324949Y-104272182D01*
X81320484Y-104280946D01*
X81272509Y-104331742D01*
X81204688Y-104348536D01*
X81138553Y-104325998D01*
X81099516Y-104280946D01*
X81095050Y-104272182D01*
X80970109Y-104100213D01*
X80819786Y-103949890D01*
X80647820Y-103824951D01*
X80458414Y-103728444D01*
X80458413Y-103728443D01*
X80458412Y-103728443D01*
X80256243Y-103662754D01*
X80256241Y-103662753D01*
X80256240Y-103662753D01*
X80094957Y-103637208D01*
X80046287Y-103629500D01*
X79833713Y-103629500D01*
X79785042Y-103637208D01*
X79623760Y-103662753D01*
X79421585Y-103728444D01*
X79232179Y-103824951D01*
X79060213Y-103949890D01*
X78909890Y-104100213D01*
X78784949Y-104272182D01*
X78780484Y-104280946D01*
X78732509Y-104331742D01*
X78664688Y-104348536D01*
X78598553Y-104325998D01*
X78559516Y-104280946D01*
X78555050Y-104272182D01*
X78430109Y-104100213D01*
X78279786Y-103949890D01*
X78107820Y-103824951D01*
X77918414Y-103728444D01*
X77918413Y-103728443D01*
X77918412Y-103728443D01*
X77716243Y-103662754D01*
X77716241Y-103662753D01*
X77716240Y-103662753D01*
X77554957Y-103637208D01*
X77506287Y-103629500D01*
X77293713Y-103629500D01*
X77245042Y-103637208D01*
X77083760Y-103662753D01*
X76881585Y-103728444D01*
X76692179Y-103824951D01*
X76520213Y-103949890D01*
X76369890Y-104100213D01*
X76244951Y-104272179D01*
X76148444Y-104461585D01*
X76082753Y-104663760D01*
X76058459Y-104817147D01*
X76049500Y-104873713D01*
X70820500Y-104873713D01*
X70820500Y-100931153D01*
X88119500Y-100931153D01*
X88119500Y-101088846D01*
X88150261Y-101243489D01*
X88150264Y-101243501D01*
X88210602Y-101389172D01*
X88210609Y-101389185D01*
X88298210Y-101520288D01*
X88298213Y-101520292D01*
X88409707Y-101631786D01*
X88409711Y-101631789D01*
X88540814Y-101719390D01*
X88540827Y-101719397D01*
X88686498Y-101779735D01*
X88686503Y-101779737D01*
X88841153Y-101810499D01*
X88841156Y-101810500D01*
X88841158Y-101810500D01*
X88998844Y-101810500D01*
X88998845Y-101810499D01*
X89153497Y-101779737D01*
X89299179Y-101719394D01*
X89369768Y-101672228D01*
X89430875Y-101631398D01*
X89497553Y-101610520D01*
X89499766Y-101610500D01*
X100629903Y-101610500D01*
X100696942Y-101630185D01*
X100717584Y-101646819D01*
X104045139Y-104974374D01*
X104045149Y-104974385D01*
X104049479Y-104978715D01*
X104049480Y-104978716D01*
X104161284Y-105090520D01*
X104248095Y-105140639D01*
X104248097Y-105140641D01*
X104286151Y-105162611D01*
X104298215Y-105169577D01*
X104450943Y-105210501D01*
X104450946Y-105210501D01*
X104616653Y-105210501D01*
X104616669Y-105210500D01*
X107023331Y-105210500D01*
X107023347Y-105210501D01*
X107030943Y-105210501D01*
X107189054Y-105210501D01*
X107189057Y-105210501D01*
X107341785Y-105169577D01*
X107391904Y-105140639D01*
X107478716Y-105090520D01*
X107590520Y-104978716D01*
X107590520Y-104978714D01*
X107600728Y-104968507D01*
X107600730Y-104968504D01*
X109373545Y-103195688D01*
X109392325Y-103180275D01*
X109488733Y-103115858D01*
X109575858Y-103028733D01*
X109644311Y-102926286D01*
X109691463Y-102812452D01*
X109715500Y-102691606D01*
X109715500Y-97962350D01*
X109735185Y-97895311D01*
X109736398Y-97893459D01*
X109736809Y-97892843D01*
X109799394Y-97799179D01*
X109859737Y-97653497D01*
X109890500Y-97498842D01*
X109890500Y-97341158D01*
X109890500Y-97341155D01*
X109890499Y-97341153D01*
X109878455Y-97280606D01*
X109859737Y-97186503D01*
X109825244Y-97103229D01*
X109799397Y-97040827D01*
X109799390Y-97040814D01*
X109711789Y-96909711D01*
X109711786Y-96909707D01*
X109600292Y-96798213D01*
X109600288Y-96798210D01*
X109469185Y-96710609D01*
X109469172Y-96710602D01*
X109323501Y-96650264D01*
X109323489Y-96650261D01*
X109168845Y-96619500D01*
X109168842Y-96619500D01*
X109011158Y-96619500D01*
X109011155Y-96619500D01*
X108856510Y-96650261D01*
X108856498Y-96650264D01*
X108710827Y-96710602D01*
X108710814Y-96710609D01*
X108579711Y-96798210D01*
X108579707Y-96798213D01*
X108468213Y-96909707D01*
X108468210Y-96909711D01*
X108380609Y-97040814D01*
X108380602Y-97040827D01*
X108320264Y-97186498D01*
X108320261Y-97186510D01*
X108289500Y-97341153D01*
X108289500Y-97498846D01*
X108320261Y-97653489D01*
X108320264Y-97653501D01*
X108380602Y-97799172D01*
X108380609Y-97799184D01*
X108443602Y-97893459D01*
X108464480Y-97960136D01*
X108464500Y-97962350D01*
X108464500Y-102354902D01*
X108444815Y-102421941D01*
X108428181Y-102442583D01*
X107537433Y-103333330D01*
X107476110Y-103366815D01*
X107406418Y-103361831D01*
X107350485Y-103319959D01*
X107335193Y-103293107D01*
X107309394Y-103230821D01*
X107309392Y-103230818D01*
X107309390Y-103230814D01*
X107221789Y-103099711D01*
X107221786Y-103099707D01*
X107110292Y-102988213D01*
X107110288Y-102988210D01*
X106979185Y-102900609D01*
X106979175Y-102900604D01*
X106955523Y-102890807D01*
X106915295Y-102863927D01*
X103924048Y-99872680D01*
X103890563Y-99811357D01*
X103895547Y-99741665D01*
X103924048Y-99697318D01*
X107447706Y-96173660D01*
X110907821Y-92713545D01*
X110969142Y-92680062D01*
X111038834Y-92685046D01*
X111094767Y-92726918D01*
X111119184Y-92792382D01*
X111119500Y-92801228D01*
X111119500Y-92958846D01*
X111150261Y-93113489D01*
X111150264Y-93113501D01*
X111210602Y-93259172D01*
X111210609Y-93259184D01*
X111265759Y-93341721D01*
X111286637Y-93408398D01*
X111268153Y-93475778D01*
X111250338Y-93498293D01*
X110947047Y-93801584D01*
X110935267Y-93819215D01*
X110923537Y-93836772D01*
X110894125Y-93880789D01*
X110864914Y-93924507D01*
X110808343Y-94061082D01*
X110808340Y-94061092D01*
X110779500Y-94206079D01*
X110779500Y-94206082D01*
X110779500Y-106873918D01*
X110779500Y-106873920D01*
X110779499Y-106873920D01*
X110808340Y-107018907D01*
X110808343Y-107018917D01*
X110864913Y-107155490D01*
X110864914Y-107155491D01*
X110864916Y-107155495D01*
X110890586Y-107193912D01*
X110890587Y-107193915D01*
X110947043Y-107278410D01*
X110947047Y-107278415D01*
X119293181Y-115624549D01*
X119326666Y-115685872D01*
X119329500Y-115712230D01*
X119329500Y-122990030D01*
X119309815Y-123057069D01*
X119308602Y-123058921D01*
X119280609Y-123100814D01*
X119280602Y-123100827D01*
X119220264Y-123246498D01*
X119220261Y-123246510D01*
X119189500Y-123401153D01*
X119189500Y-123558846D01*
X119220261Y-123713489D01*
X119220264Y-123713501D01*
X119280602Y-123859172D01*
X119280609Y-123859185D01*
X119368210Y-123990288D01*
X119368213Y-123990292D01*
X119479707Y-124101786D01*
X119479711Y-124101789D01*
X119610814Y-124189390D01*
X119610827Y-124189397D01*
X119756498Y-124249735D01*
X119756503Y-124249737D01*
X119911153Y-124280499D01*
X119911156Y-124280500D01*
X119911158Y-124280500D01*
X120068844Y-124280500D01*
X120068845Y-124280499D01*
X120223497Y-124249737D01*
X120369179Y-124189394D01*
X120500289Y-124101789D01*
X120611789Y-123990289D01*
X120699394Y-123859179D01*
X120759737Y-123713497D01*
X120759739Y-123713489D01*
X120761507Y-123707663D01*
X120762041Y-123707824D01*
X120765706Y-123695707D01*
X120801656Y-123608919D01*
X120801659Y-123608908D01*
X120830500Y-123463920D01*
X120830500Y-122073389D01*
X181789500Y-122073389D01*
X181789500Y-122246611D01*
X181816598Y-122417701D01*
X181870127Y-122582445D01*
X181948768Y-122736788D01*
X182050586Y-122876928D01*
X182173072Y-122999414D01*
X182313212Y-123101232D01*
X182467555Y-123179873D01*
X182632299Y-123233402D01*
X182803389Y-123260500D01*
X182803390Y-123260500D01*
X182976610Y-123260500D01*
X182976611Y-123260500D01*
X183147701Y-123233402D01*
X183312445Y-123179873D01*
X183466788Y-123101232D01*
X183606928Y-122999414D01*
X183729414Y-122876928D01*
X183831232Y-122736788D01*
X183909873Y-122582445D01*
X183963402Y-122417701D01*
X183990500Y-122246611D01*
X183990500Y-122073389D01*
X183963402Y-121902299D01*
X183909873Y-121737555D01*
X183831232Y-121583212D01*
X183729414Y-121443072D01*
X183606928Y-121320586D01*
X183466788Y-121218768D01*
X183312445Y-121140127D01*
X183147701Y-121086598D01*
X183147699Y-121086597D01*
X183147698Y-121086597D01*
X183016271Y-121065781D01*
X182976611Y-121059500D01*
X182803389Y-121059500D01*
X182763728Y-121065781D01*
X182632302Y-121086597D01*
X182467552Y-121140128D01*
X182313211Y-121218768D01*
X182233256Y-121276859D01*
X182173072Y-121320586D01*
X182173070Y-121320588D01*
X182173069Y-121320588D01*
X182050588Y-121443069D01*
X182050588Y-121443070D01*
X182050586Y-121443072D01*
X182006859Y-121503256D01*
X181948768Y-121583211D01*
X181870128Y-121737552D01*
X181816597Y-121902302D01*
X181789500Y-122073389D01*
X120830500Y-122073389D01*
X120830500Y-115276079D01*
X120801659Y-115131092D01*
X120801658Y-115131091D01*
X120801658Y-115131087D01*
X120745084Y-114994505D01*
X120704494Y-114933757D01*
X120704494Y-114933756D01*
X120662950Y-114871581D01*
X120662947Y-114871578D01*
X116592077Y-110800709D01*
X116558592Y-110739386D01*
X116563576Y-110669694D01*
X116605448Y-110613761D01*
X116670912Y-110589344D01*
X116723090Y-110596846D01*
X116742514Y-110604090D01*
X116742516Y-110604091D01*
X116749444Y-110604835D01*
X116802127Y-110610500D01*
X118597872Y-110610499D01*
X118657483Y-110604091D01*
X118792331Y-110553796D01*
X118907546Y-110467546D01*
X118993796Y-110352331D01*
X119044091Y-110217483D01*
X119050500Y-110157873D01*
X119050500Y-110063713D01*
X133809500Y-110063713D01*
X133809500Y-110276286D01*
X133839792Y-110467546D01*
X133842754Y-110486243D01*
X133905642Y-110679792D01*
X133908444Y-110688414D01*
X134004951Y-110877820D01*
X134129890Y-111049786D01*
X134280213Y-111200109D01*
X134452182Y-111325050D01*
X134460946Y-111329516D01*
X134511742Y-111377491D01*
X134528536Y-111445312D01*
X134505998Y-111511447D01*
X134460946Y-111550484D01*
X134452182Y-111554949D01*
X134280213Y-111679890D01*
X134129890Y-111830213D01*
X134004951Y-112002179D01*
X133908444Y-112191585D01*
X133842753Y-112393760D01*
X133812260Y-112586286D01*
X133809500Y-112603713D01*
X133809500Y-112816287D01*
X133842754Y-113026243D01*
X133895252Y-113187816D01*
X133908444Y-113228414D01*
X134004951Y-113417820D01*
X134129890Y-113589786D01*
X134280213Y-113740109D01*
X134452182Y-113865050D01*
X134460946Y-113869516D01*
X134511742Y-113917491D01*
X134528536Y-113985312D01*
X134505998Y-114051447D01*
X134460946Y-114090484D01*
X134452182Y-114094949D01*
X134280213Y-114219890D01*
X134129890Y-114370213D01*
X134004951Y-114542179D01*
X133908444Y-114731585D01*
X133908443Y-114731587D01*
X133908443Y-114731588D01*
X133842754Y-114933757D01*
X133809500Y-115143713D01*
X133809500Y-115356287D01*
X133842754Y-115566243D01*
X133905642Y-115759792D01*
X133908444Y-115768414D01*
X134004951Y-115957820D01*
X134129890Y-116129786D01*
X134280213Y-116280109D01*
X134452179Y-116405048D01*
X134452181Y-116405049D01*
X134452184Y-116405051D01*
X134641588Y-116501557D01*
X134843757Y-116567246D01*
X135053713Y-116600500D01*
X135053714Y-116600500D01*
X135266286Y-116600500D01*
X135266287Y-116600500D01*
X135476243Y-116567246D01*
X135678412Y-116501557D01*
X135867816Y-116405051D01*
X135889789Y-116389086D01*
X136039786Y-116280109D01*
X136039788Y-116280106D01*
X136039792Y-116280104D01*
X136190104Y-116129792D01*
X136190106Y-116129788D01*
X136190109Y-116129786D01*
X136315048Y-115957820D01*
X136315047Y-115957820D01*
X136315051Y-115957816D01*
X136411557Y-115768412D01*
X136477246Y-115566243D01*
X136510500Y-115356287D01*
X136510500Y-115143713D01*
X136477246Y-114933757D01*
X136425244Y-114773713D01*
X165429500Y-114773713D01*
X165429500Y-114986286D01*
X165462753Y-115196239D01*
X165462753Y-115196241D01*
X165462754Y-115196243D01*
X165514755Y-115356286D01*
X165528444Y-115398414D01*
X165624951Y-115587820D01*
X165749890Y-115759786D01*
X165900213Y-115910109D01*
X166072182Y-116035050D01*
X166080946Y-116039516D01*
X166131742Y-116087491D01*
X166148536Y-116155312D01*
X166125998Y-116221447D01*
X166080946Y-116260484D01*
X166072182Y-116264949D01*
X165900213Y-116389890D01*
X165749890Y-116540213D01*
X165624951Y-116712179D01*
X165528444Y-116901585D01*
X165462753Y-117103760D01*
X165429500Y-117313713D01*
X165429500Y-117526286D01*
X165462753Y-117736239D01*
X165528444Y-117938414D01*
X165624951Y-118127820D01*
X165749890Y-118299786D01*
X165900213Y-118450109D01*
X166072182Y-118575050D01*
X166080946Y-118579516D01*
X166131742Y-118627491D01*
X166148536Y-118695312D01*
X166125998Y-118761447D01*
X166080946Y-118800484D01*
X166072182Y-118804949D01*
X165900213Y-118929890D01*
X165749890Y-119080213D01*
X165624951Y-119252179D01*
X165528444Y-119441585D01*
X165462753Y-119643760D01*
X165429500Y-119853713D01*
X165429500Y-120066286D01*
X165462753Y-120276239D01*
X165528444Y-120478414D01*
X165624951Y-120667820D01*
X165749890Y-120839786D01*
X165900213Y-120990109D01*
X166072179Y-121115048D01*
X166072181Y-121115049D01*
X166072184Y-121115051D01*
X166261588Y-121211557D01*
X166463757Y-121277246D01*
X166673713Y-121310500D01*
X166673714Y-121310500D01*
X166886286Y-121310500D01*
X166886287Y-121310500D01*
X167096243Y-121277246D01*
X167298412Y-121211557D01*
X167487816Y-121115051D01*
X167509789Y-121099086D01*
X167659786Y-120990109D01*
X167659788Y-120990106D01*
X167659792Y-120990104D01*
X167810104Y-120839792D01*
X167810106Y-120839788D01*
X167810109Y-120839786D01*
X167935048Y-120667820D01*
X167935047Y-120667820D01*
X167935051Y-120667816D01*
X168031557Y-120478412D01*
X168097246Y-120276243D01*
X168130500Y-120066287D01*
X168130500Y-119853713D01*
X168097246Y-119643757D01*
X168031557Y-119441588D01*
X167935051Y-119252184D01*
X167935049Y-119252181D01*
X167935048Y-119252179D01*
X167810109Y-119080213D01*
X167659786Y-118929890D01*
X167487820Y-118804951D01*
X167487115Y-118804591D01*
X167479054Y-118800485D01*
X167428259Y-118752512D01*
X167411463Y-118684692D01*
X167433999Y-118618556D01*
X167479054Y-118579515D01*
X167487816Y-118575051D01*
X167509789Y-118559086D01*
X167659786Y-118450109D01*
X167659788Y-118450106D01*
X167659792Y-118450104D01*
X167810104Y-118299792D01*
X167810106Y-118299788D01*
X167810109Y-118299786D01*
X167935048Y-118127820D01*
X167935047Y-118127820D01*
X167935051Y-118127816D01*
X168031557Y-117938412D01*
X168097246Y-117736243D01*
X168130500Y-117526287D01*
X168130500Y-117313713D01*
X168097246Y-117103757D01*
X168031557Y-116901588D01*
X167935051Y-116712184D01*
X167935049Y-116712181D01*
X167935048Y-116712179D01*
X167810109Y-116540213D01*
X167659786Y-116389890D01*
X167487820Y-116264951D01*
X167487115Y-116264591D01*
X167479054Y-116260485D01*
X167428259Y-116212512D01*
X167411463Y-116144692D01*
X167433999Y-116078556D01*
X167479054Y-116039515D01*
X167487816Y-116035051D01*
X167509789Y-116019086D01*
X167659786Y-115910109D01*
X167659788Y-115910106D01*
X167659792Y-115910104D01*
X167810104Y-115759792D01*
X167810106Y-115759788D01*
X167810109Y-115759786D01*
X167935048Y-115587820D01*
X167935047Y-115587820D01*
X167935051Y-115587816D01*
X168031557Y-115398412D01*
X168097246Y-115196243D01*
X168116704Y-115073389D01*
X181789500Y-115073389D01*
X181789500Y-115246611D01*
X181816598Y-115417701D01*
X181870127Y-115582445D01*
X181948768Y-115736788D01*
X182050586Y-115876928D01*
X182173072Y-115999414D01*
X182313212Y-116101232D01*
X182467555Y-116179873D01*
X182632299Y-116233402D01*
X182803389Y-116260500D01*
X182803390Y-116260500D01*
X182976610Y-116260500D01*
X182976611Y-116260500D01*
X183147701Y-116233402D01*
X183312445Y-116179873D01*
X183466788Y-116101232D01*
X183606928Y-115999414D01*
X183729414Y-115876928D01*
X183831232Y-115736788D01*
X183909873Y-115582445D01*
X183963402Y-115417701D01*
X183990500Y-115246611D01*
X183990500Y-115073389D01*
X183963402Y-114902299D01*
X183909873Y-114737555D01*
X183831232Y-114583212D01*
X183729414Y-114443072D01*
X183606928Y-114320586D01*
X183466788Y-114218768D01*
X183312445Y-114140127D01*
X183147701Y-114086598D01*
X183147699Y-114086597D01*
X183147698Y-114086597D01*
X183016271Y-114065781D01*
X182976611Y-114059500D01*
X182803389Y-114059500D01*
X182763728Y-114065781D01*
X182632302Y-114086597D01*
X182467552Y-114140128D01*
X182313211Y-114218768D01*
X182233256Y-114276859D01*
X182173072Y-114320586D01*
X182173070Y-114320588D01*
X182173069Y-114320588D01*
X182050588Y-114443069D01*
X182050588Y-114443070D01*
X182050586Y-114443072D01*
X182006859Y-114503256D01*
X181948768Y-114583211D01*
X181870128Y-114737552D01*
X181816597Y-114902302D01*
X181793344Y-115049119D01*
X181789500Y-115073389D01*
X168116704Y-115073389D01*
X168130500Y-114986287D01*
X168130500Y-114773713D01*
X168097246Y-114563757D01*
X168031557Y-114361588D01*
X167935051Y-114172184D01*
X167935049Y-114172181D01*
X167935048Y-114172179D01*
X167810109Y-114000213D01*
X167659786Y-113849890D01*
X167487820Y-113724951D01*
X167298414Y-113628444D01*
X167298413Y-113628443D01*
X167298412Y-113628443D01*
X167096243Y-113562754D01*
X167096241Y-113562753D01*
X167096240Y-113562753D01*
X166934957Y-113537208D01*
X166886287Y-113529500D01*
X166673713Y-113529500D01*
X166625042Y-113537208D01*
X166463760Y-113562753D01*
X166261585Y-113628444D01*
X166072179Y-113724951D01*
X165900213Y-113849890D01*
X165749890Y-114000213D01*
X165624951Y-114172179D01*
X165528444Y-114361585D01*
X165462753Y-114563760D01*
X165429500Y-114773713D01*
X136425244Y-114773713D01*
X136411557Y-114731588D01*
X136315051Y-114542184D01*
X136315049Y-114542181D01*
X136315048Y-114542179D01*
X136190109Y-114370213D01*
X136039786Y-114219890D01*
X135867820Y-114094951D01*
X135867115Y-114094591D01*
X135859054Y-114090485D01*
X135808259Y-114042512D01*
X135791463Y-113974692D01*
X135813999Y-113908556D01*
X135859054Y-113869515D01*
X135867816Y-113865051D01*
X135915372Y-113830500D01*
X136039786Y-113740109D01*
X136039788Y-113740106D01*
X136039792Y-113740104D01*
X136190104Y-113589792D01*
X136190106Y-113589788D01*
X136190109Y-113589786D01*
X136315048Y-113417820D01*
X136315047Y-113417820D01*
X136315051Y-113417816D01*
X136411557Y-113228412D01*
X136477246Y-113026243D01*
X136510500Y-112816287D01*
X136510500Y-112603713D01*
X136477246Y-112393757D01*
X136411557Y-112191588D01*
X136315051Y-112002184D01*
X136315049Y-112002181D01*
X136315048Y-112002179D01*
X136190109Y-111830213D01*
X136039786Y-111679890D01*
X135867820Y-111554951D01*
X135867115Y-111554591D01*
X135859054Y-111550485D01*
X135808259Y-111502512D01*
X135791463Y-111434692D01*
X135813999Y-111368556D01*
X135859054Y-111329515D01*
X135867816Y-111325051D01*
X135889789Y-111309086D01*
X136039786Y-111200109D01*
X136039788Y-111200106D01*
X136039792Y-111200104D01*
X136190104Y-111049792D01*
X136190106Y-111049788D01*
X136190109Y-111049786D01*
X136315048Y-110877820D01*
X136315047Y-110877820D01*
X136315051Y-110877816D01*
X136411557Y-110688412D01*
X136477246Y-110486243D01*
X136510500Y-110276287D01*
X136510500Y-110063713D01*
X136477246Y-109853757D01*
X136411557Y-109651588D01*
X136315051Y-109462184D01*
X136315049Y-109462181D01*
X136315048Y-109462179D01*
X136190109Y-109290213D01*
X136039786Y-109139890D01*
X135867820Y-109014951D01*
X135678414Y-108918444D01*
X135678413Y-108918443D01*
X135678412Y-108918443D01*
X135476243Y-108852754D01*
X135476241Y-108852753D01*
X135476240Y-108852753D01*
X135314957Y-108827208D01*
X135266287Y-108819500D01*
X135053713Y-108819500D01*
X135005042Y-108827208D01*
X134843760Y-108852753D01*
X134641585Y-108918444D01*
X134452179Y-109014951D01*
X134280213Y-109139890D01*
X134129890Y-109290213D01*
X134004951Y-109462179D01*
X133908444Y-109651585D01*
X133842753Y-109853760D01*
X133809500Y-110063713D01*
X119050500Y-110063713D01*
X119050499Y-109226508D01*
X119050499Y-108362129D01*
X119050498Y-108362123D01*
X119050497Y-108362116D01*
X119044091Y-108302517D01*
X119012375Y-108217483D01*
X118993797Y-108167671D01*
X118993793Y-108167664D01*
X118907547Y-108052455D01*
X118907544Y-108052452D01*
X118792335Y-107966206D01*
X118792328Y-107966202D01*
X118660917Y-107917189D01*
X118604983Y-107875318D01*
X118580566Y-107809853D01*
X118595418Y-107741580D01*
X118616563Y-107713332D01*
X118730104Y-107599792D01*
X118855051Y-107427816D01*
X118951557Y-107238412D01*
X119017246Y-107036243D01*
X119050500Y-106826287D01*
X119050500Y-106613713D01*
X119017246Y-106403757D01*
X118951557Y-106201588D01*
X118855051Y-106012184D01*
X118855049Y-106012181D01*
X118855048Y-106012179D01*
X118730109Y-105840213D01*
X118579786Y-105689890D01*
X118407820Y-105564951D01*
X118218414Y-105468444D01*
X118218413Y-105468443D01*
X118218412Y-105468443D01*
X118016243Y-105402754D01*
X118016241Y-105402753D01*
X118016240Y-105402753D01*
X117854957Y-105377208D01*
X117806287Y-105369500D01*
X117593713Y-105369500D01*
X117545042Y-105377208D01*
X117383760Y-105402753D01*
X117181585Y-105468444D01*
X116992179Y-105564951D01*
X116820213Y-105689890D01*
X116669890Y-105840213D01*
X116544951Y-106012179D01*
X116448444Y-106201585D01*
X116382753Y-106403760D01*
X116349500Y-106613713D01*
X116349500Y-106826286D01*
X116380009Y-107018917D01*
X116382754Y-107036243D01*
X116438832Y-107208834D01*
X116448444Y-107238414D01*
X116544951Y-107427820D01*
X116669890Y-107599786D01*
X116783430Y-107713326D01*
X116816915Y-107774649D01*
X116811931Y-107844341D01*
X116770059Y-107900274D01*
X116739083Y-107917189D01*
X116607669Y-107966203D01*
X116607664Y-107966206D01*
X116492455Y-108052452D01*
X116492452Y-108052455D01*
X116406206Y-108167664D01*
X116406202Y-108167671D01*
X116355908Y-108302517D01*
X116349501Y-108362116D01*
X116349501Y-108362123D01*
X116349500Y-108362135D01*
X116349500Y-110157870D01*
X116349501Y-110157876D01*
X116355909Y-110217484D01*
X116363154Y-110236911D01*
X116368136Y-110306603D01*
X116334649Y-110367925D01*
X116273325Y-110401408D01*
X116203634Y-110396421D01*
X116159290Y-110367922D01*
X112316819Y-106525450D01*
X112283334Y-106464127D01*
X112280500Y-106437769D01*
X112280500Y-94642229D01*
X112300185Y-94575190D01*
X112316819Y-94554548D01*
X114224864Y-92646503D01*
X116256626Y-90614740D01*
X116317947Y-90581257D01*
X116387639Y-90586241D01*
X116443572Y-90628113D01*
X116467989Y-90693577D01*
X116460438Y-90740197D01*
X116462030Y-90740680D01*
X116460260Y-90746511D01*
X116429500Y-90901153D01*
X116429500Y-91058846D01*
X116460261Y-91213489D01*
X116460264Y-91213501D01*
X116520602Y-91359172D01*
X116520609Y-91359185D01*
X116608210Y-91490288D01*
X116608213Y-91490292D01*
X116719707Y-91601786D01*
X116719711Y-91601789D01*
X116850814Y-91689390D01*
X116850827Y-91689397D01*
X116967240Y-91737616D01*
X116996503Y-91749737D01*
X117151153Y-91780499D01*
X117151156Y-91780500D01*
X117151158Y-91780500D01*
X117308844Y-91780500D01*
X117308845Y-91780499D01*
X117463497Y-91749737D01*
X117609179Y-91689394D01*
X117740289Y-91601789D01*
X117851789Y-91490289D01*
X117939394Y-91359179D01*
X117999737Y-91213497D01*
X118030500Y-91058842D01*
X118030500Y-90901158D01*
X118030500Y-90901155D01*
X118030499Y-90901153D01*
X117999739Y-90746511D01*
X117999738Y-90746508D01*
X117999737Y-90746503D01*
X117989937Y-90722844D01*
X117980500Y-90675396D01*
X117980500Y-81776079D01*
X117951659Y-81631092D01*
X117951658Y-81631091D01*
X117951658Y-81631087D01*
X117926104Y-81569394D01*
X117895087Y-81494511D01*
X117895080Y-81494498D01*
X117812952Y-81371585D01*
X117764315Y-81322948D01*
X117708416Y-81267049D01*
X115243718Y-78802351D01*
X112756819Y-76315451D01*
X112723334Y-76254128D01*
X112720500Y-76227770D01*
X112720500Y-74742229D01*
X112740185Y-74675190D01*
X112756819Y-74654548D01*
X114506418Y-72904949D01*
X116262320Y-71149046D01*
X116323641Y-71115563D01*
X116393333Y-71120547D01*
X116437680Y-71149048D01*
X117271580Y-71982948D01*
X117271584Y-71982951D01*
X117394498Y-72065080D01*
X117394511Y-72065087D01*
X117513207Y-72114252D01*
X117531087Y-72121658D01*
X117531091Y-72121658D01*
X117531092Y-72121659D01*
X117676079Y-72150500D01*
X117676082Y-72150500D01*
X117823917Y-72150500D01*
X119175548Y-72150500D01*
X119242587Y-72170185D01*
X119288342Y-72222989D01*
X119298286Y-72292147D01*
X119269261Y-72355703D01*
X119263233Y-72362175D01*
X118901270Y-72724139D01*
X118901267Y-72724142D01*
X118873590Y-72751819D01*
X118814142Y-72811266D01*
X118782353Y-72858842D01*
X118782352Y-72858841D01*
X118745692Y-72913707D01*
X118745685Y-72913719D01*
X118725501Y-72962450D01*
X118698538Y-73027544D01*
X118698535Y-73027556D01*
X118688842Y-73076285D01*
X118688843Y-73076286D01*
X118675059Y-73145587D01*
X118675055Y-73145603D01*
X118674500Y-73148388D01*
X118674500Y-73148394D01*
X118674500Y-73958393D01*
X118674500Y-74081607D01*
X118677449Y-74096433D01*
X118681871Y-74118665D01*
X118681870Y-74118665D01*
X118687969Y-74149326D01*
X118687970Y-74149328D01*
X118690309Y-74161088D01*
X118698537Y-74202451D01*
X118745688Y-74316286D01*
X118768409Y-74350289D01*
X118773506Y-74357917D01*
X118778226Y-74369427D01*
X118780603Y-74392306D01*
X118787478Y-74414260D01*
X118784147Y-74426400D01*
X118785449Y-74438923D01*
X118775079Y-74459456D01*
X118768994Y-74481640D01*
X118759628Y-74490052D01*
X118753953Y-74501291D01*
X118734128Y-74512958D01*
X118717015Y-74528331D01*
X118696286Y-74535230D01*
X118693738Y-74536730D01*
X118691986Y-74536661D01*
X118687691Y-74538091D01*
X118626507Y-74550261D01*
X118626498Y-74550264D01*
X118480827Y-74610602D01*
X118480814Y-74610609D01*
X118349711Y-74698210D01*
X118349707Y-74698213D01*
X118238213Y-74809707D01*
X118238210Y-74809711D01*
X118150609Y-74940814D01*
X118150602Y-74940827D01*
X118090264Y-75086498D01*
X118090261Y-75086510D01*
X118059500Y-75241153D01*
X118059500Y-75398846D01*
X118090261Y-75553489D01*
X118090264Y-75553501D01*
X118150602Y-75699172D01*
X118150609Y-75699185D01*
X118238210Y-75830288D01*
X118238213Y-75830292D01*
X118349707Y-75941786D01*
X118349711Y-75941789D01*
X118480817Y-76029392D01*
X118480819Y-76029392D01*
X118480821Y-76029394D01*
X118537952Y-76053058D01*
X118592356Y-76096898D01*
X118614421Y-76163192D01*
X118614500Y-76167619D01*
X118614500Y-81497650D01*
X118594815Y-81564689D01*
X118593626Y-81566503D01*
X118584516Y-81580139D01*
X118530609Y-81660815D01*
X118530602Y-81660828D01*
X118470264Y-81806498D01*
X118470261Y-81806510D01*
X118439500Y-81961153D01*
X118439500Y-82118846D01*
X118470261Y-82273489D01*
X118470264Y-82273501D01*
X118530602Y-82419172D01*
X118530609Y-82419185D01*
X118618210Y-82550288D01*
X118618213Y-82550292D01*
X118729707Y-82661786D01*
X118729711Y-82661789D01*
X118865886Y-82752779D01*
X118864531Y-82754805D01*
X118906725Y-82796236D01*
X118922200Y-82864370D01*
X118898381Y-82930055D01*
X118867332Y-82959754D01*
X118839713Y-82978208D01*
X118839707Y-82978213D01*
X118728213Y-83089707D01*
X118728210Y-83089711D01*
X118640609Y-83220814D01*
X118640602Y-83220827D01*
X118580264Y-83366498D01*
X118580261Y-83366510D01*
X118549500Y-83521153D01*
X118549389Y-83522272D01*
X118549470Y-83522569D01*
X118549264Y-83523544D01*
X118548903Y-83527218D01*
X118548500Y-83527178D01*
X118547979Y-83529653D01*
X118543681Y-83557385D01*
X118542080Y-83562422D01*
X118498537Y-83667549D01*
X118482876Y-83746286D01*
X118481531Y-83753047D01*
X118481528Y-83753057D01*
X118474500Y-83788389D01*
X118474500Y-86507650D01*
X118454815Y-86574689D01*
X118453602Y-86576541D01*
X118390609Y-86670815D01*
X118390602Y-86670828D01*
X118330264Y-86816498D01*
X118330261Y-86816510D01*
X118299500Y-86971153D01*
X118299500Y-87128846D01*
X118330261Y-87283489D01*
X118330264Y-87283501D01*
X118390602Y-87429172D01*
X118390609Y-87429185D01*
X118478210Y-87560288D01*
X118478213Y-87560292D01*
X118589707Y-87671786D01*
X118589711Y-87671789D01*
X118720814Y-87759390D01*
X118720827Y-87759397D01*
X118866498Y-87819735D01*
X118866503Y-87819737D01*
X119021153Y-87850499D01*
X119021156Y-87850500D01*
X119021158Y-87850500D01*
X119178844Y-87850500D01*
X119178845Y-87850499D01*
X119333497Y-87819737D01*
X119479179Y-87759394D01*
X119610289Y-87671789D01*
X119721789Y-87560289D01*
X119809394Y-87429179D01*
X119869737Y-87283497D01*
X119900500Y-87128842D01*
X119900500Y-86971158D01*
X119900500Y-86971155D01*
X119900499Y-86971153D01*
X119900327Y-86970288D01*
X119869737Y-86816503D01*
X119825965Y-86710828D01*
X119809397Y-86670828D01*
X119809396Y-86670827D01*
X119809394Y-86670821D01*
X119746397Y-86576539D01*
X119725520Y-86509863D01*
X119725500Y-86507650D01*
X119725500Y-84378131D01*
X119745185Y-84311092D01*
X119780607Y-84275030D01*
X119860289Y-84221789D01*
X119971789Y-84110289D01*
X119971791Y-84110285D01*
X119974646Y-84106808D01*
X120032391Y-84067473D01*
X120102236Y-84065602D01*
X120162004Y-84101788D01*
X120192721Y-84164544D01*
X120194500Y-84185472D01*
X120194500Y-100161611D01*
X120218535Y-100282444D01*
X120218540Y-100282461D01*
X120265684Y-100396278D01*
X120265691Y-100396292D01*
X120274518Y-100409501D01*
X120274520Y-100409503D01*
X120334140Y-100498731D01*
X120334141Y-100498732D01*
X120334142Y-100498733D01*
X120421267Y-100585858D01*
X120421268Y-100585858D01*
X120428335Y-100592925D01*
X120428334Y-100592925D01*
X120428338Y-100592928D01*
X126913228Y-107077819D01*
X126946713Y-107139142D01*
X126941729Y-107208834D01*
X126899857Y-107264767D01*
X126834393Y-107289184D01*
X126825547Y-107289500D01*
X125252229Y-107289500D01*
X125185190Y-107269815D01*
X125164548Y-107253181D01*
X122951105Y-105039738D01*
X120736071Y-102824703D01*
X120709191Y-102784475D01*
X120699394Y-102760821D01*
X120675125Y-102724500D01*
X120611789Y-102629710D01*
X120500292Y-102518213D01*
X120500288Y-102518210D01*
X120369185Y-102430609D01*
X120369172Y-102430602D01*
X120223501Y-102370264D01*
X120223489Y-102370261D01*
X120068845Y-102339500D01*
X120068842Y-102339500D01*
X119911158Y-102339500D01*
X119911155Y-102339500D01*
X119756510Y-102370261D01*
X119756498Y-102370264D01*
X119610827Y-102430602D01*
X119610814Y-102430609D01*
X119479711Y-102518210D01*
X119479707Y-102518213D01*
X119368213Y-102629707D01*
X119368210Y-102629711D01*
X119280609Y-102760814D01*
X119280602Y-102760827D01*
X119220264Y-102906498D01*
X119220261Y-102906510D01*
X119189500Y-103061153D01*
X119189500Y-103218846D01*
X119220261Y-103373489D01*
X119220264Y-103373501D01*
X119280602Y-103519172D01*
X119280609Y-103519185D01*
X119368210Y-103650288D01*
X119368213Y-103650292D01*
X119479710Y-103761789D01*
X119594432Y-103838443D01*
X119610821Y-103849394D01*
X119634475Y-103859191D01*
X119674703Y-103886071D01*
X122020188Y-106231555D01*
X124307048Y-108518415D01*
X124307049Y-108518416D01*
X124370917Y-108582284D01*
X124411585Y-108622952D01*
X124534498Y-108705080D01*
X124534511Y-108705087D01*
X124671082Y-108761656D01*
X124671087Y-108761658D01*
X124671091Y-108761658D01*
X124671092Y-108761659D01*
X124816079Y-108790500D01*
X124816082Y-108790500D01*
X128394581Y-108790500D01*
X128498160Y-108769896D01*
X128539574Y-108761658D01*
X128676156Y-108705084D01*
X128725390Y-108672186D01*
X128799077Y-108622952D01*
X131620697Y-105801332D01*
X132438316Y-104983713D01*
X133809500Y-104983713D01*
X133809500Y-105196286D01*
X133825331Y-105296243D01*
X133842754Y-105406243D01*
X133872702Y-105498414D01*
X133908444Y-105608414D01*
X134004951Y-105797820D01*
X134129890Y-105969786D01*
X134280213Y-106120109D01*
X134452179Y-106245048D01*
X134452181Y-106245049D01*
X134452184Y-106245051D01*
X134641588Y-106341557D01*
X134843757Y-106407246D01*
X135053713Y-106440500D01*
X135053714Y-106440500D01*
X135266286Y-106440500D01*
X135266287Y-106440500D01*
X135476243Y-106407246D01*
X135678412Y-106341557D01*
X135867816Y-106245051D01*
X135946964Y-106187547D01*
X136039786Y-106120109D01*
X136039788Y-106120106D01*
X136039792Y-106120104D01*
X136190104Y-105969792D01*
X136190106Y-105969788D01*
X136190109Y-105969786D01*
X136315048Y-105797820D01*
X136315047Y-105797820D01*
X136315051Y-105797816D01*
X136411557Y-105608412D01*
X136477246Y-105406243D01*
X136510500Y-105196287D01*
X136510500Y-104983713D01*
X136477246Y-104773757D01*
X136411557Y-104571588D01*
X136315051Y-104382184D01*
X136315049Y-104382181D01*
X136315048Y-104382179D01*
X136190109Y-104210213D01*
X136039786Y-104059890D01*
X135867820Y-103934951D01*
X135678414Y-103838444D01*
X135678413Y-103838443D01*
X135678412Y-103838443D01*
X135476243Y-103772754D01*
X135476241Y-103772753D01*
X135476240Y-103772753D01*
X135314957Y-103747208D01*
X135266287Y-103739500D01*
X135053713Y-103739500D01*
X135005042Y-103747208D01*
X134843760Y-103772753D01*
X134641585Y-103838444D01*
X134452179Y-103934951D01*
X134280213Y-104059890D01*
X134129890Y-104210213D01*
X134004951Y-104382179D01*
X133908444Y-104571585D01*
X133842753Y-104773760D01*
X133809500Y-104983713D01*
X132438316Y-104983713D01*
X132530869Y-104891160D01*
X134442948Y-102979080D01*
X134442947Y-102979080D01*
X134442951Y-102979077D01*
X134525084Y-102856156D01*
X134581658Y-102719574D01*
X134599533Y-102629711D01*
X134610500Y-102574581D01*
X134610500Y-101672228D01*
X134630185Y-101605189D01*
X134646815Y-101584551D01*
X134834548Y-101396817D01*
X134895871Y-101363333D01*
X134922229Y-101360499D01*
X136057871Y-101360499D01*
X136057872Y-101360499D01*
X136117483Y-101354091D01*
X136252331Y-101303796D01*
X136367546Y-101217546D01*
X136453796Y-101102331D01*
X136504091Y-100967483D01*
X136510500Y-100907873D01*
X136510499Y-99112128D01*
X136504091Y-99052517D01*
X136453796Y-98917669D01*
X136453795Y-98917668D01*
X136453793Y-98917664D01*
X136367547Y-98802455D01*
X136367544Y-98802452D01*
X136252335Y-98716206D01*
X136252328Y-98716202D01*
X136117482Y-98665908D01*
X136117483Y-98665908D01*
X136057883Y-98659501D01*
X136057881Y-98659500D01*
X136057873Y-98659500D01*
X136057864Y-98659500D01*
X134262129Y-98659500D01*
X134262123Y-98659501D01*
X134202516Y-98665908D01*
X134067671Y-98716202D01*
X134067664Y-98716206D01*
X133952455Y-98802452D01*
X133952452Y-98802455D01*
X133866206Y-98917664D01*
X133866202Y-98917671D01*
X133815908Y-99052517D01*
X133809501Y-99112116D01*
X133809501Y-99112123D01*
X133809500Y-99112135D01*
X133809500Y-100247769D01*
X133789815Y-100314808D01*
X133773181Y-100335450D01*
X133277052Y-100831578D01*
X133277049Y-100831581D01*
X133233584Y-100896631D01*
X133233585Y-100896632D01*
X133194914Y-100954508D01*
X133138343Y-101091082D01*
X133138340Y-101091092D01*
X133109500Y-101236079D01*
X133109500Y-102138430D01*
X133089815Y-102205469D01*
X133073181Y-102226111D01*
X128658662Y-106640629D01*
X128597339Y-106674114D01*
X128527647Y-106669130D01*
X128502090Y-106656050D01*
X128389185Y-106580609D01*
X128389172Y-106580602D01*
X128243501Y-106520264D01*
X128243489Y-106520261D01*
X128132286Y-106498141D01*
X128070375Y-106465756D01*
X128068796Y-106464205D01*
X121481819Y-99877228D01*
X121448334Y-99815905D01*
X121445500Y-99789547D01*
X121445500Y-97569452D01*
X121465185Y-97502413D01*
X121517989Y-97456658D01*
X121587147Y-97446714D01*
X121650703Y-97475739D01*
X121657181Y-97481771D01*
X128504205Y-104328795D01*
X128537690Y-104390118D01*
X128538141Y-104392285D01*
X128560261Y-104503489D01*
X128560264Y-104503501D01*
X128620602Y-104649172D01*
X128620609Y-104649185D01*
X128708210Y-104780288D01*
X128708213Y-104780292D01*
X128819707Y-104891786D01*
X128819711Y-104891789D01*
X128950814Y-104979390D01*
X128950827Y-104979397D01*
X129096498Y-105039735D01*
X129096503Y-105039737D01*
X129251153Y-105070499D01*
X129251156Y-105070500D01*
X129251158Y-105070500D01*
X129408844Y-105070500D01*
X129408845Y-105070499D01*
X129563497Y-105039737D01*
X129709179Y-104979394D01*
X129840289Y-104891789D01*
X129951789Y-104780289D01*
X130039394Y-104649179D01*
X130099737Y-104503497D01*
X130130500Y-104348842D01*
X130130500Y-104191158D01*
X130130500Y-104191155D01*
X130130499Y-104191153D01*
X130112409Y-104100208D01*
X130099737Y-104036503D01*
X130093944Y-104022517D01*
X130039397Y-103890827D01*
X130039390Y-103890814D01*
X129951789Y-103759711D01*
X129951786Y-103759707D01*
X129840292Y-103648213D01*
X129840288Y-103648210D01*
X129709185Y-103560609D01*
X129709172Y-103560602D01*
X129563501Y-103500264D01*
X129563489Y-103500261D01*
X129452285Y-103478141D01*
X129390374Y-103445756D01*
X129388795Y-103444205D01*
X124283384Y-98338794D01*
X124249899Y-98277471D01*
X124254883Y-98207779D01*
X124296755Y-98151846D01*
X124323609Y-98136553D01*
X124389179Y-98109394D01*
X124520289Y-98021789D01*
X124631789Y-97910289D01*
X124719394Y-97779179D01*
X124779737Y-97633497D01*
X124810500Y-97478842D01*
X124810500Y-97372228D01*
X124830185Y-97305189D01*
X124846819Y-97284547D01*
X126162948Y-95968419D01*
X126162948Y-95968418D01*
X126162951Y-95968416D01*
X126245084Y-95845495D01*
X126301658Y-95708913D01*
X126330500Y-95563918D01*
X126330500Y-95416083D01*
X126330500Y-91635416D01*
X126350185Y-91568377D01*
X126381613Y-91535099D01*
X126427219Y-91501966D01*
X126571966Y-91357219D01*
X126571968Y-91357215D01*
X126571971Y-91357213D01*
X126641299Y-91261789D01*
X126692287Y-91191610D01*
X126785220Y-91009219D01*
X126848477Y-90814534D01*
X126880500Y-90612352D01*
X126880500Y-90407648D01*
X126880318Y-90406498D01*
X126848477Y-90205465D01*
X126794344Y-90038863D01*
X126785220Y-90010781D01*
X126785218Y-90010778D01*
X126785218Y-90010776D01*
X126744367Y-89930602D01*
X126692287Y-89828390D01*
X126659154Y-89782786D01*
X126571971Y-89662786D01*
X126427213Y-89518028D01*
X126261613Y-89397715D01*
X126261612Y-89397714D01*
X126261610Y-89397713D01*
X126190583Y-89361523D01*
X126079223Y-89304781D01*
X125884534Y-89241522D01*
X125709995Y-89213878D01*
X125682352Y-89209500D01*
X125477648Y-89209500D01*
X125453329Y-89213351D01*
X125275465Y-89241522D01*
X125080776Y-89304781D01*
X124898386Y-89397715D01*
X124732786Y-89518028D01*
X124588028Y-89662786D01*
X124467715Y-89828386D01*
X124374781Y-90010776D01*
X124311522Y-90205465D01*
X124279500Y-90407648D01*
X124279500Y-90612351D01*
X124311522Y-90814534D01*
X124374781Y-91009223D01*
X124420872Y-91099680D01*
X124446660Y-91150292D01*
X124467715Y-91191613D01*
X124588028Y-91357213D01*
X124588034Y-91357219D01*
X124732781Y-91501966D01*
X124778384Y-91535098D01*
X124821050Y-91590425D01*
X124829500Y-91635416D01*
X124829500Y-95127769D01*
X124809815Y-95194808D01*
X124793181Y-95215450D01*
X123427052Y-96581578D01*
X123427049Y-96581581D01*
X123381158Y-96650262D01*
X123381159Y-96650263D01*
X123344914Y-96704508D01*
X123288343Y-96841082D01*
X123288340Y-96841092D01*
X123259500Y-96986079D01*
X123259500Y-97015548D01*
X123239815Y-97082587D01*
X123187011Y-97128342D01*
X123117853Y-97138286D01*
X123054297Y-97109261D01*
X123047819Y-97103229D01*
X121971819Y-96027229D01*
X121938334Y-95965906D01*
X121935500Y-95939548D01*
X121935500Y-95020451D01*
X121944142Y-94991019D01*
X121950665Y-94961028D01*
X121954422Y-94956007D01*
X121955185Y-94953412D01*
X121971809Y-94932779D01*
X121991561Y-94913028D01*
X121991565Y-94913026D01*
X122078690Y-94825901D01*
X122130088Y-94748977D01*
X122147144Y-94723453D01*
X122178234Y-94648394D01*
X122194295Y-94609620D01*
X122205249Y-94554548D01*
X122213666Y-94512236D01*
X122213666Y-94512230D01*
X122218332Y-94488777D01*
X122218332Y-87345657D01*
X122238017Y-87278618D01*
X122290821Y-87232863D01*
X122359979Y-87222919D01*
X122380499Y-87228549D01*
X122380676Y-87227969D01*
X122386492Y-87229732D01*
X122386503Y-87229737D01*
X122541153Y-87260499D01*
X122541156Y-87260500D01*
X122541158Y-87260500D01*
X122698844Y-87260500D01*
X122698845Y-87260499D01*
X122853497Y-87229737D01*
X122999179Y-87169394D01*
X123130289Y-87081789D01*
X123241789Y-86970289D01*
X123329394Y-86839179D01*
X123389737Y-86693497D01*
X123420500Y-86538842D01*
X123420500Y-86381158D01*
X123420500Y-86381155D01*
X123420499Y-86381153D01*
X123389738Y-86226510D01*
X123389737Y-86226503D01*
X123389735Y-86226498D01*
X123329397Y-86080828D01*
X123329396Y-86080827D01*
X123329394Y-86080821D01*
X123266397Y-85986539D01*
X123245520Y-85919863D01*
X123245500Y-85917650D01*
X123245500Y-82205568D01*
X123265185Y-82138529D01*
X123317989Y-82092774D01*
X123387147Y-82082830D01*
X123450703Y-82111855D01*
X123457178Y-82117884D01*
X123742672Y-82403379D01*
X124023545Y-82684252D01*
X124057030Y-82745575D01*
X124052046Y-82815267D01*
X124038969Y-82840819D01*
X124025606Y-82860819D01*
X124025604Y-82860822D01*
X123965264Y-83006498D01*
X123965261Y-83006510D01*
X123934500Y-83161153D01*
X123934500Y-83318846D01*
X123965261Y-83473489D01*
X123965264Y-83473501D01*
X124025602Y-83619172D01*
X124025609Y-83619185D01*
X124113210Y-83750288D01*
X124113213Y-83750292D01*
X124224707Y-83861786D01*
X124224711Y-83861789D01*
X124355814Y-83949390D01*
X124355827Y-83949397D01*
X124501498Y-84009735D01*
X124501503Y-84009737D01*
X124636054Y-84036501D01*
X124656153Y-84040499D01*
X124656156Y-84040500D01*
X124656158Y-84040500D01*
X124813844Y-84040500D01*
X124813845Y-84040499D01*
X124968497Y-84009737D01*
X125114179Y-83949394D01*
X125245289Y-83861789D01*
X125356789Y-83750289D01*
X125444394Y-83619179D01*
X125504737Y-83473497D01*
X125504963Y-83472356D01*
X125505247Y-83471814D01*
X125506506Y-83467665D01*
X125507292Y-83467903D01*
X125537341Y-83410443D01*
X125598053Y-83375862D01*
X125667823Y-83379594D01*
X125714264Y-83408854D01*
X143211263Y-100905855D01*
X143211267Y-100905858D01*
X143313710Y-100974309D01*
X143313711Y-100974309D01*
X143313715Y-100974312D01*
X143367198Y-100996465D01*
X143427548Y-101021463D01*
X143447597Y-101025451D01*
X143456018Y-101027126D01*
X143548392Y-101045501D01*
X143548394Y-101045501D01*
X143677721Y-101045501D01*
X143677741Y-101045500D01*
X144057650Y-101045500D01*
X144124689Y-101065185D01*
X144126541Y-101066398D01*
X144220821Y-101129394D01*
X144220823Y-101129395D01*
X144220827Y-101129397D01*
X144366498Y-101189735D01*
X144366503Y-101189737D01*
X144521153Y-101220499D01*
X144521156Y-101220500D01*
X144521158Y-101220500D01*
X144678844Y-101220500D01*
X144678845Y-101220499D01*
X144833497Y-101189737D01*
X144979179Y-101129394D01*
X145110289Y-101041789D01*
X145221789Y-100930289D01*
X145309394Y-100799179D01*
X145369737Y-100653497D01*
X145400500Y-100498842D01*
X145400500Y-100341158D01*
X145400500Y-100341155D01*
X145400499Y-100341153D01*
X145389070Y-100283691D01*
X145395297Y-100214099D01*
X145438161Y-100158922D01*
X145504050Y-100135678D01*
X145510687Y-100135500D01*
X146377650Y-100135500D01*
X146444689Y-100155185D01*
X146446541Y-100156398D01*
X146540821Y-100219394D01*
X146540823Y-100219395D01*
X146540827Y-100219397D01*
X146686498Y-100279735D01*
X146686503Y-100279737D01*
X146841153Y-100310499D01*
X146841156Y-100310500D01*
X146841158Y-100310500D01*
X146998844Y-100310500D01*
X146998845Y-100310499D01*
X147153497Y-100279737D01*
X147299179Y-100219394D01*
X147430289Y-100131789D01*
X147541789Y-100020289D01*
X147629394Y-99889179D01*
X147689737Y-99743497D01*
X147720500Y-99588842D01*
X147720500Y-99431158D01*
X147720500Y-99431155D01*
X147720499Y-99431153D01*
X147694725Y-99301581D01*
X147689737Y-99276503D01*
X147675633Y-99242452D01*
X147629397Y-99130827D01*
X147629390Y-99130814D01*
X147541789Y-98999711D01*
X147541786Y-98999707D01*
X147430292Y-98888213D01*
X147430288Y-98888210D01*
X147362031Y-98842602D01*
X147317226Y-98788990D01*
X147308519Y-98719665D01*
X147338673Y-98656637D01*
X147398117Y-98619918D01*
X147430922Y-98615500D01*
X149267650Y-98615500D01*
X149334689Y-98635185D01*
X149336541Y-98636398D01*
X149430821Y-98699394D01*
X149430823Y-98699395D01*
X149430827Y-98699397D01*
X149529488Y-98740263D01*
X149576503Y-98759737D01*
X149723567Y-98788990D01*
X149731153Y-98790499D01*
X149731156Y-98790500D01*
X149731158Y-98790500D01*
X149888844Y-98790500D01*
X149888845Y-98790499D01*
X150043497Y-98759737D01*
X150154201Y-98713881D01*
X150223671Y-98706413D01*
X150286150Y-98737688D01*
X150321802Y-98797777D01*
X150319308Y-98867602D01*
X150289335Y-98916124D01*
X146517279Y-102688181D01*
X146455956Y-102721666D01*
X146429598Y-102724500D01*
X140917907Y-102724500D01*
X140772919Y-102753340D01*
X140772909Y-102753343D01*
X140636338Y-102809912D01*
X140636325Y-102809919D01*
X140513411Y-102892048D01*
X140513407Y-102892051D01*
X137727047Y-105678411D01*
X137727042Y-105678417D01*
X137699596Y-105719497D01*
X137699594Y-105719500D01*
X137672161Y-105760556D01*
X137644914Y-105801334D01*
X137588343Y-105937909D01*
X137588340Y-105937919D01*
X137559500Y-106082906D01*
X137559500Y-106082909D01*
X137559500Y-109844579D01*
X137559500Y-109844581D01*
X137559499Y-109844581D01*
X137588340Y-109989568D01*
X137588343Y-109989578D01*
X137644913Y-110126151D01*
X137644916Y-110126156D01*
X137658595Y-110146627D01*
X137658596Y-110146632D01*
X137658598Y-110146632D01*
X137705937Y-110217482D01*
X137727051Y-110249081D01*
X137727052Y-110249082D01*
X138166388Y-110688416D01*
X138270919Y-110792947D01*
X138270924Y-110792952D01*
X138393837Y-110875080D01*
X138393850Y-110875087D01*
X138530421Y-110931656D01*
X138530426Y-110931658D01*
X138530430Y-110931658D01*
X138530431Y-110931659D01*
X138675418Y-110960500D01*
X138675421Y-110960500D01*
X141757093Y-110960500D01*
X141854635Y-110941096D01*
X141902086Y-110931658D01*
X142032063Y-110877820D01*
X142038666Y-110875085D01*
X142038666Y-110875084D01*
X142038668Y-110875084D01*
X142094360Y-110837872D01*
X142094360Y-110837871D01*
X142094362Y-110837871D01*
X142127974Y-110815412D01*
X142161589Y-110792952D01*
X143048255Y-109906286D01*
X143912407Y-109042135D01*
X149089500Y-109042135D01*
X149089500Y-110837870D01*
X149089501Y-110837873D01*
X149095908Y-110897483D01*
X149146202Y-111032328D01*
X149146206Y-111032335D01*
X149232452Y-111147544D01*
X149232455Y-111147547D01*
X149347664Y-111233793D01*
X149347671Y-111233797D01*
X149479082Y-111282810D01*
X149535016Y-111324681D01*
X149559433Y-111390145D01*
X149544582Y-111458418D01*
X149523431Y-111486673D01*
X149409889Y-111600215D01*
X149284951Y-111772179D01*
X149188444Y-111961585D01*
X149188443Y-111961587D01*
X149188443Y-111961588D01*
X149155598Y-112062672D01*
X149122753Y-112163760D01*
X149118346Y-112191585D01*
X149089500Y-112373713D01*
X149089500Y-112586287D01*
X149122754Y-112796243D01*
X149129266Y-112816286D01*
X149188444Y-112998414D01*
X149284951Y-113187820D01*
X149409890Y-113359786D01*
X149560213Y-113510109D01*
X149732179Y-113635048D01*
X149732181Y-113635049D01*
X149732184Y-113635051D01*
X149921588Y-113731557D01*
X150123757Y-113797246D01*
X150333713Y-113830500D01*
X150333714Y-113830500D01*
X150546286Y-113830500D01*
X150546287Y-113830500D01*
X150756243Y-113797246D01*
X150958412Y-113731557D01*
X151147816Y-113635051D01*
X151210110Y-113589792D01*
X151319786Y-113510109D01*
X151319788Y-113510106D01*
X151319792Y-113510104D01*
X151470104Y-113359792D01*
X151470106Y-113359788D01*
X151470109Y-113359786D01*
X151595048Y-113187820D01*
X151595047Y-113187820D01*
X151595051Y-113187816D01*
X151691557Y-112998412D01*
X151757246Y-112796243D01*
X151790500Y-112586287D01*
X151790500Y-112373713D01*
X151757246Y-112163757D01*
X151691557Y-111961588D01*
X151595051Y-111772184D01*
X151595049Y-111772181D01*
X151595048Y-111772179D01*
X151470109Y-111600213D01*
X151356569Y-111486673D01*
X151323084Y-111425350D01*
X151328068Y-111355658D01*
X151369940Y-111299725D01*
X151400915Y-111282810D01*
X151532331Y-111233796D01*
X151647546Y-111147546D01*
X151733796Y-111032331D01*
X151784091Y-110897483D01*
X151790500Y-110837873D01*
X151790499Y-109042128D01*
X151784091Y-108982517D01*
X151773926Y-108955264D01*
X151733797Y-108847671D01*
X151733793Y-108847664D01*
X151647547Y-108732455D01*
X151647544Y-108732452D01*
X151532335Y-108646206D01*
X151532328Y-108646202D01*
X151397482Y-108595908D01*
X151397483Y-108595908D01*
X151337883Y-108589501D01*
X151337881Y-108589500D01*
X151337873Y-108589500D01*
X151337864Y-108589500D01*
X149542129Y-108589500D01*
X149542123Y-108589501D01*
X149482516Y-108595908D01*
X149347671Y-108646202D01*
X149347664Y-108646206D01*
X149232455Y-108732452D01*
X149232452Y-108732455D01*
X149146206Y-108847664D01*
X149146202Y-108847671D01*
X149095908Y-108982517D01*
X149089501Y-109042116D01*
X149089501Y-109042123D01*
X149089500Y-109042135D01*
X143912407Y-109042135D01*
X144003417Y-108951125D01*
X146592407Y-106362135D01*
X165429500Y-106362135D01*
X165429500Y-108157870D01*
X165429501Y-108157876D01*
X165435908Y-108217483D01*
X165486202Y-108352328D01*
X165486206Y-108352335D01*
X165572452Y-108467544D01*
X165572455Y-108467547D01*
X165687664Y-108553793D01*
X165687671Y-108553797D01*
X165819082Y-108602810D01*
X165875016Y-108644681D01*
X165899433Y-108710145D01*
X165884582Y-108778418D01*
X165863431Y-108806673D01*
X165749889Y-108920215D01*
X165624951Y-109092179D01*
X165528444Y-109281585D01*
X165462753Y-109483760D01*
X165429500Y-109693713D01*
X165429500Y-109906286D01*
X165442690Y-109989568D01*
X165462754Y-110116243D01*
X165514755Y-110276286D01*
X165528444Y-110318414D01*
X165624951Y-110507820D01*
X165749890Y-110679786D01*
X165900213Y-110830109D01*
X166072179Y-110955048D01*
X166072181Y-110955049D01*
X166072184Y-110955051D01*
X166261588Y-111051557D01*
X166463757Y-111117246D01*
X166673713Y-111150500D01*
X166673714Y-111150500D01*
X166886286Y-111150500D01*
X166886287Y-111150500D01*
X167096243Y-111117246D01*
X167298412Y-111051557D01*
X167487816Y-110955051D01*
X167567052Y-110897483D01*
X167659786Y-110830109D01*
X167659788Y-110830106D01*
X167659792Y-110830104D01*
X167810104Y-110679792D01*
X167810106Y-110679788D01*
X167810109Y-110679786D01*
X167935048Y-110507820D01*
X167935047Y-110507820D01*
X167935051Y-110507816D01*
X168031557Y-110318412D01*
X168097246Y-110116243D01*
X168130500Y-109906287D01*
X168130500Y-109693713D01*
X168097246Y-109483757D01*
X168031557Y-109281588D01*
X167935051Y-109092184D01*
X167935049Y-109092181D01*
X167935048Y-109092179D01*
X167810109Y-108920213D01*
X167696569Y-108806673D01*
X167663084Y-108745350D01*
X167668068Y-108675658D01*
X167709940Y-108619725D01*
X167740915Y-108602810D01*
X167872331Y-108553796D01*
X167987546Y-108467546D01*
X168073796Y-108352331D01*
X168124091Y-108217483D01*
X168130500Y-108157873D01*
X168130499Y-106362128D01*
X168124091Y-106302517D01*
X168110016Y-106264781D01*
X168073797Y-106167671D01*
X168073793Y-106167664D01*
X167987547Y-106052455D01*
X167987544Y-106052452D01*
X167872335Y-105966206D01*
X167872328Y-105966202D01*
X167737482Y-105915908D01*
X167737483Y-105915908D01*
X167677883Y-105909501D01*
X167677881Y-105909500D01*
X167677873Y-105909500D01*
X167677864Y-105909500D01*
X165882129Y-105909500D01*
X165882123Y-105909501D01*
X165822516Y-105915908D01*
X165687671Y-105966202D01*
X165687664Y-105966206D01*
X165572455Y-106052452D01*
X165572452Y-106052455D01*
X165486206Y-106167664D01*
X165486202Y-106167671D01*
X165435908Y-106302517D01*
X165429974Y-106357715D01*
X165429501Y-106362123D01*
X165429500Y-106362135D01*
X146592407Y-106362135D01*
X146683417Y-106271125D01*
X156657947Y-96296594D01*
X156657952Y-96296589D01*
X156694214Y-96242318D01*
X156730237Y-96188406D01*
X156730239Y-96188401D01*
X156730245Y-96188393D01*
X156740084Y-96173668D01*
X156796658Y-96037086D01*
X156825500Y-95892091D01*
X156825500Y-84993060D01*
X156845185Y-84926021D01*
X156897989Y-84880266D01*
X156967147Y-84870322D01*
X157030703Y-84899347D01*
X157051722Y-84924138D01*
X157052085Y-84923875D01*
X157179890Y-85099786D01*
X157330213Y-85250109D01*
X157502179Y-85375048D01*
X157502181Y-85375049D01*
X157502184Y-85375051D01*
X157691588Y-85471557D01*
X157893757Y-85537246D01*
X158103713Y-85570500D01*
X158103714Y-85570500D01*
X158316286Y-85570500D01*
X158316287Y-85570500D01*
X158526243Y-85537246D01*
X158728412Y-85471557D01*
X158917816Y-85375051D01*
X158939789Y-85359086D01*
X159089786Y-85250109D01*
X159089788Y-85250106D01*
X159089792Y-85250104D01*
X159240104Y-85099792D01*
X159240106Y-85099788D01*
X159240109Y-85099786D01*
X159365048Y-84927820D01*
X159365047Y-84927820D01*
X159365051Y-84927816D01*
X159461557Y-84738412D01*
X159527246Y-84536243D01*
X159560500Y-84326287D01*
X159560500Y-84113713D01*
X159527246Y-83903757D01*
X159461557Y-83701588D01*
X159365051Y-83512184D01*
X159365049Y-83512181D01*
X159365048Y-83512179D01*
X159240109Y-83340213D01*
X159089786Y-83189890D01*
X158917820Y-83064951D01*
X158917115Y-83064591D01*
X158909054Y-83060485D01*
X158858259Y-83012512D01*
X158841463Y-82944692D01*
X158863999Y-82878556D01*
X158909054Y-82839515D01*
X158917816Y-82835051D01*
X159028266Y-82754805D01*
X159089786Y-82710109D01*
X159089788Y-82710106D01*
X159089792Y-82710104D01*
X159240104Y-82559792D01*
X159240106Y-82559788D01*
X159240109Y-82559786D01*
X159365048Y-82387820D01*
X159365047Y-82387820D01*
X159365051Y-82387816D01*
X159461557Y-82198412D01*
X159527246Y-81996243D01*
X159560500Y-81786287D01*
X159560500Y-81573713D01*
X159527246Y-81363757D01*
X159461557Y-81161588D01*
X159365051Y-80972184D01*
X159365049Y-80972181D01*
X159365048Y-80972179D01*
X159240109Y-80800213D01*
X159089786Y-80649890D01*
X158917820Y-80524951D01*
X158917115Y-80524591D01*
X158909054Y-80520485D01*
X158858259Y-80472512D01*
X158841463Y-80404692D01*
X158863999Y-80338556D01*
X158909054Y-80299515D01*
X158917816Y-80295051D01*
X158978335Y-80251082D01*
X159089786Y-80170109D01*
X159089788Y-80170106D01*
X159089792Y-80170104D01*
X159240104Y-80019792D01*
X159240106Y-80019788D01*
X159240109Y-80019786D01*
X159365048Y-79847820D01*
X159365047Y-79847820D01*
X159365051Y-79847816D01*
X159461557Y-79658412D01*
X159527246Y-79456243D01*
X159560500Y-79246287D01*
X159560500Y-79033713D01*
X159527246Y-78823757D01*
X159461557Y-78621588D01*
X159365051Y-78432184D01*
X159365049Y-78432181D01*
X159365048Y-78432179D01*
X159240109Y-78260213D01*
X159089786Y-78109890D01*
X158917820Y-77984951D01*
X158917115Y-77984591D01*
X158909054Y-77980485D01*
X158858259Y-77932512D01*
X158841463Y-77864692D01*
X158863999Y-77798556D01*
X158909054Y-77759515D01*
X158917816Y-77755051D01*
X158982538Y-77708028D01*
X159089786Y-77630109D01*
X159089788Y-77630106D01*
X159089792Y-77630104D01*
X159240104Y-77479792D01*
X159240106Y-77479788D01*
X159240109Y-77479786D01*
X159349086Y-77329789D01*
X159365051Y-77307816D01*
X159461557Y-77118412D01*
X159527246Y-76916243D01*
X159560500Y-76706287D01*
X159560500Y-76493713D01*
X159527246Y-76283757D01*
X159461557Y-76081588D01*
X159365051Y-75892184D01*
X159365049Y-75892181D01*
X159365048Y-75892179D01*
X159240109Y-75720213D01*
X159089786Y-75569890D01*
X158917820Y-75444951D01*
X158917115Y-75444591D01*
X158909054Y-75440485D01*
X158858259Y-75392512D01*
X158841463Y-75324692D01*
X158863999Y-75258556D01*
X158909054Y-75219515D01*
X158917816Y-75215051D01*
X158981836Y-75168538D01*
X159089786Y-75090109D01*
X159089788Y-75090106D01*
X159089792Y-75090104D01*
X159240104Y-74939792D01*
X159240106Y-74939788D01*
X159240109Y-74939786D01*
X159365048Y-74767820D01*
X159365047Y-74767820D01*
X159365051Y-74767816D01*
X159461557Y-74578412D01*
X159527246Y-74376243D01*
X159560500Y-74166287D01*
X159560500Y-73953713D01*
X159527246Y-73743757D01*
X159461557Y-73541588D01*
X159365051Y-73352184D01*
X159365049Y-73352181D01*
X159365048Y-73352179D01*
X159240109Y-73180213D01*
X159089786Y-73029890D01*
X158917820Y-72904951D01*
X158917115Y-72904591D01*
X158909054Y-72900485D01*
X158858259Y-72852512D01*
X158841463Y-72784692D01*
X158863999Y-72718556D01*
X158909054Y-72679515D01*
X158917816Y-72675051D01*
X158976303Y-72632558D01*
X159089786Y-72550109D01*
X159089788Y-72550106D01*
X159089792Y-72550104D01*
X159240104Y-72399792D01*
X159240106Y-72399788D01*
X159240109Y-72399786D01*
X159365048Y-72227820D01*
X159365047Y-72227820D01*
X159365051Y-72227816D01*
X159461557Y-72038412D01*
X159527246Y-71836243D01*
X159560500Y-71626287D01*
X159560500Y-71413713D01*
X159527246Y-71203757D01*
X159461557Y-71001588D01*
X159365051Y-70812184D01*
X159365049Y-70812181D01*
X159365048Y-70812179D01*
X159240109Y-70640213D01*
X159089786Y-70489890D01*
X158917820Y-70364951D01*
X158728414Y-70268444D01*
X158728413Y-70268443D01*
X158728412Y-70268443D01*
X158526243Y-70202754D01*
X158526241Y-70202753D01*
X158526240Y-70202753D01*
X158364957Y-70177208D01*
X158316287Y-70169500D01*
X158103713Y-70169500D01*
X158055042Y-70177208D01*
X157893760Y-70202753D01*
X157691585Y-70268444D01*
X157502179Y-70364951D01*
X157330213Y-70489890D01*
X157179890Y-70640213D01*
X157052085Y-70816125D01*
X157051133Y-70815434D01*
X157003410Y-70858607D01*
X156934480Y-70870026D01*
X156870318Y-70842366D01*
X156831297Y-70784408D01*
X156825500Y-70746939D01*
X156825500Y-68937229D01*
X156845185Y-68870190D01*
X156861814Y-68849552D01*
X157884549Y-67826817D01*
X157945872Y-67793333D01*
X157972230Y-67790499D01*
X159107871Y-67790499D01*
X159107872Y-67790499D01*
X159167483Y-67784091D01*
X159302331Y-67733796D01*
X159417546Y-67647546D01*
X159503796Y-67532331D01*
X159554091Y-67397483D01*
X159560500Y-67337873D01*
X159560499Y-65542128D01*
X159554091Y-65482517D01*
X159553261Y-65480292D01*
X159503797Y-65347671D01*
X159503793Y-65347664D01*
X159417547Y-65232455D01*
X159417544Y-65232452D01*
X159302335Y-65146206D01*
X159302328Y-65146202D01*
X159167482Y-65095908D01*
X159167483Y-65095908D01*
X159107883Y-65089501D01*
X159107881Y-65089500D01*
X159107873Y-65089500D01*
X159107864Y-65089500D01*
X157312129Y-65089500D01*
X157312123Y-65089501D01*
X157252516Y-65095908D01*
X157117671Y-65146202D01*
X157117664Y-65146206D01*
X157002455Y-65232452D01*
X157002452Y-65232455D01*
X156916206Y-65347664D01*
X156916202Y-65347671D01*
X156865908Y-65482517D01*
X156859876Y-65538626D01*
X156859501Y-65542123D01*
X156859500Y-65542135D01*
X156859500Y-66677769D01*
X156839815Y-66744808D01*
X156823181Y-66765450D01*
X156337181Y-67251450D01*
X156275858Y-67284935D01*
X156206166Y-67279951D01*
X156150233Y-67238079D01*
X156125816Y-67172615D01*
X156125500Y-67163769D01*
X156125500Y-64219500D01*
X156145185Y-64152461D01*
X156197989Y-64106706D01*
X156249500Y-64095500D01*
X161332650Y-64095500D01*
X161399689Y-64115185D01*
X161401541Y-64116398D01*
X161495821Y-64179394D01*
X161495823Y-64179395D01*
X161495827Y-64179397D01*
X161570348Y-64210264D01*
X161641503Y-64239737D01*
X161796153Y-64270499D01*
X161796156Y-64270500D01*
X161796158Y-64270500D01*
X161953844Y-64270500D01*
X161953845Y-64270499D01*
X162108497Y-64239737D01*
X162233062Y-64188141D01*
X162254172Y-64179397D01*
X162254172Y-64179396D01*
X162254179Y-64179394D01*
X162385289Y-64091789D01*
X162496789Y-63980289D01*
X162584394Y-63849179D01*
X162588069Y-63840308D01*
X162623197Y-63755499D01*
X162644737Y-63703497D01*
X162675500Y-63548842D01*
X162675500Y-63391158D01*
X162675500Y-63391155D01*
X162675499Y-63391153D01*
X162667475Y-63350814D01*
X162644737Y-63236503D01*
X162619547Y-63175688D01*
X162584397Y-63090827D01*
X162584390Y-63090814D01*
X162496789Y-62959711D01*
X162496786Y-62959707D01*
X162385292Y-62848213D01*
X162385288Y-62848210D01*
X162254185Y-62760609D01*
X162254172Y-62760602D01*
X162108501Y-62700264D01*
X162108489Y-62700261D01*
X161953845Y-62669500D01*
X161953842Y-62669500D01*
X161796158Y-62669500D01*
X161796155Y-62669500D01*
X161641510Y-62700261D01*
X161641498Y-62700264D01*
X161495827Y-62760602D01*
X161495815Y-62760609D01*
X161401541Y-62823602D01*
X161334864Y-62844480D01*
X161332650Y-62844500D01*
X160089452Y-62844500D01*
X160022413Y-62824815D01*
X159976658Y-62772011D01*
X159966714Y-62702853D01*
X159995739Y-62639297D01*
X160001771Y-62632819D01*
X160570447Y-62064144D01*
X161345858Y-61288733D01*
X161414312Y-61186285D01*
X161447165Y-61106969D01*
X161461463Y-61072452D01*
X161465451Y-61052402D01*
X161485501Y-60951606D01*
X161485501Y-60828393D01*
X161485501Y-60823283D01*
X161485500Y-60823257D01*
X161485500Y-39850452D01*
X161505185Y-39783413D01*
X161521819Y-39762771D01*
X168532771Y-32751819D01*
X168594094Y-32718334D01*
X168620452Y-32715500D01*
X172521607Y-32715500D01*
X172582029Y-32703481D01*
X172642452Y-32691463D01*
X172675792Y-32677652D01*
X172756286Y-32644312D01*
X172798058Y-32616399D01*
X172864734Y-32595520D01*
X172866951Y-32595500D01*
X173757019Y-32595500D01*
X173824058Y-32615185D01*
X173867503Y-32663203D01*
X173874950Y-32677819D01*
X173999890Y-32849786D01*
X174150213Y-33000109D01*
X174322182Y-33125050D01*
X174330946Y-33129516D01*
X174381742Y-33177491D01*
X174398536Y-33245312D01*
X174375998Y-33311447D01*
X174330946Y-33350484D01*
X174322182Y-33354949D01*
X174150213Y-33479890D01*
X173999890Y-33630213D01*
X173874951Y-33802179D01*
X173778444Y-33991585D01*
X173712753Y-34193760D01*
X173679500Y-34403713D01*
X173679500Y-34616286D01*
X173712753Y-34826239D01*
X173778444Y-35028414D01*
X173874951Y-35217820D01*
X173999890Y-35389786D01*
X174150213Y-35540109D01*
X174322182Y-35665050D01*
X174330946Y-35669516D01*
X174381742Y-35717491D01*
X174398536Y-35785312D01*
X174375998Y-35851447D01*
X174330946Y-35890484D01*
X174322182Y-35894949D01*
X174150213Y-36019890D01*
X173999890Y-36170213D01*
X173874951Y-36342179D01*
X173778444Y-36531585D01*
X173712753Y-36733760D01*
X173679500Y-36943713D01*
X173679500Y-37156286D01*
X173712753Y-37366239D01*
X173778444Y-37568414D01*
X173874951Y-37757820D01*
X173999890Y-37929786D01*
X174150213Y-38080109D01*
X174322182Y-38205050D01*
X174330946Y-38209516D01*
X174381742Y-38257491D01*
X174398536Y-38325312D01*
X174375998Y-38391447D01*
X174330946Y-38430484D01*
X174322182Y-38434949D01*
X174150213Y-38559890D01*
X173999890Y-38710213D01*
X173874951Y-38882179D01*
X173778444Y-39071585D01*
X173712753Y-39273760D01*
X173679500Y-39483713D01*
X173679500Y-39696286D01*
X173712753Y-39906239D01*
X173778444Y-40108414D01*
X173874951Y-40297820D01*
X173999890Y-40469786D01*
X174150213Y-40620109D01*
X174322179Y-40745048D01*
X174322181Y-40745049D01*
X174322184Y-40745051D01*
X174511588Y-40841557D01*
X174713757Y-40907246D01*
X174923713Y-40940500D01*
X174923714Y-40940500D01*
X175136286Y-40940500D01*
X175136287Y-40940500D01*
X175346243Y-40907246D01*
X175548412Y-40841557D01*
X175737816Y-40745051D01*
X175759789Y-40729086D01*
X175909786Y-40620109D01*
X175909788Y-40620106D01*
X175909792Y-40620104D01*
X176060104Y-40469792D01*
X176060106Y-40469788D01*
X176060109Y-40469786D01*
X176185048Y-40297820D01*
X176185047Y-40297820D01*
X176185051Y-40297816D01*
X176281557Y-40108412D01*
X176347246Y-39906243D01*
X176380500Y-39696287D01*
X176380500Y-39483713D01*
X176347246Y-39273757D01*
X176281557Y-39071588D01*
X176185051Y-38882184D01*
X176185049Y-38882181D01*
X176185048Y-38882179D01*
X176060109Y-38710213D01*
X175909786Y-38559890D01*
X175737820Y-38434951D01*
X175737115Y-38434591D01*
X175729054Y-38430485D01*
X175678259Y-38382512D01*
X175661463Y-38314692D01*
X175683999Y-38248556D01*
X175729054Y-38209515D01*
X175737816Y-38205051D01*
X175771543Y-38180547D01*
X175909786Y-38080109D01*
X175909788Y-38080106D01*
X175909792Y-38080104D01*
X176060104Y-37929792D01*
X176060106Y-37929788D01*
X176060109Y-37929786D01*
X176185048Y-37757820D01*
X176185047Y-37757820D01*
X176185051Y-37757816D01*
X176281557Y-37568412D01*
X176347246Y-37366243D01*
X176380500Y-37156287D01*
X176380500Y-36943713D01*
X176347246Y-36733757D01*
X176281557Y-36531588D01*
X176185051Y-36342184D01*
X176185049Y-36342181D01*
X176185048Y-36342179D01*
X176060109Y-36170213D01*
X175909786Y-36019890D01*
X175737820Y-35894951D01*
X175737115Y-35894591D01*
X175729054Y-35890485D01*
X175678259Y-35842512D01*
X175661463Y-35774692D01*
X175683999Y-35708556D01*
X175729054Y-35669515D01*
X175737816Y-35665051D01*
X175759789Y-35649086D01*
X175909786Y-35540109D01*
X175909788Y-35540106D01*
X175909792Y-35540104D01*
X176060104Y-35389792D01*
X176060106Y-35389788D01*
X176060109Y-35389786D01*
X176185048Y-35217820D01*
X176185047Y-35217820D01*
X176185051Y-35217816D01*
X176281557Y-35028412D01*
X176347246Y-34826243D01*
X176380500Y-34616287D01*
X176380500Y-34403713D01*
X176347246Y-34193757D01*
X176281557Y-33991588D01*
X176185051Y-33802184D01*
X176185049Y-33802181D01*
X176185048Y-33802179D01*
X176060109Y-33630213D01*
X175909786Y-33479890D01*
X175737820Y-33354951D01*
X175737115Y-33354591D01*
X175729054Y-33350485D01*
X175678259Y-33302512D01*
X175661463Y-33234692D01*
X175683999Y-33168556D01*
X175729054Y-33129515D01*
X175737816Y-33125051D01*
X175759789Y-33109086D01*
X175909786Y-33000109D01*
X175909788Y-33000106D01*
X175909792Y-33000104D01*
X176060104Y-32849792D01*
X176060106Y-32849788D01*
X176060109Y-32849786D01*
X176185048Y-32677820D01*
X176185049Y-32677819D01*
X176185051Y-32677816D01*
X176281557Y-32488412D01*
X176347246Y-32286243D01*
X176380500Y-32076287D01*
X176380500Y-31863713D01*
X176347246Y-31653757D01*
X176281557Y-31451588D01*
X176185051Y-31262184D01*
X176185049Y-31262181D01*
X176185048Y-31262179D01*
X176060109Y-31090213D01*
X175909786Y-30939890D01*
X175737820Y-30814951D01*
X175737115Y-30814591D01*
X175729054Y-30810485D01*
X175678259Y-30762512D01*
X175661463Y-30694692D01*
X175683999Y-30628556D01*
X175729054Y-30589515D01*
X175737816Y-30585051D01*
X175759789Y-30569086D01*
X175909786Y-30460109D01*
X175909788Y-30460106D01*
X175909792Y-30460104D01*
X176060104Y-30309792D01*
X176060106Y-30309788D01*
X176060109Y-30309786D01*
X176185048Y-30137820D01*
X176185047Y-30137820D01*
X176185051Y-30137816D01*
X176281557Y-29948412D01*
X176347246Y-29746243D01*
X176380500Y-29536287D01*
X176380500Y-29323713D01*
X176347246Y-29113757D01*
X176281557Y-28911588D01*
X176185051Y-28722184D01*
X176185049Y-28722181D01*
X176185048Y-28722179D01*
X176060109Y-28550213D01*
X175909786Y-28399890D01*
X175737820Y-28274951D01*
X175737115Y-28274591D01*
X175729054Y-28270485D01*
X175678259Y-28222512D01*
X175661463Y-28154692D01*
X175683999Y-28088556D01*
X175729054Y-28049515D01*
X175737816Y-28045051D01*
X175759789Y-28029086D01*
X175909786Y-27920109D01*
X175909788Y-27920106D01*
X175909792Y-27920104D01*
X176060104Y-27769792D01*
X176060106Y-27769788D01*
X176060109Y-27769786D01*
X176185048Y-27597820D01*
X176185047Y-27597820D01*
X176185051Y-27597816D01*
X176281557Y-27408412D01*
X176347246Y-27206243D01*
X176380500Y-26996287D01*
X176380500Y-26783713D01*
X176347246Y-26573757D01*
X176281557Y-26371588D01*
X176185051Y-26182184D01*
X176185049Y-26182181D01*
X176185048Y-26182179D01*
X176060109Y-26010213D01*
X175909786Y-25859890D01*
X175737820Y-25734951D01*
X175548414Y-25638444D01*
X175548413Y-25638443D01*
X175548412Y-25638443D01*
X175346243Y-25572754D01*
X175346241Y-25572753D01*
X175346240Y-25572753D01*
X175184957Y-25547208D01*
X175136287Y-25539500D01*
X174923713Y-25539500D01*
X174875042Y-25547208D01*
X174713760Y-25572753D01*
X174511585Y-25638444D01*
X174322179Y-25734951D01*
X174150213Y-25859890D01*
X173999890Y-26010213D01*
X173874951Y-26182179D01*
X173778444Y-26371585D01*
X173712753Y-26573760D01*
X173679500Y-26783713D01*
X173679500Y-26996286D01*
X173712753Y-27206239D01*
X173778444Y-27408414D01*
X173874951Y-27597820D01*
X173999890Y-27769786D01*
X174150213Y-27920109D01*
X174322182Y-28045050D01*
X174330946Y-28049516D01*
X174381742Y-28097491D01*
X174398536Y-28165312D01*
X174375998Y-28231447D01*
X174330946Y-28270484D01*
X174322182Y-28274949D01*
X174150213Y-28399890D01*
X173999890Y-28550213D01*
X173874951Y-28722179D01*
X173778444Y-28911585D01*
X173712753Y-29113760D01*
X173679500Y-29323713D01*
X173679500Y-29536287D01*
X173712754Y-29746243D01*
X173722963Y-29777664D01*
X173778444Y-29948414D01*
X173874951Y-30137820D01*
X173999890Y-30309786D01*
X174150213Y-30460109D01*
X174322182Y-30585050D01*
X174330946Y-30589516D01*
X174381742Y-30637491D01*
X174398536Y-30705312D01*
X174375998Y-30771447D01*
X174330946Y-30810484D01*
X174322182Y-30814949D01*
X174150213Y-30939890D01*
X173999890Y-31090213D01*
X173874950Y-31262180D01*
X173867503Y-31276797D01*
X173819527Y-31327592D01*
X173757019Y-31344500D01*
X172647741Y-31344500D01*
X172647721Y-31344499D01*
X172641607Y-31344499D01*
X172518394Y-31344499D01*
X172417597Y-31364548D01*
X172417592Y-31364548D01*
X172397549Y-31368536D01*
X172397547Y-31368536D01*
X172350397Y-31388067D01*
X172283719Y-31415685D01*
X172283712Y-31415689D01*
X172241938Y-31443602D01*
X172175261Y-31464480D01*
X172173048Y-31464500D01*
X168248389Y-31464500D01*
X168187971Y-31476518D01*
X168150259Y-31484019D01*
X168127550Y-31488536D01*
X168127548Y-31488537D01*
X168094207Y-31502347D01*
X168013719Y-31535684D01*
X168013705Y-31535692D01*
X167911272Y-31604138D01*
X167911264Y-31604144D01*
X161247181Y-38268228D01*
X161185858Y-38301713D01*
X161116166Y-38296729D01*
X161060233Y-38254857D01*
X161035816Y-38189393D01*
X161035500Y-38180547D01*
X161035500Y-36917229D01*
X161055185Y-36850190D01*
X161071814Y-36829553D01*
X174704549Y-23196817D01*
X174765872Y-23163333D01*
X174792230Y-23160499D01*
X175927871Y-23160499D01*
X175927872Y-23160499D01*
X175987483Y-23154091D01*
X176122331Y-23103796D01*
X176237546Y-23017546D01*
X176323796Y-22902331D01*
X176374091Y-22767483D01*
X176380500Y-22707873D01*
X176380499Y-22147648D01*
X179819500Y-22147648D01*
X179819500Y-22352351D01*
X179851522Y-22554534D01*
X179914781Y-22749223D01*
X180007715Y-22931613D01*
X180128028Y-23097213D01*
X180272786Y-23241971D01*
X180427749Y-23354556D01*
X180438390Y-23362287D01*
X180554607Y-23421503D01*
X180620776Y-23455218D01*
X180620778Y-23455218D01*
X180620781Y-23455220D01*
X180725137Y-23489127D01*
X180815465Y-23518477D01*
X180916557Y-23534488D01*
X181017648Y-23550500D01*
X181017649Y-23550500D01*
X181222351Y-23550500D01*
X181222352Y-23550500D01*
X181424534Y-23518477D01*
X181619219Y-23455220D01*
X181801610Y-23362287D01*
X181894590Y-23294732D01*
X181967213Y-23241971D01*
X181967215Y-23241968D01*
X181967219Y-23241966D01*
X182111966Y-23097219D01*
X182111968Y-23097215D01*
X182111971Y-23097213D01*
X182169853Y-23017544D01*
X182232287Y-22931610D01*
X182325220Y-22749219D01*
X182388477Y-22554534D01*
X182420500Y-22352352D01*
X182420500Y-22297648D01*
X186169500Y-22297648D01*
X186169500Y-22502351D01*
X186201522Y-22704534D01*
X186264781Y-22899223D01*
X186357715Y-23081613D01*
X186478028Y-23247213D01*
X186622786Y-23391971D01*
X186709843Y-23455220D01*
X186788390Y-23512287D01*
X186904607Y-23571503D01*
X186970776Y-23605218D01*
X186970778Y-23605218D01*
X186970781Y-23605220D01*
X187075137Y-23639127D01*
X187165465Y-23668477D01*
X187266557Y-23684488D01*
X187367648Y-23700500D01*
X187367649Y-23700500D01*
X187572351Y-23700500D01*
X187572352Y-23700500D01*
X187774534Y-23668477D01*
X187969219Y-23605220D01*
X188151610Y-23512287D01*
X188244590Y-23444732D01*
X188317213Y-23391971D01*
X188317215Y-23391968D01*
X188317219Y-23391966D01*
X188461966Y-23247219D01*
X188461968Y-23247215D01*
X188461971Y-23247213D01*
X188566167Y-23103797D01*
X188582287Y-23081610D01*
X188675220Y-22899219D01*
X188738477Y-22704534D01*
X188770500Y-22502352D01*
X188770500Y-22297648D01*
X188741541Y-22114808D01*
X188738477Y-22095465D01*
X188689739Y-21945466D01*
X188675220Y-21900781D01*
X188675218Y-21900778D01*
X188675218Y-21900776D01*
X188641503Y-21834607D01*
X188582287Y-21718390D01*
X188574556Y-21707749D01*
X188461971Y-21552786D01*
X188317213Y-21408028D01*
X188151613Y-21287715D01*
X188151612Y-21287714D01*
X188151610Y-21287713D01*
X188093350Y-21258028D01*
X187969223Y-21194781D01*
X187774534Y-21131522D01*
X187599995Y-21103878D01*
X187572352Y-21099500D01*
X187367648Y-21099500D01*
X187343329Y-21103351D01*
X187165465Y-21131522D01*
X186970776Y-21194781D01*
X186788386Y-21287715D01*
X186622786Y-21408028D01*
X186478028Y-21552786D01*
X186357715Y-21718386D01*
X186264781Y-21900776D01*
X186201522Y-22095465D01*
X186169500Y-22297648D01*
X182420500Y-22297648D01*
X182420500Y-22147648D01*
X182412235Y-22095465D01*
X182388477Y-21945465D01*
X182325218Y-21750776D01*
X182291503Y-21684607D01*
X182232287Y-21568390D01*
X182220950Y-21552786D01*
X182111971Y-21402786D01*
X181967213Y-21258028D01*
X181801613Y-21137715D01*
X181801612Y-21137714D01*
X181801610Y-21137713D01*
X181726613Y-21099500D01*
X181619223Y-21044781D01*
X181424534Y-20981522D01*
X181249995Y-20953878D01*
X181222352Y-20949500D01*
X181017648Y-20949500D01*
X180993329Y-20953351D01*
X180815465Y-20981522D01*
X180620776Y-21044781D01*
X180438386Y-21137715D01*
X180272786Y-21258028D01*
X180128028Y-21402786D01*
X180007715Y-21568386D01*
X179914781Y-21750776D01*
X179851522Y-21945465D01*
X179819500Y-22147648D01*
X176380499Y-22147648D01*
X176380499Y-21750781D01*
X176380499Y-20912129D01*
X176380498Y-20912123D01*
X176380497Y-20912116D01*
X176374091Y-20852517D01*
X176323796Y-20717669D01*
X176323795Y-20717668D01*
X176323793Y-20717664D01*
X176237547Y-20602455D01*
X176237544Y-20602452D01*
X176122335Y-20516206D01*
X176122328Y-20516202D01*
X175987482Y-20465908D01*
X175987483Y-20465908D01*
X175927883Y-20459501D01*
X175927881Y-20459500D01*
X175927873Y-20459500D01*
X175927864Y-20459500D01*
X174132129Y-20459500D01*
X174132123Y-20459501D01*
X174072516Y-20465908D01*
X173937671Y-20516202D01*
X173937664Y-20516206D01*
X173822455Y-20602452D01*
X173822452Y-20602455D01*
X173736206Y-20717664D01*
X173736202Y-20717671D01*
X173685908Y-20852517D01*
X173679501Y-20912116D01*
X173679501Y-20912123D01*
X173679500Y-20912135D01*
X173679500Y-22047769D01*
X173659815Y-22114808D01*
X173643181Y-22135450D01*
X159702050Y-36076580D01*
X159702044Y-36076588D01*
X159652812Y-36150268D01*
X159652813Y-36150269D01*
X159619921Y-36199496D01*
X159619914Y-36199508D01*
X159563342Y-36336086D01*
X159563340Y-36336092D01*
X159534500Y-36481079D01*
X159534500Y-60266324D01*
X159514815Y-60333363D01*
X159498181Y-60354005D01*
X159271681Y-60580505D01*
X159210358Y-60613990D01*
X159140666Y-60609006D01*
X159084733Y-60567134D01*
X159060316Y-60501670D01*
X159060000Y-60492824D01*
X159060000Y-40560000D01*
X111060000Y-40560000D01*
X111060000Y-61500000D01*
X156584007Y-61500000D01*
X156651046Y-61519685D01*
X156696801Y-61572489D01*
X156706745Y-61641647D01*
X156704661Y-61652612D01*
X156702369Y-61662275D01*
X156690263Y-61691503D01*
X156663331Y-61826896D01*
X156662806Y-61829112D01*
X156646569Y-61857571D01*
X156631384Y-61886603D01*
X156629345Y-61887763D01*
X156628184Y-61889800D01*
X156599154Y-61904955D01*
X156570668Y-61921177D01*
X156567341Y-61921564D01*
X156566247Y-61922136D01*
X156564100Y-61921942D01*
X156542152Y-61924500D01*
X154488389Y-61924500D01*
X154367555Y-61948535D01*
X154367545Y-61948538D01*
X154253716Y-61995687D01*
X154253707Y-61995692D01*
X154151267Y-62064141D01*
X154151263Y-62064144D01*
X154064144Y-62151263D01*
X154064141Y-62151267D01*
X153995692Y-62253707D01*
X153995687Y-62253716D01*
X153948538Y-62367545D01*
X153948535Y-62367555D01*
X153924500Y-62488389D01*
X153924500Y-65876326D01*
X153904815Y-65943365D01*
X153888181Y-65964007D01*
X152568604Y-67283583D01*
X152507281Y-67317068D01*
X152437589Y-67312084D01*
X152381656Y-67270212D01*
X152366362Y-67243354D01*
X152309397Y-67105827D01*
X152309390Y-67105814D01*
X152221789Y-66974711D01*
X152221786Y-66974707D01*
X152110292Y-66863213D01*
X152110288Y-66863210D01*
X151979185Y-66775609D01*
X151979172Y-66775602D01*
X151833501Y-66715264D01*
X151833489Y-66715261D01*
X151722286Y-66693141D01*
X151705530Y-66684376D01*
X151687050Y-66680356D01*
X151662008Y-66661610D01*
X151660375Y-66660756D01*
X151658795Y-66659205D01*
X151571818Y-66572227D01*
X151538334Y-66510903D01*
X151535500Y-66484546D01*
X151535500Y-66282350D01*
X151555185Y-66215311D01*
X151556398Y-66213459D01*
X151559442Y-66208904D01*
X151619394Y-66119179D01*
X151679737Y-65973497D01*
X151692420Y-65909737D01*
X151698274Y-65880309D01*
X151730659Y-65818398D01*
X151791375Y-65783823D01*
X151819891Y-65780500D01*
X151908844Y-65780500D01*
X151908845Y-65780499D01*
X152063497Y-65749737D01*
X152209179Y-65689394D01*
X152340289Y-65601789D01*
X152451789Y-65490289D01*
X152539394Y-65359179D01*
X152599737Y-65213497D01*
X152630500Y-65058842D01*
X152630500Y-64901158D01*
X152630500Y-64901155D01*
X152630499Y-64901153D01*
X152602585Y-64760821D01*
X152599737Y-64746503D01*
X152585097Y-64711158D01*
X152539397Y-64600827D01*
X152539390Y-64600814D01*
X152451789Y-64469711D01*
X152451786Y-64469707D01*
X152340292Y-64358213D01*
X152340288Y-64358210D01*
X152209185Y-64270609D01*
X152209172Y-64270602D01*
X152063501Y-64210264D01*
X152063489Y-64210261D01*
X151952286Y-64188141D01*
X151902420Y-64165981D01*
X151895183Y-64160592D01*
X151878733Y-64144142D01*
X151826407Y-64109179D01*
X151776286Y-64075688D01*
X151776284Y-64075687D01*
X151776281Y-64075685D01*
X151687089Y-64038741D01*
X151687082Y-64038739D01*
X151679088Y-64035428D01*
X151662452Y-64028537D01*
X151602029Y-64016518D01*
X151598564Y-64015828D01*
X151598561Y-64015828D01*
X151541610Y-64004500D01*
X151541607Y-64004500D01*
X151541606Y-64004500D01*
X149410452Y-64004500D01*
X149343413Y-63984815D01*
X149322771Y-63968181D01*
X148693150Y-63338560D01*
X148685860Y-63331270D01*
X148685858Y-63331267D01*
X148598733Y-63244142D01*
X148547509Y-63209915D01*
X148496286Y-63175688D01*
X148406594Y-63138537D01*
X148382452Y-63128537D01*
X148300660Y-63112268D01*
X148297253Y-63111590D01*
X148297248Y-63111589D01*
X148275218Y-63107207D01*
X148261607Y-63104500D01*
X148261606Y-63104500D01*
X142362350Y-63104500D01*
X142295311Y-63084815D01*
X142293459Y-63083602D01*
X142199184Y-63020609D01*
X142199172Y-63020602D01*
X142053501Y-62960264D01*
X142053489Y-62960261D01*
X141898845Y-62929500D01*
X141898842Y-62929500D01*
X141741158Y-62929500D01*
X141741155Y-62929500D01*
X141586510Y-62960261D01*
X141586498Y-62960264D01*
X141440827Y-63020602D01*
X141440814Y-63020609D01*
X141309711Y-63108210D01*
X141309707Y-63108213D01*
X141198213Y-63219707D01*
X141198210Y-63219711D01*
X141110609Y-63350814D01*
X141110602Y-63350827D01*
X141050264Y-63496498D01*
X141050261Y-63496510D01*
X141019500Y-63651153D01*
X141019500Y-63675548D01*
X140999815Y-63742587D01*
X140947011Y-63788342D01*
X140877853Y-63798286D01*
X140814297Y-63769261D01*
X140807819Y-63763229D01*
X139783150Y-62738560D01*
X139775860Y-62731270D01*
X139775858Y-62731267D01*
X139688733Y-62644142D01*
X139637509Y-62609915D01*
X139586286Y-62575688D01*
X139586283Y-62575686D01*
X139586280Y-62575685D01*
X139513507Y-62545542D01*
X139513503Y-62545540D01*
X139505792Y-62542347D01*
X139472452Y-62528537D01*
X139381771Y-62510500D01*
X139378013Y-62509752D01*
X139378000Y-62509749D01*
X139351609Y-62504500D01*
X139351607Y-62504500D01*
X139351606Y-62504500D01*
X109454229Y-62504500D01*
X109430046Y-62502118D01*
X109426760Y-62501465D01*
X109396683Y-62495482D01*
X109366608Y-62489500D01*
X109366607Y-62489500D01*
X109366606Y-62489500D01*
X107696427Y-62489500D01*
X107629388Y-62469815D01*
X107583633Y-62417011D01*
X107573689Y-62347853D01*
X107581866Y-62318047D01*
X107592815Y-62291613D01*
X107621463Y-62222452D01*
X107645500Y-62101606D01*
X107645500Y-61978394D01*
X107621463Y-61857548D01*
X107574311Y-61743714D01*
X107574310Y-61743713D01*
X107574307Y-61743707D01*
X107505858Y-61641267D01*
X107505855Y-61641263D01*
X107418736Y-61554144D01*
X107418732Y-61554141D01*
X107316292Y-61485692D01*
X107316283Y-61485687D01*
X107217763Y-61444879D01*
X107202452Y-61438537D01*
X107202448Y-61438536D01*
X107202444Y-61438535D01*
X107081610Y-61414500D01*
X107081606Y-61414500D01*
X106931327Y-61414500D01*
X106931326Y-61414500D01*
X106808113Y-61414500D01*
X106738262Y-61428394D01*
X106738261Y-61428393D01*
X106687273Y-61438535D01*
X106687261Y-61438539D01*
X106671955Y-61444879D01*
X106671944Y-61444884D01*
X106667841Y-61446584D01*
X106573434Y-61485688D01*
X106528819Y-61515500D01*
X106522385Y-61519798D01*
X106522377Y-61519803D01*
X106471206Y-61553996D01*
X106471101Y-61554066D01*
X106470988Y-61554141D01*
X106470980Y-61554147D01*
X104373976Y-63651153D01*
X103711269Y-64313860D01*
X103711267Y-64313862D01*
X103684326Y-64340803D01*
X103624142Y-64400986D01*
X103597036Y-64441553D01*
X103597033Y-64441557D01*
X103593031Y-64447548D01*
X103555688Y-64503434D01*
X103539527Y-64542451D01*
X103516356Y-64598393D01*
X103514457Y-64602976D01*
X103514450Y-64602991D01*
X103508539Y-64617260D01*
X103508538Y-64617265D01*
X103486434Y-64728394D01*
X103484500Y-64738116D01*
X103484500Y-65777650D01*
X103464815Y-65844689D01*
X103463626Y-65846503D01*
X103452702Y-65862853D01*
X103400609Y-65940815D01*
X103400602Y-65940828D01*
X103340264Y-66086498D01*
X103340261Y-66086510D01*
X103309500Y-66241153D01*
X103309500Y-66398846D01*
X103340261Y-66553489D01*
X103340264Y-66553501D01*
X103400602Y-66699172D01*
X103400609Y-66699185D01*
X103488210Y-66830288D01*
X103488213Y-66830292D01*
X103599707Y-66941786D01*
X103599711Y-66941789D01*
X103730814Y-67029390D01*
X103730827Y-67029397D01*
X103838737Y-67074094D01*
X103876503Y-67089737D01*
X104031153Y-67120499D01*
X104031156Y-67120500D01*
X104031158Y-67120500D01*
X104188844Y-67120500D01*
X104188845Y-67120499D01*
X104343497Y-67089737D01*
X104489179Y-67029394D01*
X104620289Y-66941789D01*
X104731789Y-66830289D01*
X104819394Y-66699179D01*
X104824935Y-66685803D01*
X104842589Y-66643181D01*
X104879737Y-66553497D01*
X104910500Y-66398842D01*
X104910500Y-66241158D01*
X104910500Y-66241155D01*
X104910499Y-66241153D01*
X104893318Y-66154780D01*
X104879737Y-66086503D01*
X104832929Y-65973497D01*
X104819397Y-65940828D01*
X104819396Y-65940827D01*
X104819394Y-65940821D01*
X104756397Y-65846539D01*
X104735520Y-65779863D01*
X104735500Y-65777650D01*
X104735500Y-65110172D01*
X104744144Y-65080731D01*
X104750668Y-65050745D01*
X104754422Y-65045729D01*
X104755185Y-65043133D01*
X104771819Y-65022491D01*
X104777819Y-65016491D01*
X104839142Y-64983006D01*
X104908834Y-64987990D01*
X104964767Y-65029862D01*
X104989184Y-65095326D01*
X104989500Y-65104172D01*
X104989500Y-65114374D01*
X105013438Y-65234724D01*
X105013537Y-65235219D01*
X105029127Y-65272858D01*
X105060689Y-65349056D01*
X105068305Y-65360454D01*
X105084486Y-65384669D01*
X105129142Y-65451501D01*
X105216267Y-65538626D01*
X105216270Y-65538628D01*
X105224013Y-65546371D01*
X107378248Y-67700606D01*
X107378277Y-67700637D01*
X107468496Y-67790856D01*
X107468499Y-67790858D01*
X107518848Y-67824500D01*
X107570946Y-67859312D01*
X107629905Y-67883733D01*
X107635501Y-67886050D01*
X107635503Y-67886052D01*
X107655242Y-67894227D01*
X107684780Y-67906463D01*
X107745203Y-67918481D01*
X107805625Y-67930500D01*
X107805626Y-67930500D01*
X113048771Y-67930500D01*
X113115810Y-67950185D01*
X113161565Y-68002989D01*
X113171509Y-68072147D01*
X113142484Y-68135703D01*
X113136452Y-68142181D01*
X111387052Y-69891578D01*
X111387049Y-69891581D01*
X111347636Y-69950567D01*
X111347637Y-69950568D01*
X111304914Y-70014508D01*
X111248343Y-70151082D01*
X111248340Y-70151092D01*
X111219500Y-70296079D01*
X111219500Y-75146211D01*
X111199815Y-75213250D01*
X111147011Y-75259005D01*
X111077853Y-75268949D01*
X111026616Y-75249318D01*
X111020962Y-75245540D01*
X111020958Y-75245538D01*
X111014403Y-75241158D01*
X110976286Y-75215688D01*
X110889508Y-75179744D01*
X110885533Y-75178097D01*
X110885524Y-75178093D01*
X110862455Y-75168538D01*
X110862453Y-75168537D01*
X110862452Y-75168537D01*
X110802029Y-75156518D01*
X110741610Y-75144500D01*
X110741607Y-75144500D01*
X110741606Y-75144500D01*
X109342350Y-75144500D01*
X109275311Y-75124815D01*
X109273459Y-75123602D01*
X109179184Y-75060609D01*
X109179172Y-75060602D01*
X109033501Y-75000264D01*
X109033489Y-75000261D01*
X108878845Y-74969500D01*
X108878842Y-74969500D01*
X108721158Y-74969500D01*
X108721155Y-74969500D01*
X108566510Y-75000261D01*
X108566498Y-75000264D01*
X108420827Y-75060602D01*
X108420814Y-75060609D01*
X108289711Y-75148210D01*
X108289707Y-75148213D01*
X108178213Y-75259707D01*
X108178210Y-75259711D01*
X108090609Y-75390814D01*
X108090602Y-75390827D01*
X108030264Y-75536498D01*
X108030261Y-75536510D01*
X107999500Y-75691153D01*
X107999500Y-75848846D01*
X108030261Y-76003489D01*
X108030264Y-76003501D01*
X108090602Y-76149172D01*
X108090609Y-76149185D01*
X108178210Y-76280288D01*
X108178213Y-76280292D01*
X108289707Y-76391786D01*
X108289711Y-76391789D01*
X108420814Y-76479390D01*
X108420827Y-76479397D01*
X108538249Y-76528034D01*
X108566503Y-76539737D01*
X108721153Y-76570499D01*
X108721156Y-76570500D01*
X108721158Y-76570500D01*
X108878844Y-76570500D01*
X108878845Y-76570499D01*
X109033497Y-76539737D01*
X109178414Y-76479711D01*
X109179172Y-76479397D01*
X109179172Y-76479396D01*
X109179179Y-76479394D01*
X109273459Y-76416398D01*
X109340136Y-76395520D01*
X109342350Y-76395500D01*
X110224096Y-76395500D01*
X110291135Y-76415185D01*
X110336890Y-76467989D01*
X110338657Y-76472048D01*
X110370602Y-76549172D01*
X110370609Y-76549185D01*
X110458210Y-76680288D01*
X110458213Y-76680292D01*
X110569707Y-76791786D01*
X110569711Y-76791789D01*
X110700814Y-76879390D01*
X110700827Y-76879397D01*
X110846498Y-76939735D01*
X110846503Y-76939737D01*
X110940499Y-76958434D01*
X111001153Y-76970499D01*
X111001156Y-76970500D01*
X111095500Y-76970500D01*
X111162539Y-76990185D01*
X111208294Y-77042989D01*
X111219500Y-77094500D01*
X111219500Y-79247770D01*
X111199815Y-79314809D01*
X111183181Y-79335451D01*
X110565451Y-79953181D01*
X110504128Y-79986666D01*
X110477770Y-79989500D01*
X106224500Y-79989500D01*
X106215814Y-79986949D01*
X106206853Y-79988238D01*
X106182812Y-79977259D01*
X106157461Y-79969815D01*
X106151533Y-79962974D01*
X106143297Y-79959213D01*
X106129007Y-79936978D01*
X106111706Y-79917011D01*
X106109418Y-79906496D01*
X106105523Y-79900435D01*
X106100500Y-79865500D01*
X106100500Y-79825416D01*
X106120185Y-79758377D01*
X106151613Y-79725099D01*
X106197219Y-79691966D01*
X106341966Y-79547219D01*
X106341968Y-79547215D01*
X106341971Y-79547213D01*
X106418697Y-79441607D01*
X106462287Y-79381610D01*
X106555220Y-79199219D01*
X106618477Y-79004534D01*
X106650500Y-78802352D01*
X106650500Y-78597648D01*
X106644458Y-78559500D01*
X106618477Y-78395465D01*
X106580838Y-78279625D01*
X106555220Y-78200781D01*
X106555218Y-78200778D01*
X106555218Y-78200776D01*
X106508912Y-78109896D01*
X106462287Y-78018390D01*
X106448596Y-77999546D01*
X106341971Y-77852786D01*
X106197213Y-77708028D01*
X106031613Y-77587715D01*
X106031612Y-77587714D01*
X106031610Y-77587713D01*
X105936987Y-77539500D01*
X105849223Y-77494781D01*
X105654534Y-77431522D01*
X105460755Y-77400831D01*
X105452352Y-77399500D01*
X105247648Y-77399500D01*
X105239245Y-77400831D01*
X105045465Y-77431522D01*
X104850776Y-77494781D01*
X104668386Y-77587715D01*
X104502786Y-77708028D01*
X104358028Y-77852786D01*
X104237715Y-78018386D01*
X104144781Y-78200776D01*
X104081522Y-78395465D01*
X104055022Y-78562782D01*
X104049500Y-78597648D01*
X104049500Y-78802352D01*
X104051300Y-78813714D01*
X104081522Y-79004534D01*
X104144781Y-79199223D01*
X104193655Y-79295141D01*
X104227010Y-79360605D01*
X104237715Y-79381613D01*
X104358028Y-79547213D01*
X104358034Y-79547219D01*
X104502781Y-79691966D01*
X104548384Y-79725098D01*
X104551724Y-79729429D01*
X104556703Y-79731703D01*
X104572832Y-79756801D01*
X104591050Y-79780425D01*
X104592303Y-79787098D01*
X104594477Y-79790481D01*
X104599500Y-79825416D01*
X104599500Y-79867769D01*
X104579815Y-79934808D01*
X104563181Y-79955450D01*
X104527052Y-79991578D01*
X104527046Y-79991585D01*
X104481668Y-80059499D01*
X104481669Y-80059500D01*
X104444913Y-80114508D01*
X104388343Y-80251082D01*
X104388340Y-80251092D01*
X104359500Y-80396079D01*
X104359500Y-80396082D01*
X104359500Y-80813918D01*
X104359500Y-80813920D01*
X104359499Y-80813920D01*
X104388340Y-80958907D01*
X104388343Y-80958917D01*
X104444912Y-81095488D01*
X104444919Y-81095501D01*
X104527048Y-81218415D01*
X104527051Y-81218419D01*
X104631580Y-81322948D01*
X104631584Y-81322951D01*
X104754498Y-81405080D01*
X104754511Y-81405087D01*
X104890655Y-81461479D01*
X104891087Y-81461658D01*
X104891091Y-81461658D01*
X104891092Y-81461659D01*
X105036079Y-81490500D01*
X105036082Y-81490500D01*
X110913920Y-81490500D01*
X111058903Y-81461660D01*
X111058903Y-81461659D01*
X111058913Y-81461658D01*
X111058922Y-81461654D01*
X111059501Y-81461479D01*
X111059829Y-81461476D01*
X111064887Y-81460470D01*
X111065077Y-81461429D01*
X111129368Y-81460854D01*
X111188482Y-81498100D01*
X111218075Y-81561394D01*
X111219500Y-81580139D01*
X111219500Y-88875877D01*
X111199815Y-88942916D01*
X111147011Y-88988671D01*
X111077853Y-88998615D01*
X111026609Y-88978979D01*
X110969185Y-88940609D01*
X110969172Y-88940602D01*
X110823501Y-88880264D01*
X110823489Y-88880261D01*
X110668845Y-88849500D01*
X110668842Y-88849500D01*
X110511158Y-88849500D01*
X110511155Y-88849500D01*
X110356510Y-88880261D01*
X110356498Y-88880264D01*
X110210827Y-88940602D01*
X110210814Y-88940609D01*
X110079711Y-89028210D01*
X110079707Y-89028213D01*
X109968213Y-89139707D01*
X109968210Y-89139711D01*
X109880609Y-89270814D01*
X109880602Y-89270827D01*
X109820264Y-89416498D01*
X109820261Y-89416508D01*
X109798141Y-89527714D01*
X109765756Y-89589625D01*
X109764205Y-89591203D01*
X109377229Y-89978181D01*
X109315906Y-90011666D01*
X109289548Y-90014500D01*
X105882350Y-90014500D01*
X105815311Y-89994815D01*
X105813459Y-89993602D01*
X105719184Y-89930609D01*
X105719172Y-89930602D01*
X105573501Y-89870264D01*
X105573489Y-89870261D01*
X105418845Y-89839500D01*
X105418842Y-89839500D01*
X105261158Y-89839500D01*
X105261155Y-89839500D01*
X105106510Y-89870261D01*
X105106498Y-89870264D01*
X104960827Y-89930602D01*
X104960814Y-89930609D01*
X104829711Y-90018210D01*
X104829707Y-90018213D01*
X104718213Y-90129707D01*
X104718210Y-90129711D01*
X104630609Y-90260814D01*
X104630602Y-90260827D01*
X104570264Y-90406498D01*
X104570261Y-90406510D01*
X104539500Y-90561153D01*
X104539500Y-90718846D01*
X104570261Y-90873489D01*
X104570264Y-90873501D01*
X104630602Y-91019172D01*
X104630609Y-91019185D01*
X104718210Y-91150288D01*
X104718213Y-91150292D01*
X104829707Y-91261786D01*
X104829711Y-91261789D01*
X104960814Y-91349390D01*
X104960827Y-91349397D01*
X105106498Y-91409735D01*
X105106503Y-91409737D01*
X105261153Y-91440499D01*
X105261156Y-91440500D01*
X105261158Y-91440500D01*
X105418844Y-91440500D01*
X105418845Y-91440499D01*
X105573497Y-91409737D01*
X105719179Y-91349394D01*
X105813459Y-91286398D01*
X105880136Y-91265520D01*
X105882350Y-91265500D01*
X109661607Y-91265500D01*
X109722029Y-91253481D01*
X109782452Y-91241463D01*
X109815792Y-91227652D01*
X109896286Y-91194312D01*
X109947509Y-91160084D01*
X109998733Y-91125858D01*
X110085858Y-91038733D01*
X110085858Y-91038731D01*
X110096066Y-91028524D01*
X110096068Y-91028521D01*
X110648797Y-90475791D01*
X110665395Y-90466728D01*
X110679005Y-90453597D01*
X110708494Y-90443194D01*
X110710118Y-90442308D01*
X110712169Y-90441880D01*
X110741398Y-90436067D01*
X110810988Y-90442297D01*
X110866164Y-90485161D01*
X110889406Y-90551052D01*
X110873336Y-90619048D01*
X110853265Y-90645366D01*
X102197052Y-99301578D01*
X102197049Y-99301581D01*
X102160497Y-99356285D01*
X102160498Y-99356286D01*
X102114914Y-99424508D01*
X102058343Y-99561082D01*
X102058340Y-99561092D01*
X102029500Y-99706079D01*
X102029500Y-99706082D01*
X102029500Y-99863918D01*
X102029500Y-99863920D01*
X102029499Y-99863920D01*
X102058340Y-100008907D01*
X102058343Y-100008917D01*
X102114912Y-100145488D01*
X102114918Y-100145499D01*
X102124939Y-100160495D01*
X102124941Y-100160500D01*
X102197046Y-100268414D01*
X102197052Y-100268421D01*
X105726451Y-103797819D01*
X105759936Y-103859142D01*
X105754952Y-103928834D01*
X105713080Y-103984767D01*
X105647616Y-104009184D01*
X105638770Y-104009500D01*
X104830097Y-104009500D01*
X104763058Y-103989815D01*
X104742416Y-103973181D01*
X101417590Y-100648355D01*
X101417588Y-100648352D01*
X101298717Y-100529481D01*
X101298716Y-100529480D01*
X101211904Y-100479360D01*
X101211904Y-100479359D01*
X101211900Y-100479358D01*
X101161785Y-100450423D01*
X101009057Y-100409499D01*
X100850943Y-100409499D01*
X100843347Y-100409499D01*
X100843331Y-100409500D01*
X89499766Y-100409500D01*
X89432727Y-100389815D01*
X89430875Y-100388602D01*
X89299185Y-100300609D01*
X89299172Y-100300602D01*
X89153501Y-100240264D01*
X89153489Y-100240261D01*
X88998845Y-100209500D01*
X88998842Y-100209500D01*
X88841158Y-100209500D01*
X88841155Y-100209500D01*
X88686510Y-100240261D01*
X88686498Y-100240264D01*
X88540827Y-100300602D01*
X88540814Y-100300609D01*
X88409711Y-100388210D01*
X88409707Y-100388213D01*
X88298213Y-100499707D01*
X88298210Y-100499711D01*
X88210609Y-100630814D01*
X88210602Y-100630827D01*
X88150264Y-100776498D01*
X88150261Y-100776510D01*
X88119500Y-100931153D01*
X70820500Y-100931153D01*
X70820500Y-95509983D01*
X76499500Y-95509983D01*
X76499500Y-96710001D01*
X76499501Y-96710018D01*
X76510000Y-96812796D01*
X76510001Y-96812799D01*
X76565185Y-96979331D01*
X76565187Y-96979336D01*
X76569346Y-96986079D01*
X76657288Y-97128656D01*
X76781344Y-97252712D01*
X76930666Y-97344814D01*
X77097203Y-97399999D01*
X77199991Y-97410500D01*
X78400008Y-97410499D01*
X78502797Y-97399999D01*
X78669334Y-97344814D01*
X78818656Y-97252712D01*
X78942712Y-97128656D01*
X78959676Y-97101153D01*
X85769500Y-97101153D01*
X85769500Y-97258846D01*
X85800261Y-97413489D01*
X85800264Y-97413501D01*
X85860602Y-97559172D01*
X85860609Y-97559184D01*
X85923602Y-97653459D01*
X85944480Y-97720136D01*
X85944500Y-97722350D01*
X85944500Y-99121606D01*
X85968537Y-99242452D01*
X85968538Y-99242455D01*
X85968539Y-99242459D01*
X85974609Y-99257112D01*
X85974616Y-99257128D01*
X85975599Y-99259500D01*
X86015688Y-99356286D01*
X86026334Y-99372218D01*
X86031683Y-99380224D01*
X86031684Y-99380225D01*
X86084140Y-99458731D01*
X86084141Y-99458732D01*
X86084142Y-99458733D01*
X86171267Y-99545858D01*
X86171268Y-99545858D01*
X86171268Y-99545859D01*
X86322727Y-99697318D01*
X86334141Y-99708732D01*
X86334142Y-99708733D01*
X86421267Y-99795858D01*
X86492621Y-99843535D01*
X86523714Y-99864311D01*
X86637548Y-99911463D01*
X86758388Y-99935499D01*
X86758392Y-99935500D01*
X86758393Y-99935500D01*
X97191607Y-99935500D01*
X97191608Y-99935499D01*
X97312452Y-99911463D01*
X97426286Y-99864311D01*
X97528733Y-99795858D01*
X97615858Y-99708733D01*
X97684311Y-99606286D01*
X97731463Y-99492452D01*
X97755500Y-99371606D01*
X97755500Y-86828394D01*
X97753578Y-86818733D01*
X97753577Y-86818726D01*
X97753577Y-86818725D01*
X97732114Y-86710821D01*
X97731463Y-86707548D01*
X97684311Y-86593714D01*
X97648227Y-86539711D01*
X97615858Y-86491267D01*
X97528733Y-86404142D01*
X97528732Y-86404141D01*
X90971819Y-79847228D01*
X90938334Y-79785905D01*
X90935500Y-79759547D01*
X90935500Y-68441902D01*
X91909500Y-68441902D01*
X91909500Y-68678097D01*
X91946446Y-68911368D01*
X92019433Y-69135996D01*
X92082201Y-69259184D01*
X92126657Y-69346433D01*
X92265483Y-69537510D01*
X92432490Y-69704517D01*
X92623567Y-69843343D01*
X92718234Y-69891578D01*
X92834003Y-69950566D01*
X92834005Y-69950566D01*
X92834008Y-69950568D01*
X92954412Y-69989689D01*
X93058631Y-70023553D01*
X93291903Y-70060500D01*
X93291908Y-70060500D01*
X93528097Y-70060500D01*
X93761368Y-70023553D01*
X93985992Y-69950568D01*
X94196433Y-69843343D01*
X94387510Y-69704517D01*
X94554517Y-69537510D01*
X94693343Y-69346433D01*
X94800568Y-69135992D01*
X94873553Y-68911368D01*
X94883344Y-68849548D01*
X94910500Y-68678097D01*
X94910500Y-68441902D01*
X98409500Y-68441902D01*
X98409500Y-68678097D01*
X98446446Y-68911368D01*
X98519433Y-69135996D01*
X98582201Y-69259184D01*
X98626657Y-69346433D01*
X98765483Y-69537510D01*
X98932490Y-69704517D01*
X99123567Y-69843343D01*
X99218234Y-69891578D01*
X99334003Y-69950566D01*
X99334005Y-69950566D01*
X99334008Y-69950568D01*
X99454412Y-69989689D01*
X99558631Y-70023553D01*
X99791903Y-70060500D01*
X99791908Y-70060500D01*
X100028097Y-70060500D01*
X100261368Y-70023553D01*
X100485992Y-69950568D01*
X100696433Y-69843343D01*
X100887510Y-69704517D01*
X101054517Y-69537510D01*
X101193343Y-69346433D01*
X101300568Y-69135992D01*
X101373553Y-68911368D01*
X101383344Y-68849548D01*
X101410500Y-68678097D01*
X101410500Y-68441902D01*
X101409826Y-68437648D01*
X104049500Y-68437648D01*
X104049500Y-68642352D01*
X104050159Y-68646510D01*
X104081522Y-68844534D01*
X104144781Y-69039223D01*
X104194088Y-69135992D01*
X104216820Y-69180606D01*
X104237715Y-69221613D01*
X104358028Y-69387213D01*
X104502786Y-69531971D01*
X104657749Y-69644556D01*
X104668390Y-69652287D01*
X104770891Y-69704514D01*
X104850776Y-69745218D01*
X104850778Y-69745218D01*
X104850781Y-69745220D01*
X104955137Y-69779127D01*
X105045465Y-69808477D01*
X105146557Y-69824488D01*
X105247648Y-69840500D01*
X105247649Y-69840500D01*
X105452351Y-69840500D01*
X105452352Y-69840500D01*
X105654534Y-69808477D01*
X105849219Y-69745220D01*
X106031610Y-69652287D01*
X106189586Y-69537512D01*
X106197213Y-69531971D01*
X106197215Y-69531968D01*
X106197219Y-69531966D01*
X106341966Y-69387219D01*
X106341968Y-69387215D01*
X106341971Y-69387213D01*
X106428428Y-69268213D01*
X106462287Y-69221610D01*
X106555220Y-69039219D01*
X106618477Y-68844534D01*
X106650500Y-68642352D01*
X106650500Y-68437648D01*
X106626085Y-68283501D01*
X106618477Y-68235465D01*
X106568834Y-68082681D01*
X106555220Y-68040781D01*
X106555218Y-68040778D01*
X106555218Y-68040776D01*
X106519743Y-67971153D01*
X106462287Y-67858390D01*
X106431851Y-67816498D01*
X106341971Y-67692786D01*
X106197213Y-67548028D01*
X106031613Y-67427715D01*
X106031612Y-67427714D01*
X106031610Y-67427713D01*
X105934320Y-67378141D01*
X105849223Y-67334781D01*
X105654534Y-67271522D01*
X105476685Y-67243354D01*
X105452352Y-67239500D01*
X105247648Y-67239500D01*
X105223329Y-67243351D01*
X105045465Y-67271522D01*
X104850776Y-67334781D01*
X104668386Y-67427715D01*
X104502786Y-67548028D01*
X104358028Y-67692786D01*
X104237715Y-67858386D01*
X104144781Y-68040776D01*
X104081522Y-68235465D01*
X104063070Y-68351971D01*
X104049500Y-68437648D01*
X101409826Y-68437648D01*
X101373553Y-68208631D01*
X101321149Y-68047350D01*
X101300568Y-67984008D01*
X101300566Y-67984005D01*
X101300566Y-67984003D01*
X101220476Y-67826818D01*
X101193343Y-67773567D01*
X101054517Y-67582490D01*
X100887510Y-67415483D01*
X100696433Y-67276657D01*
X100686355Y-67271522D01*
X100485996Y-67169433D01*
X100261368Y-67096446D01*
X100028097Y-67059500D01*
X100028092Y-67059500D01*
X99791908Y-67059500D01*
X99791903Y-67059500D01*
X99558631Y-67096446D01*
X99334003Y-67169433D01*
X99123566Y-67276657D01*
X99039297Y-67337883D01*
X98932490Y-67415483D01*
X98932488Y-67415485D01*
X98932487Y-67415485D01*
X98765485Y-67582487D01*
X98765485Y-67582488D01*
X98765483Y-67582490D01*
X98707437Y-67662383D01*
X98626657Y-67773566D01*
X98519433Y-67984003D01*
X98446446Y-68208631D01*
X98409500Y-68441902D01*
X94910500Y-68441902D01*
X94873553Y-68208631D01*
X94821149Y-68047350D01*
X94800568Y-67984008D01*
X94800566Y-67984005D01*
X94800566Y-67984003D01*
X94720476Y-67826818D01*
X94693343Y-67773567D01*
X94554517Y-67582490D01*
X94387510Y-67415483D01*
X94196433Y-67276657D01*
X94186355Y-67271522D01*
X93985996Y-67169433D01*
X93761368Y-67096446D01*
X93528097Y-67059500D01*
X93528092Y-67059500D01*
X93291908Y-67059500D01*
X93291903Y-67059500D01*
X93058631Y-67096446D01*
X92834003Y-67169433D01*
X92623566Y-67276657D01*
X92539297Y-67337883D01*
X92432490Y-67415483D01*
X92432488Y-67415485D01*
X92432487Y-67415485D01*
X92265485Y-67582487D01*
X92265485Y-67582488D01*
X92265483Y-67582490D01*
X92207437Y-67662383D01*
X92126657Y-67773566D01*
X92019433Y-67984003D01*
X91946446Y-68208631D01*
X91909500Y-68441902D01*
X90935500Y-68441902D01*
X90935500Y-62032350D01*
X90955185Y-61965311D01*
X90956398Y-61963459D01*
X90966368Y-61948538D01*
X91019394Y-61869179D01*
X91079737Y-61723497D01*
X91110500Y-61568842D01*
X91110500Y-61507648D01*
X100719500Y-61507648D01*
X100719500Y-61712351D01*
X100751522Y-61914534D01*
X100814781Y-62109223D01*
X100860398Y-62198750D01*
X100888400Y-62253707D01*
X100907715Y-62291613D01*
X101028028Y-62457213D01*
X101172786Y-62601971D01*
X101311641Y-62702853D01*
X101338390Y-62722287D01*
X101435979Y-62772011D01*
X101520776Y-62815218D01*
X101520778Y-62815218D01*
X101520781Y-62815220D01*
X101610834Y-62844480D01*
X101715465Y-62878477D01*
X101816557Y-62894488D01*
X101917648Y-62910500D01*
X101917649Y-62910500D01*
X102122351Y-62910500D01*
X102122352Y-62910500D01*
X102324534Y-62878477D01*
X102519219Y-62815220D01*
X102701610Y-62722287D01*
X102815837Y-62639297D01*
X102867213Y-62601971D01*
X102867215Y-62601968D01*
X102867219Y-62601966D01*
X103011966Y-62457219D01*
X103011968Y-62457215D01*
X103011971Y-62457213D01*
X103103794Y-62330827D01*
X103132287Y-62291610D01*
X103225220Y-62109219D01*
X103288477Y-61914534D01*
X103320500Y-61712352D01*
X103320500Y-61507648D01*
X103305217Y-61411155D01*
X103288477Y-61305465D01*
X103241976Y-61162351D01*
X103225220Y-61110781D01*
X103225218Y-61110778D01*
X103225218Y-61110776D01*
X103158434Y-60979707D01*
X103132287Y-60928390D01*
X103124556Y-60917749D01*
X103011971Y-60762786D01*
X102867213Y-60618028D01*
X102701613Y-60497715D01*
X102701612Y-60497714D01*
X102701610Y-60497713D01*
X102644653Y-60468691D01*
X102519223Y-60404781D01*
X102324534Y-60341522D01*
X102149995Y-60313878D01*
X102122352Y-60309500D01*
X101917648Y-60309500D01*
X101893329Y-60313351D01*
X101715465Y-60341522D01*
X101520776Y-60404781D01*
X101338386Y-60497715D01*
X101172786Y-60618028D01*
X101028028Y-60762786D01*
X100907715Y-60928386D01*
X100814781Y-61110776D01*
X100751522Y-61305465D01*
X100719500Y-61507648D01*
X91110500Y-61507648D01*
X91110500Y-61411158D01*
X91110500Y-61411155D01*
X91110499Y-61411153D01*
X91089476Y-61305465D01*
X91079737Y-61256503D01*
X91040739Y-61162352D01*
X91019397Y-61110827D01*
X91019390Y-61110814D01*
X90931789Y-60979711D01*
X90931786Y-60979707D01*
X90820292Y-60868213D01*
X90820288Y-60868210D01*
X90689185Y-60780609D01*
X90689172Y-60780602D01*
X90543501Y-60720264D01*
X90543489Y-60720261D01*
X90388845Y-60689500D01*
X90388842Y-60689500D01*
X90231158Y-60689500D01*
X90231155Y-60689500D01*
X90076510Y-60720261D01*
X90076498Y-60720264D01*
X89930827Y-60780602D01*
X89930814Y-60780609D01*
X89799711Y-60868210D01*
X89799707Y-60868213D01*
X89688213Y-60979707D01*
X89688210Y-60979711D01*
X89600609Y-61110814D01*
X89600602Y-61110827D01*
X89540264Y-61256498D01*
X89540261Y-61256510D01*
X89509500Y-61411153D01*
X89509500Y-61568846D01*
X89540261Y-61723489D01*
X89540264Y-61723501D01*
X89600602Y-61869172D01*
X89600609Y-61869184D01*
X89663602Y-61963459D01*
X89684480Y-62030136D01*
X89684500Y-62032350D01*
X89684500Y-80131606D01*
X89708537Y-80252452D01*
X89712320Y-80261584D01*
X89755688Y-80366286D01*
X89783260Y-80407549D01*
X89787803Y-80414348D01*
X89824140Y-80468731D01*
X89824141Y-80468732D01*
X89824142Y-80468733D01*
X89911267Y-80555858D01*
X89911268Y-80555858D01*
X89918335Y-80562925D01*
X89918334Y-80562925D01*
X89918338Y-80562928D01*
X96468181Y-87112771D01*
X96501666Y-87174094D01*
X96504500Y-87200452D01*
X96504500Y-98560500D01*
X96484815Y-98627539D01*
X96432011Y-98673294D01*
X96380500Y-98684500D01*
X87319500Y-98684500D01*
X87252461Y-98664815D01*
X87206706Y-98612011D01*
X87195500Y-98560500D01*
X87195500Y-97722350D01*
X87215185Y-97655311D01*
X87216398Y-97653459D01*
X87216809Y-97652843D01*
X87279394Y-97559179D01*
X87339737Y-97413497D01*
X87370500Y-97258842D01*
X87370500Y-97101158D01*
X87370500Y-97101155D01*
X87370499Y-97101153D01*
X87358497Y-97040814D01*
X87339737Y-96946503D01*
X87339735Y-96946498D01*
X87279397Y-96800827D01*
X87279390Y-96800814D01*
X87191789Y-96669711D01*
X87191786Y-96669707D01*
X87080292Y-96558213D01*
X87080288Y-96558210D01*
X86949185Y-96470609D01*
X86949172Y-96470602D01*
X86803501Y-96410264D01*
X86803489Y-96410261D01*
X86648845Y-96379500D01*
X86648842Y-96379500D01*
X86491158Y-96379500D01*
X86491155Y-96379500D01*
X86336510Y-96410261D01*
X86336498Y-96410264D01*
X86190827Y-96470602D01*
X86190814Y-96470609D01*
X86059711Y-96558210D01*
X86059707Y-96558213D01*
X85948213Y-96669707D01*
X85948210Y-96669711D01*
X85860609Y-96800814D01*
X85860602Y-96800827D01*
X85800264Y-96946498D01*
X85800261Y-96946510D01*
X85769500Y-97101153D01*
X78959676Y-97101153D01*
X79034814Y-96979334D01*
X79089999Y-96812797D01*
X79100500Y-96710009D01*
X79100499Y-95509992D01*
X79089999Y-95407203D01*
X79034814Y-95240666D01*
X78942712Y-95091344D01*
X78818656Y-94967288D01*
X78669334Y-94875186D01*
X78502797Y-94820001D01*
X78502795Y-94820000D01*
X78400010Y-94809500D01*
X77199998Y-94809500D01*
X77199981Y-94809501D01*
X77097203Y-94820000D01*
X77097200Y-94820001D01*
X76930668Y-94875185D01*
X76930663Y-94875187D01*
X76781342Y-94967289D01*
X76657289Y-95091342D01*
X76565187Y-95240663D01*
X76565186Y-95240666D01*
X76510001Y-95407203D01*
X76510001Y-95407204D01*
X76510000Y-95407204D01*
X76499500Y-95509983D01*
X70820500Y-95509983D01*
X70820500Y-86499983D01*
X76574388Y-86499983D01*
X76574388Y-87700001D01*
X76574389Y-87700018D01*
X76584888Y-87802796D01*
X76584889Y-87802799D01*
X76613951Y-87890500D01*
X76640074Y-87969334D01*
X76732176Y-88118656D01*
X76856232Y-88242712D01*
X77005554Y-88334814D01*
X77172091Y-88389999D01*
X77274879Y-88400500D01*
X78474896Y-88400499D01*
X78577685Y-88389999D01*
X78744222Y-88334814D01*
X78893544Y-88242712D01*
X79017600Y-88118656D01*
X79109702Y-87969334D01*
X79164887Y-87802797D01*
X79175388Y-87700009D01*
X79175387Y-86499992D01*
X79164887Y-86397203D01*
X79109702Y-86230666D01*
X79017600Y-86081344D01*
X78893544Y-85957288D01*
X78770871Y-85881623D01*
X78744224Y-85865187D01*
X78744219Y-85865185D01*
X78742750Y-85864698D01*
X78577685Y-85810001D01*
X78577683Y-85810000D01*
X78474898Y-85799500D01*
X77274886Y-85799500D01*
X77274869Y-85799501D01*
X77172091Y-85810000D01*
X77172088Y-85810001D01*
X77005556Y-85865185D01*
X77005551Y-85865187D01*
X76856230Y-85957289D01*
X76732177Y-86081342D01*
X76640075Y-86230663D01*
X76640074Y-86230666D01*
X76584889Y-86397203D01*
X76584889Y-86397204D01*
X76584888Y-86397204D01*
X76574388Y-86499983D01*
X70820500Y-86499983D01*
X70820500Y-77417648D01*
X72539500Y-77417648D01*
X72539500Y-77622351D01*
X72571522Y-77824534D01*
X72634781Y-78019223D01*
X72679251Y-78106498D01*
X72727288Y-78200776D01*
X72727715Y-78201613D01*
X72848028Y-78367213D01*
X72992786Y-78511971D01*
X73096712Y-78587476D01*
X73158390Y-78632287D01*
X73254980Y-78681502D01*
X73340776Y-78725218D01*
X73340778Y-78725218D01*
X73340781Y-78725220D01*
X73430896Y-78754500D01*
X73535465Y-78788477D01*
X73623068Y-78802352D01*
X73737648Y-78820500D01*
X73737649Y-78820500D01*
X73942351Y-78820500D01*
X73942352Y-78820500D01*
X74144534Y-78788477D01*
X74339219Y-78725220D01*
X74521610Y-78632287D01*
X74660717Y-78531221D01*
X74687213Y-78511971D01*
X74687215Y-78511968D01*
X74687219Y-78511966D01*
X74831966Y-78367219D01*
X74831968Y-78367215D01*
X74831971Y-78367213D01*
X74895606Y-78279625D01*
X74952287Y-78201610D01*
X75045220Y-78019219D01*
X75108477Y-77824534D01*
X75140500Y-77622352D01*
X75140500Y-77417648D01*
X75123104Y-77307816D01*
X75108477Y-77215465D01*
X75045218Y-77020776D01*
X74989364Y-76911158D01*
X74952287Y-76838390D01*
X74918430Y-76791789D01*
X74831971Y-76672786D01*
X74687213Y-76528028D01*
X74521613Y-76407715D01*
X74521612Y-76407714D01*
X74521610Y-76407713D01*
X74444081Y-76368210D01*
X74339223Y-76314781D01*
X74144534Y-76251522D01*
X73969995Y-76223878D01*
X73942352Y-76219500D01*
X73737648Y-76219500D01*
X73732831Y-76220263D01*
X73535465Y-76251522D01*
X73340776Y-76314781D01*
X73158386Y-76407715D01*
X72992786Y-76528028D01*
X72848028Y-76672786D01*
X72727715Y-76838386D01*
X72634781Y-77020776D01*
X72571522Y-77215465D01*
X72539500Y-77417648D01*
X70820500Y-77417648D01*
X70820500Y-73191902D01*
X77329500Y-73191902D01*
X77329500Y-73428097D01*
X77366446Y-73661368D01*
X77439433Y-73885996D01*
X77536622Y-74076738D01*
X77546657Y-74096433D01*
X77685483Y-74287510D01*
X77852490Y-74454517D01*
X78043567Y-74593343D01*
X78136116Y-74640499D01*
X78254003Y-74700566D01*
X78254005Y-74700566D01*
X78254008Y-74700568D01*
X78373357Y-74739347D01*
X78478631Y-74773553D01*
X78711903Y-74810500D01*
X78711908Y-74810500D01*
X78948097Y-74810500D01*
X79181368Y-74773553D01*
X79191149Y-74770375D01*
X79405992Y-74700568D01*
X79616433Y-74593343D01*
X79807510Y-74454517D01*
X79974517Y-74287510D01*
X80113343Y-74096433D01*
X80220568Y-73885992D01*
X80293553Y-73661368D01*
X80299868Y-73621498D01*
X80330500Y-73428097D01*
X80330500Y-73191902D01*
X83829500Y-73191902D01*
X83829500Y-73428097D01*
X83866446Y-73661368D01*
X83939433Y-73885996D01*
X84036622Y-74076738D01*
X84046657Y-74096433D01*
X84185483Y-74287510D01*
X84352490Y-74454517D01*
X84543567Y-74593343D01*
X84636116Y-74640499D01*
X84754003Y-74700566D01*
X84754005Y-74700566D01*
X84754008Y-74700568D01*
X84873357Y-74739347D01*
X84978631Y-74773553D01*
X85211903Y-74810500D01*
X85211908Y-74810500D01*
X85448097Y-74810500D01*
X85681368Y-74773553D01*
X85691149Y-74770375D01*
X85905992Y-74700568D01*
X86116433Y-74593343D01*
X86307510Y-74454517D01*
X86474517Y-74287510D01*
X86613343Y-74096433D01*
X86720568Y-73885992D01*
X86793553Y-73661368D01*
X86799868Y-73621498D01*
X86830500Y-73428097D01*
X86830500Y-73191902D01*
X86793553Y-72958631D01*
X86737036Y-72784692D01*
X86720568Y-72734008D01*
X86720566Y-72734005D01*
X86720566Y-72734003D01*
X86627066Y-72550500D01*
X86613343Y-72523567D01*
X86474517Y-72332490D01*
X86307510Y-72165483D01*
X86116433Y-72026657D01*
X86069686Y-72002838D01*
X85905996Y-71919433D01*
X85681368Y-71846446D01*
X85448097Y-71809500D01*
X85448092Y-71809500D01*
X85211908Y-71809500D01*
X85211903Y-71809500D01*
X84978631Y-71846446D01*
X84754003Y-71919433D01*
X84543566Y-72026657D01*
X84434550Y-72105862D01*
X84352490Y-72165483D01*
X84352488Y-72165485D01*
X84352487Y-72165485D01*
X84185485Y-72332487D01*
X84185485Y-72332488D01*
X84185483Y-72332490D01*
X84136585Y-72399792D01*
X84046657Y-72523566D01*
X83939433Y-72734003D01*
X83866446Y-72958631D01*
X83829500Y-73191902D01*
X80330500Y-73191902D01*
X80293553Y-72958631D01*
X80237036Y-72784692D01*
X80220568Y-72734008D01*
X80220566Y-72734005D01*
X80220566Y-72734003D01*
X80127066Y-72550500D01*
X80113343Y-72523567D01*
X79974517Y-72332490D01*
X79807510Y-72165483D01*
X79616433Y-72026657D01*
X79569686Y-72002838D01*
X79405996Y-71919433D01*
X79181368Y-71846446D01*
X78948097Y-71809500D01*
X78948092Y-71809500D01*
X78711908Y-71809500D01*
X78711903Y-71809500D01*
X78478631Y-71846446D01*
X78254003Y-71919433D01*
X78043566Y-72026657D01*
X77934550Y-72105862D01*
X77852490Y-72165483D01*
X77852488Y-72165485D01*
X77852487Y-72165485D01*
X77685485Y-72332487D01*
X77685485Y-72332488D01*
X77685483Y-72332490D01*
X77636585Y-72399792D01*
X77546657Y-72523566D01*
X77439433Y-72734003D01*
X77366446Y-72958631D01*
X77329500Y-73191902D01*
X70820500Y-73191902D01*
X70820500Y-67257648D01*
X72539500Y-67257648D01*
X72539500Y-67462351D01*
X72571522Y-67664534D01*
X72634781Y-67859223D01*
X72681884Y-67951666D01*
X72727288Y-68040776D01*
X72727715Y-68041613D01*
X72848028Y-68207213D01*
X72992786Y-68351971D01*
X73123899Y-68447228D01*
X73158390Y-68472287D01*
X73258821Y-68523459D01*
X73340776Y-68565218D01*
X73340778Y-68565218D01*
X73340781Y-68565220D01*
X73417465Y-68590136D01*
X73535465Y-68628477D01*
X73623068Y-68642352D01*
X73737648Y-68660500D01*
X73737649Y-68660500D01*
X73942351Y-68660500D01*
X73942352Y-68660500D01*
X74144534Y-68628477D01*
X74339219Y-68565220D01*
X74521610Y-68472287D01*
X74662795Y-68369711D01*
X74687213Y-68351971D01*
X74687215Y-68351968D01*
X74687219Y-68351966D01*
X74831966Y-68207219D01*
X74831968Y-68207215D01*
X74831971Y-68207213D01*
X74902408Y-68110263D01*
X74952287Y-68041610D01*
X75045220Y-67859219D01*
X75108477Y-67664534D01*
X75140500Y-67462352D01*
X75140500Y-67257648D01*
X75131681Y-67201971D01*
X75140635Y-67132679D01*
X75166470Y-67094895D01*
X75792952Y-66468415D01*
X75844501Y-66391266D01*
X75875084Y-66345495D01*
X75901472Y-66281789D01*
X75931659Y-66208912D01*
X75960500Y-66063917D01*
X75960500Y-65942230D01*
X75980185Y-65875191D01*
X75996819Y-65854549D01*
X78354549Y-63496819D01*
X78415872Y-63463334D01*
X78442230Y-63460500D01*
X85895396Y-63460500D01*
X85942844Y-63469937D01*
X85966503Y-63479737D01*
X85966508Y-63479738D01*
X85966511Y-63479739D01*
X86121153Y-63510499D01*
X86121156Y-63510500D01*
X86121158Y-63510500D01*
X86278844Y-63510500D01*
X86278845Y-63510499D01*
X86433497Y-63479737D01*
X86579179Y-63419394D01*
X86710289Y-63331789D01*
X86821789Y-63220289D01*
X86909394Y-63089179D01*
X86969737Y-62943497D01*
X87000500Y-62788842D01*
X87000500Y-62631158D01*
X87000500Y-62631155D01*
X87000499Y-62631153D01*
X86969738Y-62476510D01*
X86969737Y-62476503D01*
X86945095Y-62417011D01*
X86909397Y-62330827D01*
X86909390Y-62330814D01*
X86821789Y-62199711D01*
X86821786Y-62199707D01*
X86710292Y-62088213D01*
X86710288Y-62088210D01*
X86579185Y-62000609D01*
X86579172Y-62000602D01*
X86433501Y-61940264D01*
X86433489Y-61940261D01*
X86278845Y-61909500D01*
X86278842Y-61909500D01*
X86121158Y-61909500D01*
X86121155Y-61909500D01*
X85966511Y-61940260D01*
X85966506Y-61940262D01*
X85966504Y-61940262D01*
X85966503Y-61940263D01*
X85942844Y-61950062D01*
X85895396Y-61959500D01*
X79127345Y-61959500D01*
X79060306Y-61939815D01*
X79014551Y-61887011D01*
X79004607Y-61817853D01*
X79027026Y-61762615D01*
X79042287Y-61741610D01*
X79135220Y-61559219D01*
X79198477Y-61364534D01*
X79230500Y-61162352D01*
X79230500Y-60957648D01*
X79202458Y-60780602D01*
X79198477Y-60755465D01*
X79169127Y-60665137D01*
X79135220Y-60560781D01*
X79135218Y-60560778D01*
X79135218Y-60560776D01*
X79100594Y-60492824D01*
X79042287Y-60378390D01*
X79034556Y-60367749D01*
X78921971Y-60212786D01*
X78777213Y-60068028D01*
X78611613Y-59947715D01*
X78611612Y-59947714D01*
X78611610Y-59947713D01*
X78554653Y-59918691D01*
X78429223Y-59854781D01*
X78234534Y-59791522D01*
X78059995Y-59763878D01*
X78032352Y-59759500D01*
X77827648Y-59759500D01*
X77803329Y-59763351D01*
X77625465Y-59791522D01*
X77430776Y-59854781D01*
X77248386Y-59947715D01*
X77082786Y-60068028D01*
X76938028Y-60212786D01*
X76817715Y-60378386D01*
X76724781Y-60560776D01*
X76661522Y-60755465D01*
X76629500Y-60957648D01*
X76629500Y-61162351D01*
X76661522Y-61364534D01*
X76724781Y-61559223D01*
X76766779Y-61641647D01*
X76817712Y-61741609D01*
X76817715Y-61741613D01*
X76938028Y-61907213D01*
X77082786Y-62051971D01*
X77248388Y-62172286D01*
X77248390Y-62172287D01*
X77300327Y-62198750D01*
X77351123Y-62246724D01*
X77367919Y-62314545D01*
X77345382Y-62380680D01*
X77331714Y-62396916D01*
X74627050Y-65101581D01*
X74627049Y-65101582D01*
X74581507Y-65169743D01*
X74581506Y-65169744D01*
X74544914Y-65224507D01*
X74488343Y-65361082D01*
X74488340Y-65361092D01*
X74459500Y-65506079D01*
X74459500Y-65627770D01*
X74439815Y-65694809D01*
X74423181Y-65715451D01*
X74105105Y-66033526D01*
X74043782Y-66067011D01*
X73998026Y-66068318D01*
X73942352Y-66059500D01*
X73737648Y-66059500D01*
X73713329Y-66063351D01*
X73535465Y-66091522D01*
X73340776Y-66154781D01*
X73158386Y-66247715D01*
X72992786Y-66368028D01*
X72848028Y-66512786D01*
X72727715Y-66678386D01*
X72634781Y-66860776D01*
X72571522Y-67055465D01*
X72539500Y-67257648D01*
X70820500Y-67257648D01*
X70820500Y-56059778D01*
X84369500Y-56059778D01*
X84369500Y-56280221D01*
X84403985Y-56497952D01*
X84472103Y-56707603D01*
X84472104Y-56707606D01*
X84572187Y-56904025D01*
X84701752Y-57082358D01*
X84701756Y-57082363D01*
X84857636Y-57238243D01*
X84857641Y-57238247D01*
X84978445Y-57326015D01*
X85035978Y-57367815D01*
X85164375Y-57433237D01*
X85232393Y-57467895D01*
X85232396Y-57467896D01*
X85337221Y-57501955D01*
X85442049Y-57536015D01*
X85659778Y-57570500D01*
X85659779Y-57570500D01*
X85880221Y-57570500D01*
X85880222Y-57570500D01*
X86097951Y-57536015D01*
X86307606Y-57467895D01*
X86504022Y-57367815D01*
X86682365Y-57238242D01*
X86838242Y-57082365D01*
X86967815Y-56904022D01*
X87067895Y-56707606D01*
X87136015Y-56497951D01*
X87170500Y-56280222D01*
X87170500Y-56059778D01*
X87137239Y-55849778D01*
X95749500Y-55849778D01*
X95749500Y-56070221D01*
X95783985Y-56287952D01*
X95852103Y-56497603D01*
X95852104Y-56497606D01*
X95952187Y-56694025D01*
X96081752Y-56872358D01*
X96081756Y-56872363D01*
X96237636Y-57028243D01*
X96237641Y-57028247D01*
X96312129Y-57082365D01*
X96415978Y-57157815D01*
X96544375Y-57223237D01*
X96612393Y-57257895D01*
X96612396Y-57257896D01*
X96717221Y-57291955D01*
X96822049Y-57326015D01*
X97039778Y-57360500D01*
X97039779Y-57360500D01*
X97260221Y-57360500D01*
X97260222Y-57360500D01*
X97477951Y-57326015D01*
X97687606Y-57257895D01*
X97884022Y-57157815D01*
X98062365Y-57028242D01*
X98218242Y-56872365D01*
X98347815Y-56694022D01*
X98447895Y-56497606D01*
X98516015Y-56287951D01*
X98550500Y-56070222D01*
X98550500Y-55849778D01*
X98516015Y-55632049D01*
X98452309Y-55435978D01*
X98447896Y-55422396D01*
X98447895Y-55422393D01*
X98363948Y-55257641D01*
X98347815Y-55225978D01*
X98331260Y-55203192D01*
X98218247Y-55047641D01*
X98218243Y-55047636D01*
X98062363Y-54891756D01*
X98062358Y-54891752D01*
X97884025Y-54762187D01*
X97884024Y-54762186D01*
X97884022Y-54762185D01*
X97821096Y-54730122D01*
X97687606Y-54662104D01*
X97687603Y-54662103D01*
X97477952Y-54593985D01*
X97369086Y-54576742D01*
X97260222Y-54559500D01*
X97039778Y-54559500D01*
X96967201Y-54570995D01*
X96822047Y-54593985D01*
X96612396Y-54662103D01*
X96612393Y-54662104D01*
X96415974Y-54762187D01*
X96237641Y-54891752D01*
X96237636Y-54891756D01*
X96081756Y-55047636D01*
X96081752Y-55047641D01*
X95952187Y-55225974D01*
X95852104Y-55422393D01*
X95852103Y-55422396D01*
X95783985Y-55632047D01*
X95749500Y-55849778D01*
X87137239Y-55849778D01*
X87136015Y-55842049D01*
X87067895Y-55632394D01*
X87067895Y-55632393D01*
X87033237Y-55564375D01*
X86967815Y-55435978D01*
X86951260Y-55413192D01*
X86838247Y-55257641D01*
X86838243Y-55257636D01*
X86682363Y-55101756D01*
X86682358Y-55101752D01*
X86504025Y-54972187D01*
X86504024Y-54972186D01*
X86504022Y-54972185D01*
X86441096Y-54940122D01*
X86307606Y-54872104D01*
X86307603Y-54872103D01*
X86097952Y-54803985D01*
X85989086Y-54786742D01*
X85880222Y-54769500D01*
X85659778Y-54769500D01*
X85587201Y-54780995D01*
X85442047Y-54803985D01*
X85232396Y-54872103D01*
X85232393Y-54872104D01*
X85035974Y-54972187D01*
X84857641Y-55101752D01*
X84857636Y-55101756D01*
X84701756Y-55257636D01*
X84701752Y-55257641D01*
X84572187Y-55435974D01*
X84472104Y-55632393D01*
X84472103Y-55632396D01*
X84403985Y-55842047D01*
X84369500Y-56059778D01*
X70820500Y-56059778D01*
X70820500Y-50797648D01*
X76629500Y-50797648D01*
X76629500Y-51002351D01*
X76661522Y-51204534D01*
X76724781Y-51399223D01*
X76788691Y-51524653D01*
X76802805Y-51552352D01*
X76817715Y-51581613D01*
X76938028Y-51747213D01*
X77082786Y-51891971D01*
X77237749Y-52004556D01*
X77248390Y-52012287D01*
X77364607Y-52071503D01*
X77430776Y-52105218D01*
X77430778Y-52105218D01*
X77430781Y-52105220D01*
X77535137Y-52139127D01*
X77625465Y-52168477D01*
X77726557Y-52184488D01*
X77827648Y-52200500D01*
X77827649Y-52200500D01*
X78032351Y-52200500D01*
X78032352Y-52200500D01*
X78234534Y-52168477D01*
X78429219Y-52105220D01*
X78611610Y-52012287D01*
X78704590Y-51944732D01*
X78777213Y-51891971D01*
X78777215Y-51891968D01*
X78777219Y-51891966D01*
X78921966Y-51747219D01*
X78921968Y-51747215D01*
X78921971Y-51747213D01*
X78974732Y-51674590D01*
X79042287Y-51581610D01*
X79135220Y-51399219D01*
X79151976Y-51347648D01*
X100719500Y-51347648D01*
X100719500Y-51552351D01*
X100751522Y-51754534D01*
X100814781Y-51949223D01*
X100907715Y-52131613D01*
X101028028Y-52297213D01*
X101172786Y-52441971D01*
X101327749Y-52554556D01*
X101338390Y-52562287D01*
X101454607Y-52621503D01*
X101520776Y-52655218D01*
X101520778Y-52655218D01*
X101520781Y-52655220D01*
X101625137Y-52689127D01*
X101715465Y-52718477D01*
X101816557Y-52734488D01*
X101917648Y-52750500D01*
X101917649Y-52750500D01*
X102122351Y-52750500D01*
X102122352Y-52750500D01*
X102324534Y-52718477D01*
X102519219Y-52655220D01*
X102701610Y-52562287D01*
X102794590Y-52494732D01*
X102867213Y-52441971D01*
X102867215Y-52441968D01*
X102867219Y-52441966D01*
X103011966Y-52297219D01*
X103011968Y-52297215D01*
X103011971Y-52297213D01*
X103082236Y-52200500D01*
X103132287Y-52131610D01*
X103225220Y-51949219D01*
X103288477Y-51754534D01*
X103320500Y-51552352D01*
X103320500Y-51347648D01*
X103288477Y-51145466D01*
X103225220Y-50950781D01*
X103225218Y-50950778D01*
X103225218Y-50950776D01*
X103191503Y-50884607D01*
X103132287Y-50768390D01*
X103124556Y-50757749D01*
X103011971Y-50602786D01*
X102867213Y-50458028D01*
X102701613Y-50337715D01*
X102701612Y-50337714D01*
X102701610Y-50337713D01*
X102644653Y-50308691D01*
X102519223Y-50244781D01*
X102324534Y-50181522D01*
X102149995Y-50153878D01*
X102122352Y-50149500D01*
X101917648Y-50149500D01*
X101893329Y-50153351D01*
X101715465Y-50181522D01*
X101520776Y-50244781D01*
X101338386Y-50337715D01*
X101172786Y-50458028D01*
X101028028Y-50602786D01*
X100907715Y-50768386D01*
X100814781Y-50950776D01*
X100751522Y-51145465D01*
X100719500Y-51347648D01*
X79151976Y-51347648D01*
X79198477Y-51204534D01*
X79230500Y-51002352D01*
X79230500Y-50797648D01*
X79225865Y-50768386D01*
X79198477Y-50595465D01*
X79169127Y-50505137D01*
X79135220Y-50400781D01*
X79135218Y-50400778D01*
X79135218Y-50400776D01*
X79101503Y-50334607D01*
X79042287Y-50218390D01*
X78992236Y-50149500D01*
X78921971Y-50052786D01*
X78777213Y-49908028D01*
X78611613Y-49787715D01*
X78611612Y-49787714D01*
X78611610Y-49787713D01*
X78554653Y-49758691D01*
X78429223Y-49694781D01*
X78234534Y-49631522D01*
X78059995Y-49603878D01*
X78032352Y-49599500D01*
X77827648Y-49599500D01*
X77803329Y-49603351D01*
X77625465Y-49631522D01*
X77430776Y-49694781D01*
X77248386Y-49787715D01*
X77082786Y-49908028D01*
X76938028Y-50052786D01*
X76817715Y-50218386D01*
X76724781Y-50400776D01*
X76661522Y-50595465D01*
X76629500Y-50797648D01*
X70820500Y-50797648D01*
X70820500Y-29972135D01*
X96429500Y-29972135D01*
X96429500Y-31767870D01*
X96429501Y-31767876D01*
X96435908Y-31827483D01*
X96486202Y-31962328D01*
X96486206Y-31962335D01*
X96572452Y-32077544D01*
X96572455Y-32077547D01*
X96687664Y-32163793D01*
X96687671Y-32163797D01*
X96822517Y-32214091D01*
X96822516Y-32214091D01*
X96829444Y-32214835D01*
X96882127Y-32220500D01*
X98677872Y-32220499D01*
X98737483Y-32214091D01*
X98872331Y-32163796D01*
X98987546Y-32077546D01*
X99073796Y-31962331D01*
X99124091Y-31827483D01*
X99130500Y-31767873D01*
X99130499Y-29972128D01*
X99124091Y-29912517D01*
X99073796Y-29777669D01*
X99073795Y-29777668D01*
X99073793Y-29777664D01*
X98987547Y-29662455D01*
X98987544Y-29662452D01*
X98872335Y-29576206D01*
X98872328Y-29576202D01*
X98737482Y-29525908D01*
X98737483Y-29525908D01*
X98677883Y-29519501D01*
X98677881Y-29519500D01*
X98677873Y-29519500D01*
X98677864Y-29519500D01*
X96882129Y-29519500D01*
X96882123Y-29519501D01*
X96822516Y-29525908D01*
X96687671Y-29576202D01*
X96687664Y-29576206D01*
X96572455Y-29662452D01*
X96572452Y-29662455D01*
X96486206Y-29777664D01*
X96486202Y-29777671D01*
X96435908Y-29912517D01*
X96429501Y-29972116D01*
X96429501Y-29972123D01*
X96429500Y-29972135D01*
X70820500Y-29972135D01*
X70820500Y-19884500D01*
X70840185Y-19817461D01*
X70892989Y-19771706D01*
X70944500Y-19760500D01*
X189675500Y-19760500D01*
X189742539Y-19780185D01*
G37*
%TD.AperFunction*%
%TD*%
M02*
