%TF.GenerationSoftware,KiCad,Pcbnew,10.0.1*%
%TF.CreationDate,2026-06-17T19:45:49+05:30*%
%TF.ProjectId,Cycling device PCB,4379636c-696e-4672-9064-657669636520,rev?*%
%TF.SameCoordinates,Original*%
%TF.FileFunction,Soldermask,Top*%
%TF.FilePolarity,Negative*%
%FSLAX46Y46*%
G04 Gerber Fmt 4.6, Leading zero omitted, Abs format (unit mm)*
G04 Created by KiCad (PCBNEW 10.0.1) date 2026-06-17 19:45:49*
%MOMM*%
%LPD*%
G01*
G04 APERTURE LIST*
G04 Aperture macros list*
%AMRoundRect*
0 Rectangle with rounded corners*
0 $1 Rounding radius*
0 $2 $3 $4 $5 $6 $7 $8 $9 X,Y pos of 4 corners*
0 Add a 4 corners polygon primitive as box body*
4,1,4,$2,$3,$4,$5,$6,$7,$8,$9,$2,$3,0*
0 Add four circle primitives for the rounded corners*
1,1,$1+$1,$2,$3*
1,1,$1+$1,$4,$5*
1,1,$1+$1,$6,$7*
1,1,$1+$1,$8,$9*
0 Add four rect primitives between the rounded corners*
20,1,$1+$1,$2,$3,$4,$5,0*
20,1,$1+$1,$4,$5,$6,$7,0*
20,1,$1+$1,$6,$7,$8,$9,0*
20,1,$1+$1,$8,$9,$2,$3,0*%
G04 Aperture macros list end*
%ADD10C,1.600000*%
%ADD11R,1.700000X1.700000*%
%ADD12C,1.700000*%
%ADD13R,1.500000X0.900000*%
%ADD14R,0.900000X1.500000*%
%ADD15C,0.600000*%
%ADD16R,4.200000X4.200000*%
%ADD17RoundRect,0.250000X-0.550000X-0.550000X0.550000X-0.550000X0.550000X0.550000X-0.550000X0.550000X0*%
%ADD18R,1.800000X1.800000*%
%ADD19C,1.800000*%
%ADD20R,2.800000X2.200000*%
%ADD21R,2.800000X2.800000*%
%ADD22C,2.000000*%
%ADD23RoundRect,0.375000X-0.625000X-0.375000X0.625000X-0.375000X0.625000X0.375000X-0.625000X0.375000X0*%
%ADD24RoundRect,0.500000X-0.500000X-1.400000X0.500000X-1.400000X0.500000X1.400000X-0.500000X1.400000X0*%
G04 APERTURE END LIST*
D10*
%TO.C,C4*%
X140850000Y-90630000D03*
X145850000Y-90630000D03*
%TD*%
D11*
%TO.C,J9*%
X135160000Y-100010000D03*
D12*
X135160000Y-102550000D03*
X135160000Y-105090000D03*
X135160000Y-107630000D03*
X135160000Y-110170000D03*
X135160000Y-112710000D03*
X135160000Y-115250000D03*
%TD*%
D10*
%TO.C,C7*%
X142610000Y-112470000D03*
X142610000Y-107470000D03*
%TD*%
D11*
%TO.C,J6*%
X158210000Y-66440000D03*
D12*
X158210000Y-68980000D03*
X158210000Y-71520000D03*
X158210000Y-74060000D03*
X158210000Y-76600000D03*
X158210000Y-79140000D03*
X158210000Y-81680000D03*
X158210000Y-84220000D03*
%TD*%
D11*
%TO.C,J7*%
X175030000Y-21810000D03*
D12*
X175030000Y-24350000D03*
X175030000Y-26890000D03*
X175030000Y-29430000D03*
X175030000Y-31970000D03*
X175030000Y-34510000D03*
X175030000Y-37050000D03*
X175030000Y-39590000D03*
%TD*%
D10*
%TO.C,C8*%
X181120000Y-27250000D03*
X181120000Y-22250000D03*
%TD*%
D13*
%TO.C,U1*%
X126310000Y-63050000D03*
X126310000Y-64320000D03*
X126310000Y-65590000D03*
X126310000Y-66860000D03*
X126310000Y-68130000D03*
X126310000Y-69400000D03*
X126310000Y-70670000D03*
X126310000Y-71940000D03*
X126310000Y-73210000D03*
X126310000Y-74480000D03*
X126310000Y-75750000D03*
X126310000Y-77020000D03*
X126310000Y-78290000D03*
X126310000Y-79560000D03*
D14*
X129350000Y-80810000D03*
X130620000Y-80810000D03*
X131890000Y-80810000D03*
X133160000Y-80810000D03*
X134430000Y-80810000D03*
X135700000Y-80810000D03*
X136970000Y-80810000D03*
X138240000Y-80810000D03*
X139510000Y-80810000D03*
X140780000Y-80810000D03*
D13*
X143810000Y-79560000D03*
X143810000Y-78290000D03*
X143810000Y-77020000D03*
X143810000Y-75750000D03*
X143810000Y-74480000D03*
X143810000Y-73210000D03*
X143810000Y-71940000D03*
X143810000Y-70670000D03*
X143810000Y-69400000D03*
X143810000Y-68130000D03*
X143810000Y-66860000D03*
X143810000Y-65590000D03*
X143810000Y-64320000D03*
X143810000Y-63050000D03*
D15*
X132855000Y-69627500D03*
X132855000Y-71152500D03*
X133617500Y-68865000D03*
X133617500Y-70390000D03*
X133617500Y-71915000D03*
X134380000Y-69627500D03*
D16*
X134380000Y-70390000D03*
D15*
X134380000Y-71152500D03*
X135142500Y-68865000D03*
X135142500Y-70390000D03*
X135142500Y-71915000D03*
X135905000Y-69627500D03*
X135905000Y-71152500D03*
%TD*%
D10*
%TO.C,C9*%
X187470000Y-27400000D03*
X187470000Y-22400000D03*
%TD*%
%TO.C,C3*%
X125580000Y-90510000D03*
X130580000Y-90510000D03*
%TD*%
D11*
%TO.C,J4*%
X150440000Y-109940000D03*
D12*
X150440000Y-112480000D03*
X150440000Y-115020000D03*
%TD*%
D10*
%TO.C,R1*%
X73840000Y-67360000D03*
X73840000Y-77520000D03*
%TD*%
D11*
%TO.C,J1*%
X97780000Y-30870000D03*
D12*
X97780000Y-33410000D03*
%TD*%
D10*
%TO.C,R5*%
X102020000Y-61610000D03*
X102020000Y-51450000D03*
%TD*%
%TO.C,R2*%
X105350000Y-68540000D03*
X105350000Y-78700000D03*
%TD*%
D17*
%TO.C,C2*%
X77800000Y-96110000D03*
D10*
X80300000Y-96110000D03*
%TD*%
D17*
%TO.C,C1*%
X77874888Y-87100000D03*
D10*
X80374888Y-87100000D03*
%TD*%
D18*
%TO.C,D1*%
X83230000Y-56170000D03*
D19*
X85770000Y-56170000D03*
%TD*%
D11*
%TO.C,J5*%
X166780000Y-107260000D03*
D12*
X166780000Y-109800000D03*
X166780000Y-112340000D03*
X166780000Y-114880000D03*
X166780000Y-117420000D03*
X166780000Y-119960000D03*
%TD*%
D10*
%TO.C,R4*%
X77930000Y-61060000D03*
X77930000Y-50900000D03*
%TD*%
D12*
%TO.C,J2*%
X182890000Y-122160000D03*
X182890000Y-115160000D03*
D20*
X179190000Y-121260000D03*
X186590000Y-123260000D03*
D21*
X186590000Y-113860000D03*
%TD*%
D22*
%TO.C,SW2*%
X93410000Y-68560000D03*
X99910000Y-68560000D03*
X93410000Y-73060000D03*
X99910000Y-73060000D03*
%TD*%
D11*
%TO.C,J8*%
X117700000Y-109260000D03*
D12*
X117700000Y-106720000D03*
%TD*%
D18*
%TO.C,D2*%
X94610000Y-55960000D03*
D19*
X97150000Y-55960000D03*
%TD*%
D22*
%TO.C,SW1*%
X78830000Y-68810000D03*
X85330000Y-68810000D03*
X78830000Y-73310000D03*
X85330000Y-73310000D03*
%TD*%
D23*
%TO.C,U2*%
X86700000Y-89250000D03*
X86700000Y-91550000D03*
D24*
X93000000Y-91550000D03*
D23*
X86700000Y-93850000D03*
%TD*%
D11*
%TO.C,J3*%
X87560000Y-104980000D03*
D12*
X85020000Y-104980000D03*
X82480000Y-104980000D03*
X79940000Y-104980000D03*
X77400000Y-104980000D03*
X74860000Y-104980000D03*
%TD*%
M02*
